<svg width="2003" height="945" viewBox="0 0 2003 945" fill="none" xmlns="http://www.w3.org/2000/svg">
<rect width="2003" height="945" rx="100" fill="url(#paint0_linear_24_1811)"/>
<g clip-path="url(#clip0_24_1811)">
<path d="M554.854 480.724C559.07 480.724 561.867 483.541 561.867 487.758V514.417C561.867 518.634 559.05 522.141 554.854 522.141C550.658 522.141 547.821 518.634 547.821 514.417V487.758C547.821 483.541 550.618 480.724 554.854 480.724Z" fill="white"/>
<path d="M636.965 480.724C641.181 480.724 643.978 483.541 643.978 487.758V514.417C643.978 518.634 641.161 522.141 636.965 522.141C632.769 522.141 629.932 518.634 629.932 514.417V487.758C629.932 483.541 632.749 480.724 636.965 480.724Z" fill="white"/>
<path d="M816.593 438.617C820.828 438.617 823.606 442.144 823.606 446.341V514.437C823.606 518.674 820.808 522.161 816.593 522.161C812.377 522.161 809.56 518.674 809.56 514.437V446.341C809.56 442.144 812.377 438.617 816.593 438.617Z" fill="white"/>
<path d="M1347.12 438.617C1351.34 438.617 1354.14 442.144 1354.14 446.341V514.437C1354.14 518.674 1351.32 522.161 1347.12 522.161C1342.93 522.161 1340.09 518.674 1340.09 514.437V446.341C1340.09 442.144 1342.91 438.617 1347.12 438.617Z" fill="white"/>
<path d="M1459.39 438.617C1463.61 438.617 1467.12 442.144 1467.12 446.341V514.437C1467.12 518.674 1463.61 522.161 1459.39 522.161C1455.89 522.161 1452.36 518.674 1452.36 514.437V446.341C1452.36 442.144 1455.89 438.617 1459.39 438.617Z" fill="white"/>
<path d="M1548.52 468.803C1552.73 468.803 1555.53 471.62 1555.53 475.837V514.437C1555.53 518.673 1552.72 522.161 1548.52 522.161C1544.32 522.161 1540.8 518.673 1540.8 514.437V475.837C1540.8 471.62 1544.3 468.803 1548.52 468.803Z" fill="white"/>
<path d="M1505.71 447.03C1505.71 442.813 1509.24 439.306 1513.43 439.306H1582.92C1586.4 439.306 1589.93 442.813 1589.93 447.03C1589.93 450.537 1586.4 454.064 1582.92 454.064H1513.43C1509.24 454.064 1505.71 450.537 1505.71 447.03Z" fill="white"/>
<path d="M1754.84 438.617C1759.08 438.617 1762.56 442.144 1762.56 446.341V514.437C1762.56 518.674 1759.08 522.161 1754.84 522.161C1751.33 522.161 1747.81 518.674 1747.81 514.437V446.341C1747.81 442.144 1751.33 438.617 1754.84 438.617Z" fill="white"/>
<path d="M1776.59 514.417C1776.59 510.91 1779.41 507.403 1783.6 507.403H1815.87C1819.4 507.403 1822.91 510.93 1822.91 514.417C1822.91 518.654 1819.4 522.141 1815.87 522.141H1783.6C1779.39 522.141 1776.59 518.654 1776.59 514.417Z" fill="white"/>
<path d="M549.239 440.016C552.056 437.198 556.962 437.198 559.759 440.016L595.555 475.108L631.331 440.016C634.148 437.198 638.364 437.198 641.161 440.016C643.978 442.833 643.978 447.05 641.161 449.828L601.859 489.827C601.169 489.827 601.169 490.536 600.48 491.246C599.061 492.625 597.663 493.334 595.555 493.334C593.447 493.334 591.339 492.625 589.921 491.246C589.921 490.536 589.231 489.827 589.231 489.827L549.239 449.828C546.422 447.03 546.422 442.814 549.239 440.016Z" fill="white"/>
<path d="M1658.7 440.016C1662.21 437.907 1666.43 439.306 1668.51 442.833L1708.51 511.62C1709.92 515.127 1709.21 519.344 1705.69 521.432C1702.18 523.56 1697.26 522.141 1695.86 518.654L1655.87 449.848C1653.76 446.341 1655.16 442.124 1658.68 440.035" fill="white"/>
<path d="M1380.1 452.665C1406.05 452.665 1403.25 482.142 1380.1 481.433C1369.58 480.724 1368.87 493.354 1380.1 494.063C1421.49 496.172 1421.49 437.218 1380.1 440.016C1369.58 440.016 1368.87 452.646 1380.1 452.646" fill="white"/>
<path d="M847.483 453.355C871.34 454.065 869.252 482.832 848.172 480.724C841.139 480.015 841.848 495.462 855.895 492.645C892.399 484.921 884.677 437.198 848.172 439.306C836.963 440.016 837.652 452.646 847.483 453.335" fill="white"/>
<path d="M841.868 482.832C844.685 480.014 849.591 480.014 852.388 482.832L879.752 510.201C882.549 513.018 882.549 517.925 879.752 520.723C876.954 523.54 872.029 523.54 869.232 520.723L841.868 492.645C839.051 489.847 839.051 485.63 841.868 482.832Z" fill="white"/>
<path d="M1647.47 468.093C1651 470.202 1652.4 474.418 1650.29 477.906L1627.12 518.634C1625.02 522.121 1620.8 523.54 1617.31 521.412C1613.79 519.324 1612.39 515.107 1614.5 511.6L1637.66 470.182C1639.77 467.384 1644.68 465.965 1647.47 468.074" fill="white"/>
<path d="M1626.41 496.881C1626.41 493.354 1629.94 489.866 1634.14 489.866H1658.7C1662.21 489.866 1665.72 493.373 1665.72 496.881C1665.72 501.097 1662.21 504.585 1658.7 504.585H1634.14C1629.94 504.585 1626.41 501.097 1626.41 496.881Z" fill="white"/>
<path d="M1250.98 440.016C1254.49 437.907 1258.71 439.306 1260.8 442.833L1300.79 511.62C1302.88 515.127 1301.5 519.344 1297.97 521.432C1294.46 523.56 1290.25 522.141 1288.16 518.654L1248.17 449.848C1246.06 446.341 1247.46 442.124 1250.98 440.035" fill="white"/>
<path d="M1240.46 468.093C1243.97 470.202 1244.68 474.418 1242.57 477.906L1219.41 518.634C1217.3 522.121 1213.08 523.54 1209.57 521.412C1206.07 519.324 1204.67 515.107 1206.78 511.6L1229.94 470.182C1232.05 467.384 1236.96 465.965 1240.46 468.074" fill="white"/>
<path d="M1219.41 496.881C1219.41 493.354 1222.2 489.866 1226.42 489.866H1250.98C1255.2 489.866 1258 493.373 1258 496.881C1258 501.097 1255.2 504.585 1250.98 504.585H1226.42C1222.18 504.585 1219.41 501.097 1219.41 496.881Z" fill="white"/>
<path d="M756.25 480.015C756.25 491.955 749.217 501.787 739.407 505.984H738.697C730.995 509.492 732.393 521.412 742.933 519.304C759.067 513.708 770.277 498.26 770.277 479.995C770.277 461.729 759.067 447.011 743.622 441.395C733.102 438.577 731.014 449.808 738.008 454.025C748.528 457.552 756.25 468.054 756.25 479.975" fill="white"/>
<path d="M700.814 480.015C700.814 491.955 707.827 501.787 717.657 505.984H719.056C726.07 509.492 724.671 521.412 714.84 519.304C698.706 513.708 687.477 498.26 687.477 479.995C687.477 461.729 698.706 447.011 714.131 441.395C724.651 438.577 726.05 449.808 719.056 454.025C708.536 457.552 700.814 468.054 700.814 479.975" fill="white"/>
<path d="M987.828 480.015C987.828 491.955 980.795 501.787 970.984 505.984H970.294C962.572 509.492 963.971 521.412 973.801 519.304C989.936 513.708 1001.87 498.26 1001.87 479.995C1001.87 461.729 990.645 447.011 974.51 441.395C964.7 438.577 962.592 449.808 969.585 454.025C980.105 457.552 987.828 468.054 987.828 479.975" fill="white"/>
<path d="M932.391 480.015C932.391 491.955 939.404 501.787 949.235 505.984H949.944C957.667 509.492 956.248 521.412 946.418 519.304C930.283 513.708 918.365 498.26 918.365 479.995C918.365 461.729 929.574 447.011 945.728 441.395C955.539 438.577 957.647 449.808 950.653 454.025C940.114 457.552 932.391 468.054 932.391 479.975" fill="white"/>
<path d="M1155.56 442.833C1159.77 444.942 1164.68 447.759 1168.87 452.646C1176.6 461.059 1163.95 465.256 1161.15 462.478C1156.94 457.552 1153.43 454.754 1147.12 452.646C1142.91 451.227 1145.02 438.597 1155.54 442.833" fill="white"/>
<path d="M1109.93 479.325C1109.93 490.536 1116.94 500.388 1127.48 503.896C1127.48 504.585 1128.19 504.585 1128.19 504.585C1135.21 508.112 1134.5 519.324 1123.98 517.215C1107.82 511.62 1096.61 496.881 1096.61 479.325C1096.61 461.769 1107.82 447.03 1123.27 441.415C1133.79 439.306 1135.9 449.828 1128.9 454.045C1117.65 457.552 1109.93 467.384 1109.93 479.305" fill="white"/>
<path d="M1155.56 515.816C1159.77 513.708 1165.37 510.89 1169.58 505.294C1176.62 496.171 1163.95 492.664 1161.17 496.171C1157.66 500.388 1154.14 503.206 1147.14 505.294C1142.93 507.403 1145.04 520.033 1155.56 515.816Z" fill="white"/>
<path d="M114 650H1889V296H114V650ZM325.385 588.11H281.177V479.325H325.385M411.002 588.11H367.484V483.542C367.484 448.429 338.722 419.662 303.635 419.662C268.549 419.662 239.787 448.429 239.787 483.542V588.11H196.978V484.231C196.978 425.277 245.401 376.845 304.345 376.845C363.288 376.845 411.002 425.277 411.002 484.231V588.11ZM1878.91 639.931H475.56V306.088H1878.91V639.931Z" fill="white"/>
</g>
<defs>
<linearGradient id="paint0_linear_24_1811" x1="1001.5" y1="0" x2="1001.5" y2="945" gradientUnits="userSpaceOnUse">
<stop stop-color="#00A74F"/>
<stop offset="1" stop-color="#17172F"/>
</linearGradient>
<clipPath id="clip0_24_1811">
<rect width="1775" height="354" fill="white" transform="translate(114 296)"/>
</clipPath>
</defs>
</svg>
