<svg width="2009" height="916" viewBox="0 0 2009 916" fill="none" xmlns="http://www.w3.org/2000/svg">
<rect width="2009" height="916" rx="100" fill="url(#paint0_linear_24_1813)"/>
<g clip-path="url(#clip0_24_1813)">
<path d="M562.039 303.794H550.054V618.072H562.039V303.794Z" fill="white"/>
<path fill-rule="evenodd" clip-rule="evenodd" d="M493.444 305.972L486.401 305.839L460.367 324.832L450.276 325.627L430.206 347.403L405.101 357.629L405.158 368.99L372.479 395.766L188.901 443.73L152.53 536.989L188.39 508.964L152 550.604L152.341 594.118L160.047 618.091H189.602L184.149 603.813L176.841 603.681L177.049 562.287L261.794 508.49L373.634 521.499L373.766 593.758L382.4 618.072L430.812 618.015L426.155 603.927H403.435V535.114L477.35 430.172L492.895 354.448L503.516 341.287V333.05L493.349 332.974L493.425 305.953L493.444 305.972Z" fill="white"/>
<path fill-rule="evenodd" clip-rule="evenodd" d="M228.301 618.091L202.533 618.167L193.899 593.797V571.149L260.318 529.964L215.692 571.017L215.559 603.567L223.398 603.832L228.32 618.11L228.301 618.091Z" fill="white"/>
<path d="M609.959 456.076C618.858 462.458 627.984 466.851 637.375 469.274C646.747 471.698 655.399 472.891 663.333 472.891L669.126 472.607C675.109 472.228 680.183 470.183 684.349 466.51C688.495 462.836 690.578 458.481 690.578 453.463C690.578 447.479 688.741 442.783 685.068 439.394C681.395 436.004 676.075 433.069 669.126 430.551C649.985 423.582 634.951 415.269 624.027 405.612C613.102 395.955 607.65 383.192 607.65 367.324C607.65 355.925 610.111 345.472 615.053 336.004C619.975 326.536 626.886 319 635.785 313.376C644.664 307.771 654.831 304.684 666.229 304.097L673.197 303.813C685.958 303.813 700.839 306.805 717.861 312.808L712.635 352.838C696.977 346.457 682.853 343.56 670.3 344.147C663.73 344.544 658.656 346.703 655.078 350.679C651.499 354.637 649.719 359.522 649.719 365.317C649.719 371.111 651.745 375.997 655.816 379.386C659.868 382.776 665.567 385.73 672.932 388.229C691.297 395.008 705.895 403.454 716.725 413.603C727.554 423.753 732.969 436.478 732.969 451.74C732.969 463.916 730.167 474.804 724.563 484.366C718.959 493.929 710.969 501.427 700.631 506.843C690.294 512.259 678.252 514.967 664.525 514.967C656.403 514.967 647.126 513.811 636.674 511.482C626.242 509.153 615.602 505.196 604.772 499.591L609.997 456.095L609.959 456.076Z" fill="white"/>
<path d="M802.549 512.921V347.025H750.937V305.839H895.644V347.025H844.032V512.921H802.568H802.549Z" fill="white"/>
<path d="M989.838 433.732H969.825V512.921H928.361V305.536H1010.13C1023.08 305.536 1034.2 308.528 1043.48 314.531C1052.75 320.534 1059.72 328.316 1064.36 337.879C1069 347.441 1071.33 357.648 1071.33 368.479C1071.33 382.018 1067.75 394.289 1060.59 405.309C1053.43 416.33 1043.38 423.677 1030.43 427.35L1078.58 512.903H1031.6L989.838 433.713V433.732ZM1006.37 393.418C1013.13 393.418 1018.35 391.145 1022.02 386.601C1025.7 382.056 1027.53 376.602 1027.53 370.221C1027.53 363.84 1025.7 358.386 1022.02 353.842C1018.35 349.297 1013.13 347.025 1006.37 347.025H969.825V393.436H1006.37V393.418Z" fill="white"/>
<path d="M1188.66 298H1193.01L1280.29 512.922H1233.6L1225.2 490.596H1156.47L1148.35 512.922H1101.37L1188.66 298ZM1209.82 451.721L1190.97 397.773L1171.54 451.721H1209.82Z" fill="white"/>
<path d="M1328.2 512.921V347.025H1276.58V305.839H1421.29V347.025H1369.68V512.921H1328.21H1328.2Z" fill="white"/>
<path d="M1490.87 500.727C1474.72 490.672 1462.6 477.474 1454.48 461.132C1446.36 444.79 1442.31 427.351 1442.31 408.775C1442.31 390.198 1446.36 373.062 1454.48 356.72C1462.6 340.378 1474.74 327.18 1490.87 317.125C1507 307.07 1526.48 302.052 1549.3 302.052C1572.11 302.052 1591.6 307.089 1607.73 317.125C1623.86 327.18 1635.99 340.378 1644.12 356.72C1652.24 373.062 1656.29 390.407 1656.29 408.775C1656.29 427.142 1652.24 444.79 1644.12 461.132C1635.99 477.474 1623.86 490.672 1607.73 500.727C1591.58 510.782 1572.09 515.819 1549.3 515.819C1526.5 515.819 1507 510.801 1490.87 500.727ZM1583.23 463.764C1592.69 457.667 1599.79 449.752 1604.55 439.981C1609.28 430.229 1611.65 419.814 1611.65 408.793C1611.65 397.773 1609.28 387.339 1604.55 377.474C1599.81 367.608 1592.69 359.693 1583.23 353.69C1573.76 347.707 1562.44 344.696 1549.3 344.696C1536.16 344.696 1524.89 347.688 1515.52 353.69C1506.15 359.693 1499.09 367.57 1494.35 377.322C1489.62 387.093 1487.25 397.583 1487.25 408.793C1487.25 420.003 1489.62 430.21 1494.35 439.981C1499.09 449.752 1506.15 457.667 1515.52 463.764C1524.89 469.861 1536.16 472.891 1549.3 472.891C1562.44 472.891 1573.76 469.843 1583.23 463.764Z" fill="white"/>
<path d="M1740 512.921H1698.53V301.181H1709.55L1814.23 422.995V305.839H1856V517.277H1844.98L1740 400.102V512.921Z" fill="white"/>
<path d="M613.86 610.251H635.065V618.053H605.472V567.021H613.86V610.251Z" fill="white"/>
<path d="M678.517 598.454C678.517 599.193 678.46 600.083 678.366 601.143H646.444C646.936 604.306 648.262 606.805 650.42 608.661C652.578 610.517 655.267 611.425 658.467 611.425C660.019 611.425 661.477 611.198 662.84 610.725C664.203 610.27 665.396 609.608 666.457 608.756C667.498 607.903 668.369 606.881 669.05 605.65H677.57C676.018 609.835 673.538 613.092 670.13 615.459C666.722 617.826 662.84 619 658.467 619C652.692 619 647.864 617.03 644.002 613.092C640.139 609.153 638.208 604.249 638.208 598.36C638.208 592.471 640.139 587.566 644.002 583.628C647.864 579.689 652.692 577.72 658.467 577.72C662.405 577.72 665.908 578.648 668.956 580.522C672.023 582.397 674.371 584.896 676.018 588.04C677.665 591.183 678.498 594.629 678.498 598.436L678.517 598.454ZM658.467 585.029C655.456 585.029 652.881 585.881 650.78 587.585C648.659 589.289 647.277 591.619 646.596 594.592H670.433C669.94 592.603 669.145 590.88 668.028 589.46C666.911 588.021 665.529 586.941 663.901 586.184C662.272 585.427 660.455 585.048 658.467 585.048V585.029Z" fill="white"/>
<path d="M720.057 578.685H726.324V618.053H719.773L718.978 613.243C715.191 617.087 710.458 619 704.759 619C699.06 619 693.986 617.03 690.066 613.092C686.147 609.153 684.197 604.23 684.197 598.322C684.197 592.414 686.147 587.51 690.066 583.59C693.986 579.67 698.87 577.72 704.759 577.72C710.647 577.72 715.323 579.67 719.11 583.552L720.057 578.667V578.685ZM696.106 607.6C698.567 610.062 701.654 611.274 705.364 611.274C709.075 611.274 712.143 610.043 714.547 607.6C716.952 605.139 718.163 602.052 718.163 598.341C718.163 594.629 716.952 591.543 714.547 589.119C712.143 586.695 709.075 585.464 705.327 585.464C702.903 585.464 700.707 586.033 698.738 587.15C696.769 588.267 695.235 589.82 694.118 591.77C693.001 593.739 692.433 595.936 692.433 598.36C692.433 602.052 693.664 605.12 696.106 607.582V607.6Z" fill="white"/>
<path d="M758.7 577.814C763.263 577.814 766.898 579.348 769.605 582.416C772.294 585.483 773.657 589.46 773.657 594.364V618.053H765.572V595.955C765.572 592.414 764.815 589.706 763.282 587.831C761.748 585.957 759.495 585.029 756.541 585.029C753.588 585.029 750.956 586.146 748.968 588.381C746.98 590.615 745.976 593.493 745.976 596.977V618.053H737.892V578.685H743.496L745.106 584.158C746.62 582.17 748.551 580.617 750.899 579.5C753.247 578.383 755.86 577.814 758.738 577.814H758.7Z" fill="white"/>
<path d="M826.708 618.943C819.173 618.943 812.925 616.462 807.945 611.463C802.966 606.483 800.467 600.178 800.467 592.546C800.467 584.915 802.966 578.61 807.945 573.63C812.925 568.649 819.192 566.15 826.708 566.15C830.684 566.15 834.395 566.926 837.784 568.479C841.192 570.032 844.032 572.247 846.342 575.107C848.652 577.966 850.242 581.299 851.113 585.086H842.65C841.438 581.677 839.412 579.026 836.591 577.095C833.77 575.182 830.476 574.217 826.67 574.217C821.577 574.217 817.336 575.94 813.985 579.386C810.634 582.832 808.949 587.225 808.949 592.546C808.949 597.867 810.634 602.242 813.985 605.669C817.336 609.096 821.558 610.801 826.67 610.801C830.552 610.801 833.941 609.759 836.8 607.695C839.659 605.631 841.665 602.791 842.783 599.193H851.303C849.996 605.177 847.099 609.948 842.631 613.527C838.163 617.106 832.843 618.886 826.67 618.886L826.708 618.943Z" fill="white"/>
<path d="M892.634 613.149C888.62 617.068 883.603 619.019 877.582 619.019C871.561 619.019 866.544 617.068 862.53 613.149C858.516 609.229 856.509 604.325 856.509 598.379C856.509 594.497 857.418 590.975 859.236 587.813C861.053 584.65 863.59 582.189 866.809 580.409C870.047 578.629 873.625 577.739 877.563 577.739C881.501 577.739 885.08 578.629 888.317 580.409C891.555 582.189 894.073 584.65 895.891 587.813C897.708 590.975 898.617 594.497 898.617 598.379C898.617 604.306 896.61 609.229 892.596 613.149H892.634ZM877.582 611.274C880.062 611.274 882.278 610.725 884.209 609.627C886.159 608.528 887.674 606.995 888.772 605.025C889.87 603.056 890.419 600.84 890.419 598.36C890.419 594.611 889.207 591.524 886.803 589.1C884.398 586.676 881.331 585.446 877.582 585.446C873.833 585.446 870.766 586.658 868.362 589.1C865.957 591.524 864.745 594.611 864.745 598.36C864.745 602.109 865.957 605.196 868.362 607.619C870.766 610.043 873.833 611.274 877.582 611.274Z" fill="white"/>
<path d="M928.096 577.814C932.659 577.814 936.294 579.348 939.002 582.416C941.69 585.483 943.053 589.46 943.053 594.364V618.053H934.969V595.955C934.969 592.414 934.212 589.706 932.678 587.831C931.144 585.957 928.891 585.029 925.938 585.029C922.984 585.029 920.352 586.146 918.364 588.381C916.376 590.615 915.373 593.493 915.373 596.977V618.053H907.288V578.685H912.893L914.502 584.158C916.017 582.17 917.948 580.617 920.296 579.5C922.643 578.383 925.256 577.814 928.134 577.814H928.096Z" fill="white"/>
<path d="M968.405 594.289C969.712 594.535 970.696 594.705 971.321 594.838C971.946 594.951 972.892 595.179 974.123 595.5C975.354 595.822 976.319 596.144 977.001 596.485C977.682 596.826 978.478 597.299 979.368 597.905C980.257 598.511 980.939 599.193 981.412 599.95C981.867 600.708 982.283 601.636 982.624 602.753C982.965 603.87 983.135 605.082 983.135 606.407C983.135 610.251 981.677 613.319 978.762 615.591C975.846 617.883 971.984 619.019 967.174 619.019C962.365 619.019 958.503 617.807 955.587 615.364C952.672 612.94 951.157 609.683 951.062 605.593H959.014C959.109 607.582 959.923 609.134 961.457 610.214C962.99 611.312 964.997 611.861 967.477 611.861C968.935 611.861 970.242 611.672 971.378 611.274C972.514 610.876 973.422 610.308 974.104 609.532C974.786 608.756 975.127 607.828 975.127 606.767C975.127 606.18 975.032 605.65 974.843 605.158C974.653 604.665 974.312 604.249 973.858 603.889C973.404 603.529 972.93 603.226 972.438 602.98C971.946 602.734 971.321 602.507 970.545 602.279C969.768 602.052 969.068 601.882 968.462 601.768C967.856 601.655 967.061 601.522 966.095 601.371C965.073 601.181 964.24 601.011 963.577 600.897C962.914 600.784 962.1 600.594 961.097 600.348C960.093 600.102 959.279 599.837 958.654 599.553C958.03 599.269 957.31 598.909 956.496 598.492C955.701 598.076 955.057 597.602 954.565 597.034C954.073 596.485 953.599 595.841 953.145 595.141C952.691 594.44 952.35 593.626 952.123 592.698C951.895 591.77 951.801 590.748 951.801 589.63C951.801 586.089 953.202 583.211 955.985 581.033C958.787 578.837 962.46 577.758 967.023 577.758C971.586 577.758 975.259 578.894 978.023 581.185C980.788 583.476 982.208 586.525 982.245 590.369H974.596C974.54 588.513 973.839 587.093 972.476 586.108C971.113 585.105 969.238 584.612 966.872 584.612C964.637 584.612 962.858 585.048 961.551 585.919C960.245 586.79 959.582 587.945 959.582 589.346C959.582 589.933 959.677 590.445 959.866 590.88C960.056 591.316 960.396 591.713 960.851 592.054C961.305 592.395 961.741 592.679 962.157 592.887C962.574 593.115 963.18 593.304 964.013 593.512C964.846 593.702 965.508 593.853 966.057 593.948C966.588 594.042 967.364 594.175 968.386 594.307L968.405 594.289ZM1009.02 610.706H1013.47V618.072H1007.48C1003.17 618.072 999.74 616.822 997.241 614.323C994.741 611.823 993.492 608.415 993.492 604.078V585.635H986.487V584.101L1000.19 569.521H1001.5V578.704H1013.24V585.635H1001.58V603.416C1001.58 605.745 1002.22 607.544 1003.51 608.812C1004.8 610.081 1006.63 610.706 1009.02 610.706Z" fill="white"/>
<path d="M1041.53 578.477H1045.03V586.127H1040.81C1034.1 586.127 1030.75 589.782 1030.75 597.072V618.072H1022.67V578.704H1028.14L1029.52 584.101C1032.34 580.352 1036.36 578.496 1041.54 578.496L1041.53 578.477Z" fill="white"/>
<path d="M1068.64 619C1063.24 619 1058.93 617.39 1055.67 614.19C1052.41 610.99 1050.78 606.73 1050.78 601.427V578.686H1058.87V600.272C1058.87 603.719 1059.74 606.427 1061.5 608.358C1063.24 610.308 1065.63 611.274 1068.64 611.274C1071.65 611.274 1074.11 610.289 1075.85 608.32C1077.59 606.351 1078.48 603.662 1078.48 600.272V578.686H1086.57V601.427C1086.57 606.73 1084.94 610.971 1081.68 614.19C1078.43 617.39 1074.07 619 1068.64 619Z" fill="white"/>
<path d="M1115.16 619C1109.33 619 1104.42 617.012 1100.47 613.054C1096.51 609.096 1094.52 604.192 1094.52 598.322C1094.52 592.452 1096.51 587.566 1100.47 583.628C1104.42 579.689 1109.34 577.72 1115.23 577.72C1120.04 577.72 1124.23 579.083 1127.77 581.81C1131.31 584.537 1133.62 588.153 1134.7 592.679H1126.67C1125.65 590.445 1124.11 588.684 1122.07 587.396C1120.02 586.108 1117.71 585.464 1115.14 585.464C1112.85 585.464 1110.76 586.033 1108.87 587.15C1106.98 588.267 1105.48 589.82 1104.38 591.77C1103.29 593.739 1102.74 595.936 1102.74 598.36C1102.74 602.014 1103.93 605.063 1106.32 607.544C1108.7 610.024 1111.64 611.255 1115.14 611.255C1117.71 611.255 1120 610.592 1122.03 609.286C1124.04 607.979 1125.59 606.105 1126.65 603.681H1134.81C1133.69 608.301 1131.35 612.012 1127.77 614.796C1124.19 617.599 1119.99 618.981 1115.12 618.981L1115.16 619Z" fill="white"/>
<path d="M1160.28 610.706H1164.72V618.072H1158.74C1155.88 618.072 1153.4 617.523 1151.3 616.387C1149.22 615.269 1147.61 613.66 1146.49 611.539C1145.38 609.418 1144.81 606.938 1144.81 604.059V585.616H1137.74V584.082L1151.45 569.501H1152.83V578.685H1164.5V585.616H1152.91V603.397C1152.91 605.726 1153.54 607.525 1154.8 608.793C1156.07 610.062 1157.89 610.687 1160.28 610.687V610.706Z" fill="white"/>
<path d="M1172.45 572.569V564.256H1180.84V572.569H1172.45ZM1172.58 618.053V578.685H1180.67V618.053H1172.58Z" fill="white"/>
<path d="M1225.41 613.149C1221.39 617.068 1216.38 619.019 1210.35 619.019C1204.33 619.019 1199.32 617.068 1195.3 613.149C1191.29 609.229 1189.28 604.325 1189.28 598.379C1189.28 594.497 1190.19 590.975 1192.01 587.813C1193.83 584.65 1196.36 582.189 1199.58 580.409C1202.82 578.629 1206.4 577.739 1210.34 577.739C1214.27 577.739 1217.85 578.629 1221.09 580.409C1224.33 582.189 1226.85 584.65 1228.66 587.813C1230.48 590.975 1231.39 594.497 1231.39 598.379C1231.39 604.306 1229.38 609.229 1225.37 613.149H1225.41ZM1210.35 611.274C1212.83 611.274 1215.05 610.725 1216.98 609.627C1218.93 608.528 1220.45 606.995 1221.54 605.025C1222.64 603.056 1223.19 600.84 1223.19 598.36C1223.19 594.611 1221.98 591.524 1219.57 589.1C1217.17 586.676 1214.1 585.446 1210.35 585.446C1206.61 585.446 1203.54 586.658 1201.13 589.1C1198.73 591.524 1197.52 594.611 1197.52 598.36C1197.52 602.109 1198.73 605.196 1201.13 607.619C1203.54 610.043 1206.61 611.274 1210.35 611.274Z" fill="white"/>
<path d="M1260.87 577.814C1265.43 577.814 1269.07 579.348 1271.77 582.416C1274.46 585.483 1275.83 589.46 1275.83 594.364V618.053H1267.74V595.955C1267.74 592.414 1266.98 589.706 1265.45 587.831C1263.92 585.957 1261.66 585.029 1258.71 585.029C1255.76 585.029 1253.12 586.146 1251.14 588.381C1249.15 590.615 1248.15 593.493 1248.15 596.977V618.053H1240.06V578.685H1245.66L1247.27 584.158C1248.79 582.17 1250.72 580.617 1253.07 579.5C1255.42 578.383 1258.03 577.814 1260.91 577.814H1260.87Z" fill="white"/>
</g>
<defs>
<linearGradient id="paint0_linear_24_1813" x1="1004.5" y1="0" x2="1004.5" y2="916" gradientUnits="userSpaceOnUse">
<stop stop-color="#00A74F"/>
<stop offset="1" stop-color="#17172F"/>
</linearGradient>
<clipPath id="clip0_24_1813">
<rect width="1704" height="321" fill="white" transform="translate(152 298)"/>
</clipPath>
</defs>
</svg>
