<svg width="2009" height="916" viewBox="0 0 2009 916" fill="none" xmlns="http://www.w3.org/2000/svg">
<rect width="2009" height="916" rx="100" fill="url(#paint0_linear_24_1847)"/>
<g clip-path="url(#clip0_24_1847)">
<path d="M1898.84 284H1869.6V313.234H1898.84V284Z" fill="white"/>
<path d="M1898.84 284H1869.6V313.234H1898.84V284Z" fill="white"/>
<path d="M957.309 350.565C951.547 345.625 943.448 343.144 933.011 343.144H797.886V372.398H928.479C932.047 372.132 933.831 372.952 933.831 374.858C933.831 376.498 932.601 378.712 930.12 381.459C927.639 384.206 925.445 386.134 923.538 387.22L812.711 481.543C804.201 488.123 797.681 495.073 793.129 502.351C788.598 509.628 786.342 516.558 786.342 523.159C786.342 531.133 789.295 537.57 795.2 542.532C801.105 547.472 809.266 549.932 819.723 549.932H954.848V520.699H823.845C822.204 520.986 820.892 520.904 819.928 520.494C818.965 520.084 818.493 519.469 818.493 518.628C818.493 515.881 821.917 511.637 828.786 505.856L940.003 411.944C948.512 405.363 954.971 398.352 959.38 390.931C963.768 383.53 965.962 376.519 965.962 369.918C965.962 361.963 963.071 355.506 957.309 350.565Z" fill="white"/>
<path d="M1839.09 372.378V343.144C1820.41 343.144 1803.1 347.736 1787.19 356.941C1771.26 366.146 1758.69 378.63 1749.48 394.416C1740.27 410.201 1735.68 427.442 1735.68 446.118V549.092H1764.94V446.118C1764.94 432.67 1768.3 420.308 1775.03 409.053C1781.76 397.798 1790.76 388.881 1802.01 382.279C1813.27 375.699 1825.63 372.398 1839.09 372.398" fill="white"/>
<path d="M1898.84 343.144H1869.6V549.092H1898.84V343.144Z" fill="white"/>
<path d="M1527.85 626.419C1527.21 625.64 1526.43 624.656 1525.49 623.467C1524.55 622.278 1523.48 620.946 1522.29 619.49C1521.1 618.034 1519.93 616.538 1518.76 615.041C1517.6 613.545 1516.47 612.11 1515.38 610.716C1514.27 609.342 1513.31 608.112 1512.51 607.067C1514.99 606.452 1517.06 605.55 1518.7 604.32C1520.34 603.09 1521.66 601.716 1522.66 600.158C1523.66 598.6 1524.36 597.001 1524.73 595.34C1525.12 593.68 1525.3 592.142 1525.3 590.687C1525.3 588.534 1524.94 586.505 1524.18 584.619C1523.42 582.733 1522.23 581.093 1520.59 579.719C1518.95 578.346 1516.86 577.239 1514.31 576.439C1511.77 575.639 1508.66 575.229 1505.01 575.229C1503.61 575.291 1502.28 575.352 1501.01 575.393C1499.9 575.455 1498.77 575.475 1497.64 575.475H1481.55C1481.32 577.054 1481.69 578.243 1482.68 579.063C1483.64 579.883 1485.67 580.314 1488.79 580.375V626.296C1488.29 626.358 1487.68 626.399 1486.96 626.46C1486.24 626.522 1485.53 626.583 1484.81 626.665C1484.09 626.747 1483.43 626.829 1482.86 626.911C1482.29 626.993 1481.86 627.096 1481.57 627.198C1481.57 627.854 1481.57 628.51 1481.53 629.146C1481.49 629.781 1481.45 630.437 1481.4 631.093H1502.75C1502.75 630.437 1502.75 629.781 1502.71 629.146C1502.67 628.51 1502.67 627.854 1502.67 627.198C1502.38 627.075 1501.97 626.993 1501.38 626.911C1500.8 626.829 1500.15 626.747 1499.43 626.665C1498.71 626.583 1497.99 626.501 1497.28 626.46C1496.56 626.399 1495.94 626.337 1495.45 626.296V580.457L1503 580.211C1504.98 580.15 1506.93 580.273 1508.82 580.539C1510.71 580.806 1512.39 581.359 1513.84 582.159C1515.3 582.958 1516.49 584.086 1517.37 585.5C1518.25 586.935 1518.7 588.76 1518.7 590.953C1518.7 592.655 1518.44 594.274 1517.88 595.791C1517.33 597.308 1516.47 598.641 1515.3 599.81C1514.11 600.958 1512.59 601.86 1510.71 602.495C1508.82 603.131 1506.58 603.397 1503.98 603.274H1498.67L1498.26 607.682L1505.23 607.764L1520.47 626.952C1522.07 629.166 1523.85 630.745 1525.82 631.688C1527.79 632.631 1530.21 633.041 1533.08 632.938L1533.73 629.043L1529 627.629C1528.87 627.567 1528.5 627.157 1527.87 626.378" fill="white"/>
<path d="M1597.79 613.176C1596.27 612.254 1594.65 611.495 1592.91 610.86C1591.17 610.224 1589.55 609.568 1588.03 608.912C1586.51 608.256 1585.26 607.498 1584.28 606.678C1583.29 605.837 1582.78 604.771 1582.78 603.439C1582.78 602.106 1583.37 600.876 1584.56 599.748C1585.75 598.621 1587.43 598.047 1589.59 598.047C1590.76 598.047 1591.78 598.149 1592.7 598.334C1593.63 598.518 1594.51 598.846 1595.41 599.277C1595.53 600.999 1595.9 602.229 1596.54 603.008C1597.17 603.787 1598.01 604.218 1599.08 604.341C1599.57 604.402 1600.04 604.402 1600.49 604.341L1601.34 597.944C1600.29 597.001 1598.81 596.12 1596.93 595.279C1595.04 594.459 1592.87 594.029 1590.37 594.029C1588.42 594.029 1586.63 594.254 1584.97 594.726C1583.31 595.197 1581.88 595.853 1580.65 596.714C1579.42 597.575 1578.47 598.621 1577.78 599.871C1577.08 601.122 1576.73 602.475 1576.73 603.972C1576.73 605.837 1577.22 607.395 1578.23 608.605C1579.21 609.814 1580.46 610.839 1581.96 611.659C1583.46 612.479 1585.08 613.197 1586.86 613.812C1588.62 614.406 1590.26 615.062 1591.76 615.759C1593.26 616.456 1594.51 617.256 1595.49 618.199C1596.48 619.142 1596.99 620.331 1596.99 621.766C1596.99 623.693 1596.17 625.108 1594.53 626.03C1592.89 626.953 1590.96 627.404 1588.68 627.404C1586.9 627.404 1585.38 627.178 1584.11 626.748C1582.84 626.297 1581.75 625.743 1580.87 625.087C1580.75 623.324 1580.42 622.053 1579.87 621.315C1579.31 620.577 1578.49 620.105 1577.39 619.941C1576.89 619.88 1576.42 619.88 1575.97 619.941L1575.13 626.502C1576.34 627.793 1578.1 629.003 1580.4 630.151C1582.7 631.299 1585.73 631.893 1589.48 631.893C1591.14 631.893 1592.79 631.688 1594.43 631.278C1596.07 630.868 1597.52 630.233 1598.79 629.372C1600.08 628.511 1601.11 627.445 1601.87 626.133C1602.63 624.821 1603.02 623.303 1603.02 621.52C1603.02 619.531 1602.5 617.871 1601.52 616.538C1600.54 615.206 1599.26 614.099 1597.75 613.176" fill="white"/>
<path d="M1675.79 594.049C1674.19 594.049 1672.71 594.357 1671.4 594.972C1670.07 595.587 1668.88 596.304 1667.83 597.165C1666.79 598.026 1665.88 598.969 1665.13 599.994C1664.37 601.019 1663.81 601.942 1663.42 602.783V599.133L1663.59 594.48L1652.13 595.402C1652.06 595.956 1652.06 596.448 1652.13 596.899C1652.29 597.842 1652.9 598.518 1653.95 598.928C1655 599.338 1656.14 599.543 1657.35 599.543V626.44C1656.86 626.502 1656.31 626.563 1655.69 626.604C1655.1 626.666 1654.48 626.727 1653.91 626.768C1653.34 626.83 1652.78 626.891 1652.25 626.973C1651.72 627.055 1651.33 627.158 1651.04 627.26L1650.87 631.155H1671.13L1670.97 627.26C1670.68 627.158 1670.21 627.055 1669.55 626.973C1668.9 626.891 1668.18 626.809 1667.44 626.768C1666.7 626.707 1665.97 626.645 1665.25 626.604C1664.53 626.543 1663.92 626.502 1663.42 626.44V610.347C1663.48 609.466 1663.85 608.359 1664.55 607.026C1665.25 605.694 1666.13 604.402 1667.22 603.172C1668.3 601.921 1669.49 600.876 1670.83 600.015C1672.16 599.154 1673.53 598.723 1674.97 598.723C1675.42 598.723 1675.75 598.744 1675.97 598.805C1676.07 600.179 1676.38 601.204 1676.89 601.839C1677.39 602.475 1678.1 602.844 1679.05 602.967C1679.5 603.029 1679.97 603.029 1680.46 602.967L1681.3 596.161C1680.69 595.341 1679.91 594.787 1678.92 594.5C1677.96 594.234 1676.92 594.09 1675.81 594.09" fill="white"/>
<path d="M1705.05 626.625C1704.08 626.83 1703.1 626.912 1702.1 626.912C1699.82 626.912 1698.34 626.215 1697.65 624.8C1696.95 623.385 1696.62 621.233 1696.62 618.301V599.256H1707.57V594.767H1696.62V584.394L1692.13 585.234L1690.63 594.603L1686.66 594.767C1685.77 594.89 1685.18 595.156 1684.87 595.607C1684.56 596.058 1684.36 596.571 1684.26 597.124C1684.15 597.739 1684.17 598.457 1684.34 599.236H1690.55V619.203C1690.55 623.508 1691.27 626.686 1692.7 628.777C1694.14 630.848 1696.68 631.893 1700.35 631.893C1701.79 631.893 1703.24 631.729 1704.7 631.381C1706.18 631.053 1707.43 630.581 1708.47 629.966L1708.06 625.579C1707.02 626.071 1705.99 626.42 1705.03 626.604" fill="white"/>
<path d="M1775.81 576.993C1774.11 576.378 1772.26 575.845 1770.25 575.435C1768.22 575.004 1766.15 574.799 1763.98 574.799C1760.16 574.799 1756.51 575.373 1753.01 576.542C1749.52 577.71 1746.47 579.473 1743.88 581.851C1741.28 584.23 1739.21 587.243 1737.65 590.892C1736.09 594.541 1735.33 598.846 1735.33 603.766C1735.33 607.908 1736.05 611.721 1737.49 615.185C1738.92 618.65 1740.93 621.622 1743.51 624.103C1746.08 626.604 1749.13 628.511 1752.66 629.884C1756.17 631.237 1760 631.914 1764.16 631.914C1767.16 631.914 1770.13 631.586 1773.12 630.93C1776.12 630.274 1778.82 629.249 1781.26 627.855L1780.93 622.709C1780.05 623.262 1778.99 623.795 1777.74 624.328C1776.49 624.861 1775.13 625.333 1773.68 625.743C1772.22 626.153 1770.72 626.481 1769.19 626.727C1767.67 626.973 1766.15 627.096 1764.65 627.096C1761.56 627.096 1758.65 626.522 1755.94 625.394C1753.23 624.267 1750.85 622.668 1748.85 620.638C1746.82 618.588 1745.24 616.128 1744.07 613.258C1742.9 610.388 1742.32 607.231 1742.32 603.807C1742.32 600.056 1742.88 596.673 1743.99 593.66C1745.09 590.646 1746.63 588.104 1748.6 586.034C1750.57 583.963 1752.86 582.384 1755.49 581.277C1758.11 580.17 1760.98 579.617 1764.08 579.617C1766.17 579.617 1768.3 579.883 1770.44 580.396C1772.57 580.929 1774.35 581.626 1775.79 582.507C1775.85 583.943 1776.01 585.275 1776.28 586.485C1776.55 587.694 1776.94 588.76 1777.45 589.642C1777.94 590.523 1778.6 591.179 1779.4 591.589C1780.2 591.999 1781.18 592.143 1782.35 591.958L1783.01 580.662C1782.39 580.17 1781.47 579.576 1780.22 578.899C1778.97 578.223 1777.51 577.587 1775.83 576.952" fill="white"/>
<path d="M1806.36 626.768C1805.05 626.665 1803.9 626.542 1802.92 626.44V574.881L1803.33 570.063L1791.95 570.904C1791.82 571.458 1791.86 571.95 1792.03 572.401C1792.19 573.344 1792.73 574.041 1793.61 574.471C1794.49 574.922 1795.58 575.127 1796.85 575.127V626.44C1796.33 626.501 1795.8 626.563 1795.19 626.604C1794.57 626.665 1793.98 626.727 1793.36 626.768C1792.75 626.829 1792.19 626.891 1791.66 626.973C1791.13 627.055 1790.74 627.157 1790.45 627.26L1790.37 631.175H1809.37L1809.21 627.26C1808.6 627.034 1807.65 626.87 1806.34 626.768" fill="white"/>
<path d="M1850.59 625.333C1850.47 624.882 1850.36 624.39 1850.26 623.795C1850.16 623.221 1850.1 622.524 1850.1 621.745V594.684L1844.19 594.766H1838.55L1838.39 598.723C1839 598.887 1839.82 599.051 1840.83 599.195C1841.85 599.338 1842.92 599.461 1844.03 599.584V620.167C1842.86 621.991 1841.46 623.59 1839.82 624.943C1838.18 626.296 1836.32 626.973 1834.23 626.973C1831.36 626.973 1829.06 626.091 1827.38 624.308C1825.7 622.545 1824.86 620.31 1824.86 617.645V599.502L1825.18 594.418L1813.39 595.156C1813.33 595.73 1813.33 596.222 1813.39 596.673C1813.56 597.637 1814.19 598.354 1815.26 598.867C1816.35 599.379 1817.51 599.625 1818.79 599.625V618.67C1818.79 620.884 1819.16 622.811 1819.87 624.472C1820.59 626.132 1821.55 627.485 1822.78 628.572C1823.99 629.638 1825.43 630.437 1827.07 630.97C1828.71 631.503 1830.43 631.749 1832.26 631.749C1834.74 631.749 1837.04 631.093 1839.15 629.761C1841.24 628.428 1842.94 626.891 1844.21 625.107C1844.38 626.214 1844.66 627.301 1845.09 628.346C1845.5 629.392 1846.02 630.15 1846.63 630.581C1847.25 631.134 1847.9 631.483 1848.62 631.626C1849.34 631.77 1850.22 631.831 1851.29 631.831C1852 631.831 1852.7 631.79 1853.36 631.708C1854.01 631.626 1854.63 631.524 1855.18 631.421C1855.8 631.319 1856.41 631.216 1857.01 631.093V627.444L1851.12 626.522C1850.96 626.194 1850.79 625.784 1850.63 625.271" fill="white"/>
<path d="M795.2 542.491C789.295 537.55 786.342 531.092 786.342 523.138C786.342 516.537 788.598 509.608 793.129 502.33C797.661 495.053 804.181 488.123 812.69 481.522L923.517 387.2C925.445 386.113 927.639 384.186 930.099 381.439C932.58 378.692 933.811 376.498 933.811 374.858C933.811 372.931 932.027 372.111 928.459 372.398H797.866V343.165H932.99C943.427 343.165 951.527 345.625 957.288 350.565C963.05 355.506 965.941 361.963 965.941 369.938C965.941 376.519 963.747 383.53 959.359 390.931C954.971 398.352 948.512 405.342 939.982 411.944L828.766 505.856C821.897 511.617 818.452 515.881 818.452 518.628C818.452 519.448 818.924 520.063 819.887 520.473C820.851 520.883 822.163 520.965 823.804 520.678H954.807V549.932H819.682C809.246 549.932 801.064 547.452 795.179 542.511" fill="white"/>
<path d="M797.886 343.144V372.378H928.479C932.047 372.111 933.831 372.931 933.831 374.838C933.831 376.498 932.601 378.692 930.12 381.418C927.639 384.165 925.445 386.093 923.538 387.2L812.711 481.522C804.201 488.103 797.681 495.053 793.15 502.33C788.618 509.608 786.342 516.537 786.342 523.138C786.342 531.113 789.295 537.55 795.2 542.511C801.105 547.452 809.266 549.912 819.703 549.912H954.828V520.678H823.824C822.184 520.945 820.872 520.883 819.908 520.473C818.944 520.063 818.473 519.448 818.473 518.628C818.473 515.881 821.917 511.617 828.786 505.856L940.003 411.944C948.512 405.363 954.971 398.352 959.359 390.931C963.747 383.509 965.941 376.519 965.941 369.918C965.941 361.963 963.071 355.506 957.288 350.565C951.527 345.625 943.427 343.144 932.99 343.144H797.866H797.886Z" fill="white"/>
<path d="M1044.21 535.274C1028.42 526.07 1015.91 513.585 1006.72 497.8C997.518 482.014 992.925 464.794 992.925 446.097C992.925 427.401 997.518 410.201 1006.72 394.395C1015.93 378.61 1028.42 366.125 1044.21 356.92C1060 347.716 1077.22 343.124 1095.92 343.124C1114.62 343.124 1131.88 347.716 1147.82 356.92C1163.75 366.125 1176.3 378.61 1185.5 394.395C1194.71 410.181 1199.3 427.421 1199.3 446.097V549.071H1095.9C1077.22 549.071 1059.97 544.479 1044.19 535.274M1170.06 446.118C1170.06 432.67 1166.7 420.308 1159.98 409.053C1153.25 397.798 1144.25 388.881 1132.99 382.279C1121.73 375.699 1109.37 372.398 1095.92 372.398C1082.47 372.398 1070.1 375.699 1058.85 382.279C1047.57 388.86 1038.65 397.798 1032.07 409.053C1025.49 420.308 1022.19 432.67 1022.19 446.118C1022.19 459.566 1025.49 471.928 1032.07 483.183C1038.65 494.438 1047.57 503.437 1058.85 510.161C1070.1 516.886 1082.47 520.248 1095.92 520.248H1170.06V446.118Z" fill="white"/>
<path d="M1058.85 510.161C1047.59 503.437 1038.67 494.438 1032.07 483.183C1025.49 471.928 1022.19 459.566 1022.19 446.118C1022.19 432.67 1025.49 420.308 1032.07 409.053C1038.65 397.798 1047.59 388.881 1058.85 382.279C1070.1 375.699 1082.47 372.398 1095.92 372.398C1109.37 372.398 1121.73 375.699 1132.99 382.279C1144.25 388.86 1153.25 397.798 1159.98 409.053C1166.7 420.308 1170.06 432.67 1170.06 446.118V520.248H1095.92C1082.47 520.248 1070.1 516.886 1058.85 510.161ZM1044.21 356.941C1028.42 366.146 1015.91 378.63 1006.72 394.416C997.518 410.222 992.925 427.442 992.925 446.118C992.925 464.794 997.518 482.035 1006.72 497.82C1015.93 513.605 1028.42 526.111 1044.21 535.295C1060 544.5 1077.24 549.092 1095.92 549.092H1199.32V446.118C1199.32 427.462 1194.71 410.222 1185.52 394.416C1176.32 378.63 1163.77 366.146 1147.84 356.941C1131.9 347.736 1114.6 343.144 1095.94 343.144C1077.28 343.144 1060.04 347.757 1044.23 356.941" fill="white"/>
<path d="M1395.61 356.941C1411.4 366.146 1423.89 378.63 1433.1 394.416C1442.3 410.222 1446.9 427.442 1446.9 446.118V528.079C1446.9 546.755 1442.28 563.975 1433.1 579.76C1423.89 595.546 1411.4 608.051 1395.61 617.235C1379.83 626.44 1362.58 631.032 1343.9 631.032H1289.11V602.209H1343.9C1360.39 601.942 1375.21 596.858 1388.4 586.977C1401.58 577.095 1410.5 564.467 1415.18 549.092H1343.9C1325.22 549.092 1307.98 544.5 1292.19 535.295C1276.4 526.09 1263.83 513.605 1254.5 497.82C1245.17 482.035 1240.5 464.814 1240.5 446.118C1240.5 427.421 1245.17 410.222 1254.5 394.416C1263.83 378.63 1276.4 366.146 1292.19 356.941C1307.98 347.736 1325.2 343.144 1343.9 343.144C1362.6 343.144 1379.8 347.757 1395.61 356.941ZM1407.77 409.053C1401.17 397.798 1392.25 388.881 1380.99 382.279C1369.74 375.699 1357.37 372.398 1343.92 372.398C1330.47 372.398 1318.11 375.699 1306.85 382.279C1295.59 388.86 1286.59 397.798 1279.87 409.053C1273.14 420.308 1269.78 432.67 1269.78 446.118C1269.78 459.566 1273.14 471.928 1279.87 483.183C1286.59 494.438 1295.59 503.437 1306.85 510.161C1318.11 516.886 1330.47 520.248 1343.92 520.248H1417.66V446.097C1417.66 432.649 1414.35 420.287 1407.77 409.033" fill="white"/>
<path d="M1306.83 510.161C1295.57 503.437 1286.57 494.438 1279.85 483.183C1273.12 471.928 1269.76 459.566 1269.76 446.118C1269.76 432.67 1273.12 420.308 1279.85 409.053C1286.57 397.798 1295.57 388.881 1306.83 382.279C1318.09 375.699 1330.45 372.398 1343.9 372.398C1357.35 372.398 1369.7 375.699 1380.97 382.279C1392.23 388.86 1401.15 397.798 1407.75 409.053C1414.33 420.308 1417.64 432.67 1417.64 446.118V520.248H1343.9C1330.43 520.248 1318.09 516.886 1306.83 510.161ZM1292.21 356.941C1276.42 366.146 1263.85 378.63 1254.52 394.416C1245.17 410.222 1240.52 427.442 1240.52 446.118C1240.52 464.794 1245.19 482.035 1254.52 497.82C1263.85 513.605 1276.42 526.111 1292.21 535.295C1308 544.5 1325.22 549.092 1343.92 549.092H1415.2C1410.52 564.467 1401.6 577.095 1388.42 586.977C1375.23 596.858 1360.41 601.942 1343.92 602.209H1289.13V631.032H1343.92C1362.58 631.032 1379.83 626.42 1395.63 617.235C1411.42 608.031 1423.91 595.546 1433.12 579.76C1442.32 563.975 1446.92 546.755 1446.92 528.079V446.118C1446.92 427.462 1442.3 410.222 1433.12 394.416C1423.91 378.63 1411.42 366.146 1395.63 356.941C1379.83 347.736 1362.6 343.144 1343.92 343.144C1325.24 343.144 1308 347.757 1292.21 356.941Z" fill="white"/>
<path d="M1539.39 535.274C1523.6 526.07 1511.1 513.585 1501.91 497.8C1492.7 482.014 1488.11 464.794 1488.11 446.097C1488.11 427.401 1492.7 410.201 1501.91 394.395C1511.12 378.61 1523.6 366.125 1539.39 356.92C1555.18 347.716 1572.4 343.124 1591.1 343.124C1609.8 343.124 1627.07 347.716 1643 356.92C1658.93 366.125 1671.48 378.61 1680.69 394.395C1689.89 410.181 1694.49 427.421 1694.49 446.097V549.071H1591.08C1572.4 549.071 1555.16 544.479 1539.37 535.274M1665.25 446.118C1665.25 432.67 1661.89 420.308 1655.16 409.053C1648.43 397.798 1639.43 388.881 1628.18 382.279C1616.92 375.699 1604.55 372.398 1591.1 372.398C1577.65 372.398 1565.29 375.699 1554.03 382.279C1542.75 388.86 1533.83 397.798 1527.25 409.053C1520.67 420.308 1517.37 432.67 1517.37 446.118C1517.37 459.566 1520.67 471.928 1527.25 483.183C1533.83 494.438 1542.75 503.437 1554.03 510.161C1565.29 516.886 1577.65 520.248 1591.1 520.248H1665.25V446.118Z" fill="white"/>
<path d="M1554.01 510.161C1542.75 503.437 1533.83 494.438 1527.23 483.183C1520.63 471.928 1517.35 459.566 1517.35 446.118C1517.35 432.67 1520.63 420.308 1527.23 409.053C1533.81 397.798 1542.75 388.881 1554.01 382.279C1565.27 375.699 1577.63 372.398 1591.08 372.398C1604.53 372.398 1616.9 375.699 1628.16 382.279C1639.41 388.86 1648.41 397.798 1655.14 409.053C1661.87 420.308 1665.23 432.67 1665.23 446.118V520.248H1591.06C1577.61 520.248 1565.25 516.886 1553.99 510.161M1539.39 356.941C1523.6 366.146 1511.1 378.63 1501.91 394.416C1492.7 410.222 1488.11 427.442 1488.11 446.118C1488.11 464.794 1492.7 482.035 1501.91 497.82C1511.1 513.605 1523.6 526.111 1539.39 535.295C1555.18 544.5 1572.4 549.092 1591.08 549.092H1694.49V446.118C1694.49 427.462 1689.87 410.222 1680.69 394.416C1671.48 378.63 1658.93 366.146 1643 356.941C1627.07 347.736 1609.76 343.144 1591.08 343.144C1572.4 343.144 1555.18 347.757 1539.39 356.941Z" fill="white"/>
<path d="M1749.48 394.416C1758.69 378.63 1771.24 366.146 1787.17 356.941C1803.1 347.736 1820.41 343.144 1839.09 343.144V372.378C1825.63 372.378 1813.27 375.678 1802.01 382.259C1790.76 388.86 1781.76 397.778 1775.03 409.033C1768.3 420.287 1764.94 432.649 1764.94 446.097V549.071H1735.7V446.097C1735.7 427.421 1740.3 410.201 1749.5 394.395" fill="white"/>
<path d="M1787.19 356.941C1771.26 366.146 1758.69 378.63 1749.5 394.416C1740.3 410.222 1735.7 427.442 1735.7 446.118V549.092H1764.94V446.118C1764.94 432.67 1768.3 420.308 1775.03 409.053C1781.76 397.798 1790.76 388.881 1802.01 382.279C1813.27 375.699 1825.63 372.398 1839.09 372.398V343.165C1820.41 343.165 1803.1 347.777 1787.19 356.961" fill="white"/>
<path d="M1898.84 284H1869.6V313.234H1898.84V284Z" fill="white"/>
<path d="M1898.84 343.144H1869.6V549.092H1898.84V343.144Z" fill="white"/>
<path d="M1898.84 343.144H1869.6V549.092H1898.84V343.144Z" fill="white"/>
<path d="M1498.63 603.356H1503.94C1506.54 603.479 1508.78 603.213 1510.66 602.577C1512.55 601.942 1514.07 601.04 1515.26 599.892C1516.45 598.744 1517.31 597.411 1517.86 595.894C1518.42 594.377 1518.68 592.757 1518.68 591.056C1518.68 588.862 1518.23 587.038 1517.35 585.603C1516.47 584.168 1515.28 583.061 1513.82 582.261C1512.35 581.462 1510.69 580.929 1508.8 580.642C1506.91 580.375 1504.98 580.252 1502.98 580.314L1495.43 580.56V626.399C1495.92 626.46 1496.54 626.501 1497.25 626.563C1497.97 626.624 1498.69 626.686 1499.41 626.768C1500.13 626.85 1500.78 626.932 1501.36 627.014C1501.93 627.096 1502.36 627.198 1502.65 627.301C1502.65 627.957 1502.65 628.613 1502.69 629.248C1502.71 629.884 1502.73 630.54 1502.73 631.196H1481.38C1481.45 630.54 1481.49 629.884 1481.51 629.248C1481.53 628.613 1481.55 627.957 1481.55 627.301C1481.81 627.178 1482.25 627.096 1482.84 627.014C1483.41 626.932 1484.07 626.85 1484.79 626.768C1485.51 626.686 1486.22 626.624 1486.94 626.563C1487.66 626.501 1488.27 626.46 1488.77 626.399V580.498C1485.67 580.437 1483.64 580.006 1482.66 579.186C1481.69 578.366 1481.32 577.177 1481.53 575.599H1497.62C1498.75 575.599 1499.88 575.578 1500.99 575.517C1502.26 575.455 1503.59 575.394 1504.99 575.353C1508.63 575.353 1511.75 575.763 1514.29 576.562C1516.86 577.362 1518.95 578.469 1520.57 579.842C1522.21 581.216 1523.4 582.856 1524.16 584.742C1524.89 586.628 1525.28 588.637 1525.28 590.81C1525.28 592.245 1525.1 593.803 1524.71 595.463C1524.32 597.124 1523.62 598.723 1522.64 600.281C1521.63 601.839 1520.32 603.213 1518.68 604.422C1517.04 605.652 1514.99 606.554 1512.49 607.169C1513.31 608.215 1514.27 609.445 1515.36 610.818C1516.45 612.192 1517.57 613.647 1518.74 615.144C1519.89 616.64 1521.08 618.117 1522.27 619.593C1523.46 621.069 1524.53 622.401 1525.47 623.57C1526.41 624.759 1527.19 625.743 1527.83 626.522C1528.46 627.301 1528.83 627.711 1528.95 627.772L1533.69 629.187L1533.04 633.082C1530.16 633.184 1527.74 632.774 1525.78 631.831C1523.81 630.888 1522.02 629.31 1520.42 627.116L1505.19 607.928L1498.22 607.846L1498.63 603.438V603.356Z" fill="white"/>
<path d="M1553.64 631.832C1551.04 631.832 1548.64 631.401 1546.42 630.54C1544.21 629.679 1542.28 628.47 1540.64 626.891C1539 625.313 1537.71 623.365 1536.77 621.069C1535.84 618.773 1535.37 616.21 1535.37 613.381C1535.37 610.552 1535.8 607.785 1536.64 605.407C1537.48 603.029 1538.69 600.999 1540.21 599.297C1541.75 597.616 1543.59 596.304 1545.79 595.402C1547.98 594.48 1550.4 594.029 1553.07 594.029C1555.39 594.029 1557.56 594.5 1559.59 595.443C1561.62 596.386 1563.32 597.719 1564.74 599.42C1566.15 601.122 1567.18 603.193 1567.85 605.612C1568.51 608.031 1568.65 610.696 1568.26 613.627H1542.02V614.283C1542.02 616.149 1542.32 617.891 1542.94 619.49C1543.55 621.089 1544.42 622.463 1545.52 623.611C1546.63 624.759 1547.96 625.682 1549.5 626.338C1551.04 626.994 1552.78 627.322 1554.73 627.322C1556.82 627.322 1558.77 626.973 1560.55 626.297C1562.32 625.62 1564.1 624.595 1565.86 623.242L1566.44 627.301C1564.61 628.962 1562.66 630.13 1560.61 630.786C1558.56 631.442 1556.25 631.77 1553.64 631.77M1562.36 609.404C1562.36 607.416 1562.05 605.735 1561.43 604.341C1560.82 602.967 1560.06 601.839 1559.16 600.978C1558.24 600.117 1557.25 599.502 1556.16 599.113C1555.1 598.723 1554.05 598.539 1553.05 598.539C1549.89 598.539 1547.43 599.543 1545.67 601.573C1543.9 603.603 1542.75 606.186 1542.26 609.343L1562.36 609.425V609.404Z" fill="white"/>
<path d="M1600.47 604.341C1600.02 604.402 1599.55 604.402 1599.06 604.341C1598.01 604.238 1597.15 603.787 1596.54 603.008C1595.9 602.229 1595.53 600.978 1595.41 599.277C1594.53 598.846 1593.63 598.518 1592.7 598.334C1591.78 598.129 1590.76 598.047 1589.59 598.047C1587.43 598.047 1585.75 598.621 1584.56 599.748C1583.37 600.896 1582.78 602.126 1582.78 603.439C1582.78 604.751 1583.27 605.858 1584.28 606.678C1585.26 607.518 1586.53 608.256 1588.03 608.912C1589.55 609.568 1591.17 610.224 1592.91 610.86C1594.65 611.495 1596.27 612.274 1597.79 613.176C1599.31 614.099 1600.56 615.206 1601.56 616.538C1602.55 617.871 1603.06 619.531 1603.06 621.52C1603.06 623.283 1602.67 624.821 1601.91 626.133C1601.15 627.445 1600.13 628.511 1598.83 629.372C1597.54 630.233 1596.09 630.868 1594.47 631.278C1592.83 631.688 1591.19 631.893 1589.53 631.893C1585.75 631.893 1582.74 631.319 1580.44 630.171C1578.15 629.003 1576.38 627.793 1575.17 626.502L1576.01 619.941C1576.46 619.88 1576.94 619.88 1577.43 619.941C1578.53 620.105 1579.38 620.556 1579.91 621.315C1580.46 622.053 1580.79 623.324 1580.91 625.087C1581.79 625.764 1582.88 626.317 1584.15 626.748C1585.42 627.199 1586.94 627.404 1588.73 627.404C1591 627.404 1592.95 626.953 1594.57 626.03C1596.21 625.128 1597.01 623.693 1597.01 621.766C1597.01 620.331 1596.52 619.142 1595.51 618.199C1594.51 617.256 1593.28 616.456 1591.78 615.759C1590.28 615.062 1588.64 614.427 1586.88 613.812C1585.12 613.217 1583.48 612.5 1581.98 611.659C1580.48 610.819 1579.23 609.814 1578.25 608.584C1577.24 607.375 1576.75 605.817 1576.75 603.951C1576.75 602.455 1577.1 601.101 1577.8 599.851C1578.49 598.6 1579.44 597.555 1580.67 596.694C1581.88 595.833 1583.31 595.177 1584.99 594.705C1586.65 594.234 1588.46 594.008 1590.39 594.008C1592.87 594.008 1595.06 594.418 1596.95 595.259C1598.83 596.079 1600.29 596.96 1601.36 597.924L1600.52 604.32L1600.47 604.341Z" fill="white"/>
<path d="M1627.7 631.913C1625.06 631.913 1622.6 631.462 1620.32 630.54C1618.05 629.617 1616.08 628.346 1614.42 626.727C1612.76 625.087 1611.46 623.139 1610.56 620.884C1609.64 618.608 1609.19 616.128 1609.19 613.401C1609.19 610.675 1609.68 607.969 1610.64 605.611C1611.61 603.233 1612.96 601.183 1614.66 599.461C1616.39 597.759 1618.4 596.427 1620.73 595.484C1623.07 594.541 1625.61 594.069 1628.38 594.069C1631.15 594.069 1633.59 594.541 1635.89 595.484C1638.18 596.427 1640.17 597.718 1641.81 599.358C1643.47 600.998 1644.76 602.946 1645.69 605.201C1646.61 607.477 1647.06 609.937 1647.06 612.581C1647.06 615.451 1646.55 618.075 1645.56 620.474C1644.58 622.852 1643.19 624.882 1641.46 626.583C1639.72 628.264 1637.67 629.576 1635.31 630.519C1632.95 631.462 1630.43 631.934 1627.7 631.934M1628.03 627.424C1629.76 627.424 1631.35 627.075 1632.85 626.378C1634.35 625.681 1635.64 624.697 1636.75 623.385C1637.85 622.073 1638.74 620.556 1639.41 618.772C1640.07 617.009 1640.4 615.041 1640.4 612.889C1640.4 610.736 1640.09 608.686 1639.45 606.923C1638.82 605.16 1637.94 603.643 1636.83 602.393C1635.72 601.142 1634.41 600.199 1632.93 599.522C1631.44 598.866 1629.84 598.538 1628.11 598.538C1626.39 598.538 1624.81 598.866 1623.34 599.522C1621.88 600.199 1620.59 601.142 1619.52 602.393C1618.44 603.643 1617.6 605.16 1617 606.923C1616.39 608.686 1616.08 610.716 1616.08 612.971C1616.08 615.226 1616.39 617.112 1617 618.916C1617.6 620.72 1618.44 622.237 1619.48 623.488C1620.53 624.738 1621.8 625.702 1623.26 626.399C1624.71 627.096 1626.31 627.444 1628.03 627.444" fill="white"/>
<path d="M1651.04 627.26C1651.31 627.157 1651.72 627.055 1652.25 626.973C1652.78 626.891 1653.34 626.809 1653.91 626.768C1654.48 626.706 1655.08 626.645 1655.69 626.604C1656.29 626.542 1656.86 626.501 1657.35 626.44V599.543C1656.14 599.543 1655 599.338 1653.95 598.928C1652.9 598.518 1652.29 597.841 1652.13 596.898C1652.06 596.447 1652.06 595.955 1652.13 595.402L1663.59 594.479L1663.42 599.133V602.782C1663.81 601.942 1664.37 601.019 1665.13 599.994C1665.86 598.969 1666.77 598.026 1667.83 597.185C1668.88 596.324 1670.07 595.586 1671.4 594.992C1672.73 594.397 1674.19 594.069 1675.79 594.069C1676.89 594.069 1677.94 594.213 1678.9 594.479C1679.87 594.746 1680.67 595.32 1681.28 596.14L1680.44 602.946C1679.95 603.008 1679.48 603.008 1679.03 602.946C1678.08 602.823 1677.37 602.454 1676.87 601.819C1676.38 601.183 1676.07 600.158 1675.95 598.784C1675.73 598.723 1675.4 598.702 1674.97 598.702C1673.53 598.702 1672.14 599.133 1670.8 599.994C1669.47 600.855 1668.28 601.9 1667.2 603.151C1666.11 604.402 1665.23 605.673 1664.53 607.005C1663.83 608.338 1663.46 609.445 1663.4 610.326V626.419C1663.9 626.481 1664.51 626.542 1665.23 626.583C1665.95 626.645 1666.68 626.706 1667.42 626.747C1668.16 626.809 1668.88 626.87 1669.53 626.952C1670.21 627.034 1670.66 627.137 1670.95 627.239L1671.11 631.134H1650.85L1651.02 627.239L1651.04 627.26Z" fill="white"/>
<path d="M1684.34 599.277C1684.17 598.498 1684.13 597.78 1684.26 597.165C1684.36 596.591 1684.56 596.099 1684.87 595.648C1685.18 595.197 1685.77 594.91 1686.66 594.808L1690.63 594.644L1692.13 585.275L1696.62 584.435V594.808H1707.59V599.297H1696.62V618.342C1696.62 621.253 1696.97 623.426 1697.67 624.841C1698.34 626.235 1699.84 626.953 1702.1 626.953C1703.1 626.953 1704.08 626.85 1705.05 626.666C1706.01 626.481 1707.04 626.133 1708.08 625.62L1708.49 630.028C1707.45 630.643 1706.18 631.114 1704.72 631.442C1703.24 631.77 1701.81 631.955 1700.35 631.955C1696.7 631.955 1694.16 630.909 1692.7 628.839C1691.27 626.768 1690.55 623.57 1690.55 619.265V599.297H1684.32L1684.34 599.277Z" fill="white"/>
<path d="M1764.14 631.914C1760 631.914 1756.14 631.237 1752.64 629.884C1749.11 628.531 1746.08 626.604 1743.49 624.103C1740.91 621.602 1738.92 618.65 1737.47 615.185C1736.03 611.721 1735.31 607.928 1735.31 603.766C1735.31 598.846 1736.09 594.541 1737.63 590.892C1739.19 587.243 1741.26 584.23 1743.86 581.851C1746.47 579.473 1749.5 577.69 1752.99 576.542C1756.47 575.373 1760.12 574.799 1763.96 574.799C1766.11 574.799 1768.2 575.004 1770.23 575.435C1772.26 575.865 1774.11 576.378 1775.79 576.993C1777.47 577.608 1778.95 578.264 1780.2 578.94C1781.45 579.617 1782.37 580.191 1782.99 580.683L1782.33 591.979C1781.16 592.143 1780.18 592.02 1779.38 591.61C1778.58 591.2 1777.92 590.544 1777.43 589.662C1776.94 588.781 1776.55 587.735 1776.26 586.505C1775.99 585.296 1775.81 583.963 1775.77 582.528C1774.33 581.646 1772.55 580.929 1770.42 580.416C1768.28 579.883 1766.17 579.637 1764.06 579.637C1760.96 579.637 1758.09 580.191 1755.47 581.298C1752.84 582.405 1750.55 583.984 1748.58 586.054C1746.61 588.125 1745.07 590.667 1743.97 593.68C1742.86 596.694 1742.3 600.076 1742.3 603.828C1742.3 607.252 1742.88 610.409 1744.05 613.279C1745.22 616.149 1746.82 618.609 1748.82 620.659C1750.85 622.709 1753.21 624.287 1755.92 625.415C1758.63 626.542 1761.54 627.116 1764.63 627.116C1766.13 627.116 1767.63 626.994 1769.17 626.747C1770.68 626.501 1772.18 626.173 1773.66 625.743C1775.13 625.333 1776.49 624.861 1777.74 624.328C1778.99 623.795 1780.05 623.262 1780.93 622.709L1781.26 627.855C1778.82 629.228 1776.12 630.274 1773.12 630.93C1770.13 631.586 1767.14 631.934 1764.16 631.934" fill="white"/>
<path d="M1806.36 626.768C1807.67 626.891 1808.62 627.034 1809.23 627.26L1809.4 631.175H1790.39L1790.47 627.26C1790.74 627.157 1791.15 627.055 1791.68 626.973C1792.21 626.891 1792.77 626.809 1793.38 626.768C1794 626.706 1794.59 626.665 1795.21 626.604C1795.82 626.542 1796.37 626.501 1796.87 626.44V575.127C1795.6 575.127 1794.51 574.902 1793.63 574.471C1792.75 574.02 1792.21 573.344 1792.05 572.401C1791.88 571.95 1791.84 571.458 1791.97 570.904L1803.35 570.063L1802.94 574.881V626.44C1803.92 626.563 1805.07 626.665 1806.38 626.768" fill="white"/>
<path d="M1827.38 624.349C1829.06 626.132 1831.36 627.014 1834.23 627.014C1836.32 627.014 1838.18 626.337 1839.82 624.984C1841.46 623.631 1842.86 622.032 1844.01 620.208V599.625C1842.9 599.502 1841.83 599.379 1840.81 599.236C1839.78 599.092 1838.96 598.949 1838.35 598.764L1838.51 594.787H1844.15L1850.04 594.705V621.766C1850.04 622.545 1850.1 623.221 1850.2 623.816C1850.3 624.39 1850.42 624.902 1850.53 625.353C1850.69 625.845 1850.86 626.276 1851.02 626.604L1856.9 627.526V631.175C1856.29 631.298 1855.67 631.401 1855.08 631.503C1854.53 631.606 1853.91 631.708 1853.25 631.79C1852.6 631.872 1851.9 631.913 1851.18 631.913C1850.14 631.913 1849.26 631.831 1848.54 631.708C1847.82 631.565 1847.14 631.216 1846.55 630.663C1845.93 630.212 1845.42 629.474 1845.01 628.428C1844.6 627.383 1844.31 626.296 1844.13 625.189C1842.86 626.952 1841.18 628.51 1839.07 629.843C1836.97 631.175 1834.68 631.831 1832.18 631.831C1830.35 631.831 1828.61 631.565 1826.99 631.052C1825.35 630.519 1823.93 629.74 1822.7 628.654C1821.47 627.588 1820.51 626.214 1819.79 624.554C1819.07 622.893 1818.7 620.966 1818.7 618.752V599.707C1817.43 599.707 1816.26 599.461 1815.18 598.949C1814.09 598.436 1813.48 597.698 1813.31 596.755C1813.25 596.304 1813.25 595.792 1813.31 595.238L1825.1 594.5L1824.77 599.584V617.727C1824.77 620.392 1825.61 622.606 1827.3 624.39" fill="white"/>
<path d="M1864.37 575.127C1863.14 575.127 1862.05 574.902 1861.05 574.471C1860.06 574.02 1859.45 573.344 1859.22 572.401C1859.16 572.134 1859.12 571.868 1859.1 571.663C1859.08 571.437 1859.1 571.191 1859.14 570.904L1870.85 570.084L1870.44 575.148V599.81C1872.04 598.211 1873.86 596.858 1875.87 595.751C1877.9 594.644 1880.16 594.09 1882.64 594.09C1885.12 594.09 1887.37 594.562 1889.36 595.464C1891.35 596.386 1893.07 597.657 1894.51 599.277C1895.94 600.917 1897.05 602.844 1897.83 605.099C1898.61 607.333 1899 609.793 1899 612.438C1899 615.083 1898.55 617.789 1897.63 620.167C1896.7 622.545 1895.41 624.615 1893.73 626.358C1892.03 628.1 1890.02 629.474 1887.66 630.478C1885.3 631.462 1882.72 631.975 1879.89 631.975C1878.45 631.975 1876.86 631.749 1875.11 631.278C1873.37 630.806 1871.61 630.068 1869.84 629.084C1869.51 629.699 1869.06 630.15 1868.49 630.458C1867.92 630.765 1867.36 631.011 1866.81 631.175C1866.25 631.339 1865.76 631.421 1865.29 631.421C1864.82 631.421 1864.51 631.36 1864.35 631.257V575.209L1864.37 575.127ZM1880.67 598.867C1879.5 598.867 1878.41 599.051 1877.43 599.4C1876.42 599.748 1875.5 600.22 1874.68 600.794C1873.84 601.368 1873.06 601.983 1872.34 602.659C1871.63 603.315 1870.99 603.971 1870.44 604.648V624.041C1872.1 625.148 1873.66 625.927 1875.11 626.399C1876.55 626.87 1878.15 627.096 1879.87 627.096C1881.69 627.096 1883.42 626.747 1885 626.071C1886.57 625.394 1887.97 624.41 1889.16 623.139C1890.35 621.868 1891.29 620.351 1891.95 618.547C1892.62 616.764 1892.95 614.755 1892.95 612.561C1892.95 610.572 1892.64 608.748 1892.03 607.087C1891.41 605.427 1890.57 603.951 1889.49 602.741C1888.4 601.532 1887.11 600.589 1885.61 599.892C1884.11 599.195 1882.47 598.867 1880.69 598.867" fill="white"/>
<path d="M588.207 504.483L662.331 549.01L662.474 549.092L700.326 549.789L702.54 535.151L690.996 532.199L670.614 531.502L653.657 517.705L624.315 483.08L618.225 466.885L664.033 472.235L695.056 488.431L704.16 485.335L707.564 475.208L693.703 473.937L693.026 459.156L699.546 454.933L717.324 462.518L716.237 472.379L726.038 466.885L736.352 461.124L734.035 452.965L731.41 450.054L718.821 436.072L714.474 423.957L681.769 403.969L657.04 394.252L651.545 376.908L637.889 385.621L634.096 397.634L588.207 371.742L538.504 369.056L481.891 371.455L450.252 370.327L373.278 360.344L316.378 364.423L283.796 383.284L248.078 417.212L222.693 456.757L190.255 492.51L150.332 515.881L110 515.163L110.677 530.518L125.747 538.534L164.029 535.869L206.535 511.514L263.148 441.69L297.247 404.543L328.189 396.363L307.971 414.096L297.37 432.403L296.837 450.423L278.773 463.379L271.432 461.821L229.357 532.486L230.956 537.222L234.381 547.267L275.513 547.698L273.196 535.151L265.055 531.502L256.915 531.215L292.757 498.004L323.452 496.733L350.334 482.24L376.395 454.359L381.952 488.431L372.868 488.984L401.78 538.534L418.614 549.789H452.979L449.842 539.6L445.229 534.024L431.388 535.028L422.571 529.821L412.237 511.801V499.542L424.047 487.447L426.364 474.203L449.576 479.287L496.551 475.905L490.851 493.064L471.72 511.945L466.41 530.949L473.484 550.793H514.062L513.939 539.6L503.892 531.072L491.938 530.805L505.799 514.036L529.154 494.191L546.111 486.463L571.106 487.447L588.207 504.483Z" fill="white"/>
<path d="M651.545 376.908L637.889 385.621L634.096 397.634L657.041 394.272L651.545 376.908Z" fill="#2EA9E0"/>
<path d="M222.693 456.757L263.148 441.689L248.077 417.212L222.693 456.757Z" fill="#E95874"/>
<path d="M725.197 455.568L731.41 450.054L718.82 436.073L695.22 431.296L725.197 455.568Z" fill="#1396D4"/>
<path d="M703.504 432.977L696.409 422.952L684.065 422.276L695.22 431.296L718.821 436.073L714.474 423.957L696.409 422.952L703.504 432.977Z" fill="#1C91D0"/>
<path d="M283.796 383.284L328.189 396.363L316.378 364.423L283.796 383.284Z" fill="#EA6764"/>
<path d="M248.078 417.212L297.248 404.522L328.189 396.363L283.797 383.284L248.078 417.212Z" fill="#E95041"/>
<path d="M263.148 441.69L297.248 404.543L248.078 417.212L263.148 441.69Z" fill="#E84988"/>
<path d="M461.673 391.443L417.26 401.017L372.868 410.59L418.901 419.939L502.6 410.242L461.673 391.443Z" fill="#F5A11A"/>
<path d="M655.359 420.164L684.065 422.276L657.041 394.251L634.096 397.634L640.698 410.59L655.359 420.164Z" fill="#004C85"/>
<path d="M588.207 371.742L538.504 369.057L577.155 404.953L588.207 371.742Z" fill="#FFD301"/>
<path d="M577.134 404.953L502.6 410.242L505.04 438.942L543.732 425.658L577.134 404.953Z" fill="#EFE414"/>
<path d="M611.561 422.276L640.698 410.591L634.096 397.634L588.207 371.742L577.155 404.953L611.561 422.276Z" fill="#8CBF48"/>
<path d="M418.901 419.938L449.248 438.942H505.04L502.6 410.242L418.901 419.938Z" fill="#F7E838"/>
<path d="M206.535 511.514L263.148 441.689L222.693 456.757L206.535 511.514Z" fill="#E5186A"/>
<path d="M543.732 425.658L505.04 438.942L554.333 451.202L578.077 439.209L611.561 422.276L577.155 404.953L543.732 425.658Z" fill="#75B746"/>
<path d="M418.614 549.809L422.571 529.821L412.237 511.801L401.78 538.534L418.614 549.809Z" fill="#611C53"/>
<path d="M466.41 530.928L473.484 550.793L513.939 539.6L503.892 531.072L491.938 530.805L471.721 511.945L466.41 530.928Z" fill="#005C98"/>
<path d="M190.234 492.51L206.535 511.514L222.693 456.757L190.234 492.51Z" fill="#BC0E64"/>
<path d="M452.979 549.809L449.863 539.6L445.229 534.044L431.388 535.028L422.551 529.821L418.634 549.809H452.979Z" fill="#2E2252"/>
<path d="M514.083 550.793L513.939 539.6L473.484 550.793H514.083Z" fill="#047EB4"/>
<path d="M695.076 488.431L704.16 485.335L707.564 475.208L693.703 473.937L694.666 487.447L693.703 473.937L664.032 472.235L695.076 488.431Z" fill="#1B4A97"/>
<path d="M662.474 549.092L702.54 535.172L690.996 532.199L670.635 531.502L653.657 517.706L662.331 549.01L662.474 549.092Z" fill="#005C98"/>
<path d="M700.325 549.809L702.54 535.172L662.474 549.092L700.325 549.809Z" fill="#047EB4"/>
<path d="M621.588 511.227L588.207 504.482L662.331 549.009L653.657 517.705L621.588 511.227Z" fill="#1C91D0"/>
<path d="M150.333 515.881L110.677 530.518L125.748 538.534L164.05 535.869L190.255 492.51L150.333 515.881Z" fill="#601D55"/>
<path d="M164.05 535.869L206.535 511.514L190.255 492.51L164.05 535.869Z" fill="#8C3088"/>
<path d="M110 515.163L110.677 530.518L150.332 515.881L110 515.163Z" fill="#503389"/>
<path d="M271.432 461.821L229.357 532.486L230.956 537.222L256.915 531.215L278.773 463.379L271.432 461.821Z" fill="#601D55"/>
<path d="M256.915 531.215L292.757 498.004L278.773 463.379L256.915 531.215Z" fill="#8A1724"/>
<path d="M234.381 547.267L275.513 547.698L273.216 535.151L265.055 531.502L256.915 531.215L230.956 537.222L234.381 547.267Z" fill="#503389"/>
<path d="M372.868 488.984L401.78 538.534L412.237 511.801L381.972 488.431L372.868 488.984Z" fill="#B91352"/>
<path d="M696.409 422.952L696.389 422.932L696.409 422.952L714.474 423.957L681.769 403.969L657.041 394.251L684.065 422.276L696.409 422.952Z" fill="#0089C0"/>
<path d="M578.077 439.188L554.333 451.202L531.84 460.816L529.154 494.191L546.111 486.463L573.074 462.6L578.077 439.188Z" fill="#00AA9E"/>
<path d="M578.077 439.189L618.225 466.885L611.561 422.276L578.077 439.189Z" fill="#009145"/>
<path d="M577.134 404.953L538.524 369.057L502.6 410.242L577.134 404.953Z" fill="#DDDC2B"/>
<path d="M573.074 462.6L600.017 478.713L624.315 483.08L618.205 466.885L578.078 439.188L573.074 462.6Z" fill="#46B492"/>
<path d="M505.04 438.942H449.248L449.576 479.287L498.11 455.568L505.04 438.942Z" fill="#FFD301"/>
<path d="M554.333 451.202L505.04 438.942L498.11 455.568L449.576 479.287L496.552 475.905L531.86 460.816L554.333 451.202Z" fill="#D2D830"/>
<path d="M496.552 475.905L490.851 493.084L500.796 507.024L505.799 514.056L529.154 494.191L531.84 460.816L496.552 475.905Z" fill="#31A8E0"/>
<path d="M490.851 493.064L471.72 511.924L491.938 530.805L505.799 514.056L500.796 507.025L490.851 493.064Z" fill="#1C91D0"/>
<path d="M573.074 462.6L546.111 486.463L571.106 487.447L600.017 478.713L573.074 462.6Z" fill="#01919D"/>
<path d="M695.22 431.296L684.065 422.276L655.359 420.164L674.9 435.355L693.026 459.156L699.546 454.933L717.324 462.539L725.198 455.568L695.22 431.296Z" fill="#047EB4"/>
<path d="M717.324 462.518L716.237 472.379L726.038 466.885L725.198 455.568L717.324 462.518Z" fill="#004C85"/>
<path d="M731.41 450.054L725.198 455.568L726.038 466.885L736.352 461.124L734.035 452.944L731.41 450.054Z" fill="#005C98"/>
<path d="M664.033 472.235L693.703 473.937L693.026 459.156L651.894 451.202L664.033 472.235Z" fill="#047EB4"/>
<path d="M655.359 420.164L651.894 451.202L693.026 459.156L674.9 435.355L655.359 420.164Z" fill="#0089C0"/>
<path d="M618.225 466.885L664.032 472.235L651.894 451.202L618.225 466.885Z" fill="#01919D"/>
<path d="M655.359 420.164L640.698 410.59L611.562 422.276L618.225 466.885L651.894 451.202L655.359 420.164Z" fill="#49AC4D"/>
<path d="M571.106 487.447L588.207 504.482L621.588 511.227L624.336 483.08L600.017 478.713L571.106 487.447Z" fill="#087EAC"/>
<path d="M653.657 517.705L624.315 483.08L621.588 511.227L653.657 517.705Z" fill="#31A8E0"/>
<path d="M296.837 450.423L278.773 463.379L292.757 498.004L323.678 453.108L296.837 450.423Z" fill="#B91352"/>
<path d="M373.278 360.344L316.378 364.423L328.189 396.363L372.868 410.59L373.278 360.344Z" fill="#F19026"/>
<path d="M328.189 396.363L307.971 414.117L297.371 432.403L296.837 450.423L356.629 438.943L328.189 396.363Z" fill="#E95041"/>
<path d="M417.26 401.017L373.278 360.344L372.868 410.59L417.26 401.017Z" fill="#EC6F29"/>
<path d="M372.868 410.591L328.189 396.363L356.649 438.943L372.868 410.591Z" fill="#ED7450"/>
<path d="M502.6 410.242L538.524 369.057L461.673 391.443L502.6 410.242Z" fill="#F7E838"/>
<path d="M461.673 391.443L538.524 369.057L481.891 371.455L450.252 370.328L417.26 401.017L461.673 391.443Z" fill="#FFD301"/>
<path d="M450.252 370.327L373.278 360.344L417.26 401.017L450.252 370.327Z" fill="#F19123"/>
<path d="M381.972 488.431L412.237 511.801V499.542L424.047 487.447L426.364 474.204L395.485 453.519L381.972 488.431Z" fill="#A61B18"/>
<path d="M426.365 474.203L449.576 479.287L449.248 438.942L426.365 474.203Z" fill="#F9EB5F"/>
<path d="M376.395 454.359L381.952 488.431L395.464 453.519L376.395 454.359Z" fill="#E3282B"/>
<path d="M418.901 419.938L395.464 453.518L426.364 474.203L449.247 438.942L418.901 419.938Z" fill="#DDDC2B"/>
<path d="M418.901 419.939L372.868 410.59L356.628 438.942L376.395 454.359L395.464 453.518L418.901 419.939Z" fill="#F19123"/>
<path d="M292.757 498.004L323.432 496.733L323.678 453.108L292.757 498.004Z" fill="#A61B18"/>
<path d="M296.837 450.423L323.678 453.108L323.432 496.733L350.334 482.239L356.649 438.942L296.837 450.423Z" fill="#E3282B"/>
<path d="M350.334 482.239L376.395 454.359L356.629 438.942L350.334 482.239Z" fill="#EC6F29"/>
</g>
<defs>
<linearGradient id="paint0_linear_24_1847" x1="1004.5" y1="0" x2="1004.5" y2="916" gradientUnits="userSpaceOnUse">
<stop stop-color="#00A74F"/>
<stop offset="1" stop-color="#17172F"/>
</linearGradient>
<clipPath id="clip0_24_1847">
<rect width="1789" height="349" fill="white" transform="translate(110 284)"/>
</clipPath>
</defs>
</svg>
