<?xml version="1.0" encoding="UTF-8"?>
<svg id="Capa_1" xmlns="http://www.w3.org/2000/svg" version="1.1" viewBox="0 0 1080 239.4">
  <!-- Generator: Adobe Illustrator 30.5.1, SVG Export Plug-In . SVG Version: 2.1.4 Build 3)  -->
  <defs>
    <style>
      .st0, .st1 {
        fill: #fff;
      }

      .st1 {
        fill-rule: evenodd;
      }

      .st2 {
        fill: #0ca54f;
      }

      .st3 {
        fill: #00a74f;
      }
    </style>
  </defs>
  <polygon class="st1" points="304.49 172.49 337.52 88.79 359.94 149.1 317.54 148.69 315.91 152.39 327.32 172.08 397.86 172.08 355.46 63.75 321.21 63.75 278.4 172.08 304.49 172.49"/>
  <polygon class="st1" points="415.39 172.49 441.49 172.08 441.49 92.07 471.25 172.49 513.25 172.49 513.25 63.75 487.56 63.75 487.56 142.54 457.39 64.16 415.39 63.75 415.39 172.49"/>
  <path class="st1" d="M578.49,149.1h52.19v23.39h-61.16c-53.41-3.69-56.67-105.46,4.49-108.74h54.23l-12.64,23.8h-34.25c-37.51,2.05-31.4,59.91-2.85,61.55h0Z"/>
  <path class="st1" d="M791.32,87.55h46.89l15.49-23.8h-68.5c-43.63,5.74-31.4,65.65,4.08,64.83h27.32c15.49,6.57,11.01,20.11,0,20.52h-59.12v23.39c20.79,0,42-.41,62.79-.41,44.85.82,43.22-64.42,3.26-66.47h-32.62c-7.34,0-11.82-17.64.41-18.05h0Z"/>
  <path class="st1" d="M868.39,63.75h26.5v61.96c.82,31.6,43.63,32.01,44.04,0v-61.96h26.5v68.53c-3.67,52.52-91.74,54.57-96.63,0l-.41-68.53Z"/>
  <path class="st1" d="M981.74,63.75h67.68c37.1,6.57,39.96,59.91,4.08,68.12l26.5,40.62h-34.66l-35.47-56.22v-4.51h28.54c18.35-.41,17.94-22.98,3.26-24.21h-33.84v84.94h-26.1V63.75Z"/>
  <path class="st1" d="M664.52,117.51c-.41-16.82,11.82-30.78,26.91-30.78s27.73,13.95,28.13,30.78c.41,17.23-11.82,30.78-26.91,30.78s-28.13-13.54-28.13-30.78h0ZM691.84,172.49c29.76,0,53.82-24.62,53.41-54.57,0-29.95-24.46-54.57-54.23-54.57s-53.41,24.62-53.41,54.57c.41,29.95,24.46,54.57,54.23,54.57h0Z"/>
  <polygon class="st1" points="304.49 172.49 337.52 88.79 359.94 149.1 317.54 148.69 315.91 152.39 327.32 172.08 397.86 172.08 355.46 63.75 321.21 63.75 278.4 172.08 304.49 172.49"/>
  <polygon class="st1" points="415.39 172.49 441.49 172.08 441.49 92.07 471.25 172.49 513.25 172.49 513.25 63.75 487.56 63.75 487.56 142.54 457.39 64.16 415.39 63.75 415.39 172.49"/>
  <path class="st1" d="M578.49,149.1h52.19v23.39h-61.16c-53.41-3.69-56.67-105.46,4.49-108.74h54.23l-12.64,23.8h-34.25c-37.51,2.05-31.4,59.91-2.85,61.55h0Z"/>
  <path class="st1" d="M791.32,87.55h46.89l15.49-23.8h-68.5c-43.63,5.74-31.4,65.65,4.08,64.83h27.32c15.49,6.57,11.01,20.11,0,20.52h-59.12v23.39c20.79,0,42-.41,62.79-.41,44.85.82,43.22-64.42,3.26-66.47h-32.62c-7.34,0-11.82-17.64.41-18.05h0Z"/>
  <path class="st1" d="M868.39,63.75h26.5v61.96c.82,31.6,43.63,32.01,44.04,0v-61.96h26.5v68.53c-3.67,52.52-91.74,54.57-96.63,0l-.41-68.53Z"/>
  <path class="st1" d="M981.74,63.75h67.68c37.1,6.57,39.96,59.91,4.08,68.12l26.5,40.62h-34.66l-35.47-56.22v-4.51h28.54c18.35-.41,17.94-22.98,3.26-24.21h-33.84v84.94h-26.1V63.75Z"/>
  <path class="st1" d="M664.52,117.51c-.41-16.82,11.82-30.78,26.91-30.78s27.73,13.95,28.13,30.78c.41,17.23-11.82,30.78-26.91,30.78s-28.13-13.54-28.13-30.78h0ZM691.84,172.49c29.76,0,53.82-24.62,53.41-54.57,0-29.95-24.46-54.57-54.23-54.57s-53.41,24.62-53.41,54.57c.41,29.95,24.46,54.57,54.23,54.57h0Z"/>
  <path class="st3" d="M789.01,195.86l-13.6,32.15h-4.53l-13.6-32.15h4.95l10.3,25.55c0,.82.41,1.65.41,2.89h.41c0-1.24.41-2.06.82-2.89l10.3-25.55h4.53ZM796.02,199.15c-.82,0-1.65,0-2.06-.41-.41-.82-.82-1.24-.82-2.06,0-.41.41-1.24.82-1.65.41-.41,1.24-.41,2.06-.41.41,0,1.24,0,1.65.41.82.41.82,1.24.82,1.65,0,.82,0,1.24-.82,1.65-.41.82-1.24.82-1.65.82h0ZM798.08,228.01h-4.53v-23.08h4.53v23.08ZM826.93,204.92l-10.3,23.08h-4.12l-9.89-23.08h4.53l6.59,16.9c.41,1.24.82,2.06.82,2.89h0c.41-.82.41-2.06.82-2.89l7.01-16.9h4.53ZM852.48,217.29h-18.55c0,2.47.82,4.53,2.47,6.18,1.24,1.24,3.3,2.06,6.18,2.06s5.36-.82,7.83-2.89v3.71c-2.06,1.24-5.36,2.06-9.07,2.06s-6.59-.82-8.66-3.3c-2.06-2.06-3.3-4.95-3.3-8.66,0-3.3,1.24-6.18,3.71-8.66,2.06-2.06,4.95-3.3,8.66-3.3,3.3,0,5.77.82,7.83,2.89,2.06,2.06,2.89,4.53,2.89,8.24v1.65ZM847.95,214.4c0-2.06-.41-4.12-1.65-4.95-1.24-1.24-2.89-2.06-4.53-2.06-2.06,0-3.71.82-5.36,2.06-1.24,1.24-2.06,2.89-2.47,4.95h14.01ZM873.5,228.01v-32.15h10.3c12.78,0,19.37,5.36,19.37,15.66,0,4.95-2.06,9.07-5.36,11.95-3.71,2.89-8.66,4.53-14.43,4.53h-9.89ZM878.04,199.15v25.55h5.36c4.53,0,8.66-1.24,11.13-3.71,2.47-2.06,4.12-5.36,4.12-9.48,0-8.24-4.95-12.36-15.25-12.36h-5.36ZM911.84,199.15c-.82,0-1.24,0-2.06-.41-.41-.82-.82-1.24-.82-2.06,0-.41.41-1.24.82-1.65.82-.41,1.24-.41,2.06-.41s1.24,0,2.06.41c.41.41.82,1.24.82,1.65,0,.82-.41,1.24-.82,1.65-.82.82-1.24.82-2.06.82h0ZM913.9,228.01h-4.12v-23.08h4.12v23.08ZM935.33,197.09c-.82-.41-1.65-.41-2.89-.41-2.89,0-4.53,1.65-4.53,4.95v3.3h6.18v3.3h-6.18v19.78h-4.12v-19.78h-4.53v-3.3h4.53v-3.71c0-2.47.82-4.12,2.47-5.77,1.65-1.24,3.71-2.06,5.77-2.06,1.24,0,2.47.41,3.3.41v3.3ZM959.65,217.29h-18.55c.41,2.47.82,4.53,2.47,6.18,1.65,1.24,3.71,2.06,6.18,2.06,2.89,0,5.77-.82,8.24-2.89v3.71c-2.47,1.24-5.36,2.06-9.07,2.06s-6.59-.82-9.07-3.3c-2.06-2.06-2.89-4.95-2.89-8.66,0-3.3,1.24-6.18,3.3-8.66,2.47-2.06,5.36-3.3,8.66-3.3s6.18.82,7.83,2.89c2.06,2.06,2.89,4.53,2.89,8.24v1.65ZM955.53,214.4c0-2.06-.82-4.12-2.06-4.95-.82-1.24-2.47-2.06-4.53-2.06s-3.71.82-4.95,2.06c-1.65,1.24-2.47,2.89-2.89,4.95h14.43ZM979.84,208.63c-.82-.41-2.06-.82-3.3-.82-1.65,0-3.3.82-4.53,2.47-1.24,1.24-1.65,3.3-1.65,5.77v11.95h-4.53v-23.08h4.53v4.95h0c.41-1.65,1.65-2.89,2.47-3.71,1.24-1.24,2.89-1.65,4.12-1.65s2.06,0,2.89.41v3.71ZM1004.99,217.29h-18.14c0,2.47.82,4.53,2.06,6.18,1.65,1.24,3.71,2.06,6.18,2.06,3.3,0,5.77-.82,8.24-2.89v3.71c-2.06,1.24-5.36,2.06-9.07,2.06s-6.59-.82-8.66-3.3c-2.06-2.06-3.3-4.95-3.3-8.66,0-3.3,1.24-6.18,3.71-8.66,2.06-2.06,4.95-3.3,8.24-3.3,3.71,0,6.18.82,8.24,2.89,1.65,2.06,2.47,4.53,2.47,8.24v1.65ZM1000.86,214.4c0-2.06-.41-4.12-1.65-4.95-1.24-1.24-2.89-2.06-4.95-2.06s-3.71.82-4.95,2.06c-1.24,1.24-2.06,2.89-2.47,4.95h14.01ZM1033.01,228.01h-4.12v-13.19c0-4.95-2.06-7.42-5.77-7.42-2.47,0-4.12.82-5.36,2.06-1.24,1.65-2.06,3.3-2.06,5.36v13.19h-4.12v-23.08h4.12v3.71h0c2.06-2.89,4.95-4.12,8.66-4.12,2.89,0,4.95.82,6.59,2.47,1.65,1.65,2.06,3.71,2.06,7.01v14.01ZM1053.21,227.59c-.82.41-2.47.82-3.71.82-4.95,0-7.01-2.06-7.01-6.59v-13.6h-4.53v-3.3h4.53v-5.36l4.12-1.24v6.59h6.59v3.3h-6.59v12.78c0,1.65.41,2.89.82,3.3.82.82,1.65,1.24,2.89,1.24s2.06-.41,2.89-.82v2.89ZM1080,217.29h-18.55c0,2.47.82,4.53,2.06,6.18,1.65,1.24,3.71,2.06,6.18,2.06,3.3,0,5.77-.82,8.24-2.89v3.71c-2.06,1.24-5.36,2.06-9.07,2.06s-6.59-.82-8.66-3.3c-2.06-2.06-3.3-4.95-3.3-8.66,0-3.3,1.24-6.18,3.71-8.66,2.06-2.06,4.95-3.3,8.24-3.3,3.71,0,6.18.82,8.24,2.89,1.65,2.06,2.89,4.53,2.89,8.24v1.65ZM1075.47,214.4c0-2.06-.41-4.12-1.65-4.95-1.24-1.24-2.89-2.06-4.95-2.06-1.65,0-3.71.82-4.95,2.06s-2.06,2.89-2.47,4.95h14.01Z"/>
  <g>
    <path class="st1" d="M220.77,129.47c-3.25,48.78-42.28,87.81-91.06,91.39v11.71h104.4v-103.1h-13.33Z"/>
    <path class="st1" d="M20.39,109.93C23.64,61.14,62.67,22.11,111.45,18.54V6.83H7.05v103.1h13.33Z"/>
    <path class="st0" d="M0,0v206.92l36.9-36.91c-.55-.87-1.08-1.75-1.61-2.64L3,199.68V3h234.74l-.02,233.4H40.22l31.64-31.64c-.87-.54-1.74-1.09-2.59-1.65l-36.29,36.29h207.73l.02-239.4H0Z"/>
    <g>
      <rect class="st2" x="42.08" y="190.62" width="10.92" height="3" transform="translate(-121.93 89.88) rotate(-45)"/>
      <rect class="st2" x="31.09" y="201.41" width="11.31" height="3" transform="translate(-132.71 85.42) rotate(-45)"/>
      <rect class="st2" x="20.07" y="212.45" width="11.27" height="3" transform="translate(-143.75 80.84) rotate(-45)"/>
      <rect class="st2" x="8.98" y="223.42" width="11.5" height="3" transform="translate(-154.73 76.3) rotate(-45)"/>
      <polygon class="st2" points=".08 237.46 .08 239.4 2.38 239.4 8.8 232.98 6.68 230.86 .08 237.46"/>
    </g>
    <g>
      <path class="st0" d="M106.87,103.87v2.54l.51,1.53.51,1.02,1.02,1.52.51,2.54s.51,1.02,1.02,1.02l.51.51h.51c.51,0,.51-.51,1.02-.51,0,0,.51-.51,1.02-1.02l.51-.51c0-.51.51-.51.51-1.02,0,0,1.02-1.02,1.02-1.52,0,0,1.02-1.02,1.02-1.53.51,0,1.02-.51,1.53-1.02l1.02-.51,1.53-1.53.51-.51-.51-.51v-1.02l-1.02-.51-1.52-.51-2.03-.51-2.54-1.02c-.51,0-2.54-.51-2.54-.51h-3.56q-.51,0-.51.51l-.51.51.51,1.02v1.52Z"/>
      <path class="st0" d="M200.05,86.36c-4.36-10.31-10.61-19.58-18.56-27.53-7.95-7.95-17.22-14.2-27.53-18.56-10.68-4.52-22.03-6.81-33.72-6.81s-23.04,2.29-33.72,6.81c-10.31,4.36-19.58,10.61-27.53,18.56-7.95,7.95-14.2,17.22-18.56,27.53-4.52,10.68-6.81,22.03-6.81,33.72s2.29,23.04,6.81,33.72c4.36,10.31,10.61,19.58,18.56,27.53,7.95,7.95,17.22,14.2,27.53,18.56,10.68,4.52,22.03,6.81,33.72,6.81s23.04-2.29,33.72-6.81c10.31-4.36,19.58-10.61,27.53-18.56,7.95-7.95,14.2-17.22,18.56-27.53,4.52-10.68,6.81-22.03,6.81-33.72s-2.29-23.04-6.81-33.72ZM165.84,98.79l-.51-.51-.51.51-1.02.51-1.52,1.02-2.03,1.02-3.05,1.52-1.02,1.02-.51,1.52v1.02c0,.51-.51.51-.51.51,0,0-.51,0-.51.51h-.51l-.51-.51v-.51c-.51-.51,0-.51,0-.51v-1.52c.51,0,.51-.51.51-.51v-1.52l1.02-.51,1.53-1.02,2.54-2.03c.51,0,2.03-1.02,2.03-1.02l1.02-.51h3.05l1.52.51.51.51v.51l-.51.51h-.51v-.51h-.51ZM130.25,74.9h-1.53c-.51,0-.51.51-1.02.51-1.02,0-1.52-.51-1.52-.51l.51-.51.51-.51,1.02-2.03s0-1.02.51-1.02v-1.52s0-1.02.51-1.02,2.03-.51,2.54-.51c.51-.51,2.03-.51,2.03-.51l1.02,1.02s.51,1.52,1.02,2.03v1.02l.51.51v1.52s.51,0,0,.51l-.51.51c0,.51-.51.51-1.02,1.02q-.51,0-1.02.51h-1.52c-.51,0,0,0-.51-.51h-1.02s.51-.51-.51-.51ZM125.17,58.63l-1.02-1.53v-2.54l.51-2.03,1.02-3.05.51-2.03,1.52-2.03,1.02-1.02h.51l.51.51v1.02s-.51,1.02-.51,1.53l-.51,3.05-.51,4.07-.51,3.56v3.05l.51,1.52.51,1.53.51.51-.51.51s0,.51-.51,0l-1.53-2.03h-1.02v-1.52c0-.51-.51-3.05-.51-3.05ZM93.14,66.76l-.51.51h-1.02l-.51-.51h-.51q0-.51-.51-.51-.51-.51-.51-1.02c-.51,0-1.53-.51-1.53-.51l-.51-.51c0-.51-1.02-1.02-1.02-1.02l-.51-1.02-.51-1.02-1.53-.51-.51-.51v-.51l.51-.51.51-1.52,1.52,1.52s1.02,1.02,1.02,1.53l2.03,2.54.51,1.02c.51,0,1.02.51,1.02.51,0,0,1.02.51,1.02,1.02h.51c0,.51.51.51.51.51l.51.51ZM132.29,62.69h-1.02c-.51,0-.51.51-.51,0s0-1.02-.51-1.52v-7.12l.51-1.02v-1.53l1.02.51h2.03v3.56c-.51.51-1.02,1.02-1.02,1.52v3.56c0,.51,0,1.02-.51,1.02,0,.51,1.02.51,0,1.02ZM135.84,62.19l-1.02-1.52-.51-4.07,1.02-5.08-.51-5.08v-3.87c4.89.92,9.62,2.29,14.14,4.06l-4.48,9.46-8.64,6.1ZM41.38,120.07c0-1.05.02-2.1.06-3.14l2.9-2.9,2.03-3.56,1.52-3.05v-8.13l3.05-5.59,1.02.51h.51l1.02,1.02v.51h1.02v-1.02s0-.51-.51-.51h-.51v-.51h-1.02s.51,0,0-.51c-.51-.51-1.02-1.52-1.02-1.52h-.51l1.53-1.52,2.54-2.03,1.52-2.03,3.05-4.07,2.03-3.05,1.52-3.05,3.56-4.07,2.54-2.54,2.54-2.03,2.54-1.53,1.02-1.02.51-.51,2.54-5.59,4.58,4.58,1.53,1.52,1.02,1.53,1.02,1.02,2.54,2.54-1.52-.51-1.02-.51-1.02.51h-.51l-3.56,2.03h-2.54l-1.53,1.02.51,1.53,1.02.51v1.02l1.52,1.02c.51,0,3.05.51,3.05.51l-.51,1.02-.51.51-3.05.51-3.05.51-1.52.51v.51l.51.51s-.51.51,0,1.02c1.02,0,3.56.51,4.58.51h4.58c1.02,0,5.59.51,5.59.51h4.07l1.02.51v1.02c0,.51-.51.51-1.02.51,0,.51-2.03,1.02-2.03,1.02,0,0,0,.51-1.02.51s-.51,0-1.52-.51h-2.03c-.51,0-2.54-.51-2.54-.51l-9.66-1.52-1.53,1.02-.51.51h2.54l12.2,1.53,1.53,1.52v1.53l-10.68,7.62-.51.51s-.51.51-.51,1.02l-1.53,5.08-.51,1.52-1.52,1.52-5.59,7.12-1.02,2.03-1.02,1.02-.51,1.02,2.03-.51,4.58-3.56,2.03-1.53,2.03-1.52,1.52-2.03,1.53-2.03,2.54-3.05,3.05-3.05,2.54-3.05,4.58-5.08,3.05-2.54.51-.51,3.05-2.54,2.54-3.05h1.02l1.52-1.52,2.03-2.03,1.52-.51,1.53-1.02,2.54-1.02,3.05-2.03h1.02l.51.51v1.02l-3.56,4.58v5.08l-1.52,3.05-.51,1.02-1.52,1.02-.51,1.52-.51,1.02.51.51v.51l.51.51s0,.51.51.51h1.53q.51-.51,1.02-.51h2.54c.51.51,2.54,1.02,2.54,1.02,0,0,1.02,0,1.02.51h3.05l.51-4.58,2.54,1.02,2.54,2.03,2.03,1.52,1.52,2.54.51,2.03.51.51.51.51.51,3.05-.51.51s-.51,1.02-.51,1.53v3.05l.51,1.02,1.02,2.54v5.59l-.51,4.07v2.54l1.52.51,1.53,1.02,1.52,1.53,1.02,1.52.51,1.02.51,1.02.51.51.51,3.05.51.51h1.02v-3.05l1.02,1.02s0,.51.51.51h1.02v-2.03s3.56-4.58,3.56-5.08l2.03-1.53,1.52,1.53.51,1.52.51,1.02v.51q0,.51-.51,1.02l-8.14,5.08v1.52l-1.02,6.1-.51.51-1.02-.51-1.52-4.07v-1.52l-.51-1.52-12.2-7.63h-1.52v4.58l-3.05,6.1v11.69l8.13,1.02,4.07-2.03,2.03-1.52,1.52-.51,3.05-3.05.51-.51h.51l1.02,1.53,2.03,2.03,3.56,3.05,3.56,2.54,1.53,1.02h1.02l5.08.51,3.05-2.54,3.05,1.02-3.56,4.07-7.12.51-3.56-2.54-7.63-3.05-5.59.51-4.58,1.02-4.58,2.03-4.07,2.03-2.54,2.03,1.53,4.58,2.54,4.58,1.02,1.52,1.02,1.02.51,1.02c-.51.51-1.52,2.03-1.52,2.03l-.51,1.52-.51-.51-.51-.51v-.51l-1.02,1.52v1.02l-1.02-.51-.51-1.02h-.51l-.51-.51-.51-.51,1.52-1.02.51-1.52.51-1.02.51-1.02v-1.02l-1.02-1.02h-1.02s-.51,0-.51.51c-.51,0-.51,1.53-.51,1.53l-.51,1.52v.51h-2.03l-4.58.51-2.54.51-2.54,1.02-2.03-2.03.51-1.53.51-1.52v-4.58l.51-.51.51-.51v-2.03h-.51s-.51,0-.51.51v1.53l-.51.51-.51.51-.51.51-1.52,2.54-2.03,3.05-.51.51-2.54-.51v-1.52l.51-.51.51-.51.51-1.02.51-.51.51-1.53.51-1.02h-1.52l-.51,1.53-.51,1.02-.51,1.02v1.02c0,.51-.51,1.02-.51,1.02,0,.51-.51,2.03,0,2.03v7.63l.51.51v1.52l.51.51v.51l1.02,1.52-.51,1.53s0,1.02-.51,1.52v.51l4.07.51,3.96,6.94c-1.76-.23-3.51-.53-5.23-.87.25.02.51.04.76.04v-1.02h-1.02q0-.51-.51-.51l-.51-.51v-.51c0-.51-.51-.51-.51-.51h-.51l-.51.51v.51l-.51.51h-.51v.62c-1.37-.35-2.73-.73-4.07-1.15v-.99h-1.02v.66c-.34-.11-.68-.23-1.02-.34v-5.91l2.54-8.14v-8.13l3.56-7.63,3.05-4.07,1.02-1.52.51-1.02.51-1.02-3.56-1.02-2.54-1.53-2.03-5.59v-.51l.51-.51c.51,0,1.02-.51,1.02-.51l.51-.51.51-.51.51-.51.51-1.53-1.02-1.02-.51-.51c0,.51-1.02,1.02-1.02,1.02,0,.51.51,1.52.51,1.52,0,.51-.51,1.02-.51,1.02l-1.52,1.52h-.51l-1.02-.51v-1.02l.51-.51v-3.05l-1.53-5.08-4.58-6.1h-.51v-.51l.51-1.02s.51-.51,1.02-.51l2.54-2.03,3.56-12.2v-8.64l-.51-.51-.51-.51v-1.52h-1.02s-.51,0-.51.51l-.51,2.03-1.53,3.05v1.02s-.51,0-.51.51h.51c.51,0,1.02.51,1.02.51v.51q0,.51-.51.51v.51c-.51.51-1.02,0-1.02,0v-1.02h-.51v.51c-.51.51,0,.51-.51.51h-.51v-.51l-.51-.51h-.51l-.51.51q0,.51-.51.51c-.51,0-.51-.51-.51-.51v-.51h.51c0-.51.51-1.02.51-1.02v-2.54l1.53-.51,1.52-2.54,2.03-2.03,1.52-3.05,1.02-2.54.51-2.03,1.02-2.03,1.02-1.52h1.02s0-.51.51-.51v-1.02s0-.51-.51-.51c0,0,.51-.51-.51,0l-1.02.51v1.02c-.51,0-1.02.51-1.02.51,0,0-1.02,0-1.02.51l-1.02,1.53-2.54,3.05-.51,1.53v1.52c-.51,0-1.02,3.05-1.02,3.05l-.51,1.02s-1.52,1.02-1.52,1.52c0,0-.51.51-.51,1.02l-1.02.51-.51.51-2.03,1.02h-1.02l-1.02.51-.51.51v-.51c.51,0,.51-.51.51-.51,0,0,0-.51.51-.51q0-.51.51-.51,0-.51.51-.51l.51-.51-.51-.51-.51-.51c0,.51-1.02.51-1.02,1.02l-.51,1.02-1.02,1.53s-.51.51-.51,1.02v1.02l-1.52,1.53-2.54,2.54-2.03,1.53-1.02,1.02-1.53,1.02-1.02,2.03-2.54,4.58-1.52,2.03-1.02,1.02v.51h1.52s1.02-.51,1.52-1.02c0,0,2.54-1.53,3.05-1.53l1.53-1.02.51-1.02v1.02l-1.02,1.53-2.54,2.54-2.03,2.03-1.02,1.02.51,5.08-1.02,3.05-1.02,2.54-.51,1.02s.51.51,1.02.51c0,0,1.52-.51,1.52-1.02.51,0,.51-.51,1.02-1.02l1.02-1.02,1.02-1.52.51-.51v2.03l-.51,2.54s-.51,1.02-.51,1.52l-2.03,6.1v8.64l1.02-.51c0-.51,1.52-1.52,1.52-1.52l1.02-.51s-.51,2.54-.51,3.05v2.03l.51,1.02v7.63l.51,1.52.51-1.52c0-.51.51-2.03.51-2.03,0,0,0-1.02.51-1.52.51,0,1.52-2.03,1.52-2.03l1.02-2.54h.51c0,.51.51,2.54.51,2.54.51.51,0,10.17,0,10.17l2.54,5.08v3.05l-.51,1.53v1.39c-23.35-13.71-39.05-39.09-39.05-68.06ZM88.57,164.88h-1.53c-.51.51-1.02,0-1.02,0l.51-.51.51-.51s.51-.51.51-1.02l.51-.51v-.51c0-.51.51-1.02.51-1.02l1.02-1.02c0-.51.51-1.02.51-1.02v-2.03c.51,0,1.52-.51,1.52-.51h.51l1.02,1.02q0,.51.51,1.02v.51q-.51.51-1.02,1.02t-1.02,1.53c-.51.51-1.02,1.02-1.52,1.52,0,.51-.51,1.02-1.02,1.52,0,0,.51,0-.51.51ZM82.45,189.28s.01,0,.01,0c0,0,0-1.02.51-1.02v-1.52c.51-.51,1.02-2.03,1.02-2.03v-1.02l.51-4.58.51-.51v-.51l.51-.51v.51s.51.51.51,1.02v1.52c0,.51.51,3.05.51,3.56l.51,2.03c0,.51,1.02,1.02,1.02,1.02,0,0,1.02-.51,1.53-.51l1.52-.51s1.02,0,1.02.51l-.51,3.56c.51.51,0,3.05,0,3.05.58.29,1.16.58,1.75.87-1.74-.63-3.45-1.32-5.12-2.07l.33-.33-.51-.51h-.51l-.36.36c-1.61-.75-3.19-1.54-4.74-2.39ZM119.58,198.94l-.51-11.18,2.54,1.52.51,2.03,3.95,7.41c-1.92.14-3.87.21-5.83.21-.22,0-.45,0-.67,0Z"/>
    </g>
  </g>
</svg>