<?xml version="1.0" encoding="UTF-8"?>
<svg id="Capa_1" xmlns="http://www.w3.org/2000/svg" version="1.1" viewBox="0 0 1080 239.4">
  <!-- Generator: Adobe Illustrator 30.5.1, SVG Export Plug-In . SVG Version: 2.1.4 Build 3)  -->
  <defs>
    <style>
      .st0 {
        fill: #00a74f;
      }

      .st1 {
        fill-rule: evenodd;
      }
    </style>
  </defs>
  <g>
    <polygon class="st1" points="304.49 172.49 337.52 88.79 359.94 149.1 317.54 148.69 315.91 152.39 327.32 172.08 397.86 172.08 355.46 63.75 321.21 63.75 278.4 172.08 304.49 172.49"/>
    <polygon class="st1" points="415.39 172.49 441.49 172.08 441.49 92.07 471.25 172.49 513.25 172.49 513.25 63.75 487.56 63.75 487.56 142.54 457.39 64.16 415.39 63.75 415.39 172.49"/>
    <path class="st1" d="M578.49,149.1h52.19v23.39h-61.16c-53.41-3.69-56.67-105.46,4.49-108.74h54.23l-12.64,23.8h-34.25c-37.51,2.05-31.4,59.91-2.85,61.55h0Z"/>
    <path class="st1" d="M791.32,87.55h46.89l15.49-23.8h-68.5c-43.63,5.74-31.4,65.65,4.08,64.83h27.32c15.49,6.57,11.01,20.11,0,20.52h-59.12v23.39c20.79,0,42-.41,62.79-.41,44.85.82,43.22-64.42,3.26-66.47h-32.62c-7.34,0-11.82-17.64.41-18.05h0Z"/>
    <path class="st1" d="M868.39,63.75h26.5v61.96c.82,31.6,43.63,32.01,44.04,0v-61.96h26.5v68.53c-3.67,52.52-91.74,54.57-96.63,0l-.41-68.53Z"/>
    <path class="st1" d="M981.74,63.75h67.68c37.1,6.57,39.96,59.91,4.08,68.12l26.5,40.62h-34.66l-35.47-56.22v-4.51h28.54c18.35-.41,17.94-22.98,3.26-24.21h-33.84v84.94h-26.1V63.75Z"/>
    <path class="st1" d="M664.52,117.51c-.41-16.82,11.82-30.78,26.91-30.78s27.73,13.95,28.13,30.78c.41,17.23-11.82,30.78-26.91,30.78s-28.13-13.54-28.13-30.78h0ZM691.84,172.49c29.76,0,53.82-24.62,53.41-54.57,0-29.95-24.46-54.57-54.23-54.57s-53.41,24.62-53.41,54.57c.41,29.95,24.46,54.57,54.23,54.57h0Z"/>
    <polygon class="st1" points="304.49 172.49 337.52 88.79 359.94 149.1 317.54 148.69 315.91 152.39 327.32 172.08 397.86 172.08 355.46 63.75 321.21 63.75 278.4 172.08 304.49 172.49"/>
    <polygon class="st1" points="415.39 172.49 441.49 172.08 441.49 92.07 471.25 172.49 513.25 172.49 513.25 63.75 487.56 63.75 487.56 142.54 457.39 64.16 415.39 63.75 415.39 172.49"/>
    <path class="st1" d="M578.49,149.1h52.19v23.39h-61.16c-53.41-3.69-56.67-105.46,4.49-108.74h54.23l-12.64,23.8h-34.25c-37.51,2.05-31.4,59.91-2.85,61.55h0Z"/>
    <path class="st1" d="M791.32,87.55h46.89l15.49-23.8h-68.5c-43.63,5.74-31.4,65.65,4.08,64.83h27.32c15.49,6.57,11.01,20.11,0,20.52h-59.12v23.39c20.79,0,42-.41,62.79-.41,44.85.82,43.22-64.42,3.26-66.47h-32.62c-7.34,0-11.82-17.64.41-18.05h0Z"/>
    <path class="st1" d="M868.39,63.75h26.5v61.96c.82,31.6,43.63,32.01,44.04,0v-61.96h26.5v68.53c-3.67,52.52-91.74,54.57-96.63,0l-.41-68.53Z"/>
    <path class="st1" d="M981.74,63.75h67.68c37.1,6.57,39.96,59.91,4.08,68.12l26.5,40.62h-34.66l-35.47-56.22v-4.51h28.54c18.35-.41,17.94-22.98,3.26-24.21h-33.84v84.94h-26.1V63.75Z"/>
    <path class="st1" d="M664.52,117.51c-.41-16.82,11.82-30.78,26.91-30.78s27.73,13.95,28.13,30.78c.41,17.23-11.82,30.78-26.91,30.78s-28.13-13.54-28.13-30.78h0ZM691.84,172.49c29.76,0,53.82-24.62,53.41-54.57,0-29.95-24.46-54.57-54.23-54.57s-53.41,24.62-53.41,54.57c.41,29.95,24.46,54.57,54.23,54.57h0Z"/>
    <path class="st0" d="M789.01,195.86l-13.6,32.15h-4.53l-13.6-32.15h4.95l10.3,25.55c0,.82.41,1.65.41,2.89h.41c0-1.24.41-2.06.82-2.89l10.3-25.55h4.53ZM796.02,199.15c-.82,0-1.65,0-2.06-.41-.41-.82-.82-1.24-.82-2.06,0-.41.41-1.24.82-1.65.41-.41,1.24-.41,2.06-.41.41,0,1.24,0,1.65.41.82.41.82,1.24.82,1.65,0,.82,0,1.24-.82,1.65-.41.82-1.24.82-1.65.82h0ZM798.08,228.01h-4.53v-23.08h4.53v23.08ZM826.93,204.92l-10.3,23.08h-4.12l-9.89-23.08h4.53l6.59,16.9c.41,1.24.82,2.06.82,2.89h0c.41-.82.41-2.06.82-2.89l7.01-16.9h4.53ZM852.48,217.29h-18.55c0,2.47.82,4.53,2.47,6.18,1.24,1.24,3.3,2.06,6.18,2.06s5.36-.82,7.83-2.89v3.71c-2.06,1.24-5.36,2.06-9.07,2.06s-6.59-.82-8.66-3.3c-2.06-2.06-3.3-4.95-3.3-8.66,0-3.3,1.24-6.18,3.71-8.66,2.06-2.06,4.95-3.3,8.66-3.3,3.3,0,5.77.82,7.83,2.89,2.06,2.06,2.89,4.53,2.89,8.24v1.65ZM847.95,214.4c0-2.06-.41-4.12-1.65-4.95-1.24-1.24-2.89-2.06-4.53-2.06-2.06,0-3.71.82-5.36,2.06-1.24,1.24-2.06,2.89-2.47,4.95h14.01ZM873.5,228.01v-32.15h10.3c12.78,0,19.37,5.36,19.37,15.66,0,4.95-2.06,9.07-5.36,11.95-3.71,2.89-8.66,4.53-14.43,4.53h-9.89ZM878.04,199.15v25.55h5.36c4.53,0,8.66-1.24,11.13-3.71,2.47-2.06,4.12-5.36,4.12-9.48,0-8.24-4.95-12.36-15.25-12.36h-5.36ZM911.84,199.15c-.82,0-1.24,0-2.06-.41-.41-.82-.82-1.24-.82-2.06,0-.41.41-1.24.82-1.65.82-.41,1.24-.41,2.06-.41s1.24,0,2.06.41c.41.41.82,1.24.82,1.65,0,.82-.41,1.24-.82,1.65-.82.82-1.24.82-2.06.82h0ZM913.9,228.01h-4.12v-23.08h4.12v23.08ZM935.33,197.09c-.82-.41-1.65-.41-2.89-.41-2.89,0-4.53,1.65-4.53,4.95v3.3h6.18v3.3h-6.18v19.78h-4.12v-19.78h-4.53v-3.3h4.53v-3.71c0-2.47.82-4.12,2.47-5.77,1.65-1.24,3.71-2.06,5.77-2.06,1.24,0,2.47.41,3.3.41v3.3ZM959.65,217.29h-18.55c.41,2.47.82,4.53,2.47,6.18,1.65,1.24,3.71,2.06,6.18,2.06,2.89,0,5.77-.82,8.24-2.89v3.71c-2.47,1.24-5.36,2.06-9.07,2.06s-6.59-.82-9.07-3.3c-2.06-2.06-2.89-4.95-2.89-8.66,0-3.3,1.24-6.18,3.3-8.66,2.47-2.06,5.36-3.3,8.66-3.3s6.18.82,7.83,2.89c2.06,2.06,2.89,4.53,2.89,8.24v1.65ZM955.53,214.4c0-2.06-.82-4.12-2.06-4.95-.82-1.24-2.47-2.06-4.53-2.06s-3.71.82-4.95,2.06c-1.65,1.24-2.47,2.89-2.89,4.95h14.43ZM979.84,208.63c-.82-.41-2.06-.82-3.3-.82-1.65,0-3.3.82-4.53,2.47-1.24,1.24-1.65,3.3-1.65,5.77v11.95h-4.53v-23.08h4.53v4.95h0c.41-1.65,1.65-2.89,2.47-3.71,1.24-1.24,2.89-1.65,4.12-1.65s2.06,0,2.89.41v3.71ZM1004.99,217.29h-18.14c0,2.47.82,4.53,2.06,6.18,1.65,1.24,3.71,2.06,6.18,2.06,3.3,0,5.77-.82,8.24-2.89v3.71c-2.06,1.24-5.36,2.06-9.07,2.06s-6.59-.82-8.66-3.3c-2.06-2.06-3.3-4.95-3.3-8.66,0-3.3,1.24-6.18,3.71-8.66,2.06-2.06,4.95-3.3,8.24-3.3,3.71,0,6.18.82,8.24,2.89,1.65,2.06,2.47,4.53,2.47,8.24v1.65ZM1000.86,214.4c0-2.06-.41-4.12-1.65-4.95-1.24-1.24-2.89-2.06-4.95-2.06s-3.71.82-4.95,2.06c-1.24,1.24-2.06,2.89-2.47,4.95h14.01ZM1033.01,228.01h-4.12v-13.19c0-4.95-2.06-7.42-5.77-7.42-2.47,0-4.12.82-5.36,2.06-1.24,1.65-2.06,3.3-2.06,5.36v13.19h-4.12v-23.08h4.12v3.71h0c2.06-2.89,4.95-4.12,8.66-4.12,2.89,0,4.95.82,6.59,2.47,1.65,1.65,2.06,3.71,2.06,7.01v14.01ZM1053.21,227.59c-.82.41-2.47.82-3.71.82-4.95,0-7.01-2.06-7.01-6.59v-13.6h-4.53v-3.3h4.53v-5.36l4.12-1.24v6.59h6.59v3.3h-6.59v12.78c0,1.65.41,2.89.82,3.3.82.82,1.65,1.24,2.89,1.24s2.06-.41,2.89-.82v2.89ZM1080,217.29h-18.55c0,2.47.82,4.53,2.06,6.18,1.65,1.24,3.71,2.06,6.18,2.06,3.3,0,5.77-.82,8.24-2.89v3.71c-2.06,1.24-5.36,2.06-9.07,2.06s-6.59-.82-8.66-3.3c-2.06-2.06-3.3-4.95-3.3-8.66,0-3.3,1.24-6.18,3.71-8.66,2.06-2.06,4.95-3.3,8.24-3.3,3.71,0,6.18.82,8.24,2.89,1.65,2.06,2.89,4.53,2.89,8.24v1.65ZM1075.47,214.4c0-2.06-.41-4.12-1.65-4.95-1.24-1.24-2.89-2.06-4.95-2.06-1.65,0-3.71.82-4.95,2.06-1.24,1.24-2.06,2.89-2.47,4.95h14.01Z"/>
  </g>
  <g>
    <g>
      <path class="st1" d="M83.62,59.54l.65-1.95,1.63,1.63s.98,1.3.98,1.63l2.28,2.6.65.65c0,.33.98.98.98.98,0,0,.65.33.65.65.33,0,.33.33.65.33l.33.33q.33.33.33.65s.33-.33,0,0l-.33.65q-.33,0-.65-.33h-.65c0-.33-.65-.33-.65-.65l-.33-.33c-.33-.33-.33-.65-.65-.65-.65-.33-1.63-.98-1.63-.98,0,0-.33-.33-.33-.65-.33,0-.98-.65-.98-.65l-.65-.98-.65-.98-.98-.65-.65-.65h-.33v-.33l.33-.33Z"/>
      <path class="st1" d="M126.87,73.85l.98-1.63s.33-.98.33-1.3c0-.65.33-1.3.33-1.3,0,0,.33-.98.65-.98.65-.33,1.63-.65,2.28-.65.65-.33,1.95-.65,1.95-.65h.33l.65,1.3.98,1.63c0,.33.33.98.33,1.3q.33.33.33.65v.98c0,.33.33.33,0,.65q0,.33-.33.65c-.33.33-.65.65-1.3.98q-.33.33-.65.33c-.33.33.33.33-.33.33-.98,0-.98-.33-1.3-.33s-.33.33-.98,0l-.33-.33s0-.33-.65-.33h-1.3q-.98.33-1.63.33c-.65,0-1.3-.65-1.3-.65l.65-.33.33-.65Z"/>
      <path class="st1" d="M153.54,103.12v1.3c0,.33-.33.65-.33.65,0,.33,0,.65-.33.65q0,.33.33.65v.65c.33,0,.65.33.65.33h.33c.33,0,.33-.33.65-.33,0-.33.33-.33.33-.33,0-.33.33-.98.33-.98v-1.95l1.3-.65,2.93-1.63,2.28-1.3,1.63-.65.98-.65.33-.33h.65v.33l.33.33h.65l.33-.33v-.33l-.65-.65-1.3-.33h-3.25s-.65,0-.65.33c-.33,0-1.95,1.3-1.95,1.3-.33,0-2.93,1.63-2.93,1.63l-1.63.98-.65.65-.33.65Z"/>
      <path class="st1" d="M130.45,52.06h1.3l.98.33h.98v1.95c0,.33,0,.98-.33,1.3-.33.65-.65,1.3-.98,1.63v3.58c0,.33,0,.98-.33,1.3,0,.33.65.33,0,.65q-.98.33-1.3.33c0-.33,0,0-.33-.33q0-.65-.33-1.3v-1.3q-.33-.33-.33-.98v-.65c0-.65,0-1.3.33-1.63v-2.6l.33-1.3v-.98Z"/>
      <path class="st1" d="M123.95,54.66l.65-1.95.98-2.93.65-2.28,1.3-1.95.98-.65.65-.33s.33.33.33.65c.33,0,0,.65,0,.98,0,0-.33.98-.33,1.3s-.65,3.58-.65,3.58l-.65,3.9-.65,3.25v2.93l.65,1.63.65,1.3.65.98-.33.65h-.65c-.33-.33-1.63-1.95-1.63-1.95l-1.3-.33s0-.65.33-1.3c0-.65-.98-3.25-.98-3.25l-.33-1.63-.33-1.63v-.98Z"/>
      <path class="st1" d="M86.87,163.62l.65-.65.65-.65v-.65c0-.33,0-.98.33-.98,0-.33.98-.98.98-1.3.33,0,.65-.65.65-.65v-.65l-.33-.65.33-.65c.33,0,1.3-.98,1.3-.98,0,0,.33.33.65.65.33,0,.65.65.98.98,0,0,.33.33.33.65,0,0,.33.65,0,.65-.33.33-.33.65-.98.98-.33.33-.65.65-.98,1.3-.65.65-1.3,1.63-1.3,1.63-.33.33-.98,1.3-.98,1.3-.33.33.65.33-.65.65-1.3.33-.98.33-1.3.33h-.98v-.65l.65-.65Z"/>
      <path class="st1" d="M33.86,120.36c0,47.81,38.7,86.51,86.19,86.51s86.51-38.7,86.51-86.51-38.7-86.51-86.51-86.51S33.86,72.55,33.86,120.36h0ZM73.86,127.84l1.3-1.63v-.98h-.65l-.33.98s-1.3.98-1.63.98c-.33.33-2.6,1.95-2.93,1.95s-1.3.65-1.63.65c-.33.33-.98.33-.98.33v-.65l.98-.98,1.3-2.28,2.6-4.55.98-1.95c0-.33,1.3-.98,1.3-.98,0-.33.98-.98.98-.98l2.28-1.63,2.6-2.28,1.3-1.63.33-1.3.33-.98.65-1.3s.65-.98.98-1.3c0,0,.65-.33.98-.65l.65.33v.65l-.33.33c-.33,0-.33.33-.65.33,0,.33-.33.33-.33.65-.33.33-.65.65-.65.65,0,0,0,.33-.33.33v.98l.33-.98h1.3c0-.33.98-.33.98-.33l1.63-.98.65-.65s1.3-.33,1.3-.65l.33-.98,1.3-1.3.65-1.3s.65-2.93.98-2.93c0-.33.33-1.3.33-1.3-.33-.33.33-1.63.33-1.63,0,0,2.28-2.93,2.28-3.25l1.3-1.3c0-.33.98-.33.98-.65.33,0,.65,0,.65-.33,0,0,.33,0,.33-.33v-.65l.98-.65c1.3-.65.65.33.65.33.33,0,.33.33.33.33v.65c-.33.33-.33.65-.33.65h-.98l-.33.33-.65,1.63-.98,1.63-.98,2.28-.98,2.28-1.3,2.93-1.95,2.6-1.63,1.95-1.3.65-.33,1.63v1.3s-.33.33-.33.65q-.33,0-.33.33-.33,0-.33.33c0,.33.33,0,.33,0,0,0,0,.33.33.33.33.33,0,0,.33,0v-.33s.33,0,.33-.33c0,0,.33,0,.65-.33h.33s.33.33.33.65v.33h.33c.33.33.33,0,.33,0,.33,0,0,0,.33-.33v-.33c0-.33.33-.33.33-.33h.33l.33.65v.33s.33.33.65.33q0-.33.33-.65v-.98l-.65-.33c0-.33-.65-.33-.65-.65l.33-.33.33-.65,1.3-2.93s.33-2.28.33-2.6h1.63v1.3l.33.33.65.98v8.46l-3.25,12.03s-2.6,1.95-2.93,1.95l-.98.65-.33.65v.65l.65.33,4.23,5.85,1.63,4.88v3.25s-.33.33-.33.65c-.33,0-.33.33-.33.33,0,.33.33.65.33.65,0,0,.65.33.98.33h.65l1.3-1.3c0-.33.33-.65.33-.98v-1.3c0-.33.65-.98.65-1.3s.33,0,.33,0l.98,1.3v1.63l-.65.65-.33.33-.65.65s-.65.33-.98.65l-.33.33-.33.65,2.28,5.2,2.28,1.63,3.58.98-.33.98-.98.98-.98,1.63-2.6,4.23-3.58,7.81v7.81l-2.6,7.81v6.18h0c-.98-.33-2.28-.65-3.25-1.3h0s.33-2.6.33-2.93v-3.9c0-.33-.65-.33-.65-.33,0,0-1.63.33-1.95.33s-1.3.33-1.3.33c0,0-.65-.33-.98-.65,0,0-.33-1.95-.33-2.28,0,0-.65-2.6-.65-2.93v-1.95c0-.33-.33-.98-.33-.98l-.33-.33-.33.33v.33l-.65.65v4.55l-.65.98c0,.33-.33,1.95-.65,1.95,0,.33-.33,1.3-.33,1.63v1.3h-.33s-.65-.33-.98-.65c-.33,0-.65-.33-.98-.65h0v-1.3c0-.33.33-1.63.33-1.63l.33-1.3v-1.95l-2.6-4.88s.33-9.76.33-10.08c-.33,0-.98-2.28-.98-2.28,0-.33-.65-.33-.65-.33l-.65,2.28s-1.3,2.28-1.63,2.6c-.33.33-.65.98-.65.98l-.33,1.95c0,.33-.33,1.95-.33,1.95h-.33l-.33-1.63v-7.48l-.65-.98v-2.28c0-.33.33-2.93.33-2.93l-.65.33c-.33,0-1.63,1.3-1.63,1.63l-.98.65v-8.78s1.95-5.85,1.95-6.18c.33-.33.65-.98.65-.98l.33-2.6v-2.28l-.33.65-.98.98s-.98,1.3-1.3,1.63c-.33,0-.33.65-.65.98-.33,0-1.63.65-1.95.65l-.98-.33.65-1.3.65-2.6,1.3-2.93-.33-4.88.98-.98,2.28-1.95,2.28-2.6ZM107.69,109.3l-.33-1.3-.33-1.3-.33-1.3v-1.63l-.33-1.63v-.98s0-.33.33-.33c0-.33.33-.65.33-.65h1.63l1.95.33c.33,0,2.28.33,2.6.33l2.6.98s1.95.33,2.28.65l1.3.65.98.33.33.65v.98s0,.33-.33.33c0,.33-1.3,1.63-1.3,1.63,0,0-1.3.33-1.63.65,0,.33-.65.65-.98.98-.33.33-.98,1.3-1.3,1.63,0,.33-.98.98-.98,1.3s-.33.65-.33.98c-.33.33-.65.33-.98.65,0,.33-.33.65-.65.98-.33,0-.65.33-.98.33h-.65l-.33-.33c-.33-.33-.98-1.3-.98-1.3l-.65-2.28-.98-1.3ZM128.83,98.25l-1.95-1.63-2.6-1.95-2.6-.98v4.55s-1.3.33-1.63.33-1.3-.33-1.63-.33c-.33-.33-.98-.65-.98-.65l-2.28-.65c-.33-.33-.98,0-1.3,0-.33-.33-1.3-.33-1.63-.33-.33.33-.65.33-.98.33-.33.33-.98.33-1.63.33-.33,0-.33-.33-.33-.33l-.33-.65-.33-.65-.33-.33.33-1.3.65-.98,1.3-1.3.65-1.3,1.3-2.6.33-5.2s3.25-4.23,3.25-4.55c.33-.33,0-.98,0-.98l-.65-.33h-.65l-3.25,1.63-2.6,1.3s-1.3.65-1.3.98c-.33,0-1.3.33-1.3.33l-2.28,1.95-1.3,1.63h-.98l-2.6,3.25-2.93,2.6-.65.33-2.93,2.6-4.55,5.2-2.93,2.93-2.6,2.93-2.6,2.93-1.63,2.28-1.3,1.95-1.95,1.63-2.6,1.63-4.55,3.25-1.63.65-.33-.33.65-.65.98-1.3.98-1.95,5.85-6.83,1.63-1.63.33-1.63s1.63-4.88,1.63-5.2.33-.98.33-.98l.33-.65,10.73-7.16.33-.65-.33-.98-1.63-1.95-12.36-.98h-1.95v-.33l1.63-1.63,9.76,1.63s2.28.33,2.6.65c.33,0,.65,0,1.95.33.98,0,.65,0,1.63.33.98,0,.98-.33.98-.33,0,0,1.95-.98,2.28-1.3,0,0,.65-.33.65-.65v-.98l-.98-.33c-.33-.33-2.28-.33-2.28-.33h-7.16c-.65-.33-4.23-.33-4.88-.33-.65-.33-3.58-.65-4.23-.65-.65-.33-.33-.65-.33-.65l-.33-.98.33-.33,1.3-.33,2.6-.65,3.25-.65.65-.65.33-.65-2.6-.65c-.33,0-1.95-.98-1.95-.98v-.98l-.98-.33-.33-1.63,1.3-.65s.98-.33,1.3-.33c.65,0,1.3-.33,1.3-.33l3.58-1.63.65-.33.98-.33.98.33,1.63.65-2.6-2.6-1.3-.98-.98-1.3-1.63-1.63-4.23-4.55-2.28,5.53-.65.65-.98.98-2.93,1.3-2.28,1.95-2.6,2.93s-3.25,3.58-3.58,3.9c0,.33-1.63,2.93-1.63,2.93l-1.95,3.25-2.93,4.23-1.63,1.63-2.6,2.28-1.3,1.3.33.33s.65.65,1.3.98c.33.65,0,.65,0,.65,0,0,.33.33.65.33s.33.33.33.33h.33c.33,0,.65.33.65.33v.98c0,.33-.33.33-.98.33-.33,0-.33-.65-.33-.65l-.65-.65-.65-.33-1.3-.33-2.6,5.53v8.13l-1.63,2.93-2.28,3.58-2.6,2.93-.33.33c1.63-42.28,36.1-76.1,78.71-76.1,4.88,0,9.76.33,14.31,1.3l.33,4.23.33,4.55-.65,5.53v3.9l.98,1.63,8.78-6.18,4.23-9.43.33-.33c29.27,11.38,50.09,40,50.09,73.5,0,41.63-32.2,75.78-72.85,78.71l-.33-.33-3.9-7.16-.65-2.28-1.95-1.63v11.38c-3.25,0-6.5-.33-9.43-.65l-3.9-7.16-4.23-.33s.33-.33.33-.65.65-1.3.65-1.3v-1.3l-.65-1.95-.33-.33-.33-.33.33-1.3-.33-.65-.33-.65-.33-.98v-6.5c-.33,0,.33-1.3.33-1.63s0-.65.33-.98c0-.33.33-1.3.33-1.3l.33-.98.33-.98.65-1.63h1.3l-.33,1.3-.33.98-.65.98-.65.65-.65.65v.65l-.33,1.3,2.28.65.65-.33,2.28-3.25,1.3-2.6.65-.65.33-.33c.33,0,.33-.33.65-.33v-1.63c0-.33.33-.65.33-.65h.65v.33c0,.33.33.98,0,.98,0,.33-.33.65-.33.65v.65l-.98.33v4.88l-.65,1.3v1.63l1.95,2.28,2.6-.98,2.28-.65,4.55-.65h1.95l.33-.65.33-1.3s.33-1.3.33-1.63.65-.33.65-.33h.98l.98.98.33.65-.33,1.63-.65.65-.98,1.3-1.3,1.63h.33l.65.33.65.65.65.65.65.65.33-.65v-.65l.65-1.3.33.33.33.98h.65l.33-1.3,1.3-1.95c.33-.33,0-.98,0-.98l-.98-.98-1.3-1.63-2.28-4.88-1.95-4.55,2.6-1.95,3.9-1.95,4.55-1.95,4.55-.98,6.18-.33,7.16,2.93,3.9,2.28,6.83-.33,3.58-3.9-2.93-.98-3.25,2.28-4.88-.33-.98-.33-1.63-.98-3.58-2.28-3.58-3.25-1.95-1.95-.98-1.3-.65-.33-.33.65-2.93,2.93-1.63.65-2.28,1.3-4.23,2.28-7.81-.98v-11.71l2.93-6.18v-4.23h1.3l12.36,7.48.65,1.3.33,1.63,1.3,4.23h1.3l1.3-6.18v-1.63s7.81-5.2,8.13-5.2c0-.33.33-.65.33-.65.33-.33.33-.98.33-.98l-.98-.98-.33-1.3-1.3-1.63-2.28,1.63c0,.33-3.58,4.88-3.58,4.88v2.28h-.65s-.33-.33-.65-.33l-.33-.33-.98-.98v2.93h-.65l-.98-.65v-2.93l-.65-.33-.65-.98-.65-1.3-.98-1.3-1.3-1.63-1.63-.98-1.63-.65.33-2.6.33-3.58v-5.53l-.98-2.93-.65-.98v-2.93c0-.33.65-1.3.65-1.3l.33-.65-.33-3.25-.33-.33-.65-.65-.65-1.95-1.63-2.6ZM101.51,195.17l.33-.33v-.33l.33-.65h.65s0,.33.33.65v.65s.33,0,.33.33q.33,0,.33.33h.33c.33,0,.65.33.65.33,0,0,.33,0,.33.33,0,0,.33,0,0,.33v.65h0c-1.63-.33-2.93-.65-4.55-.98,0-.33.33-.65.33-.65l.33-.33.33-.33ZM95.65,194.51v-.33h.98v.98l-.98-.33h0v-.33ZM87.2,191.26h.98v.65c-.33,0-.65-.33-.98-.33v-.33h0Z"/>
    </g>
    <path class="st1" d="M220.69,129.47c-3.25,48.78-42.28,87.81-91.06,91.39v11.71h104.4v-103.1h-13.33Z"/>
    <path class="st1" d="M20.31,109.93C23.56,61.14,62.59,22.11,111.37,18.54V6.83H6.97v103.1h13.33Z"/>
    <path d="M0,0v206.92l36.9-36.91c-.55-.87-1.08-1.75-1.61-2.64L3,199.68V3h234.74l-.02,233.4H40.22l31.64-31.64c-.87-.54-1.74-1.09-2.59-1.65l-36.29,36.29h207.73l.02-239.4H0Z"/>
    <g>
      <rect class="st0" x="42" y="190.62" width="10.92" height="3" transform="translate(-121.95 89.83) rotate(-45)"/>
      <rect class="st0" x="31.02" y="201.41" width="11.31" height="3" transform="translate(-132.73 85.36) rotate(-45)"/>
      <rect class="st0" x="20" y="212.45" width="11.27" height="3" transform="translate(-143.78 80.79) rotate(-45)"/>
      <rect class="st0" x="8.9" y="223.42" width="11.5" height="3" transform="translate(-154.75 76.24) rotate(-45)"/>
      <polygon class="st0" points="0 237.46 0 239.4 2.3 239.4 8.72 232.98 6.6 230.86 0 237.46"/>
    </g>
  </g>
</svg>