<?xml version="1.0" encoding="UTF-8"?>
<svg id="Capa_2" data-name="Capa 2" xmlns="http://www.w3.org/2000/svg" viewBox="0 0 734.48 190.28">
  <defs>
    <style>
      .cls-1 {
        fill: #b9d31b;
      }
    </style>
  </defs>
  <g id="Capa_3" data-name="Capa 3">
    <g>
      <g>
        <g>
          <path d="M248.96,1.37c1.47,0,2.59.4,3.39,1.19.79.79,1.19,1.92,1.19,3.39v51.27h17.95c1.46,0,2.59.4,3.39,1.19.79.79,1.19,1.92,1.19,3.39v3.66c0,1.46-.4,2.6-1.19,3.39-.79.79-1.92,1.19-3.39,1.19h-26.64c-1.46,0-2.6-.4-3.39-1.19-.79-.79-1.19-1.92-1.19-3.39V5.95c0-1.46.4-2.6,1.19-3.39.79-.79,1.92-1.19,3.39-1.19h4.12Z"/>
          <path d="M330.35,65.01c.12.73.18,1.22.18,1.46,0,1.16-.37,2.05-1.1,2.65-.73.61-1.77.92-3.11.92h-4.21c-2.75,0-4.43-1.34-5.04-4.03l-2.02-8.97h-17.67l-2.01,8.97c-.61,2.69-2.29,4.03-5.04,4.03h-4.21c-1.34,0-2.38-.31-3.11-.92-.73-.61-1.1-1.5-1.1-2.65,0-.24.06-.73.18-1.46l14.28-59.6c.61-2.69,2.29-4.03,5.04-4.03h9.61c2.75,0,4.42,1.34,5.04,4.03l14.28,59.6ZM312.31,44.68l-6.04-27.47-6.13,27.47h12.18Z"/>
          <path d="M340.7,65.6c-3.79-3.87-5.68-9.32-5.68-16.34,0-.49.4-.85,1.19-1.1.79-.24,1.92-.37,3.39-.37h4.21c3.05,0,4.58.09,4.58.27v.37c0,3.42.81,6.01,2.43,7.78,1.62,1.77,3.83,2.65,6.64,2.65,2.62,0,4.73-.75,6.32-2.24,1.59-1.5,2.38-3.49,2.38-6,0-1.77-.34-3.17-1.01-4.21-.67-1.04-1.43-1.79-2.29-2.24-.86-.46-2.2-1.02-4.03-1.69l-7.23-2.66c-3.3-1.28-6-2.59-8.1-3.94-2.11-1.34-3.85-3.25-5.22-5.72-1.37-2.47-2.06-5.66-2.06-9.57,0-4.15.94-7.78,2.84-10.89,1.89-3.11,4.45-5.51,7.69-7.19s6.84-2.52,10.8-2.52c4.21,0,7.92.92,11.12,2.75,3.2,1.83,5.69,4.44,7.46,7.83,1.77,3.39,2.66,7.31,2.66,11.77,0,.31-.4.54-1.19.69-.79.15-1.92.23-3.39.23h-4.21c-3.05,0-4.58-.12-4.58-.37v-.37c0-3.23-.78-5.71-2.33-7.41-1.56-1.71-3.56-2.57-6-2.57-2.14,0-3.95.66-5.45,1.97-1.5,1.31-2.24,3.13-2.24,5.45,0,2.08.61,3.68,1.83,4.81,1.22,1.13,2.9,2.06,5.04,2.79l8.24,2.84c5,1.71,8.74,4.01,11.22,6.91,2.47,2.9,3.71,7.13,3.71,12.68,0,4.45-.98,8.3-2.93,11.54-1.95,3.24-4.61,5.69-7.97,7.37-3.36,1.68-7.11,2.52-11.26,2.52-7.26,0-12.79-1.94-16.57-5.81Z"/>
          <path d="M416.23,68.76c-3.36-1.77-6-4.35-7.92-7.74-1.92-3.39-2.88-7.4-2.88-12.04v-26.55c0-4.64.96-8.65,2.88-12.04,1.92-3.39,4.56-5.96,7.92-7.74,3.36-1.77,7.17-2.66,11.45-2.66s8.01.89,11.4,2.66c3.39,1.77,6.04,4.35,7.97,7.74,1.92,3.39,2.88,7.4,2.88,12.04,0,1.1-.4,1.94-1.19,2.52-.79.58-1.92.87-3.39.87h-4.12c-1.46,0-2.6-.29-3.39-.87-.79-.58-1.19-1.39-1.19-2.43,0-3.11-.86-5.51-2.56-7.19-1.71-1.68-3.85-2.52-6.41-2.52s-4.7.84-6.41,2.52c-1.71,1.68-2.56,4.07-2.56,7.19v26.37c0,3.11.85,5.5,2.56,7.14s3.85,2.47,6.41,2.47,4.7-.82,6.41-2.47c1.71-1.65,2.56-4.03,2.56-7.14,0-1.34.4-2.36,1.19-3.07.79-.7,1.92-1.05,3.39-1.05h4.12c1.46,0,2.59.36,3.39,1.1.79.73,1.19,1.77,1.19,3.11,0,4.64-.96,8.65-2.88,12.04-1.92,3.39-4.58,5.97-7.97,7.74-3.39,1.77-7.19,2.65-11.4,2.65s-8.09-.88-11.45-2.65Z"/>
          <path d="M469.75,68.76c-3.39-1.77-6.04-4.35-7.97-7.74-1.92-3.39-2.88-7.4-2.88-12.04v-26.55c0-4.64.96-8.65,2.88-12.04,1.92-3.39,4.58-5.96,7.97-7.74,3.39-1.77,7.22-2.66,11.49-2.66s8,.9,11.35,2.7c3.36,1.8,6,4.38,7.92,7.74,1.92,3.36,2.88,7.36,2.88,12v26.55c0,4.64-.96,8.64-2.88,11.99-1.92,3.36-4.56,5.94-7.92,7.74-3.36,1.8-7.14,2.7-11.35,2.7s-8.1-.88-11.49-2.65ZM487.6,56.03c1.68-1.65,2.52-4.03,2.52-7.14v-26.37c0-3.11-.84-5.51-2.52-7.19-1.68-1.68-3.8-2.52-6.36-2.52s-4.87.82-6.55,2.47c-1.68,1.65-2.52,4.06-2.52,7.23v26.37c0,3.18.84,5.57,2.52,7.19,1.68,1.62,3.86,2.43,6.55,2.43s4.68-.82,6.36-2.47Z"/>
          <path d="M522.71,1.37c1.47,0,2.59.4,3.39,1.19.79.79,1.19,1.92,1.19,3.39v51.27h17.95c1.46,0,2.59.4,3.39,1.19.79.79,1.19,1.92,1.19,3.39v3.66c0,1.46-.4,2.6-1.19,3.39-.79.79-1.92,1.19-3.39,1.19h-26.64c-1.46,0-2.6-.4-3.39-1.19-.79-.79-1.19-1.92-1.19-3.39V5.95c0-1.46.4-2.6,1.19-3.39s1.92-1.19,3.39-1.19h4.12Z"/>
          <path d="M571.69,65.46c0,1.46-.4,2.6-1.19,3.39-.79.79-1.92,1.19-3.39,1.19h-4.12c-1.46,0-2.6-.4-3.39-1.19-.79-.79-1.19-1.92-1.19-3.39V5.95c0-1.46.4-2.6,1.19-3.39s1.92-1.19,3.39-1.19h4.12c1.47,0,2.59.4,3.39,1.19.79.79,1.19,1.92,1.19,3.39v59.51Z"/>
          <path d="M615.18,5.95c0-1.46.4-2.6,1.19-3.39.79-.79,1.92-1.19,3.39-1.19h3.66c1.46,0,2.59.4,3.39,1.19.79.79,1.19,1.92,1.19,3.39v59.51c0,1.46-.4,2.6-1.19,3.39-.79.79-1.92,1.19-3.39,1.19h-5.22c-2.63,0-4.4-1.16-5.31-3.48l-16.66-38.91v37.81c0,1.46-.4,2.6-1.19,3.39s-1.92,1.19-3.39,1.19h-3.66c-1.46,0-2.6-.4-3.39-1.19-.79-.79-1.19-1.92-1.19-3.39V5.95c0-1.46.4-2.6,1.19-3.39s1.92-1.19,3.39-1.19h5.59c2.62,0,4.39,1.16,5.31,3.48l16.3,38.18V5.95Z"/>
          <path d="M685.4,65.01c.12.73.18,1.22.18,1.46,0,1.16-.37,2.05-1.1,2.65-.73.61-1.77.92-3.11.92h-4.21c-2.75,0-4.43-1.34-5.04-4.03l-2.02-8.97h-17.67l-2.01,8.97c-.61,2.69-2.29,4.03-5.04,4.03h-4.21c-1.34,0-2.38-.31-3.11-.92-.73-.61-1.1-1.5-1.1-2.65,0-.24.06-.73.18-1.46l14.28-59.6c.61-2.69,2.29-4.03,5.04-4.03h9.61c2.75,0,4.42,1.34,5.04,4.03l14.28,59.6ZM667.37,44.68l-6.04-27.47-6.13,27.47h12.18Z"/>
          <path d="M695.75,65.6c-3.79-3.87-5.68-9.32-5.68-16.34,0-.49.4-.85,1.19-1.1.79-.24,1.92-.37,3.39-.37h4.21c3.05,0,4.58.09,4.58.27v.37c0,3.42.81,6.01,2.43,7.78,1.62,1.77,3.83,2.65,6.64,2.65,2.62,0,4.73-.75,6.32-2.24,1.59-1.5,2.38-3.49,2.38-6,0-1.77-.34-3.17-1.01-4.21-.67-1.04-1.43-1.79-2.29-2.24-.86-.46-2.2-1.02-4.03-1.69l-7.23-2.66c-3.3-1.28-6-2.59-8.1-3.94-2.11-1.34-3.85-3.25-5.22-5.72s-2.06-5.66-2.06-9.57c0-4.15.94-7.78,2.84-10.89,1.89-3.11,4.45-5.51,7.69-7.19s6.84-2.52,10.8-2.52c4.21,0,7.92.92,11.12,2.75,3.2,1.83,5.69,4.44,7.46,7.83,1.77,3.39,2.66,7.31,2.66,11.77,0,.31-.4.54-1.19.69-.79.15-1.92.23-3.39.23h-4.21c-3.05,0-4.58-.12-4.58-.37v-.37c0-3.23-.78-5.71-2.33-7.41s-3.56-2.57-6-2.57c-2.14,0-3.95.66-5.45,1.97-1.5,1.31-2.24,3.13-2.24,5.45,0,2.08.61,3.68,1.83,4.81,1.22,1.13,2.9,2.06,5.04,2.79l8.24,2.84c5,1.71,8.74,4.01,11.22,6.91,2.47,2.9,3.71,7.13,3.71,12.68,0,4.45-.98,8.3-2.93,11.54-1.95,3.24-4.61,5.69-7.97,7.37-3.36,1.68-7.11,2.52-11.26,2.52-7.26,0-12.79-1.94-16.57-5.81Z"/>
        </g>
        <g>
          <path d="M239.42,96.11c0-2.11.57-3.73,1.71-4.88s2.77-1.71,4.87-1.71h24.63c6.32,0,11.9,1.36,16.73,4.08,4.83,2.72,8.58,6.54,11.26,11.46,2.68,4.92,4.02,10.58,4.02,16.99v33.72c0,6.41-1.34,12.07-4.02,16.99-2.68,4.92-6.43,8.74-11.26,11.46-4.83,2.72-10.41,4.08-16.73,4.08h-24.63c-2.11,0-3.73-.57-4.87-1.71-1.14-1.14-1.71-2.76-1.71-4.87v-85.61ZM283.54,122.32c0-4.3-1.16-7.77-3.49-10.4-2.33-2.63-5.47-3.95-9.42-3.95h-12.12v61.9h12.12c3.95,0,7.09-1.29,9.42-3.89,2.33-2.59,3.49-6.03,3.49-10.34v-33.32Z"/>
          <path d="M366.78,89.52c2.11,0,3.73.57,4.87,1.71,1.14,1.14,1.71,2.77,1.71,4.88v5.27c0,2.11-.57,3.73-1.71,4.87-1.14,1.14-2.77,1.71-4.87,1.71h-29.77v20.15h25.42c2.11,0,3.73.57,4.87,1.71,1.14,1.14,1.71,2.77,1.71,4.87v5.14c0,2.11-.57,3.73-1.71,4.87s-2.77,1.71-4.87,1.71h-25.42v23.44h29.77c2.11,0,3.73.57,4.87,1.71,1.14,1.14,1.71,2.76,1.71,4.87v5.27c0,2.11-.57,3.73-1.71,4.87-1.14,1.14-2.77,1.71-4.87,1.71h-42.28c-2.11,0-3.73-.57-4.87-1.71-1.14-1.14-1.71-2.76-1.71-4.87v-85.61c0-2.11.57-3.73,1.71-4.88s2.77-1.71,4.87-1.71h42.28Z"/>
          <path d="M492.29,89.52c2.11,0,3.73.57,4.87,1.71,1.14,1.14,1.71,2.77,1.71,4.88v85.61c0,2.11-.57,3.73-1.71,4.87-1.14,1.14-2.77,1.71-4.87,1.71h-5.27c-2.11,0-3.73-.57-4.87-1.71-1.14-1.14-1.71-2.76-1.71-4.87v-57.16l-17.25,40.43c-.7,1.76-1.56,3.03-2.57,3.82-1.01.79-2.26,1.19-3.75,1.19s-2.75-.39-3.75-1.19c-1.01-.79-1.87-2.06-2.57-3.82l-17.25-40.43v57.16c0,2.11-.57,3.73-1.71,4.87s-2.77,1.71-4.87,1.71h-5.27c-2.11,0-3.73-.57-4.87-1.71-1.14-1.14-1.71-2.76-1.71-4.87v-85.61c0-2.11.57-3.73,1.71-4.88s2.77-1.71,4.87-1.71h8.03c3.69,0,6.23,1.67,7.64,5.01l19.76,44.25,19.76-44.25c1.4-3.34,3.95-5.01,7.64-5.01h8.03Z"/>
          <path d="M529.76,186.46c-4.87-2.55-8.69-6.26-11.46-11.13-2.76-4.88-4.15-10.65-4.15-17.32v-38.19c0-6.67,1.38-12.45,4.15-17.32,2.77-4.87,6.59-8.58,11.46-11.13,4.87-2.54,10.38-3.82,16.53-3.82s11.5,1.3,16.33,3.89c4.83,2.59,8.63,6.3,11.39,11.13,2.76,4.83,4.15,10.58,4.15,17.26v38.19c0,6.67-1.38,12.43-4.15,17.25-2.77,4.83-6.57,8.54-11.39,11.13-4.83,2.59-10.27,3.89-16.33,3.89s-11.66-1.27-16.53-3.82ZM555.45,168.15c2.41-2.37,3.62-5.8,3.62-10.28v-37.93c0-4.48-1.21-7.92-3.62-10.34-2.42-2.41-5.47-3.62-9.15-3.62s-7,1.18-9.42,3.55c-2.42,2.37-3.62,5.84-3.62,10.41v37.93c0,4.57,1.21,8.01,3.62,10.34,2.41,2.33,5.55,3.49,9.42,3.49s6.74-1.18,9.15-3.55Z"/>
          <path d="M656.27,180.53c.53,1.14.79,2.2.79,3.16,0,1.41-.51,2.53-1.51,3.36-1.01.84-2.44,1.25-4.28,1.25h-7.11c-3.69,0-6.24-1.67-7.64-5.01l-14.62-33.32h-9.35v31.61c0,2.11-.57,3.74-1.71,4.88-1.14,1.14-2.76,1.71-4.87,1.71h-5.93c-2.11,0-3.73-.57-4.87-1.71-1.14-1.14-1.71-2.77-1.71-4.88v-85.48c0-2.11.57-3.73,1.71-4.88s2.77-1.71,4.87-1.71h25.68c6.67,0,12.45,1.3,17.32,3.89,4.87,2.59,8.58,6.12,11.13,10.6,2.55,4.48,3.82,9.57,3.82,15.28s-1.45,11.44-4.35,16.4c-2.9,4.96-7.07,8.67-12.51,11.13l15.15,33.72ZM612.54,107.96v23.97h11.85c4.74,0,8.25-1.1,10.54-3.29,2.28-2.19,3.42-5.09,3.42-8.69s-1.14-6.5-3.42-8.69c-2.28-2.19-5.8-3.29-10.54-3.29h-11.85Z"/>
          <path d="M685.57,186.46c-4.87-2.55-8.69-6.26-11.46-11.13-2.76-4.88-4.15-10.65-4.15-17.32v-38.19c0-6.67,1.38-12.45,4.15-17.32,2.77-4.87,6.59-8.58,11.46-11.13,4.87-2.54,10.38-3.82,16.53-3.82s11.5,1.3,16.33,3.89c4.83,2.59,8.63,6.3,11.39,11.13,2.76,4.83,4.15,10.58,4.15,17.26v38.19c0,6.67-1.38,12.43-4.15,17.25-2.77,4.83-6.57,8.54-11.39,11.13-4.83,2.59-10.27,3.89-16.33,3.89s-11.66-1.27-16.53-3.82ZM711.25,168.15c2.41-2.37,3.62-5.8,3.62-10.28v-37.93c0-4.48-1.21-7.92-3.62-10.34-2.42-2.41-5.47-3.62-9.15-3.62s-7,1.18-9.42,3.55c-2.42,2.37-3.62,5.84-3.62,10.41v37.93c0,4.57,1.21,8.01,3.62,10.34,2.41,2.33,5.55,3.49,9.42,3.49s6.74-1.18,9.15-3.55Z"/>
        </g>
      </g>
      <g>
        <path d="M43.55,140.92c52.33-9.7,125.47,8.67,95.09,11.05-32.42,4.9-37.19,4.67-49.51,6.75-3.35.57-21.86,5.04,9.37,9.85l24.02,4.08s17.78,2.4.72,8.41c-17.06,6.01-34.59,7.21-34.59,7.21,0,0,18.74-2.64,20.9-9.13,2.16-6.49-44.44-9.85-44.44-9.85,0,0-27.87-2.88-6.25-11.29,0,0,35.79-9.13,26.43-12.01-9.91-2.28-17.32-2.98-41.73-5.08Z"/>
        <g>
          <polygon points="102.19 110.2 100.54 122.77 107.1 122.77 105.24 110.2 102.19 110.2"/>
          <polygon points="111.08 103.15 115.59 103.15 109 95.07 112.77 95.07 106.85 86.32 109.73 86.32 103.84 75.55 103.84 75.5 103.82 75.53 103.81 75.5 103.81 75.55 97.92 86.32 100.79 86.32 94.88 95.07 98.65 95.07 92.06 103.15 96.56 103.15 89.8 112.16 117.84 112.16 111.08 103.15"/>
        </g>
        <g>
          <polygon points="125.37 112.83 124.37 120.47 128.35 120.47 127.22 112.83 125.37 112.83"/>
          <polygon points="130.77 108.55 133.51 108.55 129.51 103.64 131.79 103.64 128.2 98.32 129.95 98.32 126.37 91.78 126.37 91.75 126.36 91.76 126.35 91.75 126.35 91.78 122.77 98.32 124.52 98.32 120.92 103.64 123.21 103.64 119.21 108.55 121.95 108.55 117.84 114.03 134.88 114.03 130.77 108.55"/>
        </g>
        <g>
          <polygon class="cls-1" points="59.62 110.54 58.44 119.57 63.15 119.57 61.81 110.54 59.62 110.54"/>
          <polygon class="cls-1" points="66.01 105.47 69.25 105.47 64.51 99.67 67.22 99.67 62.97 93.38 65.04 93.38 60.8 85.64 60.8 85.61 60.79 85.62 60.78 85.61 60.78 85.64 56.55 93.38 58.61 93.38 54.37 99.67 57.07 99.67 52.34 105.47 55.58 105.47 50.72 111.95 70.87 111.95 66.01 105.47"/>
        </g>
        <path d="M37.93,119.59s19.26-2.2,39.33,1.4c0,0-19.67,4.4-39.33,16.63v-18.03Z"/>
        <path class="cls-1" d="M150.94,117.69v26.16s-50.28-15.78-96.96-7.94c0,0,37.08-22.32,96.96-18.22Z"/>
        <path d="M95.02,1.37C42.85,1.37,0,44.23,0,96.4v91.91h37.89v-92.53c0-31.06,25.46-56.52,56.51-56.52s56.51,25.46,56.51,56.52v92.53h38.52v-91.91C189.42,44.23,147.19,1.37,95.02,1.37Z"/>
      </g>
    </g>
  </g>
</svg>