<?xml version="1.0" encoding="UTF-8"?>
<svg id="Capa_2" data-name="Capa 2" xmlns="http://www.w3.org/2000/svg" viewBox="0 0 700 167.18">
  <defs>
    <style>
      .cls-1 {
        fill: #fff;
      }
    </style>
  </defs>
  <g id="Capa_3" data-name="Capa 3">
    <g>
      <polygon class="cls-1" points="0 17.24 150.06 167.18 0 167.18 0 17.24"/>
      <g>
        <g>
          <path class="cls-1" d="M201.64,164.91c-.11-.11-.17-.24-.17-.39s0-.25.03-.31l6.96-18.15c.15-.41.45-.62.9-.62h1.91c.45,0,.75.21.9.62l6.93,18.15.06.31c0,.15-.06.28-.17.39-.11.11-.24.17-.39.17h-1.43c-.21,0-.36-.05-.48-.15-.11-.1-.19-.21-.22-.32l-1.54-3.98h-9.2l-1.54,3.98c-.04.11-.12.22-.24.32-.12.1-.28.15-.46.15h-1.43c-.15,0-.28-.06-.39-.17ZM214.09,158.21l-3.79-9.96-3.79,9.96h7.57Z"/>
          <path class="cls-1" d="M225.13,164.9c-.12-.12-.18-.28-.18-.46v-18.31c0-.21.06-.37.18-.49.12-.12.28-.18.46-.18h6.84c2.15,0,3.83.5,5.05,1.51,1.21,1.01,1.82,2.47,1.82,4.38,0,1.42-.35,2.59-1.05,3.51-.7.92-1.69,1.55-2.96,1.91l4.32,7.46c.06.11.08.21.08.31,0,.15-.06.28-.18.39-.12.11-.26.17-.41.17h-1.35c-.28,0-.5-.06-.66-.2-.16-.13-.3-.32-.44-.56l-4.07-7.12h-4.91v7.24c0,.19-.06.34-.2.46-.13.12-.29.18-.48.18h-1.43c-.19,0-.34-.06-.46-.18ZM232.32,154.81c2.78,0,4.18-1.17,4.18-3.51s-1.39-3.51-4.18-3.51h-4.63v7.01h4.63Z"/>
          <path class="cls-1" d="M258.21,166.72c-.15-.12-.29-.28-.42-.46l-1.15-1.57c-.97.45-2.14.67-3.51.67-2.43,0-4.31-.64-5.65-1.92-1.34-1.28-2.04-3.21-2.12-5.79-.02-.56-.03-1.36-.03-2.38s0-1.81.03-2.36c.07-2.52.8-4.45,2.19-5.76,1.38-1.32,3.24-1.98,5.58-1.98s4.22.66,5.6,1.98c1.37,1.32,2.1,3.24,2.17,5.76.04,1.08.06,1.87.06,2.36s-.02,1.26-.06,2.38c-.07,2.56-.75,4.48-2.02,5.75l1.85,2.64c.06.11.08.21.08.31v.06c0,.13-.06.25-.17.35-.11.1-.24.15-.39.15h-1.51c-.21,0-.38-.06-.53-.18ZM256.68,161.63c.89-.9,1.37-2.27,1.44-4.12.04-1.12.06-1.87.06-2.24,0-.41-.02-1.16-.06-2.24-.07-1.85-.56-3.23-1.44-4.12-.89-.9-2.07-1.35-3.55-1.35s-2.66.45-3.53,1.35c-.88.9-1.36,2.27-1.43,4.12-.02.54-.03,1.29-.03,2.24s0,1.68.03,2.24c.07,1.85.55,3.22,1.43,4.12.88.9,2.06,1.35,3.53,1.35s2.66-.45,3.55-1.35Z"/>
          <path class="cls-1" d="M269.7,163.41c-1.32-1.3-1.98-3.27-1.98-5.9v-11.39c0-.21.06-.37.18-.49s.28-.18.46-.18h1.43c.21,0,.37.06.49.18.12.12.18.29.18.49v11.44c0,1.8.42,3.14,1.26,4.04.84.9,2.03,1.35,3.56,1.35s2.72-.45,3.56-1.35c.84-.9,1.26-2.24,1.26-4.04v-11.44c0-.21.06-.37.18-.49.12-.12.28-.18.46-.18h1.46c.19,0,.34.07.46.2.12.13.18.29.18.48v11.39c0,2.64-.66,4.6-1.98,5.9-1.32,1.3-3.18,1.95-5.6,1.95s-4.28-.65-5.6-1.95Z"/>
          <path class="cls-1" d="M290.53,164.9c-.12-.12-.18-.28-.18-.46v-18.34c0-.19.06-.34.18-.46.12-.12.28-.18.46-.18h1.49c.19,0,.34.06.46.18s.18.28.18.46v18.34c0,.19-.06.34-.18.46s-.28.18-.46.18h-1.49c-.19,0-.34-.06-.46-.18Z"/>
          <path class="cls-1" d="M305.29,164.9c-.12-.12-.18-.28-.18-.46v-16.49h-5.38c-.19,0-.34-.06-.46-.18-.12-.12-.18-.28-.18-.46v-1.18c0-.19.06-.35.18-.48.12-.13.28-.2.46-.2h13.52c.21,0,.37.06.49.18.12.12.18.29.18.49v1.18c0,.19-.07.34-.2.46s-.29.18-.48.18h-5.36v16.49c0,.19-.07.34-.2.46-.13.12-.29.18-.48.18h-1.46c-.19,0-.34-.06-.46-.18Z"/>
          <path class="cls-1" d="M320.04,164.9c-.12-.12-.18-.28-.18-.46v-18.31c0-.21.06-.37.18-.49.12-.12.28-.18.46-.18h11.58c.19,0,.34.06.46.18.12.12.18.29.18.49v1.06c0,.19-.06.34-.17.46-.11.12-.27.18-.48.18h-9.54v6.14h8.92c.19,0,.34.06.46.18.12.12.18.29.18.49v1.04c0,.19-.06.34-.18.46-.12.12-.28.18-.46.18h-8.92v6.37h9.76c.21,0,.36.06.48.17.11.11.17.27.17.48v1.09c0,.19-.06.34-.18.46-.12.12-.28.18-.46.18h-11.81c-.19,0-.34-.06-.46-.18Z"/>
          <path class="cls-1" d="M340.82,163.34c-1.3-1.35-2-3.21-2.09-5.58-.02-.51-.03-1.33-.03-2.47s0-2,.03-2.52c.09-2.36.79-4.21,2.1-5.57,1.31-1.36,3.21-2.03,5.69-2.03,1.66,0,3.08.29,4.24.88,1.16.59,2.04,1.36,2.64,2.31.6.95.93,1.97.98,3.06v.06c0,.15-.06.28-.18.38-.12.1-.26.15-.41.15h-1.54c-.37,0-.61-.21-.7-.64-.32-1.4-.89-2.39-1.71-2.96-.82-.57-1.93-.86-3.31-.86-3.22,0-4.88,1.79-4.99,5.36-.02.5-.03,1.28-.03,2.33s0,1.84.03,2.38c.11,3.57,1.78,5.36,4.99,5.36,1.38,0,2.49-.29,3.32-.86s1.4-1.56,1.7-2.96c.06-.24.14-.41.25-.5.11-.09.26-.14.45-.14h1.54c.17,0,.31.05.44.15.12.1.17.24.15.41-.06,1.1-.38,2.13-.98,3.09-.6.95-1.48,1.73-2.64,2.31-1.16.59-2.57.88-4.24.88-2.51,0-4.41-.67-5.71-2.02Z"/>
          <path class="cls-1" d="M365.42,164.9c-.12-.12-.18-.28-.18-.46v-16.49h-5.38c-.19,0-.34-.06-.46-.18-.12-.12-.18-.28-.18-.46v-1.18c0-.19.06-.35.18-.48.12-.13.28-.2.46-.2h13.52c.21,0,.37.06.49.18.12.12.18.29.18.49v1.18c0,.19-.07.34-.2.46s-.29.18-.48.18h-5.36v16.49c0,.19-.07.34-.2.46-.13.12-.29.18-.48.18h-1.46c-.19,0-.34-.06-.46-.18Z"/>
          <path class="cls-1" d="M381.8,163.41c-1.32-1.3-1.98-3.27-1.98-5.9v-11.39c0-.21.06-.37.18-.49s.28-.18.46-.18h1.43c.21,0,.37.06.49.18.12.12.18.29.18.49v11.44c0,1.8.42,3.14,1.26,4.04.84.9,2.03,1.35,3.56,1.35s2.72-.45,3.56-1.35c.84-.9,1.26-2.24,1.26-4.04v-11.44c0-.21.06-.37.18-.49.12-.12.28-.18.46-.18h1.46c.19,0,.34.07.46.2.12.13.18.29.18.48v11.39c0,2.64-.66,4.6-1.98,5.9-1.32,1.3-3.18,1.95-5.6,1.95s-4.28-.65-5.6-1.95Z"/>
          <path class="cls-1" d="M402.64,164.9c-.12-.12-.18-.28-.18-.46v-18.31c0-.21.06-.37.18-.49.12-.12.28-.18.46-.18h6.84c2.15,0,3.83.5,5.05,1.51,1.21,1.01,1.82,2.47,1.82,4.38,0,1.42-.35,2.59-1.05,3.51-.7.92-1.69,1.55-2.96,1.91l4.32,7.46c.06.11.08.21.08.31,0,.15-.06.28-.18.39-.12.11-.26.17-.41.17h-1.35c-.28,0-.5-.06-.66-.2-.16-.13-.3-.32-.44-.56l-4.07-7.12h-4.91v7.24c0,.19-.06.34-.2.46-.13.12-.29.18-.48.18h-1.43c-.19,0-.34-.06-.46-.18ZM409.83,154.81c2.78,0,4.18-1.17,4.18-3.51s-1.39-3.51-4.18-3.51h-4.63v7.01h4.63Z"/>
          <path class="cls-1" d="M421.92,164.91c-.11-.11-.17-.24-.17-.39s0-.25.03-.31l6.96-18.15c.15-.41.45-.62.9-.62h1.91c.45,0,.75.21.9.62l6.93,18.15.06.31c0,.15-.06.28-.17.39-.11.11-.24.17-.39.17h-1.43c-.21,0-.36-.05-.48-.15-.11-.1-.19-.21-.22-.32l-1.54-3.98h-9.2l-1.54,3.98c-.04.11-.12.22-.24.32-.12.1-.28.15-.46.15h-1.43c-.15,0-.28-.06-.39-.17ZM434.37,158.21l-3.79-9.96-3.79,9.96h7.57Z"/>
          <path class="cls-1" d="M455.53,163.34c-1.3-1.35-2-3.21-2.09-5.58-.02-.51-.03-1.33-.03-2.47s0-2,.03-2.52c.09-2.36.79-4.21,2.1-5.57,1.31-1.36,3.21-2.03,5.69-2.03,1.66,0,3.08.29,4.24.88,1.16.59,2.04,1.36,2.64,2.31.6.95.93,1.97.98,3.06v.06c0,.15-.06.28-.18.38-.12.1-.26.15-.41.15h-1.54c-.37,0-.61-.21-.7-.64-.32-1.4-.89-2.39-1.71-2.96-.82-.57-1.93-.86-3.31-.86-3.22,0-4.88,1.79-4.99,5.36-.02.5-.03,1.28-.03,2.33s0,1.84.03,2.38c.11,3.57,1.78,5.36,4.99,5.36,1.38,0,2.49-.29,3.32-.86.83-.57,1.4-1.56,1.7-2.96.06-.24.14-.41.25-.5.11-.09.26-.14.45-.14h1.54c.17,0,.31.05.44.15.12.1.17.24.15.41-.06,1.1-.38,2.13-.98,3.09-.6.95-1.48,1.73-2.64,2.31-1.16.59-2.57.88-4.24.88-2.51,0-4.41-.67-5.71-2.02Z"/>
          <path class="cls-1" d="M477.04,163.44c-1.34-1.28-2.04-3.21-2.12-5.79-.02-.56-.03-1.36-.03-2.38s0-1.81.03-2.36c.07-2.52.8-4.45,2.19-5.76,1.38-1.32,3.25-1.98,5.61-1.98s4.2.66,5.58,1.98c1.38,1.32,2.11,3.24,2.19,5.76.04,1.08.06,1.87.06,2.36s-.02,1.26-.06,2.38c-.08,2.58-.78,4.51-2.12,5.79-1.34,1.28-3.22,1.92-5.65,1.92s-4.34-.64-5.68-1.92ZM486.26,161.63c.88-.9,1.36-2.27,1.43-4.12.04-1.12.06-1.87.06-2.24,0-.41-.02-1.16-.06-2.24-.07-1.85-.56-3.23-1.44-4.12-.89-.9-2.06-1.35-3.52-1.35s-2.66.45-3.55,1.35c-.89.9-1.37,2.27-1.44,4.12-.02.54-.03,1.29-.03,2.24s0,1.68.03,2.24c.07,1.85.56,3.22,1.44,4.12.89.9,2.07,1.35,3.55,1.35s2.65-.45,3.53-1.35Z"/>
          <path class="cls-1" d="M497.63,164.9c-.12-.12-.18-.28-.18-.46v-18.31c0-.21.06-.37.18-.49.12-.12.28-.18.46-.18h1.29c.34,0,.57.13.7.39l9.31,14.3v-14.02c0-.21.06-.37.18-.49.12-.12.28-.18.46-.18h1.35c.21,0,.37.06.49.18.12.12.18.29.18.49v18.29c0,.19-.06.35-.18.48-.12.13-.28.2-.46.2h-1.35c-.28,0-.51-.13-.67-.39l-9.28-14.16v13.91c0,.19-.06.34-.2.46-.13.12-.29.18-.48.18h-1.35c-.19,0-.34-.06-.46-.18Z"/>
          <path class="cls-1" d="M529.6,164.9c-.12-.12-.18-.28-.18-.46v-18.31c0-.21.06-.37.18-.49.12-.12.28-.18.46-.18h7.12c2.11,0,3.78.51,4.99,1.54,1.21,1.03,1.82,2.51,1.82,4.46s-.6,3.43-1.81,4.45c-1.21,1.02-2.88,1.53-5.01,1.53h-4.96v7.01c0,.19-.07.34-.2.46-.13.12-.29.18-.48.18h-1.49c-.19,0-.34-.06-.46-.18ZM537.05,155.06c1.36,0,2.4-.31,3.1-.93s1.05-1.51,1.05-2.69-.35-2.08-1.04-2.71c-.69-.63-1.73-.94-3.11-.94h-4.85v7.26h4.85Z"/>
          <path class="cls-1" d="M550.41,164.9c-.12-.12-.18-.28-.18-.46v-18.31c0-.21.06-.37.18-.49.12-.12.28-.18.46-.18h6.84c2.15,0,3.83.5,5.05,1.51,1.21,1.01,1.82,2.47,1.82,4.38,0,1.42-.35,2.59-1.05,3.51-.7.92-1.69,1.55-2.96,1.91l4.32,7.46c.06.11.08.21.08.31,0,.15-.06.28-.18.39-.12.11-.26.17-.41.17h-1.35c-.28,0-.5-.06-.66-.2-.16-.13-.3-.32-.44-.56l-4.07-7.12h-4.91v7.24c0,.19-.06.34-.2.46-.13.12-.29.18-.48.18h-1.43c-.19,0-.34-.06-.46-.18ZM557.61,154.81c2.78,0,4.18-1.17,4.18-3.51s-1.39-3.51-4.18-3.51h-4.63v7.01h4.63Z"/>
          <path class="cls-1" d="M572.77,163.44c-1.34-1.28-2.04-3.21-2.12-5.79-.02-.56-.03-1.36-.03-2.38s0-1.81.03-2.36c.07-2.52.8-4.45,2.19-5.76,1.38-1.32,3.25-1.98,5.61-1.98s4.2.66,5.58,1.98c1.38,1.32,2.11,3.24,2.19,5.76.04,1.08.06,1.87.06,2.36s-.02,1.26-.06,2.38c-.08,2.58-.78,4.51-2.12,5.79-1.34,1.28-3.22,1.92-5.65,1.92s-4.34-.64-5.68-1.92ZM581.98,161.63c.88-.9,1.36-2.27,1.43-4.12.04-1.12.06-1.87.06-2.24,0-.41-.02-1.16-.06-2.24-.07-1.85-.56-3.23-1.44-4.12-.89-.9-2.06-1.35-3.52-1.35s-2.66.45-3.55,1.35c-.89.9-1.37,2.27-1.44,4.12-.02.54-.03,1.29-.03,2.24s0,1.68.03,2.24c.07,1.85.56,3.22,1.44,4.12.89.9,2.07,1.35,3.55,1.35s2.65-.45,3.53-1.35Z"/>
          <path class="cls-1" d="M593.35,164.9c-.12-.12-.18-.28-.18-.46v-18.31c0-.21.06-.37.18-.49.12-.12.28-.18.46-.18h7.12c2.11,0,3.78.51,4.99,1.54,1.21,1.03,1.82,2.51,1.82,4.46s-.6,3.43-1.81,4.45c-1.21,1.02-2.88,1.53-5.01,1.53h-4.96v7.01c0,.19-.07.34-.2.46-.13.12-.29.18-.48.18h-1.49c-.19,0-.34-.06-.46-.18ZM600.8,155.06c1.36,0,2.4-.31,3.1-.93.7-.62,1.05-1.51,1.05-2.69s-.35-2.08-1.04-2.71c-.69-.63-1.73-.94-3.11-.94h-4.85v7.26h4.85Z"/>
          <path class="cls-1" d="M615.37,163.44c-1.34-1.28-2.04-3.21-2.12-5.79-.02-.56-.03-1.36-.03-2.38s0-1.81.03-2.36c.07-2.52.8-4.45,2.19-5.76,1.38-1.32,3.25-1.98,5.61-1.98s4.2.66,5.58,1.98c1.38,1.32,2.11,3.24,2.19,5.76.04,1.08.06,1.87.06,2.36s-.02,1.26-.06,2.38c-.08,2.58-.78,4.51-2.12,5.79-1.34,1.28-3.22,1.92-5.65,1.92s-4.34-.64-5.68-1.92ZM624.58,161.63c.88-.9,1.36-2.27,1.43-4.12.04-1.12.06-1.87.06-2.24,0-.41-.02-1.16-.06-2.24-.07-1.85-.56-3.23-1.44-4.12-.89-.9-2.06-1.35-3.52-1.35s-2.66.45-3.55,1.35c-.89.9-1.37,2.27-1.44,4.12-.02.54-.03,1.29-.03,2.24s0,1.68.03,2.24c.07,1.85.56,3.22,1.44,4.12.89.9,2.07,1.35,3.55,1.35s2.65-.45,3.53-1.35ZM619.82,143.59c0-.15.05-.27.14-.36l2.1-2.52c.19-.21.34-.35.46-.42.12-.07.31-.11.57-.11h2.08c.17,0,.3.05.39.15.09.1.14.24.14.41,0,.13-.05.24-.14.34l-3.25,2.66c-.15.13-.29.21-.42.25-.13.04-.3.06-.51.06h-1.12c-.3,0-.45-.15-.45-.45Z"/>
          <path class="cls-1" d="M638.06,164.63c-1.13-.49-2-1.13-2.59-1.92-.6-.79-.92-1.65-.95-2.57,0-.15.06-.29.18-.41.12-.12.27-.18.43-.18h1.43c.36,0,.6.19.73.56.17.79.65,1.46,1.44,2.02.79.56,1.91.84,3.35.84,1.55,0,2.72-.28,3.51-.83.79-.55,1.18-1.32,1.18-2.31,0-.64-.19-1.15-.58-1.54s-.95-.74-1.7-1.04c-.75-.3-1.87-.67-3.37-1.12-1.46-.41-2.62-.85-3.48-1.32-.86-.47-1.51-1.05-1.94-1.74-.43-.69-.64-1.56-.64-2.61s.28-1.92.83-2.72c.55-.8,1.34-1.44,2.37-1.89,1.03-.46,2.25-.69,3.67-.69s2.71.26,3.76.77c1.05.52,1.84,1.16,2.38,1.95.54.79.83,1.57.87,2.36,0,.15-.05.28-.15.39-.1.11-.25.17-.44.17h-1.49c-.39,0-.64-.18-.73-.53-.11-.79-.55-1.44-1.32-1.95-.77-.51-1.73-.77-2.89-.77-1.27,0-2.27.24-3,.73-.73.49-1.09,1.21-1.09,2.16,0,.63.17,1.16.52,1.57.35.41.87.77,1.59,1.08.71.31,1.75.66,3.11,1.05,1.59.43,2.84.87,3.76,1.33.92.46,1.6,1.03,2.05,1.71.45.68.67,1.55.67,2.59,0,1.74-.67,3.1-2.02,4.09-1.35.99-3.16,1.49-5.44,1.49-1.55,0-2.89-.24-4.03-.73Z"/>
          <path class="cls-1" d="M656.21,164.9c-.12-.12-.18-.28-.18-.46v-18.34c0-.19.06-.34.18-.46.12-.12.28-.18.46-.18h1.49c.19,0,.34.06.46.18s.18.28.18.46v18.34c0,.19-.06.34-.18.46s-.28.18-.46.18h-1.49c-.19,0-.34-.06-.46-.18Z"/>
          <path class="cls-1" d="M670.96,164.9c-.12-.12-.18-.28-.18-.46v-16.49h-5.38c-.19,0-.34-.06-.46-.18-.12-.12-.18-.28-.18-.46v-1.18c0-.19.06-.35.18-.48.12-.13.28-.2.46-.2h13.52c.21,0,.37.06.49.18.12.12.18.29.18.49v1.18c0,.19-.07.34-.2.46s-.29.18-.48.18h-5.36v16.49c0,.19-.07.34-.2.46-.13.12-.29.18-.48.18h-1.46c-.19,0-.34-.06-.46-.18Z"/>
          <path class="cls-1" d="M686.5,163.44c-1.34-1.28-2.04-3.21-2.12-5.79-.02-.56-.03-1.36-.03-2.38s0-1.81.03-2.36c.07-2.52.8-4.45,2.19-5.76,1.38-1.32,3.25-1.98,5.61-1.98s4.2.66,5.58,1.98c1.38,1.32,2.11,3.24,2.19,5.76.04,1.08.06,1.87.06,2.36s-.02,1.26-.06,2.38c-.08,2.58-.78,4.51-2.12,5.79-1.34,1.28-3.22,1.92-5.65,1.92s-4.34-.64-5.68-1.92ZM695.71,161.63c.88-.9,1.36-2.27,1.43-4.12.04-1.12.06-1.87.06-2.24,0-.41-.02-1.16-.06-2.24-.07-1.85-.56-3.23-1.44-4.12-.89-.9-2.06-1.35-3.52-1.35s-2.66.45-3.55,1.35c-.89.9-1.37,2.27-1.44,4.12-.02.54-.03,1.29-.03,2.24s0,1.68.03,2.24c.07,1.85.56,3.22,1.44,4.12.89.9,2.07,1.35,3.55,1.35s2.65-.45,3.53-1.35Z"/>
        </g>
        <polygon class="cls-1" points="38 38.04 139.29 114.99 149.23 14.43 0 0 167.18 0 167.18 167.18 38 38.04"/>
        <g>
          <path class="cls-1" d="M201.47,0h26.49c17.66,0,26.49,8.83,26.49,26.49v70.64c0,17.66-8.83,26.49-26.49,26.49h-26.49V0ZM219.13,105.96h8.83c5.89,0,8.83-2.94,8.83-8.83V26.49c0-5.89-2.94-8.83-8.83-8.83h-8.83v88.3Z"/>
          <path class="cls-1" d="M309.9,105.96h-24.2l-3.09,17.66h-17.93L286.41,0h22.78l21.72,123.62h-17.93l-3.09-17.66ZM306.72,88.3l-8.92-50.68-8.92,50.68h17.84Z"/>
          <path class="cls-1" d="M341.16,0h26.49c17.66,0,26.49,8.83,26.49,26.49,0,15.07-6.42,23.72-19.25,25.96l27.37,71.17h-18.99l-24.46-63.58v63.58h-17.66V0ZM358.82,35.32h8.83c5.89,0,8.83-2.94,8.83-8.83s-2.94-8.83-8.83-8.83h-8.83v17.66Z"/>
          <path class="cls-1" d="M424.25,97.13v26.49h-17.66V0h17.66v45.12L440.58,0h18.98l-19.16,52.63,27.28,70.99h-18.98l-17.57-45.56-6.89,19.07Z"/>
          <path class="cls-1" d="M472.01,0h17.66v35.32h26.49V0h17.66v123.62h-17.66V52.98h-26.49v70.64h-17.66V0Z"/>
          <path class="cls-1" d="M589.27,105.96h-24.2l-3.09,17.66h-17.93L565.79,0h22.78l21.72,123.62h-17.93l-3.09-17.66ZM586.09,88.3l-8.92-50.68-8.92,50.68h17.84Z"/>
          <path class="cls-1" d="M638.19,52.01v71.61h-17.66V0h25.78l13.95,73.73L674.22,0h25.78v123.62h-17.66V51.92l-13.07,69.14-.53,2.56h-17.04l-.44-2.3-13.07-69.32Z"/>
        </g>
      </g>
    </g>
  </g>
</svg>