<?xml version="1.0" encoding="UTF-8"?>
<svg id="Capa_2" data-name="Capa 2" xmlns="http://www.w3.org/2000/svg" viewBox="0 0 900 242.03">
  <defs>
    <style>
      .cls-1, .cls-2 {
        fill: #fff;
      }

      .cls-2 {
        fill-rule: evenodd;
      }

      .cls-3 {
        fill: #00a74f;
      }
    </style>
  </defs>
  <g id="Capa_3" data-name="Capa 3">
    <g>
      <g>
        <path class="cls-1" d="M267.41,12.84c2.95,0,5.42.4,7.41,1.21,1.99.81,3.6,1.98,4.81,3.53,1.22,1.55,2.08,3.48,2.6,5.77.52,2.3.77,4.92.77,7.86s-.27,5.55-.8,7.8c-.54,2.26-1.41,4.16-2.63,5.71-1.22,1.55-2.82,2.73-4.81,3.53-1.99.81-4.44,1.21-7.36,1.21h-18.25c-.74,0-1.11-.39-1.11-1.18V14.08c0-.82.37-1.24,1.11-1.24h18.25ZM268.12,44.58c1.73,0,3.21-.28,4.43-.85,1.22-.57,2.21-1.36,2.99-2.39.77-1.02,1.34-2.25,1.69-3.68.35-1.43.53-3.01.53-4.74v-3.53c0-1.77-.18-3.36-.53-4.77-.35-1.41-.9-2.63-1.66-3.65-.76-1.02-1.74-1.81-2.96-2.36-1.22-.55-2.71-.82-4.48-.82h-14.82v26.79h14.82Z"/>
        <path class="cls-1" d="M346.67,13.73c0-.59.28-.88.83-.88h3.6c.55,0,.83.29.83.88v34.86c0,.59-.28.88-.83.88h-3.6c-.55,0-.83-.29-.83-.88V13.73Z"/>
        <path class="cls-1" d="M416.64,41.29c0-.59.28-.88.83-.88h3.6c.37,0,.55.2.55.59v.41c0,1.1.32,1.91.97,2.44.64.53,1.48.8,2.52.8h15.71c1.14,0,2.06-.23,2.74-.68.68-.45,1.02-1.29,1.02-2.5v-4.36c0-1.1-.34-1.89-1.02-2.39-.68-.49-1.5-.74-2.46-.74h-16.04c-2.66,0-4.75-.66-6.28-1.97s-2.3-3.45-2.3-6.39v-4.95c0-1.49.23-2.75.69-3.77.46-1.02,1.1-1.86,1.91-2.5.81-.65,1.77-1.11,2.88-1.38,1.11-.27,2.29-.41,3.54-.41h16.15c2.21,0,3.98.6,5.31,1.8,1.33,1.2,1.99,3.03,1.99,5.51v1.12c0,.59-.28.88-.83.88h-3.6c-.37,0-.55-.2-.55-.59v-.41c0-1.1-.32-1.91-.97-2.44-.65-.53-1.49-.8-2.52-.8h-15.65c-.96,0-1.75.25-2.38.74-.63.49-.94,1.27-.94,2.33v4.53c0,1.14.31,1.98.94,2.53.63.55,1.51.82,2.66.82h16.59c2.29,0,4.18.66,5.67,1.97s2.24,3.25,2.24,5.8v4.95c0,1.69-.23,3.07-.69,4.15-.46,1.08-1.11,1.93-1.94,2.56-.83.63-1.83,1.06-2.99,1.3-1.16.24-2.44.35-3.84.35h-16.21c-2.18,0-3.94-.61-5.28-1.83-1.35-1.22-2.02-3.04-2.02-5.48v-1.12Z"/>
        <path class="cls-1" d="M525,49.47c-.55,0-.83-.29-.83-.88v-30.68h-12.28c-.55,0-.83-.29-.83-.88v-3.3c0-.59.28-.88.83-.88h29.81c.55,0,.83.29.83.88v3.3c0,.59-.28.88-.83.88h-12.28v30.68c0,.59-.28.88-.83.88h-3.6Z"/>
        <path class="cls-1" d="M610.74,48.59c0,.59-.28.88-.83.88h-3.6c-.55,0-.83-.29-.83-.88V12.84h23.78c3.36,0,5.75.9,7.19,2.71,1.44,1.81,2.16,4.48,2.16,8.01v.94c0,1.18-.1,2.29-.3,3.33-.2,1.04-.53,1.97-1,2.8-.46.82-1.07,1.54-1.83,2.15-.76.61-1.71,1.09-2.85,1.44l6.08,14.49c.15.51,0,.77-.44.77h-3.98c-.44,0-.76-.24-.94-.71l-5.48-13.72h-17.15v13.55ZM633.31,23.44c0-1.88-.35-3.3-1.05-4.24-.7-.94-1.97-1.41-3.82-1.41h-17.7v12.9h17.7c.63,0,1.24-.09,1.83-.27.59-.18,1.11-.5,1.55-.97.44-.43.8-1.04,1.08-1.83.28-.78.42-1.79.42-3v-1.18Z"/>
        <path class="cls-1" d="M702.73,13.73c0-.59.28-.88.83-.88h3.6c.55,0,.83.29.83.88v34.86c0,.59-.28.88-.83.88h-3.6c-.55,0-.83-.29-.83-.88V13.73Z"/>
        <path class="cls-1" d="M785.59,49.47c-.55,0-.83-.29-.83-.88v-30.68h-12.28c-.55,0-.83-.29-.83-.88v-3.3c0-.59.28-.88.83-.88h29.81c.55,0,.83.29.83.88v3.3c0,.59-.28.88-.83.88h-12.28v30.68c0,.59-.28.88-.83.88h-3.6Z"/>
        <path class="cls-1" d="M877.13,49.71c-2.25,0-4.22-.24-5.92-.71-1.7-.47-3.12-1.35-4.26-2.65-1.14-1.33-2-3.19-2.57-5.56-.57-2.37-.86-5.49-.86-9.33v-.65c0-3.85.28-6.96.86-9.33.57-2.37,1.43-4.21,2.57-5.51,1.14-1.33,2.56-2.23,4.26-2.68,1.7-.45,3.67-.68,5.92-.68h9.24c2.25,0,4.22.23,5.92.68,1.7.45,3.12,1.35,4.26,2.68,1.14,1.3,2,3.13,2.57,5.51.57,2.38.86,5.49.86,9.33v.65c0,3.85-.29,6.96-.86,9.33-.57,2.38-1.43,4.23-2.57,5.56-1.14,1.3-2.56,2.18-4.26,2.65-1.7.47-3.67.71-5.92.71h-9.24ZM886.37,44.76c1.51,0,2.78-.16,3.82-.47,1.03-.31,1.9-.92,2.6-1.83.66-.94,1.15-2.28,1.47-4,.31-1.73.47-4.06.47-7.01v-.65c0-2.94-.16-5.28-.47-7.01-.31-1.73-.8-3.04-1.47-3.95-.7-.94-1.57-1.56-2.6-1.86-1.03-.29-2.3-.44-3.82-.44h-9.24c-1.44,0-2.69.15-3.76.44-1.07.3-1.94.91-2.6,1.86-.66.9-1.16,2.22-1.49,3.95-.33,1.73-.5,4.06-.5,7.01v.65c0,2.94.17,5.28.5,7.01.33,1.73.83,3.06,1.49,4,.66.9,1.53,1.51,2.6,1.83,1.07.31,2.32.47,3.76.47h9.24Z"/>
        <g>
          <path class="cls-1" d="M287.33,181.61h-21.33c-4.96,0-9.2-1.75-12.7-5.26-3.5-3.5-5.26-7.74-5.26-12.7v-14.43h17.96v12.2c0,1.02.37,1.91,1.11,2.65.74.74,1.65,1.11,2.72,1.11h13.66c1.07,0,1.98-.37,2.72-1.11.74-.74,1.11-1.62,1.11-2.65v-11.28c0-1.38-.64-2.46-1.92-3.22l-27.93-16.57c-6.29-3.73-9.44-8.88-9.44-15.42v-29.85c0-4.96,1.75-9.2,5.26-12.7s7.74-5.26,12.7-5.26h21.33c4.96,0,9.2,1.75,12.7,5.26,3.5,3.5,5.26,7.74,5.26,12.7v28.55h-17.96v-26.24c0-1.07-.37-1.98-1.11-2.72-.74-.74-1.65-1.11-2.72-1.11h-13.66c-1.07,0-1.98.37-2.72,1.11s-1.11,1.65-1.11,2.72v25.32c0,1.38.64,2.46,1.92,3.22l27.93,16.57c6.29,3.73,9.44,8.9,9.44,15.5v15.65c0,4.96-1.75,9.2-5.26,12.7-3.5,3.5-7.74,5.26-12.7,5.26Z"/>
          <path class="cls-1" d="M882.04,181.61h-21.33c-4.96,0-9.2-1.75-12.7-5.26-3.5-3.5-5.26-7.74-5.26-12.7v-14.43h17.96v12.2c0,1.02.37,1.91,1.11,2.65.74.74,1.65,1.11,2.72,1.11h13.66c1.07,0,1.98-.37,2.72-1.11.74-.74,1.11-1.62,1.11-2.65v-11.28c0-1.38-.64-2.46-1.92-3.22l-27.93-16.57c-6.29-3.73-9.44-8.88-9.44-15.42v-29.85c0-4.96,1.75-9.2,5.26-12.7s7.74-5.26,12.7-5.26h21.33c4.96,0,9.2,1.75,12.7,5.26,3.5,3.5,5.26,7.74,5.26,12.7v28.55h-17.96v-26.24c0-1.07-.37-1.98-1.11-2.72-.74-.74-1.65-1.11-2.72-1.11h-13.66c-1.07,0-1.98.37-2.72,1.11-.74.74-1.11,1.65-1.11,2.72v25.32c0,1.38.64,2.46,1.92,3.22l27.93,16.57c6.29,3.73,9.44,8.9,9.44,15.5v15.65c0,4.96-1.75,9.2-5.26,12.7-3.5,3.5-7.74,5.26-12.7,5.26Z"/>
          <path class="cls-1" d="M377.73,181.61h-17.96v-40.82h-21.33v40.82h-17.96v-96.53c0-4.96,1.75-9.2,5.26-12.7,3.5-3.5,7.74-5.26,12.7-5.26h21.33c4.96,0,9.2,1.75,12.7,5.26,3.5,3.5,5.26,7.74,5.26,12.7v96.53ZM359.77,124.36v-36.99c0-1.07-.37-1.98-1.11-2.72-.74-.74-1.62-1.11-2.65-1.11h-13.74c-1.07,0-1.98.37-2.72,1.11-.74.74-1.11,1.65-1.11,2.72v36.99h21.33Z"/>
          <path class="cls-1" d="M453.39,181.61h-16.42l-24.4-66.68v66.68h-16.42v-114.49h16.42l24.4,66.68v-66.68h16.42v114.49Z"/>
          <path class="cls-1" d="M770.62,85.07c0-4.96,1.75-9.2,5.26-12.7,3.5-3.5,7.74-5.26,12.7-5.26h21.33c4.96,0,9.2,1.75,12.7,5.26,3.5,3.5,5.26,7.74,5.26,12.7v78.58c0,4.96-1.75,9.2-5.26,12.7-3.5,3.5-7.74,5.26-12.7,5.26h-21.33c-4.96,0-9.2-1.75-12.7-5.26-3.5-3.5-5.26-7.74-5.26-12.7v-78.58ZM809.91,87.38c0-1.07-.37-1.98-1.11-2.72-.74-.74-1.62-1.11-2.65-1.11h-13.81c-1.02,0-1.91.37-2.65,1.11s-1.11,1.65-1.11,2.72v73.97c0,1.07.37,1.98,1.11,2.72.74.74,1.62,1.11,2.65,1.11h13.81c1.02,0,1.91-.37,2.65-1.11.74-.74,1.11-1.65,1.11-2.72v-73.97Z"/>
          <path class="cls-1" d="M530.6,181.61h-21.33c-4.96,0-9.2-1.75-12.7-5.26-3.5-3.5-5.26-7.74-5.26-12.7v-78.58c0-4.96,1.75-9.2,5.26-12.7,3.5-3.5,7.74-5.26,12.7-5.26h21.33c4.96,0,9.2,1.75,12.7,5.26,3.5,3.5,5.26,7.74,5.26,12.7v28.55h-17.96v-26.24c0-1.07-.37-1.98-1.11-2.72-.74-.74-1.62-1.11-2.65-1.11h-13.74c-1.07,0-1.98.37-2.72,1.11s-1.11,1.65-1.11,2.72v74.05c0,1.02.37,1.91,1.11,2.65.74.74,1.65,1.11,2.72,1.11h13.74c1.02,0,1.91-.37,2.65-1.11.74-.74,1.11-1.62,1.11-2.65v-26.32h17.96v28.55c0,4.96-1.75,9.2-5.26,12.7s-7.74,5.26-12.7,5.26Z"/>
          <path class="cls-1" d="M623.14,181.61h-17.96v-40.82h-21.33v40.82h-17.96v-96.53c0-4.96,1.75-9.2,5.26-12.7,3.5-3.5,7.74-5.26,12.7-5.26h21.33c4.96,0,9.2,1.75,12.7,5.26,3.5,3.5,5.26,7.74,5.26,12.7v96.53ZM605.18,124.36v-36.99c0-1.07-.37-1.98-1.11-2.72-.74-.74-1.62-1.11-2.65-1.11h-13.74c-1.07,0-1.98.37-2.72,1.11s-1.11,1.65-1.11,2.72v36.99h21.33Z"/>
          <path class="cls-1" d="M698.8,181.61h-17.96v-33.84c0-1.94-.68-3.59-2.03-4.95-1.36-1.35-2.98-2.03-4.87-2.03h-14.43v40.82h-17.96v-114.49h39.29c4.96,0,9.2,1.75,12.7,5.26,3.5,3.5,5.26,7.74,5.26,12.7v31c0,7.98-3.45,13.48-10.36,16.5,6.91,3.02,10.36,8.52,10.36,16.5v32.54ZM673.94,124.36c1.89,0,3.52-.68,4.87-2.03,1.35-1.35,2.03-2.98,2.03-4.87v-30.08c0-1.07-.37-1.98-1.11-2.72-.74-.74-1.62-1.11-2.65-1.11h-17.57v40.82h14.43Z"/>
          <path class="cls-1" d="M764.95,181.61h-47.73v-114.49h17.96v98.07h29.77v16.42Z"/>
        </g>
        <path class="cls-3" d="M596.58,199.22l-12.8,33.96h-4.8l-12.8-33.96h5.55l9.65,27.9,9.65-27.9h5.55Z"/>
        <path class="cls-3" d="M604.08,197.42v5.3h-5.2v-5.3h5.2ZM604.08,207.47v25.7h-5.15v-25.7h5.15Z"/>
        <path class="cls-3" d="M611.83,207.47l7.1,19.65,7.05-19.65h5.2l-9.8,25.7h-4.95l-9.8-25.7h5.2Z"/>
        <path class="cls-3" d="M636.69,221.73v.9c0,.7.14,1.43.43,2.18.28.75.7,1.43,1.25,2.05.55.62,1.23,1.12,2.05,1.5.82.38,1.77.58,2.88.58.8,0,1.58-.08,2.35-.25s1.44-.43,2.03-.78,1.06-.78,1.43-1.3c.37-.52.55-1.13.55-1.82h5.1c0,1.13-.28,2.23-.82,3.3-.55,1.07-1.32,2.01-2.3,2.83-.98.82-2.12,1.47-3.43,1.95-1.3.48-2.7.73-4.2.73h-1.45c-1.73,0-3.28-.33-4.65-.98-1.37-.65-2.52-1.5-3.45-2.55-.93-1.05-1.65-2.23-2.15-3.53s-.75-2.6-.75-3.9v-4.6c0-1.3.27-2.6.8-3.9.53-1.3,1.28-2.48,2.25-3.55.97-1.07,2.15-1.93,3.55-2.6,1.4-.67,2.97-1,4.7-1h.85c1.5,0,2.93.28,4.3.85,1.37.57,2.57,1.33,3.6,2.3.87.83,1.53,1.66,2,2.48.47.82.8,1.67,1,2.55.2.88.32,1.81.35,2.78s.05,2,.05,3.1v.7h-18.3ZM649.99,217.43c0-.87-.17-1.66-.52-2.38-.35-.72-.82-1.32-1.4-1.82-.58-.5-1.26-.88-2.03-1.15-.77-.27-1.57-.4-2.4-.4-1,0-1.91.18-2.73.52-.82.35-1.53.8-2.13,1.35-.6.55-1.08,1.17-1.42,1.85-.35.68-.56,1.36-.63,2.03h13.25Z"/>
        <path class="cls-3" d="M675.99,222.58c0,1.1.2,2.05.6,2.85.4.8.92,1.46,1.57,1.97.65.52,1.38.9,2.2,1.15.82.25,1.64.37,2.48.37.77,0,1.51-.1,2.23-.3.72-.2,1.35-.48,1.9-.85.55-.37.99-.83,1.33-1.4.33-.57.5-1.2.5-1.9h5.15c0,1.6-.29,2.98-.88,4.13-.58,1.15-1.38,2.1-2.38,2.85s-2.16,1.3-3.48,1.65c-1.32.35-2.71.52-4.18.52s-2.98-.22-4.43-.65c-1.45-.43-2.75-1.1-3.9-2-1.15-.9-2.08-2.05-2.8-3.45-.72-1.4-1.08-3.05-1.08-4.95v-4.55c0-1.93.35-3.6,1.05-5,.7-1.4,1.63-2.55,2.78-3.45,1.15-.9,2.45-1.57,3.9-2,1.45-.43,2.92-.65,4.43-.65s2.86.18,4.18.53c1.32.35,2.48.9,3.48,1.65,1,.75,1.79,1.71,2.38,2.88.58,1.17.88,2.55.88,4.15h-5.15c0-.7-.17-1.33-.5-1.88-.33-.55-.78-1.01-1.32-1.38-.55-.37-1.18-.65-1.88-.85-.7-.2-1.43-.3-2.2-.3-.83,0-1.66.13-2.48.37-.82.25-1.55.63-2.2,1.13-.65.5-1.17,1.15-1.57,1.95-.4.8-.6,1.75-.6,2.85v4.55Z"/>
        <path class="cls-3" d="M708.25,233.58c-1.73,0-3.28-.33-4.65-.98-1.37-.65-2.52-1.5-3.45-2.55-.93-1.05-1.65-2.23-2.15-3.53-.5-1.3-.75-2.6-.75-3.9v-4.6c0-1.3.27-2.6.8-3.9.53-1.3,1.28-2.48,2.25-3.55.97-1.07,2.15-1.93,3.55-2.6,1.4-.67,2.97-1,4.7-1h1.85c1.73,0,3.3.33,4.7,1,1.4.67,2.58,1.53,3.55,2.6s1.72,2.25,2.25,3.55c.53,1.3.8,2.6.8,3.9v4.6c0,1.3-.25,2.6-.75,3.9s-1.22,2.48-2.15,3.53c-.93,1.05-2.08,1.9-3.45,2.55-1.37.65-2.92.98-4.65.98h-2.45ZM702.4,218.03v4.6c0,1.03.2,1.94.6,2.73.4.78.93,1.44,1.6,1.97.67.53,1.42.93,2.25,1.2.83.27,1.7.4,2.6.4s1.77-.13,2.63-.4,1.61-.67,2.28-1.2c.67-.53,1.2-1.19,1.6-1.97.4-.78.6-1.69.6-2.73v-4.6c0-1.07-.2-2-.6-2.8-.4-.8-.93-1.46-1.6-1.97-.67-.52-1.43-.91-2.28-1.17s-1.73-.4-2.63-.4-1.83.14-2.7.43c-.87.28-1.62.7-2.25,1.25-.63.55-1.14,1.22-1.53,2-.38.78-.58,1.68-.58,2.68Z"/>
        <path class="cls-3" d="M743.8,233.18v-15.15c0-.7-.13-1.43-.4-2.18-.27-.75-.68-1.43-1.23-2.05-.55-.62-1.23-1.13-2.05-1.53-.82-.4-1.77-.6-2.87-.6-.97,0-1.86.18-2.68.55-.82.37-1.52.83-2.1,1.4-.58.57-1.03,1.22-1.35,1.95-.32.73-.48,1.45-.48,2.15v15.45h-5.15v-25.7h4.65l.5,2.7c1.07-1.07,2.31-1.87,3.73-2.4,1.42-.53,2.88-.8,4.38-.8,1.3,0,2.57.22,3.8.65,1.23.43,2.33,1.1,3.28,2,.95.9,1.71,2.05,2.28,3.45.57,1.4.85,3.05.85,4.95v15.15h-5.15Z"/>
        <path class="cls-3" d="M757.4,221.73v.9c0,.7.14,1.43.43,2.18.28.75.7,1.43,1.25,2.05.55.62,1.23,1.12,2.05,1.5.82.38,1.77.58,2.88.58.8,0,1.58-.08,2.35-.25s1.44-.43,2.03-.78,1.06-.78,1.43-1.3c.37-.52.55-1.13.55-1.82h5.1c0,1.13-.28,2.23-.82,3.3-.55,1.07-1.32,2.01-2.3,2.83-.98.82-2.12,1.47-3.43,1.95-1.3.48-2.7.73-4.2.73h-1.45c-1.73,0-3.28-.33-4.65-.98-1.37-.65-2.52-1.5-3.45-2.55-.93-1.05-1.65-2.23-2.15-3.53-.5-1.3-.75-2.6-.75-3.9v-4.6c0-1.3.27-2.6.8-3.9.53-1.3,1.28-2.48,2.25-3.55.97-1.07,2.15-1.93,3.55-2.6,1.4-.67,2.97-1,4.7-1h.85c1.5,0,2.93.28,4.3.85,1.37.57,2.57,1.33,3.6,2.3.87.83,1.53,1.66,2,2.48.47.82.8,1.67,1,2.55.2.88.32,1.81.35,2.78s.05,2,.05,3.1v.7h-18.3ZM770.71,217.43c0-.87-.17-1.66-.52-2.38-.35-.72-.82-1.32-1.4-1.82-.58-.5-1.26-.88-2.03-1.15-.77-.27-1.57-.4-2.4-.4-1,0-1.91.18-2.73.52-.82.35-1.53.8-2.13,1.35-.6.55-1.08,1.17-1.42,1.85-.35.68-.56,1.36-.63,2.03h13.25Z"/>
        <path class="cls-3" d="M784.21,222.58c0,1.1.2,2.05.6,2.85.4.8.92,1.46,1.57,1.97.65.52,1.38.9,2.2,1.15.82.25,1.64.37,2.48.37.77,0,1.51-.1,2.23-.3.72-.2,1.35-.48,1.9-.85.55-.37.99-.83,1.33-1.4.33-.57.5-1.2.5-1.9h5.15c0,1.6-.29,2.98-.88,4.13-.58,1.15-1.38,2.1-2.38,2.85s-2.16,1.3-3.48,1.65c-1.32.35-2.71.52-4.18.52s-2.98-.22-4.43-.65c-1.45-.43-2.75-1.1-3.9-2-1.15-.9-2.08-2.05-2.8-3.45-.72-1.4-1.08-3.05-1.08-4.95v-4.55c0-1.93.35-3.6,1.05-5,.7-1.4,1.63-2.55,2.78-3.45,1.15-.9,2.45-1.57,3.9-2,1.45-.43,2.92-.65,4.43-.65s2.86.18,4.18.53c1.32.35,2.48.9,3.48,1.65,1,.75,1.79,1.71,2.38,2.88.58,1.17.88,2.55.88,4.15h-5.15c0-.7-.17-1.33-.5-1.88-.33-.55-.78-1.01-1.32-1.38-.55-.37-1.18-.65-1.88-.85-.7-.2-1.43-.3-2.2-.3-.83,0-1.66.13-2.48.37-.82.25-1.55.63-2.2,1.13s-1.17,1.15-1.57,1.95c-.4.8-.6,1.75-.6,2.85v4.55Z"/>
        <path class="cls-3" d="M820.86,233.53c-.13.03-.35.06-.65.07-.3.02-.62.03-.95.05-.33.02-.65.02-.95.02h-.7c-2.9,0-4.97-.74-6.2-2.23-1.23-1.48-1.85-3.76-1.85-6.83v-12.8h-5.1v-3.1c.83,0,1.67-.11,2.5-.32.83-.22,1.57-.6,2.22-1.15.65-.55,1.18-1.31,1.58-2.28.4-.97.6-2.18.6-3.65h3.35v6.15h6.35v4.35h-6.35v12.7c0,1.63.32,2.73.95,3.28.63.55,1.63.82,3,.82h2.8l-.6,4.9Z"/>
        <path class="cls-3" d="M835.02,206.97c1.73,0,3.27.26,4.6.78,1.33.52,2.45,1.21,3.35,2.07.9.87,1.58,1.86,2.05,2.98s.7,2.27.7,3.48v16.9h-4.5l-.5-2.7v-.05c-.97.93-2.13,1.71-3.48,2.33-1.35.62-2.94.93-4.78.93-1.17,0-2.3-.17-3.4-.5-1.1-.33-2.08-.82-2.95-1.47-.87-.65-1.56-1.46-2.07-2.43-.52-.97-.78-2.1-.78-3.4,0-1,.21-1.98.63-2.93.42-.95,1.03-1.8,1.85-2.55s1.84-1.36,3.08-1.82c1.23-.47,2.67-.7,4.3-.7h7.6v-1.55c0-.8-.17-1.49-.5-2.08-.33-.58-.77-1.07-1.3-1.45-.53-.38-1.14-.67-1.83-.85s-1.38-.28-2.07-.28-1.38.09-2.03.28-1.24.45-1.78.8-.97.79-1.32,1.32c-.35.53-.56,1.15-.63,1.85h-5c.07-1.17.34-2.29.82-3.38.48-1.08,1.17-2.03,2.08-2.85.9-.82,2.01-1.48,3.33-1.98,1.32-.5,2.83-.75,4.53-.75ZM832.87,221.88c-1.47,0-2.58.36-3.33,1.08-.75.72-1.14,1.51-1.17,2.38,0,.47.1.93.3,1.4s.52.88.95,1.25c.43.37.98.66,1.65.88.67.22,1.47.33,2.4.33.8,0,1.63-.15,2.48-.45.85-.3,1.61-.74,2.28-1.32.67-.58,1.22-1.29,1.65-2.12.43-.83.65-1.78.65-2.85v-.55h-7.85Z"/>
        <path class="cls-3" d="M859.22,233.68c-1.73,0-3.28-.33-4.65-1-1.37-.67-2.52-1.53-3.45-2.6-.93-1.07-1.64-2.25-2.12-3.55-.48-1.3-.73-2.6-.73-3.9v-4.6c0-1.3.24-2.6.73-3.9.48-1.3,1.19-2.48,2.12-3.55.93-1.07,2.08-1.93,3.45-2.6,1.37-.67,2.92-1,4.65-1,1.5,0,2.87.29,4.1.88,1.23.58,2.32,1.36,3.25,2.33v-12.8h5.15v35.81h-4.65l-.5-2.75c-1,.97-2.13,1.75-3.4,2.35-1.27.6-2.58.9-3.95.9ZM853.42,218.03v4.6c0,.7.13,1.43.4,2.18.27.75.68,1.43,1.23,2.05.55.62,1.23,1.12,2.05,1.5.82.38,1.77.58,2.88.58.97,0,1.86-.17,2.68-.52.82-.35,1.52-.82,2.1-1.4s1.03-1.23,1.35-1.95c.32-.72.48-1.42.48-2.12v-4.9c0-.7-.16-1.43-.48-2.18-.32-.75-.77-1.43-1.35-2.05-.58-.62-1.28-1.13-2.1-1.53-.82-.4-1.71-.6-2.68-.6-1.1,0-2.06.2-2.88.6-.82.4-1.5.91-2.05,1.53-.55.62-.96,1.3-1.23,2.05s-.4,1.47-.4,2.18Z"/>
        <path class="cls-3" d="M886.52,233.58c-1.73,0-3.28-.33-4.65-.98-1.37-.65-2.52-1.5-3.45-2.55-.93-1.05-1.65-2.23-2.15-3.53s-.75-2.6-.75-3.9v-4.6c0-1.3.27-2.6.8-3.9s1.28-2.48,2.25-3.55,2.15-1.93,3.55-2.6c1.4-.67,2.97-1,4.7-1h1.85c1.73,0,3.3.33,4.7,1,1.4.67,2.58,1.53,3.55,2.6.97,1.07,1.72,2.25,2.25,3.55.53,1.3.8,2.6.8,3.9v4.6c0,1.3-.25,2.6-.75,3.9-.5,1.3-1.22,2.48-2.15,3.53-.93,1.05-2.08,1.9-3.45,2.55-1.37.65-2.92.98-4.65.98h-2.45ZM880.67,218.03v4.6c0,1.03.2,1.94.6,2.73.4.78.93,1.44,1.6,1.97.67.53,1.42.93,2.25,1.2.83.27,1.7.4,2.6.4s1.77-.13,2.63-.4,1.61-.67,2.28-1.2c.67-.53,1.2-1.19,1.6-1.97.4-.78.6-1.69.6-2.73v-4.6c0-1.07-.2-2-.6-2.8-.4-.8-.93-1.46-1.6-1.97-.67-.52-1.43-.91-2.28-1.17s-1.73-.4-2.63-.4-1.83.14-2.7.43c-.87.28-1.62.7-2.25,1.25-.63.55-1.14,1.22-1.53,2-.38.78-.58,1.68-.58,2.68Z"/>
      </g>
      <g>
        <path class="cls-2" d="M209.04,59.47L106.65.38c-.88-.51-1.96-.51-2.83,0L1.42,59.47c-.88.51-1.42,1.44-1.42,2.45v118.18c0,1.01.54,1.95,1.42,2.45l102.4,59.09c.44.25.93.38,1.42.38s.98-.13,1.42-.38l102.4-59.09c.88-.51,1.42-1.44,1.42-2.45V61.92c0-1.01-.54-1.95-1.42-2.45ZM204.79,178.47l-34.78,20.07v-84.74c2.41-.65,4.18-2.85,4.18-5.47,0-3.13-2.54-5.66-5.67-5.66s-5.67,2.54-5.67,5.66c0,2.61,1.77,4.81,4.18,5.47v44.94l-30.9,17.59c-.46.26-.75.76-.75,1.29v10.46c-2.4.66-4.17,2.85-4.17,5.46,0,3.13,2.54,5.66,5.67,5.66s5.67-2.54,5.67-5.66c0-2.62-1.78-4.82-4.19-5.47v-9.59l28.68-16.32v38.09l-60.33,34.81v-24.73c2.41-.65,4.18-2.85,4.18-5.47,0-3.13-2.54-5.66-5.67-5.66s-5.67,2.54-5.67,5.66c0,2.61,1.77,4.81,4.18,5.47v24.73l-60.44-34.88v-38.02l28.68,16.32v9.59c-2.41.65-4.18,2.85-4.18,5.47,0,3.13,2.54,5.66,5.67,5.66s5.67-2.54,5.67-5.66c0-2.61-1.77-4.81-4.18-5.47v-10.45c0-.53-.29-1.03-.75-1.29l-30.9-17.59v-44.94c2.41-.65,4.18-2.85,4.18-5.47,0-3.13-2.54-5.66-5.67-5.66s-5.67,2.54-5.67,5.66c0,2.61,1.77,4.81,4.18,5.47v84.67l-34.66-20V63.56l34.66-20v20.7s-18.82,10.81-18.82,10.81c-.46.27-.75.76-.75,1.29v82.68c-2.41.65-4.18,2.85-4.18,5.47,0,3.13,2.54,5.66,5.67,5.66s5.67-2.54,5.67-5.66c0-2.61-1.77-4.81-4.18-5.47v-81.82l16.59-9.53v13.65c-2.41.65-4.18,2.85-4.18,5.47,0,3.13,2.54,5.66,5.67,5.66s5.67-2.54,5.67-5.66c0-2.61-1.77-4.81-4.18-5.47v-39.5S105.23,6.1,105.23,6.1l61.81,35.67v39.55c-2.41.65-4.18,2.85-4.18,5.47,0,3.13,2.54,5.66,5.67,5.66s5.67-2.54,5.67-5.66c0-2.61-1.77-4.81-4.18-5.47v-13.64l16.59,9.53v81.82c-2.41.65-4.18,2.85-4.18,5.47,0,3.13,2.54,5.66,5.67,5.66s5.67-2.54,5.67-5.66c0-2.61-1.77-4.81-4.18-5.47v-82.68c0-.53-.28-1.02-.75-1.29l-18.82-10.81v-20.77l34.78,20.07v114.91Z"/>
        <polygon class="cls-2" points="105.23 141.16 117.26 135.05 117.26 102.68 145.43 92.47 134.12 70.12 116.03 70.12 105.23 76.33 94.43 70.12 76.35 70.12 65.03 92.47 93.21 102.68 93.21 135.05 105.23 141.16"/>
        <polygon class="cls-2" points="102.41 146.05 87.57 138.5 87.57 106.64 62.46 97.54 55.02 112.22 69.86 128.13 69.86 158.35 81.12 164.74 102.41 157.55 102.41 146.05"/>
        <polygon class="cls-2" points="87.27 171.58 90.92 183.72 105.23 185.87 119.54 183.72 123.19 171.58 105.23 165.51 87.27 171.58"/>
        <polygon class="cls-2" points="122.89 106.64 122.89 138.5 108.05 146.05 108.05 157.55 129.34 164.74 140.59 158.35 140.59 128.13 155.44 112.22 148 97.54 122.89 106.64"/>
        <path class="cls-2" d="M84.85,41.93c2.61,0,4.81-1.77,5.47-4.18h9.44c.65,2.41,2.85,4.18,5.47,4.18s4.81-1.77,5.47-4.18h9.29c.65,2.41,2.85,4.18,5.47,4.18,3.13,0,5.67-2.54,5.67-5.66s-2.54-5.66-5.67-5.66c-2.61,0-4.81,1.77-5.47,4.18h-9.29c-.65-2.41-2.85-4.18-5.47-4.18s-4.81,1.77-5.47,4.18h-9.44c-.65-2.41-2.85-4.18-5.47-4.18-3.13,0-5.67,2.54-5.67,5.66s2.54,5.66,5.67,5.66Z"/>
        <path class="cls-2" d="M62.1,59.98c2.62,0,4.82-1.77,5.47-4.19h29.72l6.97,5.91c.28.24.62.35.96.35s.68-.12.96-.35l6.97-5.91h29.72c.65,2.41,2.85,4.19,5.47,4.19,3.13,0,5.67-2.54,5.67-5.66s-2.54-5.66-5.67-5.66c-2.61,0-4.81,1.77-5.47,4.17h-30.28c-.35,0-.69.13-.96.35l-6.43,5.45-6.43-5.45c-.27-.23-.61-.35-.96-.35h-30.27c-.66-2.4-2.85-4.17-5.47-4.17-3.13,0-5.67,2.54-5.67,5.66s2.54,5.66,5.67,5.66Z"/>
      </g>
    </g>
  </g>
</svg>