<?xml version="1.0" encoding="UTF-8"?>
<svg id="Capa_2" data-name="Capa 2" xmlns="http://www.w3.org/2000/svg" viewBox="0 0 900 123.01">
  <defs>
    <style>
      .cls-1 {
        fill: #202020;
      }
    </style>
  </defs>
  <g id="Capa_3" data-name="Capa 3">
    <g>
      <g>
        <path class="cls-1" d="M222.02,114.96v-53.73h24.41c5.83,0,10.98,1.11,15.43,3.34,4.45,2.23,7.93,5.33,10.44,9.33,2.51,3.99,3.76,8.73,3.76,14.2s-1.25,10.14-3.76,14.16c-2.51,4.02-5.99,7.14-10.44,9.36-4.45,2.23-9.59,3.34-15.43,3.34h-24.41ZM234.45,104.75h11.36c3.58,0,6.69-.68,9.33-2.03,2.63-1.35,4.68-3.29,6.14-5.8,1.46-2.51,2.19-5.45,2.19-8.83s-.73-6.38-2.19-8.87c-1.46-2.48-3.51-4.4-6.14-5.76-2.64-1.36-5.74-2.04-9.33-2.04h-11.36v33.31Z"/>
        <path class="cls-1" d="M297.78,104.98h29.24v9.98h-41.6v-53.73h40.6v9.98h-28.25v33.77ZM296.85,82.88h25.87v9.67h-25.87v-9.67Z"/>
        <path class="cls-1" d="M384.36,115.88c-4.14,0-8-.68-11.55-2.03-3.56-1.35-6.64-3.29-9.25-5.8-2.61-2.51-4.64-5.45-6.1-8.83-1.46-3.38-2.19-7.09-2.19-11.13s.73-7.75,2.19-11.13c1.46-3.38,3.5-6.32,6.14-8.83,2.63-2.51,5.72-4.44,9.25-5.79,3.53-1.36,7.39-2.04,11.59-2.04,4.66,0,8.87.81,12.63,2.42,3.76,1.61,6.92,3.98,9.48,7.1l-7.98,7.37c-1.84-2.1-3.89-3.67-6.14-4.72-2.25-1.05-4.71-1.57-7.37-1.57-2.51,0-4.81.41-6.91,1.23-2.1.82-3.91,2-5.45,3.53-1.53,1.54-2.72,3.35-3.57,5.45-.84,2.1-1.27,4.43-1.27,6.99s.42,4.89,1.27,6.98c.84,2.1,2.03,3.91,3.57,5.45,1.54,1.54,3.35,2.71,5.45,3.53,2.1.82,4.4,1.23,6.91,1.23,2.66,0,5.12-.52,7.37-1.57,2.25-1.05,4.3-2.65,6.14-4.8l7.98,7.37c-2.56,3.12-5.72,5.5-9.48,7.14-3.76,1.64-8,2.46-12.7,2.46Z"/>
        <path class="cls-1" d="M439.85,115.88c-4.25,0-8.17-.69-11.78-2.07-3.61-1.38-6.73-3.33-9.36-5.83-2.64-2.51-4.68-5.45-6.14-8.83-1.46-3.38-2.19-7.06-2.19-11.05s.73-7.68,2.19-11.05c1.46-3.38,3.52-6.32,6.18-8.83,2.66-2.51,5.78-4.45,9.36-5.83,3.58-1.38,7.47-2.07,11.67-2.07s8.15.69,11.71,2.07c3.56,1.38,6.65,3.33,9.29,5.83,2.63,2.51,4.69,5.44,6.18,8.79,1.48,3.35,2.23,7.05,2.23,11.09s-.74,7.69-2.23,11.09c-1.49,3.4-3.54,6.35-6.18,8.83-2.64,2.48-5.73,4.41-9.29,5.79-3.56,1.38-7.43,2.07-11.63,2.07ZM439.77,105.29c2.4,0,4.62-.41,6.64-1.23,2.02-.82,3.8-2,5.33-3.53,1.54-1.54,2.73-3.35,3.57-5.45.84-2.1,1.27-4.43,1.27-6.98s-.42-4.89-1.27-6.99c-.84-2.1-2.02-3.91-3.53-5.45-1.51-1.53-3.29-2.71-5.33-3.53-2.05-.82-4.27-1.23-6.68-1.23s-4.62.41-6.64,1.23c-2.02.82-3.8,2-5.33,3.53-1.53,1.54-2.72,3.35-3.57,5.45-.84,2.1-1.27,4.43-1.27,6.99s.42,4.82,1.27,6.95c.84,2.12,2.02,3.95,3.53,5.49,1.51,1.54,3.29,2.71,5.33,3.53,2.05.82,4.27,1.23,6.68,1.23Z"/>
        <path class="cls-1" d="M478.53,114.96v-53.73h10.29l31.7,38.69h-4.99v-38.69h12.28v53.73h-10.21l-31.78-38.69h4.99v38.69h-12.28Z"/>
        <path class="cls-1" d="M566.27,115.88c-4.14,0-8-.68-11.55-2.03-3.56-1.35-6.64-3.29-9.25-5.8-2.61-2.51-4.64-5.45-6.1-8.83-1.46-3.38-2.19-7.09-2.19-11.13s.73-7.75,2.19-11.13c1.46-3.38,3.5-6.32,6.14-8.83,2.63-2.51,5.72-4.44,9.25-5.79,3.53-1.36,7.39-2.04,11.59-2.04,4.66,0,8.87.81,12.63,2.42,3.76,1.61,6.92,3.98,9.48,7.1l-7.98,7.37c-1.84-2.1-3.89-3.67-6.14-4.72-2.25-1.05-4.71-1.57-7.37-1.57-2.51,0-4.81.41-6.91,1.23-2.1.82-3.91,2-5.45,3.53-1.53,1.54-2.72,3.35-3.57,5.45-.84,2.1-1.27,4.43-1.27,6.99s.42,4.89,1.27,6.98c.84,2.1,2.03,3.91,3.57,5.45,1.54,1.54,3.35,2.71,5.45,3.53,2.1.82,4.4,1.23,6.91,1.23,2.66,0,5.12-.52,7.37-1.57,2.25-1.05,4.3-2.65,6.14-4.8l7.98,7.37c-2.56,3.12-5.72,5.5-9.48,7.14-3.76,1.64-7.99,2.46-12.7,2.46Z"/>
        <path class="cls-1" d="M609.17,104.98h29.25v9.98h-41.6v-53.73h40.6v9.98h-28.25v33.77ZM608.25,82.88h25.87v9.67h-25.87v-9.67Z"/>
        <path class="cls-1" d="M648.32,114.96v-53.73h23.26c4.81,0,8.95.78,12.43,2.34,3.48,1.56,6.17,3.8,8.06,6.72,1.89,2.92,2.84,6.4,2.84,10.44s-.95,7.45-2.84,10.36c-1.89,2.92-4.58,5.16-8.06,6.72-3.48,1.56-7.63,2.34-12.43,2.34h-16.35l5.53-5.6v20.42h-12.43ZM660.75,95.92l-5.53-5.91h15.66c3.84,0,6.7-.82,8.6-2.46,1.89-1.64,2.84-3.91,2.84-6.83s-.95-5.27-2.84-6.91c-1.89-1.64-4.76-2.46-8.6-2.46h-15.66l5.53-5.91v30.47Z"/>
        <path class="cls-1" d="M730.22,115.88c-4.14,0-7.99-.68-11.55-2.03-3.56-1.35-6.64-3.29-9.25-5.8-2.61-2.51-4.64-5.45-6.1-8.83-1.46-3.38-2.19-7.09-2.19-11.13s.73-7.75,2.19-11.13c1.46-3.38,3.5-6.32,6.14-8.83,2.64-2.51,5.72-4.44,9.25-5.79,3.53-1.36,7.39-2.04,11.59-2.04,4.66,0,8.87.81,12.63,2.42,3.76,1.61,6.92,3.98,9.48,7.1l-7.98,7.37c-1.84-2.1-3.89-3.67-6.14-4.72-2.25-1.05-4.71-1.57-7.37-1.57-2.51,0-4.81.41-6.91,1.23-2.1.82-3.91,2-5.45,3.53s-2.73,3.35-3.57,5.45c-.85,2.1-1.27,4.43-1.27,6.99s.42,4.89,1.27,6.98c.84,2.1,2.03,3.91,3.57,5.45,1.53,1.54,3.35,2.71,5.45,3.53,2.1.82,4.4,1.23,6.91,1.23,2.66,0,5.12-.52,7.37-1.57,2.25-1.05,4.3-2.65,6.14-4.8l7.98,7.37c-2.56,3.12-5.72,5.5-9.48,7.14-3.76,1.64-8,2.46-12.7,2.46Z"/>
        <path class="cls-1" d="M760.77,114.96v-53.73h12.43v53.73h-12.43Z"/>
        <path class="cls-1" d="M812.04,115.88c-4.25,0-8.18-.69-11.78-2.07-3.61-1.38-6.73-3.33-9.36-5.83-2.64-2.51-4.68-5.45-6.14-8.83-1.46-3.38-2.19-7.06-2.19-11.05s.73-7.68,2.19-11.05,3.52-6.32,6.18-8.83c2.66-2.51,5.78-4.45,9.36-5.83,3.58-1.38,7.47-2.07,11.67-2.07s8.15.69,11.71,2.07,6.65,3.33,9.29,5.83c2.63,2.51,4.69,5.44,6.18,8.79,1.48,3.35,2.23,7.05,2.23,11.09s-.74,7.69-2.23,11.09c-1.48,3.4-3.54,6.35-6.18,8.83-2.64,2.48-5.73,4.41-9.29,5.79-3.56,1.38-7.43,2.07-11.63,2.07ZM811.96,105.29c2.4,0,4.62-.41,6.64-1.23,2.02-.82,3.8-2,5.33-3.53s2.73-3.35,3.57-5.45c.84-2.1,1.27-4.43,1.27-6.98s-.42-4.89-1.27-6.99c-.84-2.1-2.02-3.91-3.53-5.45-1.51-1.53-3.29-2.71-5.33-3.53-2.05-.82-4.27-1.23-6.68-1.23s-4.62.41-6.64,1.23c-2.02.82-3.8,2-5.33,3.53-1.54,1.54-2.73,3.35-3.57,5.45-.85,2.1-1.27,4.43-1.27,6.99s.42,4.82,1.27,6.95c.84,2.12,2.02,3.95,3.53,5.49,1.51,1.54,3.29,2.71,5.34,3.53,2.05.82,4.27,1.23,6.68,1.23ZM804.98,56.85l10.36-11.05h12.89l-13.89,11.05h-9.36Z"/>
        <path class="cls-1" d="M850.72,114.96v-53.73h10.28l31.7,38.69h-4.99v-38.69h12.28v53.73h-10.21l-31.78-38.69h4.99v38.69h-12.28Z"/>
        <path class="cls-1" d="M336.36,49.41V7.6h5.97v36.61h22.64v5.2h-28.61Z"/>
        <path class="cls-1" d="M365.51,49.41l18.93-41.81h5.91l18.99,41.81h-6.27l-16.9-38.46h2.39l-16.9,38.46h-6.15ZM373.57,38.96l1.61-4.78h23.53l1.73,4.78h-26.88Z"/>
        <path class="cls-1" d="M427.74,49.89c-3.19,0-6.23-.49-9.14-1.46s-5.2-2.24-6.87-3.79l2.21-4.66c1.59,1.39,3.62,2.55,6.09,3.46,2.47.92,5.04,1.37,7.7,1.37,2.43,0,4.4-.28,5.91-.84,1.51-.56,2.63-1.32,3.34-2.3s1.07-2.08,1.07-3.31c0-1.43-.47-2.59-1.4-3.46-.94-.88-2.15-1.58-3.64-2.12-1.49-.54-3.14-1-4.93-1.4-1.79-.4-3.59-.86-5.41-1.4-1.81-.54-3.46-1.22-4.96-2.06-1.49-.84-2.7-1.96-3.61-3.37-.92-1.41-1.37-3.23-1.37-5.46s.57-4.13,1.7-5.94c1.14-1.81,2.89-3.26,5.26-4.36,2.37-1.09,5.38-1.64,9.05-1.64,2.43,0,4.84.32,7.23.96,2.39.64,4.46,1.55,6.21,2.75l-1.97,4.78c-1.79-1.19-3.68-2.06-5.67-2.6-1.99-.54-3.92-.81-5.79-.81-2.35,0-4.28.3-5.79.9s-2.62,1.39-3.31,2.39c-.7,1-1.05,2.11-1.05,3.34,0,1.47.47,2.65,1.4,3.52.93.88,2.15,1.57,3.64,2.09,1.49.52,3.14.99,4.93,1.4,1.79.42,3.59.89,5.4,1.4,1.81.52,3.46,1.19,4.96,2.03,1.49.84,2.7,1.95,3.61,3.34.92,1.39,1.37,3.19,1.37,5.38s-.58,4.07-1.73,5.88c-1.16,1.81-2.94,3.27-5.35,4.36-2.41,1.1-5.45,1.64-9.11,1.64Z"/>
        <path class="cls-1" d="M477.01,49.41V12.8h-14.33v-5.2h34.58v5.2h-14.33v36.61h-5.91Z"/>
        <path class="cls-1" d="M509.74,44.21h24.37v5.2h-30.34V7.6h29.5v5.2h-23.53v31.41ZM509.2,25.64h21.5v5.08h-21.5v-5.08Z"/>
        <path class="cls-1" d="M543.78,49.41V7.6h16.3c3.66,0,6.79.58,9.38,1.73,2.59,1.15,4.58,2.83,5.97,5.02,1.39,2.19,2.09,4.8,2.09,7.82s-.7,5.62-2.09,7.79c-1.39,2.17-3.38,3.83-5.97,4.99-2.59,1.15-5.71,1.73-9.38,1.73h-13.02l2.69-2.75v15.47h-5.97ZM549.75,34.54l-2.69-2.93h12.84c3.82,0,6.72-.83,8.69-2.48,1.97-1.65,2.96-3.97,2.96-6.96s-.99-5.29-2.96-6.93c-1.97-1.63-4.87-2.45-8.69-2.45h-12.84l2.69-2.99v24.73ZM571.73,49.41l-10.63-15.17h6.39l10.75,15.17h-6.51Z"/>
        <path class="cls-1" d="M587.2,49.41V7.6h16.3c3.66,0,6.79.58,9.38,1.73,2.59,1.15,4.58,2.83,5.97,5.02,1.39,2.19,2.09,4.8,2.09,7.82s-.7,5.62-2.09,7.79c-1.39,2.17-3.38,3.83-5.97,4.99-2.59,1.15-5.71,1.73-9.38,1.73h-13.02l2.69-2.75v15.47h-5.97ZM593.17,34.54l-2.69-2.93h12.84c3.82,0,6.72-.83,8.69-2.48,1.97-1.65,2.96-3.97,2.96-6.96s-.99-5.29-2.96-6.93c-1.97-1.63-4.87-2.45-8.69-2.45h-12.84l2.69-2.99v24.73ZM615.15,49.41l-10.63-15.17h6.39l10.75,15.17h-6.51Z"/>
        <path class="cls-1" d="M624.28,49.41l18.93-41.81h5.91l18.99,41.81h-6.27l-16.9-38.46h2.39l-16.9,38.46h-6.15ZM632.35,38.96l1.61-4.78h23.53l1.73,4.78h-26.88Z"/>
        <path class="cls-1" d="M670.63,49.41v-4.06l28.13-34.88.66,2.33h-28.37v-5.2h33.74v4.06l-28.01,34.88-.72-2.33h29.5v5.2h-34.94Z"/>
        <path class="cls-1" d="M707.24,49.41l18.93-41.81h5.91l18.99,41.81h-6.27l-16.9-38.46h2.39l-16.9,38.46h-6.15ZM715.3,38.96l1.61-4.78h23.53l1.73,4.78h-26.88Z"/>
        <path class="cls-1" d="M769.47,49.89c-3.19,0-6.23-.49-9.14-1.46-2.91-.98-5.2-2.24-6.87-3.79l2.21-4.66c1.59,1.39,3.62,2.55,6.09,3.46,2.47.92,5.04,1.37,7.7,1.37,2.43,0,4.4-.28,5.91-.84,1.51-.56,2.63-1.32,3.34-2.3.72-.98,1.08-2.08,1.08-3.31,0-1.43-.47-2.59-1.4-3.46-.94-.88-2.15-1.58-3.64-2.12s-3.14-1-4.93-1.4c-1.79-.4-3.59-.86-5.4-1.4-1.81-.54-3.46-1.22-4.96-2.06-1.49-.84-2.7-1.96-3.61-3.37-.92-1.41-1.37-3.23-1.37-5.46s.57-4.13,1.7-5.94c1.14-1.81,2.89-3.26,5.26-4.36,2.37-1.09,5.38-1.64,9.05-1.64,2.43,0,4.84.32,7.23.96,2.39.64,4.46,1.55,6.21,2.75l-1.97,4.78c-1.79-1.19-3.68-2.06-5.67-2.6-1.99-.54-3.92-.81-5.79-.81-2.35,0-4.28.3-5.79.9-1.51.6-2.62,1.39-3.32,2.39-.7,1-1.04,2.11-1.04,3.34,0,1.47.47,2.65,1.4,3.52.94.88,2.15,1.57,3.64,2.09,1.49.52,3.14.99,4.93,1.4,1.79.42,3.59.89,5.41,1.4,1.81.52,3.46,1.19,4.96,2.03,1.49.84,2.7,1.95,3.61,3.34.92,1.39,1.37,3.19,1.37,5.38s-.58,4.07-1.73,5.88c-1.16,1.81-2.94,3.27-5.35,4.36-2.41,1.1-5.45,1.64-9.11,1.64Z"/>
      </g>
      <g>
        <g>
          <path class="cls-1" d="M148.39,20.51c1.35-.47,2.52-1.33,3.81-1.94,1.29-.61,2.83-.97,4.13-.37,1.01.47,1.8,1.48,2.91,1.59.69.07,1.36-.23,1.99-.53,1.67-.78,3.34-1.56,5.01-2.35.45-.21.95-.42,1.42-.27.31.1.55.35.76.6.95,1.16,1.49,2.7,1.27,4.18-.32,2.15-2.23,3.82-4.33,4.37-2.1.55-4.34.16-6.39-.54-1.02-.35-2.02-.78-3.07-1.02-2.52-.58-5.14-.06-7.72.11-1.17.08-6.54.28-6.09-2.1.28-1.47,5.02-1.31,6.3-1.75Z"/>
          <path class="cls-1" d="M154.19,32.28c1.39-.58,2.7-1.36,4.09-1.94,1.79-.74,3.72-1.15,5.66-1.2,1.61-.04,3.29.2,4.65,1.06s2.34,2.47,2.12,4.06c-.21,1.47-1.38,2.67-2.73,3.3s-2.86.79-4.35.91c-5.85.48-11.72.57-17.59.41-2.95-.08-5.91-.23-8.83-.71-2.42-.4-6.93-1.02-8.72-2.89-1.24-1.29.27-1.26,1.67-1.5,1.52-.26,3.05-.36,4.59-.38,3.08-.04,6.14.27,9.22.33,3.45.07,6.98-.13,10.2-1.47Z"/>
          <path class="cls-1" d="M113.46,42.38c.46-1,4.3-1.17,10.8.4,6.39,1.55,6.98,2.66,12.12,3.58,2.52.45,5.1.47,7.67.49,4.06.03,8.11.06,12.17.06,2.8,0,5.68-.03,8.3-1.02,1.81-.69,3.85-1.83,5.53-.85,1.7.99,1.63,3.67.34,5.17s-3.3,2.09-5.22,2.56c-5.1,1.26-10.35,2.19-15.6,1.8-9.42-.71-17.97-5.57-27.04-8.2-1.57-.45-3.17-.84-4.79-.95-.22-.02-1.37-.18-2.68-.8-1.47-.7-1.66-1.29-1.7-1.56,0,0-.05-.35.1-.68Z"/>
          <path class="cls-1" d="M107.36,55.63c6.5.66,8.07-.14,14.06,1.25,3.59.84,7.02,2.21,10.55,3.3,10.39,3.2,21.42,3.83,32.29,3.38,1.57-.07,3.2-.15,4.67.42,1.47.57,2.74,1.99,2.59,3.56-.19,2.1-2.56,3.19-4.6,3.76-10.29,2.86-21.34,3.21-31.65.44-6.92-1.86-13.42-5.08-20.37-6.86-4.66-1.19-6.03-1.4-19.61-4.41-16.94-3.76-20.42-4.77-20.37-5.86.06-1.56,7.27-2.4,7.89-2.47,9.35-1.05,12.24,2.24,24.55,3.5Z"/>
          <path class="cls-1" d="M75.25,66.3c.14-.85,1.3-1.31,1.71-1.47,5.1-2.02,18.3,3.28,18.3,3.28,5.74,2.3,12.89,5.19,17.07,6.85,6.94,2.74,10.41,4.12,13.12,4.85,8.96,2.41,8.4.4,17.75,2.82,3.86,1,9.17,1.99,12.4,1.02.98-.29,1.93-.74,2.95-.79,1.02-.05,2.17.45,2.45,1.43.39,1.39-1.08,2.55-2.38,3.19-3.52,1.75-7.25,3.06-11.08,3.89-2.35.51-4.79.84-7.14.38-4.86-.96-8.41-5.03-12.75-7.41-4.36-2.39-9.44-3.03-14.28-4.16-14.42-3.38-12.66-7.96-21.24-9.03-3.03-.38-14.24-1.31-16.23-3.38-.2-.2-.77-.81-.67-1.47Z"/>
          <path class="cls-1" d="M87.26,79.64c2.89.25,5.89-.55,8.67.3.12.04.25.08.31.19.07.11.05.24.03.37-.18,1.09-.4,2.24-1.16,3.04-.76.81-1.94,1.11-3.05,1.08s-2.19-.35-3.28-.59c-2.35-.52-10.26-1.05-10.2-4.71.08-4.18,6.86.16,8.68.32Z"/>
          <path class="cls-1" d="M120.68,99.4c3.21-.1,6.38-.89,9.6-.88.35,0,.72.01,1.04.16.68.31.97,1.14.91,1.88-.11,1.31-1.11,2.4-2.27,3s-2.49.78-3.79.96c-1.31.18-2.62.36-3.92.53-1.75.24-3.52.48-5.28.28-3.13-.35-5.92-2.04-8.6-3.68-2.85-1.75-7.33-3.48-9.59-5.92-2.04-2.21.99-3.74,3.03-2.74,6.3,3.06,11.51,6.64,18.89,6.42Z"/>
          <path class="cls-1" d="M75.44,89.26c4.52.59,9.11.72,13.66.39.23,1.13.41,2.43-.32,3.31-.72.87-2.01.95-3.14.96-1.71.01-3.43.02-5.14.03-3.15.02-6.43,0-9.25-1.38-1.66-.82-9.65-5.81-6.13-7.71,1.78-.96,2.89,1.19,4.13,2.17,1.82,1.44,3.93,1.93,6.19,2.23Z"/>
          <path class="cls-1" d="M81.09,109.18c1.98,1.38,3.93,2.85,6.18,3.72,3.5,1.37,7.44,1.18,11.11.37,1.3-.29,2.63-.65,3.94-.42,1.31.23,2.6,1.25,2.62,2.58.02,1.51-1.47,2.54-2.81,3.24-2.72,1.41-5.55,2.59-8.46,3.55-1.36.45-2.77.85-4.2.77-1.83-.1-3.52-.96-5.13-1.83-2-1.09-3.99-2.23-5.74-3.68-1.99-1.65-3.62-3.67-5.02-5.83-1.18-1.82-3.2-4.52-3.6-6.68-.61-3.35,2.71-1.02,4.13-.2,2.38,1.37,4.71,2.84,6.97,4.41Z"/>
        </g>
        <path class="cls-1" d="M71.8,78.56c-2.86-2.49-5.52-4.8-8.18-7.11-8.72-5.12-17.54-10.01-27.51-12.35-1.27-.3-2.76-.64-2.17-2.49.57-1.79,1.94-1.24,3.24-.9,10.75,2.83,20.89,6.93,29.55,14.13h0c3.11.23,1.53-1.97,1.37-3.01-2.85-17.53-10.37-32.76-22.88-45.42-4.4-4.45-9.02-8.68-15.46-11.42,1.08,15.04,7.04,27.57,14.61,39.69-14.09-6.74-28.4-11.26-44.37-10.38,15.32,27.46,52.37,42.49,71.8,39.27ZM48.67,40.72c2.05-.67,2.15,1.48,2.52,2.81,1.77,6.33,5.02,11.94,9.34,18.21-7.5-4.36-10.88-10.14-12.51-17.1-.33-1.4-1.22-3.31.65-3.92Z"/>
        <path class="cls-1" d="M70.63,96.83c-2.55.41-4.91.78-7.28,1.16-6.47,2.32-12.87,4.78-18.44,8.96-.71.53-1.54,1.16-2.24.05-.68-1.08.2-1.55.95-2.09,6.17-4.37,12.73-7.87,20.26-9.24h0c1.48-1.52-.36-1.66-.97-2.03-10.39-6.17-21.61-8.88-33.67-7.88-4.24.35-8.46.92-12.7,3.08,8.31,6,17.45,8.36,27.08,9.69-9.66,4.41-18.26,9.9-24.77,18.61,21.01,3.99,45.01-8.78,51.81-20.32ZM40.81,92.38c.54-1.36,1.71-.48,2.57-.09,4.08,1.84,8.42,2.59,13.57,3.07-5.54,2.01-10.03,1.25-14.38-.93-.87-.44-2.26-.81-1.76-2.05Z"/>
        <g>
          <path class="cls-1" d="M130.05,3.78c0-1.8-.56-3.07-2.23-3.78h-54.4c-1.67.72-2.24,1.98-2.23,3.78.05,14.18.03,28.35.03,42.53,0,1.49.48,2.2,1.49,2.19.99-.01,1.45-.72,1.45-2.23,0-14.09,0-28.17,0-42.26v-1.03h52.93c0,.41,0,.77,0,1.13,0,8,0,16.01,0,24.01.88-.83,1.85-1.76,2.93-2.79,0-7.18,0-14.37.03-21.55Z"/>
          <path class="cls-1" d="M124.14,8.09c0-1.8-.42-2.21-2.21-2.21-14.21,0-28.42,0-42.63,0-1.79,0-2.21.42-2.21,2.21,0,12.74,0,25.48,0,38.22,0,.24-.01.49,0,.73.07.85.7,1.47,1.48,1.46.78-.01,1.38-.62,1.45-1.49.02-.27,0-.55,0-.83,0-6.71,0-13.41,0-20.12v-1.08h1.07c4.29,0,8.57,0,12.86,0,.25,0,.49.01.73,0,.87-.06,1.48-.66,1.5-1.44.01-.77-.6-1.41-1.45-1.48-.24-.02-.49,0-.73,0-4.32,0-8.64,0-12.95,0h-.95v-13.18h19.04c0,.41,0,.77,0,1.13,0,12.1,0,24.19,0,36.29,0,.31-.03.62.03.92.15.79.63,1.28,1.44,1.28.81,0,1.3-.49,1.45-1.27.06-.3.03-.61.03-.92,0-6.74,0-13.47,0-20.21v-1.05h19.11v1.12c0,2.48,0,4.97,0,7.45.76-.7,1.71-1.58,2.94-2.72,0-7.6,0-15.2,0-22.79ZM121.13,21.99h-19v-13.12h19v13.12Z"/>
        </g>
      </g>
    </g>
  </g>
</svg>