<?xml version="1.0" encoding="UTF-8"?>
<svg id="Capa_2" data-name="Capa 2" xmlns="http://www.w3.org/2000/svg" viewBox="0 0 720 299.58">
  <defs>
    <style>
      .cls-1 {
        fill: #fff;
      }

      .cls-2 {
        fill: #00a74f;
      }
    </style>
  </defs>
  <g id="Capa_3" data-name="Capa 3">
    <g>
      <g>
        <path class="cls-1" d="M395.67,299.27h-5.41l-9.06-24.53h3.82l7.95,21.55,7.95-21.55h3.82l-9.06,24.53Z"/>
        <path class="cls-1" d="M409.56,273.87c1.34,0,2.26.86,2.26,2.15s-.92,2.15-2.26,2.15-2.26-.86-2.26-2.15.89-2.15,2.26-2.15ZM407.8,299.27v-18.12h3.4v18.12h-3.4Z"/>
        <path class="cls-1" d="M434.04,281.15l-7.44,18.12h-5.1l-7.25-18.12h3.74l6.08,15.19,6.22-15.19h3.76Z"/>
        <path class="cls-1" d="M445.11,280.84c5.58,0,9.56,4.43,8.89,10.79h-14.72c.67,3.63,3.54,5.13,7,5.13,2.15,0,4.57-.67,6.25-1.78v2.96c-1.23,1-4.15,1.62-6.69,1.62-6.22,0-10.23-3.62-10.23-9.37,0-4.96,3.96-9.34,9.51-9.34ZM439.45,289.01h10.9c0-3.15-2.31-5.35-5.21-5.35s-5.41,2.31-5.69,5.35Z"/>
        <path class="cls-1" d="M473.47,280.84c5.58,0,9.56,4.43,8.89,10.79h-14.72c.67,3.63,3.54,5.13,7,5.13,2.15,0,4.57-.67,6.25-1.78v2.96c-1.23,1-4.15,1.62-6.69,1.62-6.22,0-10.23-3.62-10.23-9.37,0-4.96,3.96-9.34,9.51-9.34ZM467.81,289.01h10.9c0-3.15-2.31-5.35-5.21-5.35s-5.41,2.31-5.69,5.35Z"/>
        <path class="cls-1" d="M485.9,281.2h3.15v1.56c1.92-1.17,3.93-1.9,6.33-1.9,4.4,0,7.97,2.45,7.97,6.64v11.85h-3.43v-10.96c0-3.46-2.2-4.71-5.19-4.71s-5.1,1.39-5.41,2.06v13.61h-3.43v-18.15Z"/>
        <path class="cls-1" d="M514.51,299.24v-25.06h3.46v7.95c1.17-.67,2.96-1.28,5.41-1.28,6.27,0,9.68,3.96,9.68,9.42s-3.65,9.31-9.4,9.31c-2.51,0-4.46-.7-5.97-1.87v1.53h-3.18ZM529.45,290.26c0-3.99-2.4-6.64-6.44-6.64-1.9,0-3.71.59-5.05,1.62v9.28c1.06,1.31,2.87,2.26,5.19,2.26,3.65,0,6.3-2.34,6.3-6.52Z"/>
        <path class="cls-1" d="M538.71,273.87c1.34,0,2.26.86,2.26,2.15s-.92,2.15-2.26,2.15-2.26-.86-2.26-2.15.89-2.15,2.26-2.15ZM536.96,299.27v-18.12h3.4v18.12h-3.4Z"/>
        <path class="cls-1" d="M553.18,280.84c5.58,0,9.56,4.43,8.89,10.79h-14.72c.67,3.63,3.54,5.13,7,5.13,2.15,0,4.57-.67,6.25-1.78v2.96c-1.23,1-4.15,1.62-6.69,1.62-6.22,0-10.23-3.62-10.23-9.37,0-4.96,3.96-9.34,9.51-9.34ZM547.52,289.01h10.9c0-3.15-2.31-5.35-5.21-5.35s-5.41,2.31-5.69,5.35Z"/>
        <path class="cls-1" d="M565.62,281.2h3.15v1.56c1.92-1.17,3.93-1.9,6.33-1.9,4.4,0,7.97,2.45,7.97,6.64v11.85h-3.43v-10.96c0-3.46-2.2-4.71-5.19-4.71s-5.1,1.39-5.41,2.06v13.61h-3.43v-18.15Z"/>
        <path class="cls-1" d="M596.07,280.84c5.58,0,9.56,4.43,8.89,10.79h-14.72c.67,3.63,3.54,5.13,7,5.13,2.15,0,4.57-.67,6.25-1.78v2.96c-1.23,1-4.15,1.62-6.69,1.62-6.22,0-10.23-3.62-10.23-9.37,0-4.96,3.96-9.34,9.51-9.34ZM590.41,289.01h10.9c0-3.15-2.31-5.35-5.21-5.35s-5.41,2.31-5.69,5.35Z"/>
        <path class="cls-1" d="M615.92,283.6c-2.43,0-4.32.78-4.32,2.54,0,1.42,1.5,1.98,4.77,2.62,4.96,1.03,7.3,2.71,7.3,5.8,0,3.29-2.7,4.99-7.95,4.99-3.04,0-5.27-.59-7.64-1.67v-3.29c2.57,1.53,4.68,2.2,7.92,2.2,1.98,0,4.01-.45,4.01-2.23s-1.39-2.37-5.3-3.21c-4.93-1.12-6.83-2.59-6.83-5.07,0-3.18,3.18-5.44,7.5-5.44,2.26,0,6.05.61,6.64,1.03v3.29c-1.2-.84-3.76-1.56-6.11-1.56Z"/>
        <path class="cls-1" d="M638.37,281.15v2.7h-6.16v10.09c0,2.17,1.64,2.76,3.6,2.76,1.09,0,2.26-.17,3.32-.36v2.62c-.84.31-3.57.53-4.18.53-4.07,0-6.16-1.67-6.16-5.38v-10.2h-3.51v-2.76h3.51v-5.3h3.43v5.3h6.16Z"/>
        <path class="cls-1" d="M643.61,282.15c1.45-.92,4.38-1.31,6.38-1.31,5.21,0,8.53,2.62,8.53,6.75v7.78c0,1.14.59,1.12,1.67,1.12v2.84h-2.15c-1.31,0-2.06-.64-2.54-1.78-1.67,1.28-4.55,2.04-6.94,2.04-4.21,0-6.91-1.9-6.91-5.32,0-2.93,1.98-4.68,5.66-5.35l7.7-1.39c0-2.65-1.65-3.85-5.58-3.85-3.29,0-4.99.86-5.83,1.45v-2.96ZM648.43,291.44c-2.04.39-3.04,1.65-3.04,2.98,0,1.64,1.59,2.51,3.99,2.51,2.87,0,4.74-.86,5.69-2.4v-4.32l-6.64,1.23Z"/>
        <path class="cls-1" d="M666.98,299.41h-3.46v-18.29h3.46v1.56c1.48-1.14,4.07-1.81,6.61-1.81.73,0,1.42.06,2.12.17v2.79c-.73-.11-1.45-.17-2.17-.17-2.65,0-5.07.75-6.55,2.26v13.49Z"/>
      </g>
      <path class="cls-1" d="M97.84,49.27h0C43.8,49.27,0,93.08,0,147.11v98.03h28.16v-96.83c0-39.57,32.91-71.93,72.42-69.73,36.06,2.01,64.69,32.01,64.69,68.72v97.84h29.38v-98.03c0-54.03-43.8-97.84-97.84-97.84"/>
      <path class="cls-1" d="M240,147.31h0c0,54.03,43.8,97.84,97.84,97.84h97.98v-29.38h-96.16c-39.58,0-71.94-32.91-69.74-72.43,2.01-36.06,31.89-64.69,68.45-64.69h97.46v-29.38h-97.98c-54.03,0-97.84,43.8-97.84,97.84"/>
      <rect class="cls-1" x="326.86" y="132.52" width="107.73" height="29.38"/>
      <g>
        <path class="cls-1" d="M568.18,0l13.43.29c3.83.08,6.77,1.12,8.8,3.12,2.03,2.03,2.99,4.52,2.93,7.36-.06,3.01-1.13,5.48-3.24,7.39-.68.61-1.43,1.1-2.26,1.51l5.85,11.33-7.38-.16-5.14-9.91-5.62-.12-.21,9.8-7.81-.17.65-30.44ZM580.87,14.68c3.01.06,4.52-1.27,4.58-4.04.03-1.17-.31-2.12-1.03-2.91-.73-.8-1.85-1.17-3.37-1.2l-5.19-.11-.17,8.16,5.19.11Z"/>
        <path class="cls-1" d="M606.68,2.96l7.62,1.71-6.67,29.72-7.62-1.71,6.67-29.72Z"/>
        <path class="cls-1" d="M627.21,7.7l7.67,3.68-1.95,21.75,15.78-15.12,7.67,3.68-24.29,22.12-6.97-3.34,2.08-32.77Z"/>
        <path class="cls-1" d="M667.44,29.81l17.47,15.55-5.04,5.66-11.63-10.36-2.91,3.27,8.19,7.3-4.7,5.28-8.19-7.3-2.6,2.92,11.63,10.36-5.01,5.63-17.47-15.55,20.25-22.74Z"/>
        <path class="cls-1" d="M694.24,55.89l7.38,11.22c2.1,3.2,2.92,6.21,2.42,9.01-.53,2.82-2.03,5.02-4.41,6.59-2.51,1.65-5.16,2.18-7.93,1.52-.89-.21-1.72-.55-2.53-1l-6.02,11.24-4.05-6.17,5.25-9.85-3.09-4.7-8.19,5.38-4.29-6.53,25.45-16.73ZM689.34,74.67c1.65,2.51,3.61,3,5.92,1.48.98-.64,1.57-1.45,1.81-2.5.25-1.05-.08-2.19-.92-3.46l-2.85-4.34-6.82,4.48,2.85,4.34Z"/>
        <path class="cls-1" d="M717.68,99.79l2.32,7.37-25.35,20.88-2.56-8.12,5.74-4.39-3.11-9.87-7.24-.38-2.56-8.12,32.75,2.62ZM703.15,111.24l6.15-4.76-7.82-.4,1.67,5.16Z"/>
      </g>
      <path class="cls-2" d="M578.36,49.17c-31.86,0-60.16,15.23-78.02,38.8,4.75,5.32,12.34,11.34,24.45,16.49,12.6-15.99,32.13-26.28,54.08-26.28,38.01,0,68.83,30.82,68.83,68.83,0,25.05-13.39,46.97-33.39,59.01-4.86,11.81-13.49,22.28-25.4,30.54-5.04,3.49-10.37,6.22-15.85,8.15,1.76.09,3.53.14,5.31.14,54.04,0,97.85-43.81,97.85-97.85s-43.81-97.85-97.85-97.85Z"/>
      <path class="cls-1" d="M586.36,138.55c.77.09,1.54.14,2.33.14,11.43,0,20.7-9.27,20.7-20.7s-9.27-20.7-20.7-20.7-20.7,9.27-20.7,20.7c0,4.09,1.19,7.9,3.24,11.11-6.3-2.97-13.32-5.3-21.04-6.79-12.52-2.43-22.73-5.73-31.05-9.46-11.29-5.06-19.1-10.92-24.5-16.47-10.07-10.35-11.75-19.63-11.92-20.7,1.4,11.48,3.89,20.25,8.18,27.46,4.96,8.34,12.33,14.58,23.23,20.47,7.91,4.27,17.67,8.36,29.71,12.95,19.02,7.24,30.25,16.62,35.84,26.28.84,1.34,1.62,2.71,2.29,4.19,7.62,16.86-1.52,46.12-21.87,46.24-30.02.16-50.06-34.71-50.06-66.22,0-4.73.48-9.34,1.39-13.8-6.65-2.78-16.67-9.56-24.98-19.81-3.83,10.48-5.93,21.8-5.93,33.61,0,37.66,21.28,70.35,52.48,86.71,14.91,6.71,33.08,6.54,50.24-5.35,6.67-4.62,11.97-9.91,15.99-15.59,16.91-23.9,10.98-54.91-12.86-74.24Z"/>
    </g>
  </g>
</svg>