<?xml version="1.0" encoding="UTF-8"?>
<svg id="Capa_2" data-name="Capa 2" xmlns="http://www.w3.org/2000/svg" viewBox="0 0 700 310.29">
  <defs>
    <style>
      .cls-1 {
        fill: #fff;
      }

      .cls-2 {
        fill: #00a74f;
      }
    </style>
  </defs>
  <g id="Capa_3" data-name="Capa 3">
    <g>
      <g>
        <path class="cls-1" d="M92.54,60.43h0C41.43,60.43,0,101.86,0,152.97v78.82c0,7.58,6.14,13.72,13.72,13.72s13.72-6.14,13.72-13.72v-77.64c0-33.69,27.43-64.13,61.06-66.16,37.78-2.28,69.14,27.69,69.14,64.98v78.82c0,7.58,6.14,13.72,13.72,13.72s13.72-6.14,13.72-13.72v-78.82c0-51.11-41.43-92.54-92.54-92.54"/>
        <path class="cls-1" d="M345.97,166.69h-51.65c-7.58,0-13.72-6.14-13.72-13.72s6.14-13.72,13.72-13.72h51.65c7.58,0,13.72,6.14,13.72,13.72s-6.14,13.72-13.72,13.72"/>
        <polygon class="cls-1" points="525.98 38.27 522.44 2.07 543.55 0 544.04 4.96 528.42 6.49 529.33 15.87 543.36 14.5 543.84 19.46 529.82 20.83 530.99 32.83 546.62 31.3 547.1 36.25 528.71 38.05 528.7 38 525.98 38.27"/>
        <polygon class="cls-1" points="577.52 40.51 572.15 39.23 579.44 8.7 570.53 6.58 571.69 1.73 594.87 7.26 593.72 12.11 584.81 9.98 577.52 40.51"/>
        <polygon class="cls-1" points="601.63 49.4 621.24 18.76 639.11 30.19 636.42 34.39 623.2 25.93 618.12 33.87 629.99 41.46 627.3 45.66 615.43 38.07 608.94 48.22 622.16 56.68 619.47 60.87 603.91 50.92 603.93 50.87 601.63 49.4"/>
        <path class="cls-1" d="M655.51,71.27c2.72,3.52,6.58,3.44,9.04,1.54,2.46-1.9,3.57-5.54.79-9.13l-4.82-6.23-7.96,6.16-3.37-4.36,11.91-9.2,9.01,11.65c3.64,4.7,3.25,11.3-1.58,15.03-3.47,2.69-7.51,2.89-11.61.31,1.11,3,0,5.88-1.33,7.39l-7.38,8.41-3.37-4.36,6.38-7.5c2.43-2.9,2.03-4.55.56-6.46l-2.59-3.35c-1.31-1.69-3.79-2.01-5.48-.7l-8.01,6.19-3.37-4.36,7.75-5.99c3.98-3.08,9.77-2.34,12.85,1.64l2.59,3.35Z"/>
        <polygon class="cls-1" points="656.96 112.39 655.36 107.11 690.16 96.53 691.92 102.32 670.57 123.26 695.83 115.18 697.44 120.46 662.64 131.05 660.87 125.26 682.22 104.32 656.96 112.39"/>
        <path class="cls-1" d="M671.81,156.42l-7.34-3.29.53-5.92,35,16.89-.46,5.12-20.51,5.7.49-5.5,13.79-3.34-16.7-7.51-.96,10.72c-.34,3.79-3.58,7.58-7.22,8.6l-6.34,1.75.53-5.92,4.12-1.03c2.04-.52,3.84-2.62,4.02-4.7l1.03-11.58Z"/>
        <path class="cls-2" d="M489.21,125.29c12.93-25.29,37.18-40.85,66.14-37.19,24.27,3.07,46.46,20.18,54.37,43.53,8.58,25.33,1.01,52.65-18.93,70.33-19.18,17.01-47.5,21.12-70.47,9.79-30.93-15.25-53.41-43.8-76.49-68.51-12.11-12.98-31.55,6.52-19.46,19.46,24.66,26.41,49.01,56.52,82.06,72.81,33.33,16.44,71.81,12.01,100.7-11.46,27.41-22.28,39.48-59.57,30.9-93.75-8.42-33.54-36.74-60.62-70.52-67.88-41.96-9.01-82.63,10.94-102.07,48.97-8.05,15.74,15.69,29.69,23.77,13.89"/>
        <path class="cls-1" d="M372.49,191.94c-18.27,23.47-47.48,32.64-75.61,21.78-21.81-8.42-38.48-28.82-41.52-52.13-3.11-23.8,7.62-48.08,27.36-61.75,21.86-15.13,48.29-15.54,71.12-2.48,27.96,15.99,48.87,42.12,70.55,65.34,12.11,12.98,31.55-6.52,19.46-19.46-23.78-25.47-47.01-53.81-78.09-70.75-30.06-16.38-66.09-16.35-95.22,2.45-27.81,17.95-45.28,50.11-42.98,83.45,2.26,32.88,22.03,63.35,52,77.65,38.7,18.47,85.65,9.74,112.41-24.63,4.56-5.86,5.71-13.75,0-19.46-4.75-4.75-14.87-5.9-19.46,0"/>
      </g>
      <g>
        <path class="cls-1" d="M320.32,273.93h3.82l9.53,28.85-.76.04,9.48-28.89h3.73l-10.56,31.45h-4.54l-10.69-31.45Z"/>
        <path class="cls-1" d="M350.14,276.76c-.38-.21-.67-.5-.9-.88-.22-.37-.34-.8-.34-1.28s.12-.91.36-1.28c.24-.37.54-.67.9-.88.36-.21.76-.31,1.21-.31s.86.11,1.24.34c.37.22.67.52.9.9.22.38.34.79.34,1.24s-.11.87-.34,1.26c-.22.39-.52.69-.9.9-.38.21-.79.31-1.24.31s-.86-.1-1.24-.31ZM349.57,282.92h3.55v22.47h-3.55v-22.47Z"/>
        <path class="cls-1" d="M356.76,282.92h3.59l7.5,19.77-.85.18,7.77-19.95h3.55l-8.99,22.47h-3.68l-8.9-22.47Z"/>
        <path class="cls-1" d="M384.24,303.01c-1.99-2.07-2.99-5.03-2.99-8.9v-.49c0-2.25.41-4.22,1.24-5.93.82-1.71,2.04-3.06,3.64-4.04s3.57-1.48,5.91-1.48h.27c3.33,0,5.89.93,7.71,2.79,1.81,1.86,2.75,4.37,2.81,7.55l.04,2.25h-19.23v-2.25l16.63.04-.85.58-.04-1.35c-.06-2.22-.69-3.93-1.89-5.14-1.2-1.21-2.89-1.82-5.08-1.82h-.18c-2.55,0-4.47.75-5.77,2.25-1.3,1.5-1.95,3.58-1.95,6.25v.54c0,3.06.7,5.38,2.11,6.96,1.41,1.59,3.31,2.38,5.71,2.38h.18c1.83,0,3.36-.46,4.61-1.37,1.24-.91,2-2.25,2.27-4.02l3.05,1.12c-.45,2.22-1.54,3.97-3.28,5.26-1.74,1.29-3.96,1.93-6.65,1.93h-.18c-3.39,0-6.07-1.03-8.07-3.1Z"/>
        <path class="cls-1" d="M409.38,307.88c.36-.61.48-1.46.36-2.54l.36.58c-.99,0-1.74-.25-2.25-.74-.51-.49-.76-1.13-.76-1.91s.25-1.39.76-1.82c.51-.43,1.09-.65,1.75-.65.84,0,1.49.29,1.96.85.46.57.7,1.38.7,2.43v.13c0,1.71-.39,3.14-1.17,4.29-.78,1.15-1.87,1.74-3.28,1.77v-1.48c.69,0,1.21-.31,1.57-.92Z"/>
        <path class="cls-1" d="M429.47,303.81c-.93-1.05-1.39-2.79-1.39-5.21v-13.21l.31.4h-5.21v-2.88h5.26l-.27.4v-9.17h3.46v9.03l-.32-.27h5.35v2.88h-5.21l.18-.49v12.85c0,1.08.08,1.91.25,2.49.16.58.46,1.02.88,1.3.42.29,1.02.43,1.8.43h1.48v3.01h-1.93c-2.16,0-3.7-.52-4.63-1.57Z"/>
        <path class="cls-1" d="M440.61,282.92h3.55v22.47h-3.55v-22.47ZM443.44,287.46h.58c.63-1.47,1.6-2.59,2.92-3.37,1.32-.78,2.91-1.17,4.76-1.17h.9v3.37h-1.44c-1.95,0-3.5.44-4.67,1.3-1.17.87-2.02,2.32-2.56,4.36h-.49v-4.49Z"/>
        <path class="cls-1" d="M456.54,304.38c-1.36-1.15-2.04-2.73-2.04-4.74v-.22c0-1.5.35-2.73,1.06-3.68.7-.96,1.79-1.72,3.26-2.29,1.47-.57,3.44-1.02,5.93-1.35l7.32-.9.04,8.4-.72-.22c-.36,1.23-.97,2.36-1.84,3.39-.87,1.03-1.91,1.85-3.12,2.45-1.21.6-2.51.9-3.89.9h-.45c-2.34,0-4.19-.58-5.55-1.73ZM471.25,299.1l.45-1.35v-3.73l-.58-1.53v-1.75c.03-1.8-.49-3.21-1.55-4.22-1.06-1.02-2.52-1.53-4.38-1.53h-.22c-1.68,0-3.1.37-4.27,1.1-1.17.73-1.87,1.97-2.11,3.71l-3.19-.67c.42-2.34,1.51-4.07,3.28-5.21,1.77-1.14,3.86-1.71,6.29-1.71h.4c2.97,0,5.26.7,6.9,2.09,1.63,1.39,2.45,3.44,2.45,6.13v14.96h-3.46v-6.29ZM467.23,302.13c1.18-.85,2.13-2.12,2.83-3.8.7-1.68,1.04-3.68,1.01-6.02l.36.9-5.84.76c-2.67.36-4.58.92-5.75,1.69-1.17.76-1.75,1.86-1.75,3.3v.36c0,.69.2,1.35.58,1.98.39.63.95,1.14,1.68,1.53.73.39,1.6.58,2.58.58h.49c1.35,0,2.61-.43,3.8-1.28Z"/>
        <path class="cls-1" d="M481.74,304.6c-1.72-1-2.76-2.45-3.12-4.34l3.46-.4c.36,1.23,1.16,2.13,2.4,2.7,1.24.57,2.81.85,4.7.85h.22c2.37,0,4-.37,4.9-1.12.9-.75,1.35-1.8,1.35-3.15v-.04c0-1.02-.31-1.81-.92-2.38-.61-.57-1.4-.98-2.36-1.24s-2.19-.5-3.68-.74c-1.98-.33-3.59-.67-4.85-1.01-1.26-.34-2.34-.93-3.24-1.75-.9-.82-1.35-1.95-1.35-3.39v-.18c0-1.98.85-3.5,2.56-4.58,1.71-1.08,4.03-1.62,6.96-1.62h.27c2.58,0,4.7.55,6.36,1.66,1.66,1.11,2.64,2.91,2.94,5.39l-3.19.27c-.18-1.83-.84-3.11-1.98-3.84-1.14-.73-2.56-1.1-4.27-1.1h-.22c-2.1,0-3.63.34-4.61,1.03-.97.69-1.46,1.62-1.46,2.79v.04c0,.78.27,1.4.81,1.86.54.46,1.24.81,2.09,1.03.85.22,1.97.46,3.35.7,2.07.33,3.77.7,5.1,1.12,1.33.42,2.48,1.11,3.44,2.07.96.96,1.44,2.28,1.44,3.95v.09c0,2.19-.75,3.87-2.25,5.05-1.5,1.18-4,1.77-7.5,1.77h-.18c-3.06,0-5.44-.5-7.17-1.5Z"/>
        <path class="cls-1" d="M505.34,302.96c-1.81-2.1-2.72-5.12-2.72-9.08v-.31c0-2.43.43-4.49,1.3-6.18.87-1.69,2.11-2.98,3.73-3.86,1.62-.88,3.56-1.33,5.84-1.33h.31c1.59,0,3.1.25,4.54.74,1.44.49,2.68,1.32,3.73,2.47,1.05,1.15,1.71,2.67,1.98,4.56l-3.37.49c-.27-1.77-1.01-3.08-2.22-3.93-1.21-.85-2.76-1.28-4.65-1.28h-.22c-2.46,0-4.33.72-5.62,2.16s-1.93,3.5-1.93,6.2v.22c0,2.91.61,5.17,1.84,6.78s3.15,2.43,5.75,2.43h.27c1.98,0,3.56-.49,4.74-1.46,1.18-.97,1.91-2.4,2.18-4.29l3.33.58c-.36,2.88-1.46,4.97-3.3,6.27-1.84,1.3-4.16,1.95-6.94,1.95h-.4c-3.62,0-6.34-1.05-8.16-3.15Z"/>
        <path class="cls-1" d="M530,276.76c-.38-.21-.67-.5-.9-.88-.22-.37-.34-.8-.34-1.28s.12-.91.36-1.28c.24-.37.54-.67.9-.88.36-.21.76-.31,1.21-.31s.86.11,1.24.34c.37.22.67.52.9.9.22.38.34.79.34,1.24s-.11.87-.34,1.26c-.22.39-.52.69-.9.9-.38.21-.79.31-1.24.31s-.86-.1-1.24-.31ZM529.44,282.92h3.55v22.47h-3.55v-22.47Z"/>
        <path class="cls-1" d="M541.55,303.01c-1.99-2.07-2.99-5.03-2.99-8.9v-.49c0-2.25.41-4.22,1.24-5.93.82-1.71,2.04-3.06,3.64-4.04s3.57-1.48,5.91-1.48h.27c3.33,0,5.89.93,7.71,2.79,1.81,1.86,2.75,4.37,2.81,7.55l.04,2.25h-19.23v-2.25l16.63.04-.85.58-.04-1.35c-.06-2.22-.69-3.93-1.89-5.14-1.2-1.21-2.89-1.82-5.08-1.82h-.18c-2.55,0-4.47.75-5.77,2.25-1.3,1.5-1.95,3.58-1.95,6.25v.54c0,3.06.7,5.38,2.11,6.96,1.41,1.59,3.31,2.38,5.71,2.38h.18c1.83,0,3.36-.46,4.61-1.37,1.24-.91,2-2.25,2.27-4.02l3.05,1.12c-.45,2.22-1.54,3.97-3.28,5.26-1.74,1.29-3.96,1.93-6.65,1.93h-.18c-3.39,0-6.07-1.03-8.07-3.1Z"/>
        <path class="cls-1" d="M565.39,282.92h3.55v22.47h-3.55v-22.47ZM580.71,286.96c-.99-.9-2.44-1.35-4.36-1.35s-3.45.46-4.67,1.37c-1.23.91-2.17,2.25-2.83,4.02l-.36-.09-.09-3.82h.45c.81-1.59,1.95-2.8,3.42-3.64,1.47-.84,3.24-1.26,5.3-1.26,2.67,0,4.7.67,6.09,2,1.39,1.33,2.09,3.21,2.09,5.64v15.55h-3.55v-14.38c0-1.8-.5-3.15-1.48-4.04Z"/>
        <path class="cls-1" d="M593.9,303.03c-1.72-2.05-2.58-5.02-2.58-8.92v-.45c0-2.34.41-4.37,1.24-6.11.82-1.74,1.97-3.06,3.44-3.98,1.47-.91,3.15-1.37,5.03-1.37h.36c1.83,0,3.38.42,4.65,1.26,1.27.84,2.34,2.08,3.21,3.73h.67v14.2h-.72c-.78,1.53-1.8,2.7-3.06,3.5-1.26.81-2.82,1.21-4.67,1.21h-.31c-3.12,0-5.53-1.03-7.26-3.08ZM606.95,301.14c1.2-1.18,1.95-2.66,2.25-4.43v-4.49c-.09-1.08-.42-2.15-.99-3.21-.57-1.06-1.37-1.95-2.4-2.65-1.03-.7-2.25-1.06-3.66-1.06h-.18c-2.22,0-3.96.74-5.21,2.22s-1.89,3.56-1.89,6.22v.31c0,2.82.61,5,1.82,6.54,1.21,1.54,2.99,2.31,5.33,2.31h.31c1.89,0,3.43-.59,4.63-1.77ZM609.2,273.48h3.59v31.9h-3.59v-31.9Z"/>
        <path class="cls-1" d="M621.35,303.01c-1.99-2.07-2.99-5.03-2.99-8.9v-.49c0-2.25.41-4.22,1.24-5.93.82-1.71,2.04-3.06,3.64-4.04s3.57-1.48,5.91-1.48h.27c3.33,0,5.89.93,7.71,2.79,1.81,1.86,2.75,4.37,2.81,7.55l.04,2.25h-19.23v-2.25l16.63.04-.85.58-.04-1.35c-.06-2.22-.69-3.93-1.89-5.14-1.2-1.21-2.89-1.82-5.08-1.82h-.18c-2.55,0-4.47.75-5.77,2.25-1.3,1.5-1.95,3.58-1.95,6.25v.54c0,3.06.7,5.38,2.11,6.96,1.41,1.59,3.31,2.38,5.71,2.38h.18c1.83,0,3.36-.46,4.61-1.37,1.24-.91,2-2.25,2.27-4.02l3.05,1.12c-.45,2.22-1.54,3.97-3.28,5.26-1.74,1.29-3.96,1.93-6.65,1.93h-.18c-3.39,0-6.07-1.03-8.07-3.1Z"/>
      </g>
    </g>
  </g>
</svg>