<?xml version="1.0" encoding="UTF-8"?>
<svg id="Capa_2" data-name="Capa 2" xmlns="http://www.w3.org/2000/svg" viewBox="0 0 700 290.75">
  <defs>
    <style>
      .cls-1 {
        fill: #fff;
      }

      .cls-2 {
        fill: #00a74f;
      }
    </style>
  </defs>
  <g id="Capa_3" data-name="Capa 3">
    <g>
      <g>
        <path class="cls-2" d="M490.93,11.62l11.24,6.5,4.22-12.15,8.72-3.19-6.8,18.95,18.6,10.77-8.68,3.18-12.44-7.24-4.65,13.49-8.68,3.18,7.21-20.22-17.29-10.13,8.54-3.13Z"/>
        <path class="cls-2" d="M530.35.37L552.34,0c6.45-.11,9.66,4.51,9.74,9.66.09,5.2-3.21,9.59-9.42,9.69l-14.63.25.21,12.61-7.36.12-.54-31.96ZM537.92,12.81l14.63-.25c1.45-.02,2.2-1.05,2.17-2.44l-.02-.91c-.02-1.44-.81-2.39-2.25-2.37l-14.63.25.1,5.73Z"/>
        <path class="cls-2" d="M570.35,17.04c2.53-8.09,10.51-14.11,20.3-11.05,9.78,3.06,12.92,12.56,10.39,20.65-2.51,8.04-10.51,14.11-20.3,11.05-9.79-3.06-12.9-12.61-10.39-20.65ZM577.66,19.33c-1.44,4.59.03,9.9,5.23,11.52,5.19,1.62,9.46-1.88,10.9-6.48,1.42-4.55-.02-9.94-5.26-11.58-5.24-1.64-9.45,1.99-10.87,6.54Z"/>
        <path class="cls-2" d="M619.66,18.52l17.75,13c5.2,3.81,4.97,9.43,1.93,13.58-2.56,3.5-6.86,5.3-11.31,3.23-.03.28.02.55-.05.8l-1.29,14.15-6.72-4.92,1.39-14.61-7.19-5.26-7.45,10.18-5.94-4.35,18.89-25.79ZM618.18,33l11.81,8.65c1.16.85,2.38.49,3.21-.63l.54-.74c.85-1.17.8-2.4-.36-3.25l-11.81-8.65-3.38,4.62Z"/>
        <path class="cls-2" d="M654.49,46.72l18.19,25.16-5.54,4.01-6.94-9.59-20.36,14.72-4.32-5.97,20.36-14.72-6.94-9.59,5.54-4.01Z"/>
      </g>
      <path class="cls-1" d="M92.76,49.46h0C41.53,49.46,0,91,0,142.23v92.95h26.7v-91.8c0-37.52,31.2-68.2,68.66-66.11,34.19,1.91,61.34,30.35,61.34,65.15v92.76h27.86v-92.95c0-51.23-41.53-92.76-92.76-92.76"/>
      <path class="cls-1" d="M227.56,142.42h0c0,51.23,41.53,92.76,92.76,92.76h92.9v-27.86h-91.18c-37.53,0-68.21-31.2-66.12-68.67,1.9-34.19,30.23-61.33,64.9-61.33h92.4v-27.86h-92.9c-51.23,0-92.76,41.53-92.76,92.76"/>
      <rect class="cls-1" x="309.91" y="128.39" width="102.14" height="27.86"/>
      <path class="cls-2" d="M699.6,169.66l-6.28-6.09c-3.14-2.82-1.31-7.71-1.6-8.58-.4-1.22-3.74-3.88-4.92-6.99-1.45-3.82-.8-9.67-2.18-14-.19-.61-.38-1.13-.55-1.58h-.01c-2.64-11.04-10.82-17.74-17.69-20.61,1.09,1.34,4.43,6.89,5.11,10.93.06.33-.32.89-.87.5-1.81-1.26-4.52-5.24-4.95-6.07-10.46-20-37.14-15.55-44.77-11.96,0,0,11.04,2.29,10.69,5.16-42.69-3.1-59.02,19.08-64.61,42.62,0,0,12.63-13.11,17.39-13.52-11.37,6.61-9.82,27.32-23.3,35.67,7.6,1.14,14.71-5.33,14.71-5.33-9.59,20.1-46.69,32.57-71.12,30.33-31.27-2.86-59.96-60.64-32.61-103.84,1.76-1.98,6.3-3.63,8.78-5.91,5.21-4.77,3.26-15.72,3.1-17.1-15.53,14.42-27.27,37.24-28.44,64.22-.86,19.88,4.95,41.17,19.56,59.55h-.04c1.13,1.36,2.29,2.74,3.5,4.11.07.08.14.16.21.24,3.83,4.32,8.17,8.58,13.6,12.63-.41.35-19.69,17.6-26.76,29.72-7.45,12.77-8.24-2.11-16.87,16.3-4.66,6.85-8.91,12.35-12.73,16.49-4.41,6.54-5.61,10.77-3.6,12.71,3.53,3.39,6.52.3,8.57-2.33,10.48-13.42,19.42-23.49,26.44-27.72,17.88-10.77,43.22,1.35,61.44-28.42,41.83,9.09,76.3-12.38,92.12-32.94-3.94-5.43-17.29-4.9-17.29-4.9,13.45-3.84,21.15,1.15,29.73,6.62,4.74,1.24,11.13-2.09,15.64-2.19,1.38-.03,5.23-.43,5.29,2.55.24,2.78-4.12,5.73-5.41,8.13-4.14,7.71-1.14,12.68,5.73,16.4.04.02.09.05.13.07.03-.03.06-.06.08-.09,9.1-9.99,13.29-25.36,8.13-38.08-1.03-2.29-2.85-4.37-4.65-6.19,2.48-2.68,3.45-4.15,4.75-4.15,3.09.77,5.28,5.07,5.3,9.14.02,3.27,3.17,5.71,6.26,4.63,2.35-.82,4.83-2.03,7.02-4.12.22-.21.42-.41.63-.63.09-.09.17-.18.26-.28.57-.63,1.19-1.41,2.06-2.65-1.07.57-2.24.78-3.31.83-2.51-1.11-4.25-2.88-5.44-5.42-.43-1.9,6.39-7.04,8.1-6.47,3.89,1.29,5.03,3.26,5.36,5.94-.35.71-.8,1.42-1.42,2.01.66-.21,1.2-.4,1.69-.57,2.37-.75,6.44-2.49,10.18-7.1.41-.5.36-1.24-.12-1.67ZM687.5,157.9s-2.69-.28-3.72-1.79c-1.18-1.74-.89-3.7-.89-3.7l1.05-.74,4.4,5.66-.84.57Z"/>
      <path class="cls-1" d="M487.55,73.23c1.29,9.36-.15,16.04-4.3,19.83-1.5,1.38-3.45,2.48-5.16,3.45-1.16.66-2.58,1.46-3.2,2.03-15.19,24.28-11.16,52.13-2.29,70.15,7.92,16.08,20.32,26.75,32.37,27.85,1.76.16,3.63.24,5.55.24,1.81,0,3.65-.08,5.53-.21-19.45-11.3-32.54-32.34-32.54-56.45,0-36.04,29.22-65.26,65.26-65.26,24.51,0,45.85,13.52,57,33.5,3.73-.84,7.67-1.41,11.83-1.69-.14-.33-.24-.68-.29-1.04-.18-1.54.64-3.03,2.05-3.69,2.47-1.16,6.76-2.46,12.01-3.08-15.19-30.52-46.68-51.5-83.08-51.5-23.69,0-45.3,8.9-61.7,23.51.5.55.83,1.25.92,2.01,0,.08.03.19.05.34Z"/>
      <g>
        <path class="cls-1" d="M.05,257.95h4.37l9.36,27.23,9.27-27.23h4.41l-11.01,32.09h-5.3L.05,257.95Z"/>
        <path class="cls-1" d="M30.71,259.82c0-1.75.92-2.63,2.76-2.63s2.72.88,2.72,2.63-.91,2.63-2.72,2.63-2.76-.88-2.76-2.63ZM31.29,265.52h4.19l-.04,24.51h-4.14v-24.51Z"/>
        <path class="cls-1" d="M39,265.52h4.15l7.44,20.59,7.44-20.59h4.15l-8.96,24.51h-5.26l-8.96-24.51Z"/>
        <path class="cls-1" d="M66.41,287.48c-2.02-2.18-3.03-5.42-3.03-9.69s1.01-7.58,3.03-9.74c2.02-2.15,4.96-3.23,8.82-3.23,3.57,0,6.3.98,8.2,2.94,1.9,1.96,2.85,4.79,2.85,8.47v3.08h-18.67c.21,2.64.94,4.6,2.21,5.86,1.26,1.26,3.13,1.89,5.59,1.89,3.83,0,6.02-1.55,6.55-4.64h4.15c-.86,5.56-4.41,8.34-10.65,8.34-4.01,0-7.03-1.09-9.05-3.28ZM82.28,275.95v-.8c0-2.08-.62-3.69-1.87-4.84-1.25-1.14-2.99-1.72-5.21-1.72s-4.06.59-5.33,1.78c-1.26,1.19-2,3.05-2.21,5.57h14.62Z"/>
        <path class="cls-1" d="M101.8,287.48c-2.02-2.18-3.03-5.42-3.03-9.69s1.01-7.58,3.03-9.74c2.02-2.15,4.96-3.23,8.82-3.23,3.57,0,6.3.98,8.2,2.94,1.9,1.96,2.85,4.79,2.85,8.47v3.08h-18.67c.21,2.64.94,4.6,2.21,5.86,1.26,1.26,3.13,1.89,5.59,1.89,3.83,0,6.02-1.55,6.55-4.64h4.15c-.86,5.56-4.41,8.34-10.65,8.34-4.01,0-7.03-1.09-9.05-3.28ZM117.67,275.95v-.8c0-2.08-.62-3.69-1.87-4.84-1.25-1.14-2.99-1.72-5.21-1.72s-4.06.59-5.33,1.78c-1.26,1.19-2,3.05-2.21,5.57h14.62Z"/>
        <path class="cls-1" d="M137.32,268.51c-2.02,0-3.63.5-4.81,1.49-1.19,1-1.98,2.25-2.36,3.77l-.04,16.27h-4.14v-24.51h4.19v3.39l.13.04c.83-1.31,1.96-2.32,3.39-3.05,1.43-.73,3.05-1.09,4.86-1.09,5.94,0,8.91,2.87,8.91,8.6v16.63h-4.19v-15.38c0-4.1-1.98-6.15-5.93-6.15Z"/>
        <path class="cls-1" d="M176.66,269.89c-1.09-.92-2.47-1.38-4.17-1.38-1.9,0-3.42.48-4.57,1.45-1.14.97-1.94,2.21-2.38,3.72l-.04,16.36h-4.14v-24.51h4.19v3.39l.13.04c.8-1.31,1.91-2.32,3.32-3.05,1.41-.73,2.98-1.09,4.7-1.09,4.16,0,6.83,1.47,8.02,4.41l.22.09c.92-1.43,2.15-2.53,3.7-3.32,1.54-.79,3.21-1.18,4.99-1.18,2.64,0,4.76.67,6.35,2.01,1.59,1.34,2.39,3.54,2.39,6.6v16.63h-4.19v-15.38c0-2.26-.55-3.85-1.65-4.77-1.1-.92-2.51-1.38-4.23-1.38-1.87,0-3.41.49-4.61,1.47-1.2.98-1.95,2.17-2.25,3.57v16.49h-4.14v-15.38c0-2.26-.54-3.85-1.63-4.77Z"/>
        <path class="cls-1" d="M206.74,287.57c-2.07-2.12-3.1-5.34-3.1-9.65s1.05-7.61,3.14-9.81c2.09-2.2,5.18-3.3,9.25-3.3s7.16,1.1,9.27,3.3c2.11,2.2,3.16,5.48,3.16,9.85s-1.04,7.55-3.12,9.65c-2.08,2.1-5.18,3.14-9.31,3.14s-7.23-1.06-9.29-3.19ZM224.19,277.92c0-2.97-.68-5.25-2.03-6.84-1.35-1.59-3.4-2.38-6.13-2.38s-4.78.8-6.13,2.38c-1.35,1.59-2.03,3.87-2.03,6.84,0,5.97,2.72,8.96,8.16,8.96s8.16-2.99,8.16-8.96Z"/>
        <path class="cls-1" d="M229.63,265.52h4.15l7.44,20.59,7.44-20.59h4.15l-8.96,24.51h-5.26l-8.96-24.51Z"/>
        <path class="cls-1" d="M255.8,259.82c0-1.75.92-2.63,2.76-2.63s2.72.88,2.72,2.63-.91,2.63-2.72,2.63-2.76-.88-2.76-2.63ZM256.37,265.52h4.19l-.04,24.51h-4.14v-24.51Z"/>
        <path class="cls-1" d="M281.09,269.89c-1.09-.92-2.47-1.38-4.17-1.38-1.9,0-3.42.48-4.57,1.45-1.14.97-1.94,2.21-2.38,3.72l-.04,16.36h-4.14v-24.51h4.19v3.39l.13.04c.8-1.31,1.91-2.32,3.32-3.05,1.41-.73,2.98-1.09,4.7-1.09,4.16,0,6.83,1.47,8.02,4.41l.22.09c.92-1.43,2.15-2.53,3.7-3.32,1.54-.79,3.21-1.18,4.99-1.18,2.64,0,4.76.67,6.35,2.01,1.59,1.34,2.39,3.54,2.39,6.6v16.63h-4.19v-15.38c0-2.26-.55-3.85-1.65-4.77-1.1-.92-2.51-1.38-4.23-1.38-1.87,0-3.41.49-4.61,1.47-1.2.98-1.95,2.17-2.25,3.57v16.49h-4.14v-15.38c0-2.26-.54-3.85-1.63-4.77Z"/>
        <path class="cls-1" d="M308.21,259.82c0-1.75.92-2.63,2.76-2.63s2.72.88,2.72,2.63-.91,2.63-2.72,2.63-2.76-.88-2.76-2.63ZM308.79,265.52h4.19l-.04,24.51h-4.14v-24.51Z"/>
        <path class="cls-1" d="M320.51,287.48c-2.02-2.18-3.03-5.42-3.03-9.69s1.01-7.58,3.03-9.74c2.02-2.15,4.96-3.23,8.82-3.23,3.57,0,6.3.98,8.2,2.94,1.9,1.96,2.85,4.79,2.85,8.47v3.08h-18.67c.21,2.64.94,4.6,2.21,5.86,1.26,1.26,3.13,1.89,5.59,1.89,3.83,0,6.02-1.55,6.55-4.64h4.15c-.86,5.56-4.41,8.34-10.65,8.34-4.01,0-7.03-1.09-9.05-3.28ZM336.38,275.95v-.8c0-2.08-.62-3.69-1.87-4.84-1.25-1.14-2.99-1.72-5.21-1.72s-4.06.59-5.33,1.78c-1.26,1.19-2,3.05-2.21,5.57h14.62Z"/>
        <path class="cls-1" d="M356.04,268.51c-2.02,0-3.63.5-4.81,1.49-1.19,1-1.98,2.25-2.36,3.77l-.04,16.27h-4.14v-24.51h4.19v3.39l.13.04c.83-1.31,1.96-2.32,3.39-3.05,1.43-.73,3.05-1.09,4.86-1.09,5.94,0,8.91,2.87,8.91,8.6v16.63h-4.19v-15.38c0-4.1-1.98-6.15-5.93-6.15Z"/>
        <path class="cls-1" d="M374.73,288.52c-1.06-1.01-1.58-2.49-1.58-4.46v-14.89h-4.1v-3.65h4.1l.54-5.97h3.48v5.97h6.15v3.65h-6.06v13.46c0,2.35,1.07,3.52,3.21,3.52h3.3v3.88h-4.9c-1.69,0-3.07-.51-4.12-1.52Z"/>
        <path class="cls-1" d="M389.62,287.57c-2.07-2.12-3.1-5.34-3.1-9.65s1.05-7.61,3.14-9.81c2.09-2.2,5.18-3.3,9.25-3.3s7.16,1.1,9.27,3.3c2.11,2.2,3.16,5.48,3.16,9.85s-1.04,7.55-3.12,9.65c-2.08,2.1-5.18,3.14-9.31,3.14s-7.23-1.06-9.29-3.19ZM407.07,277.92c0-2.97-.68-5.25-2.03-6.84-1.35-1.59-3.4-2.38-6.13-2.38s-4.78.8-6.13,2.38c-1.35,1.59-2.03,3.87-2.03,6.84,0,5.97,2.72,8.96,8.16,8.96s8.16-2.99,8.16-8.96Z"/>
      </g>
    </g>
  </g>
</svg>