<?xml version="1.0" encoding="UTF-8"?>
<svg id="Capa_2" data-name="Capa 2" xmlns="http://www.w3.org/2000/svg" viewBox="0 0 900 169.52">
  <defs>
    <style>
      .cls-1, .cls-2 {
        fill: #fff;
      }

      .cls-2 {
        fill-rule: evenodd;
      }
    </style>
  </defs>
  <g id="Capa_3" data-name="Capa 3">
    <g>
      <rect class="cls-1" x="210.24" y="3.06" width="6.33" height="165.97"/>
      <g id="Layer1000">
        <g>
          <path id="path31" class="cls-2" d="M180.34,4.21l-3.72-.07-13.75,10.03-5.33.42-10.6,11.5-13.26,5.4.03,6-17.26,14.14-96.96,25.33L.28,126.21l18.94-14.8L0,133.4l.18,22.98,4.07,12.66h15.61l-2.88-7.54-3.86-.07.11-21.86,44.76-28.41,59.07,6.87.07,38.16,4.56,12.84,25.57-.03-2.46-7.44h-12v-36.34s39.04-55.42,39.04-55.42l8.21-39.99,5.61-6.95v-4.35s-5.37-.04-5.37-.04l.04-14.27Z"/>
          <path id="path33" class="cls-2" d="M40.3,169.04l-13.61.04-4.56-12.87v-11.96s35.08-21.75,35.08-21.75l-23.57,21.68-.07,17.19,4.14.14,2.6,7.54Z"/>
        </g>
      </g>
      <g>
        <path class="cls-1" d="M241.88,83.48c4.7,3.37,9.52,5.69,14.48,6.97,4.95,1.28,9.52,1.91,13.71,1.91l3.06-.15c3.16-.2,5.84-1.28,8.04-3.22,2.19-1.94,3.29-4.24,3.29-6.89,0-3.16-.97-5.64-2.91-7.43-1.94-1.79-4.75-3.34-8.42-4.67-10.11-3.68-18.05-8.07-23.82-13.17-5.77-5.1-8.65-11.84-8.65-20.22,0-6.02,1.3-11.54,3.91-16.54,2.6-5,6.25-8.98,10.95-11.95,4.69-2.96,10.06-4.59,16.08-4.9l3.68-.15c6.74,0,14.6,1.58,23.59,4.75l-2.76,21.14c-8.27-3.37-15.73-4.9-22.36-4.59-3.47.21-6.15,1.35-8.04,3.45-1.89,2.09-2.83,4.67-2.83,7.73s1.07,5.64,3.22,7.43c2.14,1.79,5.15,3.35,9.04,4.67,9.7,3.58,17.41,8.04,23.13,13.4,5.72,5.36,8.58,12.08,8.58,20.14,0,6.43-1.48,12.18-4.44,17.23-2.96,5.05-7.18,9.01-12.64,11.87-5.46,2.86-11.82,4.29-19.07,4.29-4.29,0-9.19-.61-14.71-1.84-5.51-1.23-11.13-3.32-16.85-6.28l2.76-22.97Z"/>
        <path class="cls-1" d="M343.6,113.5V25.89h-27.26V4.14h76.43v21.75h-27.26v87.61h-21.9Z"/>
        <path class="cls-1" d="M442.52,71.68h-10.57v41.82h-21.9V3.98h43.19c6.84,0,12.71,1.58,17.61,4.75,4.9,3.17,8.58,7.28,11.03,12.33,2.45,5.05,3.68,10.44,3.68,16.16,0,7.15-1.89,13.63-5.67,19.45-3.78,5.82-9.09,9.7-15.93,11.64l25.43,45.18h-24.81l-22.06-41.82ZM451.25,50.39c3.57,0,6.33-1.2,8.27-3.6,1.94-2.4,2.91-5.28,2.91-8.65s-.97-6.25-2.91-8.65c-1.94-2.4-4.7-3.6-8.27-3.6h-19.3v24.51h19.3Z"/>
        <path class="cls-1" d="M547.53,0h2.3l46.1,113.5h-24.66l-4.44-11.79h-36.3l-4.29,11.79h-24.81L547.53,0ZM558.71,81.18l-9.96-28.49-10.26,28.49h20.22Z"/>
        <path class="cls-1" d="M621.23,113.5V25.89h-27.26V4.14h76.43v21.75h-27.26v87.61h-21.9Z"/>
        <path class="cls-1" d="M707.15,107.06c-8.53-5.31-14.93-12.28-19.22-20.91-4.29-8.63-6.43-17.84-6.43-27.65s2.14-18.86,6.43-27.49c4.29-8.63,10.7-15.6,19.22-20.91,8.52-5.31,18.81-7.96,30.86-7.96s22.34,2.66,30.86,7.96c8.52,5.31,14.93,12.28,19.22,20.91,4.29,8.63,6.43,17.79,6.43,27.49s-2.14,19.02-6.43,27.65c-4.29,8.63-10.7,15.6-19.22,20.91-8.53,5.31-18.82,7.97-30.86,7.97s-22.34-2.65-30.86-7.97ZM755.93,87.54c5-3.22,8.75-7.4,11.26-12.56,2.5-5.15,3.75-10.65,3.75-16.47s-1.25-11.33-3.75-16.54c-2.5-5.21-6.26-9.39-11.26-12.56-5-3.16-10.98-4.75-17.92-4.75s-12.89,1.58-17.84,4.75c-4.95,3.17-8.68,7.33-11.18,12.48-2.5,5.16-3.75,10.7-3.75,16.62s1.25,11.31,3.75,16.47c2.5,5.16,6.23,9.34,11.18,12.56,4.95,3.22,10.9,4.82,17.84,4.82s12.92-1.61,17.92-4.82Z"/>
        <path class="cls-1" d="M838.73,113.5h-21.9V1.68h5.82l55.29,64.33V4.14h22.06v111.66h-5.82l-55.45-61.88v59.58Z"/>
      </g>
      <g>
        <path class="cls-1" d="M243.94,164.9h11.2v4.12h-15.63v-26.95h4.43v22.83Z"/>
        <path class="cls-1" d="M278.09,158.67c0,.39-.03.86-.08,1.42h-16.86c.26,1.67.96,2.99,2.1,3.97,1.14.98,2.56,1.46,4.25,1.46.82,0,1.59-.12,2.31-.37.72-.24,1.35-.59,1.91-1.04.55-.45,1.01-.99,1.37-1.64h4.5c-.82,2.21-2.13,3.93-3.93,5.18-1.8,1.25-3.85,1.87-6.16,1.87-3.05,0-5.6-1.04-7.64-3.12-2.04-2.08-3.06-4.67-3.06-7.78s1.02-5.7,3.06-7.78c2.04-2.08,4.59-3.12,7.64-3.12,2.08,0,3.93.49,5.54,1.48,1.62.99,2.86,2.31,3.73,3.97.87,1.66,1.31,3.48,1.31,5.49ZM267.5,151.58c-1.59,0-2.95.45-4.06,1.35-1.12.9-1.85,2.13-2.21,3.7h12.59c-.26-1.05-.68-1.96-1.27-2.71-.59-.76-1.32-1.33-2.18-1.73-.86-.4-1.82-.6-2.87-.6Z"/>
        <path class="cls-1" d="M300.03,148.23h3.31v20.79h-3.46l-.42-2.54c-2,2.03-4.5,3.04-7.51,3.04s-5.69-1.04-7.76-3.12c-2.07-2.08-3.1-4.68-3.1-7.8s1.03-5.71,3.1-7.78c2.07-2.07,4.65-3.1,7.76-3.1s5.58,1.03,7.58,3.08l.5-2.58ZM287.38,163.5c1.3,1.3,2.93,1.94,4.89,1.94s3.58-.65,4.85-1.94c1.27-1.3,1.91-2.93,1.91-4.89s-.64-3.59-1.91-4.87c-1.27-1.28-2.89-1.93-4.87-1.93-1.28,0-2.44.3-3.48.89-1.04.59-1.85,1.41-2.44,2.44-.59,1.04-.89,2.2-.89,3.48,0,1.95.65,3.57,1.94,4.87Z"/>
        <path class="cls-1" d="M320.44,147.77c2.41,0,4.33.81,5.76,2.43,1.42,1.62,2.14,3.72,2.14,6.31v12.51h-4.27v-11.67c0-1.87-.4-3.3-1.21-4.29-.81-.99-2-1.48-3.56-1.48s-2.95.59-4,1.77c-1.05,1.18-1.58,2.7-1.58,4.54v11.13h-4.27v-20.79h2.96l.85,2.89c.8-1.05,1.82-1.87,3.06-2.46,1.24-.59,2.62-.89,4.14-.89Z"/>
        <path class="cls-1" d="M356.36,169.49c-3.98,0-7.28-1.31-9.91-3.95-2.63-2.63-3.95-5.96-3.95-9.99s1.32-7.36,3.95-9.99c2.63-2.63,5.94-3.95,9.91-3.95,2.1,0,4.06.41,5.85,1.23,1.8.82,3.3,1.99,4.52,3.5,1.22,1.51,2.06,3.27,2.52,5.27h-4.47c-.64-1.8-1.71-3.2-3.2-4.22-1.49-1.01-3.23-1.52-5.24-1.52-2.69,0-4.93.91-6.7,2.73-1.77,1.82-2.66,4.14-2.66,6.95s.89,5.12,2.66,6.93c1.77,1.81,4,2.71,6.7,2.71,2.05,0,3.84-.55,5.35-1.64,1.51-1.09,2.57-2.59,3.16-4.49h4.5c-.69,3.16-2.22,5.68-4.58,7.57-2.36,1.89-5.17,2.83-8.43,2.83Z"/>
        <path class="cls-1" d="M391.18,166.43c-2.12,2.07-4.77,3.1-7.95,3.1s-5.83-1.03-7.95-3.1c-2.12-2.07-3.18-4.66-3.18-7.8,0-2.05.48-3.91,1.44-5.58.96-1.67,2.3-2.97,4-3.91,1.71-.94,3.6-1.41,5.68-1.41s3.97.47,5.68,1.41c1.71.94,3.04,2.24,4,3.91.96,1.67,1.44,3.53,1.44,5.58,0,3.13-1.06,5.73-3.18,7.8ZM383.23,165.44c1.31,0,2.48-.29,3.5-.87,1.03-.58,1.83-1.39,2.41-2.43.58-1.04.87-2.21.87-3.52,0-1.98-.64-3.61-1.91-4.89-1.27-1.28-2.89-1.93-4.87-1.93s-3.6.64-4.87,1.93c-1.27,1.28-1.91,2.91-1.91,4.89s.64,3.61,1.91,4.89c1.27,1.28,2.89,1.93,4.87,1.93Z"/>
        <path class="cls-1" d="M409.91,147.77c2.41,0,4.33.81,5.76,2.43,1.42,1.62,2.14,3.72,2.14,6.31v12.51h-4.27v-11.67c0-1.87-.4-3.3-1.21-4.29-.81-.99-2-1.48-3.56-1.48s-2.95.59-4,1.77c-1.05,1.18-1.58,2.7-1.58,4.54v11.13h-4.27v-20.79h2.96l.85,2.89c.8-1.05,1.82-1.87,3.06-2.46,1.24-.59,2.62-.89,4.14-.89Z"/>
        <path class="cls-1" d="M431.2,156.47c.69.13,1.21.22,1.54.29.33.06.83.18,1.48.35.65.17,1.16.34,1.52.52.36.18.78.43,1.25.75.47.32.83.68,1.08,1.08.24.4.46.89.64,1.48.18.59.27,1.23.27,1.93,0,2.03-.77,3.65-2.31,4.85-1.54,1.21-3.58,1.81-6.12,1.81s-4.58-.64-6.12-1.93c-1.54-1.28-2.34-3-2.39-5.16h4.2c.05,1.05.48,1.87,1.29,2.44.81.58,1.87.87,3.18.87.77,0,1.46-.1,2.06-.31.6-.21,1.08-.51,1.44-.92.36-.41.54-.9.54-1.46,0-.31-.05-.59-.15-.85-.1-.26-.28-.48-.52-.67-.24-.19-.49-.35-.75-.48-.26-.13-.59-.25-1-.37s-.78-.21-1.1-.27c-.32-.06-.74-.13-1.25-.21-.54-.1-.98-.19-1.33-.25-.35-.06-.78-.16-1.31-.29-.53-.13-.96-.27-1.29-.42-.33-.15-.71-.34-1.14-.56-.42-.22-.76-.47-1.02-.77-.26-.29-.51-.63-.75-1-.24-.37-.42-.8-.54-1.29-.12-.49-.17-1.03-.17-1.62,0-1.87.74-3.39,2.21-4.54,1.48-1.16,3.42-1.73,5.83-1.73s4.35.6,5.81,1.81c1.46,1.21,2.21,2.82,2.23,4.85h-4.04c-.03-.98-.4-1.73-1.12-2.25-.72-.53-1.71-.79-2.96-.79-1.18,0-2.12.23-2.81.69-.69.46-1.04,1.07-1.04,1.81,0,.31.05.58.15.81.1.23.28.44.52.62.24.18.47.33.69.44.22.12.54.22.98.33.44.1.79.18,1.08.23.28.05.69.12,1.23.19ZM452.65,165.14h2.35v3.89h-3.16c-2.28,0-4.09-.66-5.41-1.98-1.32-1.32-1.98-3.12-1.98-5.41v-9.74h-3.7v-.81l7.24-7.7h.69v4.85h6.2v3.66h-6.16v9.39c0,1.23.34,2.18,1.02,2.85.68.67,1.65,1,2.91,1Z"/>
        <path class="cls-1" d="M469.82,148.12h1.85v4.04h-2.23c-3.54,0-5.31,1.93-5.31,5.78v11.09h-4.27v-20.79h2.89l.73,2.85c1.49-1.98,3.61-2.96,6.35-2.96Z"/>
        <path class="cls-1" d="M484.14,169.52c-2.85,0-5.13-.85-6.85-2.54-1.72-1.69-2.58-3.94-2.58-6.74v-12.01h4.27v11.4c0,1.82.46,3.25,1.39,4.27.92,1.03,2.18,1.54,3.77,1.54s2.89-.52,3.81-1.56c.92-1.04,1.39-2.46,1.39-4.25v-11.4h4.27v12.01c0,2.8-.86,5.04-2.58,6.74-1.72,1.69-4.02,2.54-6.89,2.54Z"/>
        <path class="cls-1" d="M508.71,169.52c-3.08,0-5.67-1.05-7.76-3.14-2.09-2.09-3.14-4.68-3.14-7.78s1.05-5.68,3.14-7.76c2.09-2.08,4.69-3.12,7.8-3.12,2.54,0,4.75.72,6.62,2.16,1.87,1.44,3.09,3.35,3.66,5.74h-4.24c-.54-1.18-1.35-2.11-2.43-2.79-1.08-.68-2.3-1.02-3.66-1.02-1.21,0-2.31.3-3.31.89-1,.59-1.79,1.41-2.37,2.44-.58,1.04-.87,2.2-.87,3.48,0,1.93.63,3.54,1.89,4.85,1.26,1.31,2.81,1.96,4.66,1.96,1.36,0,2.57-.35,3.64-1.04,1.06-.69,1.88-1.68,2.44-2.96h4.31c-.59,2.44-1.83,4.4-3.72,5.87-1.89,1.48-4.11,2.21-6.68,2.21Z"/>
        <path class="cls-1" d="M532.54,165.14h2.35v3.89h-3.16c-1.51,0-2.82-.29-3.93-.89-1.1-.59-1.95-1.44-2.54-2.56s-.89-2.43-.89-3.95v-9.74h-3.73v-.81l7.24-7.7h.73v4.85h6.16v3.66h-6.12v9.39c0,1.23.33,2.18,1,2.85.67.67,1.63,1,2.89,1Z"/>
        <path class="cls-1" d="M538.97,145v-4.39h4.43v4.39h-4.43ZM539.04,169.02v-20.79h4.27v20.79h-4.27Z"/>
        <path class="cls-1" d="M566.94,166.43c-2.12,2.07-4.77,3.1-7.95,3.1s-5.83-1.03-7.95-3.1c-2.12-2.07-3.18-4.66-3.18-7.8,0-2.05.48-3.91,1.44-5.58.96-1.67,2.3-2.97,4-3.91,1.71-.94,3.6-1.41,5.68-1.41s3.97.47,5.68,1.41c1.71.94,3.04,2.24,4,3.91.96,1.67,1.44,3.53,1.44,5.58,0,3.13-1.06,5.73-3.18,7.8ZM558.99,165.44c1.31,0,2.48-.29,3.5-.87,1.03-.58,1.83-1.39,2.41-2.43.58-1.04.87-2.21.87-3.52,0-1.98-.64-3.61-1.91-4.89-1.27-1.28-2.89-1.93-4.87-1.93s-3.6.64-4.87,1.93c-1.27,1.28-1.91,2.91-1.91,4.89s.64,3.61,1.91,4.89c1.27,1.28,2.89,1.93,4.87,1.93Z"/>
        <path class="cls-1" d="M585.67,147.77c2.41,0,4.33.81,5.76,2.43,1.42,1.62,2.14,3.72,2.14,6.31v12.51h-4.27v-11.67c0-1.87-.4-3.3-1.21-4.29-.81-.99-2-1.48-3.56-1.48s-2.95.59-4,1.77c-1.05,1.18-1.58,2.7-1.58,4.54v11.13h-4.27v-20.79h2.96l.85,2.89c.8-1.05,1.82-1.87,3.06-2.46,1.24-.59,2.62-.89,4.14-.89Z"/>
      </g>
    </g>
  </g>
</svg>