<?xml version="1.0" encoding="UTF-8"?>
<svg id="Capa_2" data-name="Capa 2" xmlns="http://www.w3.org/2000/svg" viewBox="0 0 900 299.99">
  <defs>
    <style>
      .cls-1 {
        fill: #d8d9d2;
      }

      .cls-1, .cls-2, .cls-3, .cls-4, .cls-5, .cls-6, .cls-7 {
        fill-rule: evenodd;
      }

      .cls-2 {
        fill: #f3efe8;
      }

      .cls-3 {
        fill: #fff;
      }

      .cls-4 {
        fill: #579c42;
      }

      .cls-5 {
        fill: #005a2f;
      }

      .cls-6 {
        fill: #80c341;
      }

      .cls-7 {
        fill: #007045;
      }
    </style>
  </defs>
  <g id="Capa_3" data-name="Capa 3">
    <g>
      <g>
        <path class="cls-6" d="M212.55,231.66c6.32-13.89,9.24-28.86,9.24-47.65,0-10.99-2.86-21.51-5.38-30.41-3.34-11.81-7.77-21.25-13.04-31.53-1.1-2.15-1.94-3.89-2.92-5.87-9.56-19.28-41.81-63.07-56.67-77.68l-31.23-31.55-18.36,17.43c-17.68,20.07-32.31,34.64-48.69,58.66l-2.37,3.48c25.45,33.76,68.62,56.69,118.38,75.59,24.21,13.28,40.49,37.47,51.05,69.53Z"/>
        <path class="cls-2" d="M3.38,182.38c0,20.85,3.2,35.92,11.5,52.53,8.29,16.57,22.4,32.1,38.31,42.55,45.25-21.89,76.29-60.84,85.23-126.3-8.8-3.77-17.3-7.73-25.45-11.9-30.76-13.95-54.06-31.61-71.08-52.43-5.76,8.5-13.15,19.69-16.97,27.32-1.09,2.19-1.76,3.74-2.92,5.87l-3.14,6.28c-1.94,4.22-3.74,7.79-5.45,12.13-5.04,12.77-10.04,29.41-10.04,43.96Z"/>
        <path class="cls-6" d="M140.46,151.38c-9.79,67.66-43.45,106-91.86,126.21,61.31,31.05,118.15,29.52,165.1-44.28-14.51-47.78-42.16-68.41-73.24-81.93Z"/>
        <path class="cls-7" d="M80.4,40.38c-7.12,29.94,9.47,45.4,34.3,56.96,11.25,5.24,24.03,9.71,37.12,14.29,20.95,7.33,42.67,14.94,60.47,26.15,1.97,4.73,3.74,9.64,5.27,15.06-18.26-15.12-44.05-24.15-68.68-32.77-13.43-4.7-26.53-9.29-37.97-14.61-24.78-11.54-42.47-26.44-41.58-52.54,3.64-4.24,7.32-8.36,11.07-12.54Z"/>
        <path class="cls-7" d="M120.47,13.07c-15.6,23.92-13.11,37.22-1.35,46.02,10.56,7.91,28.38,13.06,47.73,18.66,4.38,1.26,8.82,2.55,13.29,3.89,2.89,4.06,5.67,8.1,8.27,11.98-8.03-2.66-16.16-5.01-24.04-7.29-20.16-5.83-38.72-11.2-50.61-20.09-16.16-12.1-20.03-29.43.29-59.65l6.42,6.48Z"/>
        <path class="cls-7" d="M143.79,150.75c-4.55,41.39-17.73,72.09-36.89,93.85-14.3,16.24-31.87,27.46-51.63,34.42-3.08-1.97-6.09-4.14-9.02-6.46,20.84-6.25,39.27-17.23,53.93-33.88,17.99-20.43,30.39-49.48,34.72-88.88l8.89.95Z"/>
        <path class="cls-7" d="M154.93,156.08c6.69,36.05,1.75,63.96-11.05,87.61-10.42,19.26-25.97,35.52-44.64,51-3.89-.48-7.77-1.18-11.62-2.09,20.52-16.28,37.55-33.11,48.39-53.14,11.86-21.92,16.41-47.95,10.14-81.76l8.79-1.61Z"/>
        <path class="cls-7" d="M170.96,162.62c10.01,27.87,12.84,55.4,8.33,79.75-2.85,15.42-8.64,29.56-17.38,41.71-5.79,2.82-11.77,5.13-17.89,6.92,14.05-13.26,22.84-30.6,26.48-50.24,4.23-22.82,1.53-48.76-7.94-75.13l8.4-3.01Z"/>
        <path class="cls-7" d="M12.72,140.22c-.87,2.27-1.73,4.64-2.56,7.1,7.5,4.35,13.53,11.32,17.76,21.48,1.1,7.15,1.61,14.3,1.54,21.44-.08,7.2-.77,14.46-2.07,21.78-.82,3.57,1.05,6.32,4.39,8.05,1.52.79,3.41,1.35,5.44,1.63,1.91.26,3.99.28,6.01,0,5.93-.81,11.49-4.03,12.44-10.62.29-2.04-1.13-3.93-3.17-4.22-2.03-.29-3.93,1.13-4.21,3.17-.37,2.56-3.1,3.89-6.05,4.29-1.35.18-2.74.18-4.03,0-1.16-.16-2.2-.46-2.99-.87-.26-.13-.63.53-.55.22l.06-.26c1.36-7.64,2.09-15.35,2.17-23.11.08-7.69-.48-15.38-1.7-23.07l-.07-.42-.17-.41c-5.13-12.57-12.7-21.04-22.25-26.18Z"/>
        <path class="cls-7" d="M119.42,142.47c-2.17-1.06-4.32-2.13-6.45-3.22-4.26-1.93-8.38-3.93-12.36-6.01-7.27-.4-14.21.18-20.73,1.97-11.75,3.23-22.02,10.31-30.31,22.49-1.16,1.7-.72,4.02.98,5.18,1.7,1.16,4.02.72,5.18-.98,7.22-10.6,16.06-16.75,26.11-19.51,10.25-2.82,21.92-2.21,34.53.71,1.1.25,2.2-.01,3.04-.64Z"/>
        <path class="cls-7" d="M60.2,184.47c-1.9-.79-2.8-2.97-2.01-4.87.79-1.9,2.97-2.8,4.87-2.01,8.09,3.37,16.09,4.75,24,4.26,7.94-.5,15.85-2.87,23.72-6.99,1.82-.95,4.07-.24,5.02,1.58.95,1.82.25,4.07-1.57,5.02-8.81,4.6-17.72,7.27-26.73,7.83-9.04.56-18.14-.99-27.3-4.81Z"/>
        <path class="cls-7" d="M3.38,182.38c0,2.14.04,4.23.11,6.25,7.05-1.14,14.03-3.56,20.96-7.18,1.82-.95,2.52-3.2,1.57-5.02-.95-1.82-3.2-2.53-5.02-1.58-5.85,3.06-11.72,5.16-17.61,6.23,0,.43-.01.86-.01,1.29Z"/>
        <path class="cls-7" d="M24.64,248.29c-1.79-1.01-2.42-3.28-1.42-5.06,1.01-1.79,3.28-2.42,5.06-1.42,4.5,2.54,9.09,3.52,13.74,3.45,4.78-.07,9.72-1.27,14.74-3.04,1.94-.69,4.07.33,4.76,2.28.68,1.94-.34,4.07-2.28,4.76-5.69,2.01-11.39,3.36-17.14,3.45-5.89.09-11.72-1.17-17.48-4.41Z"/>
        <path class="cls-7" d="M13.91,234.6c.32.66.64,1.33.98,2,.58,1.16,1.19,2.31,1.82,3.45,5.65,1.34,10.36-.44,14.58-2.04,3.25-1.23,6.06-2.29,7.66-.34l2.76,3.34,2.89-3.23c3.01-3.37,6.03-1.82,9.56,0,3.55,1.82,7.42,3.82,12.44,3.82,2.06,0,3.74-1.68,3.74-3.74s-1.67-3.73-3.74-3.73c-3.25,0-6.27-1.55-9.03-2.97-5.44-2.8-10.2-5.24-15.81-.91-4.09-2.63-8.33-1.02-13.1.78-3.29,1.24-6.96,2.63-10.5,1.69-1.71-.45-3.46.37-4.25,1.87Z"/>
        <path class="cls-7" d="M2.74,212.1c-1.91-8.79-2.74-18.07-2.74-28.8,0-6.83,1.05-14.09,2.67-21.22,1.99-8.69,4.83-17.15,7.68-24.37,1.26-3.2,2.62-6.08,4.04-9.11,1.55-3.32,3.15-6.52,4.79-9.8.71-1.3,1.22-2.36,1.76-3.49l1.07-2.24c4.71-9.42,14.59-23.92,20.54-32.64l.42-.61c12.94-18.98,24.73-32.05,37.73-46.46,3.57-3.96,7.25-8.03,11.3-12.64,5.68-6.51,15.14-14.39,21.82-20.72l34.29,34.64c7.71,7.59,19.94,22.78,31.36,38.44,11.04,15.13,21.37,30.76,26.17,40.44l.86,1.78c.63,1.29,1.25,2.55,2.02,4.04,2.7,5.28,5.18,10.31,7.39,15.47,2.26,5.29,4.26,10.78,5.99,16.88,1.26,4.46,2.62,9.35,3.7,14.75,1.09,5.42,1.85,11.11,1.85,16.86,0,15.53-1.96,28.6-6.14,40.68-4.17,12.07-10.52,23-19.3,34.27-.92,1.18-1.93,2.45-2.89,3.58-1.11,1.31-2.24,2.57-3.29,3.61h-.02c-17.81,17.61-40.18,28.89-63.71,32.9-23.2,3.96-47.54.87-69.75-10.16-10.38-5.15-20.37-12.54-29.05-21.21h-.02c-8.66-8.66-16.06-18.68-21.29-29.14-4.34-8.68-7.34-16.94-9.25-25.73h0ZM8.96,183.3c0,10.12.77,18.8,2.53,26.91,1.77,8.11,4.52,15.7,8.49,23.63,4.76,9.53,11.6,18.74,19.64,26.79h0c8.02,8.03,17.21,14.82,26.7,19.54,20.46,10.16,42.89,13.01,64.29,9.36,21.76-3.71,42.46-14.15,58.94-30.44h0c.95-.95,1.89-1.99,2.76-3.03,1.04-1.23,1.93-2.34,2.67-3.3,8.19-10.51,14.09-20.62,17.91-31.68,3.82-11.04,5.61-23.18,5.61-37.78,0-5.23-.67-10.31-1.64-15.11-.97-4.83-2.31-9.65-3.56-14.08-1.61-5.71-3.5-10.85-5.61-15.8-2.17-5.08-4.54-9.9-7.11-14.91-.77-1.5-1.42-2.82-2.08-4.16l-.87-1.76c-4.59-9.27-14.61-24.41-25.36-39.14-11.14-15.27-23.02-30.04-30.43-37.33l-28.19-28.48-14.97,14.22c-3.74,4.25-7.57,8.49-11.3,12.62-12.8,14.2-24.42,27.08-36.99,45.52l-.42.61c-5.8,8.5-15.44,22.64-19.91,31.59l-1.04,2.09c-.61,1.28-1.19,2.48-1.97,3.92l-3,6.01-1.54,3.3c-1.31,2.78-2.55,5.43-3.8,8.59-2.72,6.91-5.43,14.94-7.29,23.09v.02c-1.48,6.47-2.43,13.05-2.43,19.22h0Z"/>
        <path class="cls-7" d="M48.57,79.59c8.26,28.29,39.79,42.55,72.69,57.41,5.78,2.61,11.6,5.24,17.51,8.04,21.56,10.21,38.91,20.53,52.01,34.54,11.66,12.47,19.82,27.68,24.37,48.07-1.87,4.55-3.62,9.9-6.21,14.27-.15-1.13-.73-2.8-.92-3.91-3.75-22.88-11.74-39.49-23.76-52.33-12.16-12.99-28.67-22.76-49.32-32.54-5.64-2.67-11.53-5.33-17.37-7.97-32.71-14.78-64.19-29-75.78-55.65,1.78-2.64,3.45-5.09,4.87-7.17.64-.93,1.27-1.85,1.9-2.76Z"/>
        <path class="cls-4" d="M139.83,155.47c-1.02,6.32-2.26,12.39-3.71,18.19,27.4,22.59,47.07,53.06,28.56,110.23,15.51-9.04,30.11-23.01,44.09-43.28-.15-.87-.9-4.06-1.53-7-.4-1.85-.72-3.62-.95-4.63-4.21-18.43-11.58-32.15-22.02-43.31-11.18-11.95-26.05-21.17-44.44-30.2Z"/>
        <path class="cls-5" d="M156.26,164.21c1.62,11.48,2.02,22.1,1.32,32.01-2.61-3.74-5.51-7.26-8.62-10.59-.06-8.39-.9-17.32-2.62-26.87,3.45,1.79,6.75,3.59,9.93,5.45Z"/>
        <path class="cls-5" d="M166.94,276.35c8.12-4.7,15.72-10.47,22.59-17.27h0c.95-.95,1.89-1.99,2.76-3.03,1.04-1.23,1.93-2.34,2.67-3.3,4.94-6.33,9.04-12.52,12.36-18.86,1.05,5.55,2,7.95,2.65,13.16l-.1.16v.02s-.12.18-.12.18l-.11.17-.1.16v.02s-.12.18-.12.18l-.12.17-.1.16v.02s-.13.17-.13.17l-.12.18-.1.16v.02s-.13.18-.13.18l-.12.18-.11.16v.02s-.13.18-.13.18l-.12.17-.11.16h-.01s-.12.19-.12.19l-.12.17-.11.16h-.01s-.12.19-.12.19l-.12.18-.11.16h-.01s-.12.19-.12.19l-.12.17-.11.16h0s-.12.19-.12.19l-.12.17-.11.17h-.01s-.12.18-.12.18l-.12.18-.12.16h0s-.12.18-.12.18l-.13.17-.12.17h0s-.13.19-.13.19l-.12.17-.12.17h0s-.13.18-.13.18l-.12.17-.12.17h0s-.13.18-.13.18l-.13.18-.12.17h0s-.13.18-.13.18l-.13.17-.13.17h0s-.13.18-.13.18l-.13.17-.13.17h0s-.13.18-.13.18l-.26.35h0s-.13.18-.13.18l-.13.18-.13.17h0l-.13.18-.13.18-.13.17h0s-.13.18-.13.18l-.14.18-.13.17h0s-.14.18-.14.18l-.14.17-.14.18c-.92,1.18-1.93,2.45-2.89,3.58-1.11,1.31-2.24,2.57-3.29,3.61h-.02l-.67.66-.3.3-.67.64-.07.06-.59.56-.23.22-.09.08-.61.57-.16.14-.11.1-.67.61-.08.07-.08.07c-.26.24-.53.47-.8.71h0l-.79.68-.09.08-.08.07c-.51.44-1.03.88-1.55,1.31l-.3.25-.09.07-.49.4-.16.13-.12.1-.7.56-.08.07h0s-.86.68-.86.68l-.04.03h0s-.06.05-.06.05l-.85.66-.08.06-.5.38-.12.08-.37.28h-.02s-.5.39-.5.39l-.1.07-.3.22-.11.08-.51.37-.02.02-.31.23-.68.49-.08.06-.17.12-.52.37-.56.39-.2.14-.43.29-.09.06-.52.35-.09.06-.42.28-.72.48-.13.09-.72.46-.18.11-.11.07-.67.42-.4.25-.76.47h0l-.53.33-.15.09-.6.35-.51.31-.17.1-.18.1-.54.31-.06.04-.47.27h0s-.54.31-.54.31l-.18.1-.36.2-.54.3-.4.22-.15.08-.54.29h0s-.55.3-.55.3l-.12.06-.43.23-.55.29-.14.07-.4.21h0s-.55.28-.55.28l-.03.02-.47.23-.05.03-.55.27-.06.03-.38.19-.12.06-.56.27c1.47-4.18,2.71-8.2,3.79-12.11Z"/>
        <path class="cls-5" d="M175.65,177.56c6.1,22.7,7.34,44.83,3.64,64.81-2.26,12.23-6.37,23.66-12.34,33.93,4.45-16.13,5.73-30.03,4.57-42.16,2.51-20.23-.14-42.6-7.87-65.39,4.3,2.8,8.3,5.72,12,8.81Z"/>
        <path class="cls-1" d="M134.55,172.39c1.33-5.71,2.46-11.64,3.39-17.83-.99-.48-1.98-.96-2.98-1.43-5.64-2.67-11.53-5.33-17.37-7.97-19.24-8.69-38.05-17.19-52.65-28.14,14.34,21.46,44.83,35.41,69.61,55.37Z"/>
        <path class="cls-5" d="M143.02,157.06c-.92,6.8-2.08,13.31-3.46,19.52-2.52-2.2-5.13-4.33-7.79-6.39,1.11-5.51,2.03-11.26,2.77-17.26l.42.2c2.76,1.31,5.45,2.61,8.06,3.93Z"/>
        <path class="cls-5" d="M110.35,141.88c-6.22-2.83-12.34-5.68-18.23-8.63-3.56.21-7.03.7-10.39,1.5,2.55,2.09,5.22,4.14,7.99,6.17,6.46-.7,13.37-.31,20.63.96Z"/>
      </g>
      <path class="cls-3" d="M841.29,131.5c7.58,0,14.3,1,20.17,3.03,5.87,2.02,10.83,4.83,14.86,8.43,4.04,3.6,7.11,7.89,9.19,12.88,2.08,4.99,3.13,10.45,3.13,16.38v51.13l11.36,2.84v2.84h-17.04c-4.55,0-8.21-.72-10.99-2.18-2.78-1.45-4.98-3.06-6.63-4.83-1.89-2.15-3.29-4.54-4.17-7.2-1.64,3.29-3.72,6.13-6.25,8.52-2.15,2.15-4.99,4.11-8.52,5.87-3.54,1.77-7.76,2.65-12.68,2.65-5.94,0-11.08-.66-15.44-1.99-4.36-1.33-7.99-3.16-10.89-5.49-2.9-2.34-5.08-5.05-6.53-8.14-1.46-3.1-2.18-6.41-2.18-9.94,0-2.9.32-5.59.95-8.05.63-2.46,1.39-4.64,2.28-6.54,1-2.27,2.14-4.36,3.41-6.25,5.3-1.26,10.92-2.4,16.85-3.41,5.05-.88,10.74-1.74,17.04-2.56,6.31-.83,12.69-1.36,19.13-1.61v-5.68c0-7.32-.47-13.39-1.42-18.18-.95-4.8-2.31-8.59-4.07-11.37s-3.94-4.7-6.54-5.77c-2.59-1.08-5.52-1.61-8.81-1.61-1.39,0-2.65.09-3.78.29-1.14.19-2.15.41-3.03.66-1.01.38-1.89.7-2.65.95v28.41c-.88.25-1.7.44-2.47.57-.76.13-1.55.22-2.37.29-.82.06-1.74.1-2.75.1-4.29,0-7.73-1.3-10.32-3.88-2.59-2.59-3.88-6.03-3.88-10.32,0-2.65.66-5.21,1.98-7.67,1.33-2.46,3.41-4.67,6.26-6.63,2.84-1.95,6.47-3.53,10.89-4.73,4.42-1.2,9.72-1.8,15.91-1.8h0ZM833.72,184.53c-.76,1.64-1.39,3.54-1.9,5.68-.5,1.77-.94,3.85-1.32,6.25-.38,2.4-.57,5.05-.57,7.95,0,7.58,1.16,12.94,3.5,16.1,2.33,3.16,4.95,4.74,7.86,4.74s5.4-.79,7.48-2.37c2.08-1.58,3.82-3.32,5.21-5.21,1.64-2.27,3.09-4.8,4.35-7.57v-27.46c-2.9,0-5.81.1-8.71.29-2.91.19-5.56.41-7.95.66-2.78.38-5.43.69-7.95.95h0ZM726.71,131.5c7.58,0,14.3,1,20.17,3.03,5.87,2.02,10.83,4.83,14.87,8.43,4.04,3.6,7.1,7.89,9.19,12.88,2.09,4.99,3.12,10.45,3.12,16.38v51.13l11.37,2.84v2.84h-17.04c-4.55,0-8.21-.72-10.99-2.18-2.78-1.45-4.99-3.06-6.63-4.83-1.89-2.15-3.28-4.54-4.17-7.2-1.65,3.29-3.72,6.13-6.25,8.52-2.14,2.15-4.98,4.11-8.52,5.87-3.54,1.77-7.76,2.65-12.69,2.65-5.93,0-11.08-.66-15.43-1.99-4.36-1.33-7.99-3.16-10.89-5.49-2.9-2.34-5.09-5.05-6.53-8.14-1.45-3.1-2.18-6.41-2.18-9.94,0-2.9.32-5.59.95-8.05.63-2.46,1.39-4.64,2.28-6.54,1.01-2.27,2.14-4.36,3.41-6.25,5.3-1.26,10.92-2.4,16.86-3.41,5.05-.88,10.73-1.74,17.04-2.56,6.31-.83,12.69-1.36,19.13-1.61v-5.68c0-7.32-.48-13.39-1.42-18.18-.94-4.8-2.3-8.59-4.07-11.37-1.77-2.78-3.95-4.7-6.54-5.77-2.59-1.08-5.52-1.61-8.8-1.61-1.39,0-2.65.09-3.79.29-1.14.19-2.15.41-3.03.66-1.01.38-1.89.7-2.65.95v28.41c-.88.25-1.7.44-2.46.57-.76.13-1.55.22-2.37.29-.82.06-1.74.1-2.75.1-4.29,0-7.73-1.3-10.32-3.88-2.59-2.59-3.88-6.03-3.88-10.32,0-2.65.67-5.21,1.99-7.67,1.32-2.46,3.41-4.67,6.25-6.63,2.84-1.95,6.47-3.53,10.89-4.73,4.42-1.2,9.72-1.8,15.91-1.8h0ZM719.13,184.53c-.76,1.64-1.39,3.54-1.89,5.68-.51,1.77-.95,3.85-1.33,6.25-.38,2.4-.57,5.05-.57,7.95,0,7.58,1.17,12.94,3.5,16.1,2.34,3.16,4.96,4.74,7.86,4.74s5.4-.79,7.48-2.37c2.08-1.58,3.82-3.32,5.21-5.21,1.64-2.27,3.09-4.8,4.35-7.57v-27.46c-2.91,0-5.81.1-8.71.29-2.9.19-5.56.41-7.95.66-2.78.38-5.43.69-7.95.95h0ZM573.3,140.02l-11.37-2.84v-2.84h17.04c4.42,0,8.05.76,10.89,2.28,2.84,1.51,5.09,3.15,6.72,4.92,1.89,2.15,3.28,4.49,4.17,7.01,1.64-3.16,3.72-6,6.25-8.52,2.15-2.15,4.96-4.1,8.43-5.87,3.47-1.76,7.74-2.65,12.78-2.65,5.43,0,10.51,1.07,15.24,3.22,4.74,2.15,8.84,5.3,12.31,9.47,3.47,4.17,6.22,9.38,8.24,15.63,2.02,6.25,3.03,13.54,3.03,21.88s-1.01,15.63-3.03,21.87c-2.02,6.25-4.86,11.46-8.52,15.63-3.66,4.16-8.05,7.32-13.16,9.47-5.12,2.15-10.77,3.22-16.95,3.22-3.28,0-6.28-.38-9-1.14-2.71-.76-5.02-1.64-6.91-2.65-2.28-1.14-4.23-2.4-5.87-3.79v36.94l11.37,2.84v2.84h-53.03v-2.84l11.37-2.84v-121.21h0ZM603.6,218.62c1.26,1.39,2.65,2.64,4.17,3.78,1.39,1.01,2.93,1.89,4.63,2.65,1.71.76,3.51,1.14,5.4,1.14,2.4,0,4.64-.6,6.73-1.8,2.08-1.2,3.88-3.41,5.4-6.63,1.51-3.22,2.71-7.73,3.6-13.54.88-5.8,1.33-13.32,1.33-22.54s-.44-16.29-1.33-21.97c-.88-5.68-1.99-10.13-3.31-13.35-1.33-3.22-2.84-5.4-4.54-6.54-1.7-1.13-3.38-1.7-5.02-1.7-2.91,0-5.43.79-7.57,2.37-2.15,1.58-3.92,3.31-5.3,5.21-1.65,2.27-3.03,4.8-4.17,7.58v65.34h0ZM524.06,96.46c11.36,0,17.04,5.68,17.04,17.04v109.85l11.37,2.84v2.84h-53.03v-2.84l11.37-2.84v-121.21l-11.37-2.84v-2.84h24.62ZM398.12,134.34c11.37,0,17.04,5.68,17.04,17.05v49.24c0,4.3.44,7.99,1.33,11.08.88,3.09,1.98,5.65,3.31,7.67,1.33,2.02,2.84,3.5,4.54,4.45,1.7.95,3.38,1.42,5.02,1.42,2.9,0,5.4-.79,7.48-2.37,2.08-1.58,3.82-3.32,5.21-5.21,1.64-2.27,3.09-4.8,4.35-7.57v-70.08l-11.37-2.84v-2.84h53.03v2.84l-11.37,2.84v89.96h-1.89c-5.55,0-10.01-.79-13.35-2.37-3.34-1.58-5.9-3.32-7.67-5.21-2.15-2.27-3.66-4.8-4.55-7.58-1.65,3.29-3.72,6.13-6.25,8.52-2.14,2.15-4.99,4.11-8.52,5.87-3.54,1.77-7.77,2.65-12.69,2.65-5.43,0-10.42-.88-14.96-2.65-4.55-1.77-8.43-4.11-11.65-7.01-3.22-2.9-5.74-6.22-7.57-9.95-1.83-3.72-2.75-7.6-2.75-11.65v-60.6l-11.36-2.84v-2.84h24.62ZM308.16,227.14c7.2,0,12.94-2.15,17.23-6.44s6.44-10.04,6.44-17.23c0-4.92-1.67-9.19-5.02-12.78-3.34-3.6-7.48-6.98-12.41-10.13-4.92-3.15-10.32-6.31-16.19-9.47-5.87-3.16-11.27-6.76-16.19-10.8-4.93-4.04-9.06-8.75-12.4-14.11-3.35-5.37-5.02-11.84-5.02-19.41,0-4.55.95-8.81,2.84-12.78,1.89-3.98,4.77-7.48,8.62-10.51,3.85-3.03,8.68-5.44,14.49-7.2,5.8-1.77,12.63-2.65,20.45-2.65,4.42,0,8.52.67,12.31,1.99,3.8,1.33,7.01,2.75,9.66,4.26,3.15,1.77,5.93,3.79,8.33,6.06,1.01-1.64,2.11-3.13,3.31-4.45,1.2-1.33,2.3-2.43,3.32-3.32,1.26-1.01,2.52-1.89,3.78-2.65h4.74v35.99h-7.57c-1.77-6.06-4.23-11.56-7.39-16.48-2.66-4.17-6.19-7.99-10.61-11.46-4.42-3.47-9.78-5.21-16.1-5.21-2.4,0-4.67.51-6.82,1.51-2.14,1.01-4.04,2.43-5.68,4.26-1.64,1.83-2.97,4.04-3.98,6.63-1.01,2.58-1.51,5.39-1.51,8.42,0,5.43,1.67,10.07,5.02,13.92,3.35,3.85,7.48,7.42,12.41,10.7,4.92,3.28,10.32,6.5,16.19,9.66,5.87,3.16,11.27,6.66,16.19,10.51,4.93,3.85,9.06,8.24,12.4,13.16,3.35,4.93,5.02,10.86,5.02,17.81,0,4.92-1.07,9.63-3.22,14.11-2.15,4.48-5.37,8.43-9.66,11.84-4.29,3.41-9.72,6.09-16.29,8.05-6.57,1.96-14.2,2.94-22.92,2.94-5.56,0-10.41-.64-14.58-1.89-4.16-1.26-7.7-2.65-10.6-4.17-3.41-1.77-6.38-3.85-8.9-6.25-1.01,1.77-2.12,3.29-3.32,4.55-1.2,1.26-2.3,2.34-3.31,3.22-1.26,1.01-2.52,1.89-3.79,2.65h-4.74v-35.99h7.58c1.89,6.19,4.55,11.75,7.95,16.67,1.52,2.15,3.22,4.2,5.12,6.15,1.89,1.96,4.07,3.69,6.53,5.21,2.47,1.51,5.21,2.75,8.24,3.69,3.03.95,6.38,1.42,10.04,1.42h0Z"/>
    </g>
  </g>
</svg>