<?xml version="1.0" encoding="UTF-8"?>
<svg id="Capa_2" data-name="Capa 2" xmlns="http://www.w3.org/2000/svg" xmlns:xlink="http://www.w3.org/1999/xlink" viewBox="0 0 700 702.12">
  <defs>
    <style>
      .cls-1, .cls-2 {
        clip-rule: evenodd;
      }

      .cls-3 {
        letter-spacing: 0em;
      }

      .cls-4, .cls-5 {
        fill: #fff;
      }

      .cls-6 {
        letter-spacing: -.04em;
      }

      .cls-7 {
        clip-path: url(#clippath-1);
      }

      .cls-8, .cls-2, .cls-9 {
        fill: #00a74f;
      }

      .cls-5 {
        font-family: Brinova-Regular, Brinova;
        font-size: 210.97px;
      }

      .cls-10 {
        letter-spacing: 0em;
      }

      .cls-11, .cls-9 {
        fill-rule: evenodd;
      }

      .cls-12 {
        clip-path: url(#clippath);
      }
    </style>
    <clipPath id="clippath">
      <path class="cls-2" d="M494.1,97.45c3.26,8.78,7.97,17.03,14.07,24.65l.3.38-11.24,13.58-80.16-9.96,54.17-59.91,17.38,2.93.02.49c.36,9.76,2.2,19.07,5.46,27.85M176.01,152.35c37.97,33.06,115.5,21.79,232.58-33.78C376.82,52.21,304.45,12.59,208.82,12.41,120.57,12.24,41.43,56.22,1.77,129.69l106.53,55.35c21.21-39.49,49.76-64.26,102.15-64.16,29.09.05,52.83,8.22,69.24,22.5-34.26,12.79-68.82,15.78-103.68,8.96ZM700,20.89c-30.27-15.76-62.97-18.98-98.12-9.65-12.82,3.4-25.95,8.46-39.41,15.19,9.85-6.91,19.61-12.55,29.28-16.91l-56.29-9.52-88.33,52.45,59.44,10.05c-2.8,2.18-5.61,4.43-8.43,6.74.33,8.74,1.96,17.05,4.87,24.89,2.92,7.84,7.12,15.2,12.58,22.03,3.64-.09,7.24-.23,10.78-.4l-38.42,46.44,101.13-18,36.4-44c-10.16,3.02-21.24,5.13-33.22,6.34,14.59-3.7,27.84-8.45,39.77-14.25,32.7-15.91,55.35-39.71,67.98-71.41Z"/>
    </clipPath>
    <clipPath id="clippath-1">
      <path class="cls-1" d="M415.27,134.21c-123.02,47.79-186.73,93.34-191.12,136.65,15.88-23.7,42.82-44.48,80.83-62.32-2.89,44.99-36.24,82.68-106.42,82.68h-68.95v114.9h68.95c68.94,0,114.9,36.77,114.9,92.84s-41.37,89.17-99.28,89.17c-41.37,0-77.22-17.47-105.7-60.67L0,608.35c57.91,67.09,129.61,93.76,215.1,93.76,144.33,0,223.38-88.25,223.38-203.16,0-69.85-33.09-121.34-88.25-153.51,47.81-34.02,76.3-82.73,76.3-144.33,0-24.25-3.89-46.66-11.25-66.91"/>
    </clipPath>
  </defs>
  <g id="Capa_1-2" data-name="Capa 1">
    <g>
      <g>
        <path class="cls-9" d="M494.1,97.45c3.26,8.78,7.97,17.03,14.07,24.65l.3.38-11.24,13.58-80.16-9.96,54.17-59.91,17.38,2.93.02.49c.36,9.76,2.2,19.07,5.46,27.85M176.01,152.35c37.97,33.06,115.5,21.79,232.58-33.78C376.82,52.21,304.45,12.59,208.82,12.41,120.57,12.24,41.43,56.22,1.77,129.69l106.53,55.35c21.21-39.49,49.76-64.26,102.15-64.16,29.09.05,52.83,8.22,69.24,22.5-34.26,12.79-68.82,15.78-103.68,8.96ZM700,20.89c-30.27-15.76-62.97-18.98-98.12-9.65-12.82,3.4-25.95,8.46-39.41,15.19,9.85-6.91,19.61-12.55,29.28-16.91l-56.29-9.52-88.33,52.45,59.44,10.05c-2.8,2.18-5.61,4.43-8.43,6.74.33,8.74,1.96,17.05,4.87,24.89,2.92,7.84,7.12,15.2,12.58,22.03,3.64-.09,7.24-.23,10.78-.4l-38.42,46.44,101.13-18,36.4-44c-10.16,3.02-21.24,5.13-33.22,6.34,14.59-3.7,27.84-8.45,39.77-14.25,32.7-15.91,55.35-39.71,67.98-71.41Z"/>
        <g class="cls-12">
          <rect class="cls-8" x="257.85" y="-256.36" width="186.01" height="698.03" transform="translate(257.53 443.33) rotate(-89.89)"/>
        </g>
      </g>
      <g>
        <path class="cls-11" d="M415.27,134.21c-123.02,47.79-186.73,93.34-191.12,136.65,15.88-23.7,42.82-44.48,80.83-62.32-2.89,44.99-36.24,82.68-106.42,82.68h-68.95v114.9h68.95c68.94,0,114.9,36.77,114.9,92.84s-41.37,89.17-99.28,89.17c-41.37,0-77.22-17.47-105.7-60.67L0,608.35c57.91,67.09,129.61,93.76,215.1,93.76,144.33,0,223.38-88.25,223.38-203.16,0-69.85-33.09-121.34-88.25-153.51,47.81-34.02,76.3-82.73,76.3-144.33,0-24.25-3.89-46.66-11.25-66.91"/>
        <g class="cls-7">
          <rect class="cls-4" y="134.21" width="438.48" height="567.9"/>
        </g>
      </g>
      <text class="cls-5" transform="translate(635.2 702.12) rotate(-90)"><tspan x="0" y="0">ES</tspan><tspan class="cls-6" x="153.79" y="0">P</tspan><tspan class="cls-10" x="228.26" y="0">A</tspan><tspan class="cls-3" x="312.23" y="0">CIO</tspan></text>
    </g>
  </g>
</svg>