<?xml version="1.0" encoding="UTF-8"?>
<svg id="Capa_2" data-name="Capa 2" xmlns="http://www.w3.org/2000/svg" viewBox="0 0 872.49 170.24">
  <defs>
    <style>
      .cls-1 {
        fill: #1396d4;
      }

      .cls-2 {
        fill: #1b4a97;
      }

      .cls-3 {
        fill: #00aa9e;
      }

      .cls-4 {
        fill: #e84988;
      }

      .cls-5 {
        fill: #601d55;
      }

      .cls-6 {
        fill: #31a8e0;
      }

      .cls-7 {
        fill: #fff;
      }

      .cls-8 {
        fill: #004c85;
      }

      .cls-9 {
        fill: #8cbf48;
      }

      .cls-10 {
        fill: #8a1724;
      }

      .cls-11 {
        fill: #bc0e64;
      }

      .cls-12 {
        fill: #efe414;
      }

      .cls-13 {
        fill: #ec6f29;
      }

      .cls-14 {
        fill: #e95874;
      }

      .cls-15 {
        fill: #46b492;
      }

      .cls-16 {
        fill: #005c98;
      }

      .cls-17 {
        fill: #d2d830;
      }

      .cls-18 {
        fill: #611c53;
      }

      .cls-19 {
        fill: #1c91d0;
      }

      .cls-20 {
        fill: #01919d;
      }

      .cls-21 {
        fill: #ea6764;
      }

      .cls-22 {
        fill: #ffd301;
      }

      .cls-23 {
        fill: #2ea9e0;
      }

      .cls-24 {
        fill: #f9eb5f;
      }

      .cls-25 {
        fill: #503389;
      }

      .cls-26 {
        fill: #dddc2b;
      }

      .cls-27 {
        fill: #009145;
      }

      .cls-28 {
        fill: #75b746;
      }

      .cls-29 {
        fill: #e5186a;
      }

      .cls-30 {
        fill: #ed7450;
      }

      .cls-31 {
        fill: #047eb4;
      }

      .cls-32 {
        fill: #f7e838;
      }

      .cls-33 {
        fill: #f19123;
      }

      .cls-34 {
        fill: #8c3088;
      }

      .cls-35 {
        fill: #e95041;
      }

      .cls-36 {
        fill: #087eac;
      }

      .cls-37 {
        fill: #b91352;
      }

      .cls-38 {
        fill: #2e2252;
      }

      .cls-39 {
        fill: #49ac4d;
      }

      .cls-40 {
        fill: #f19026;
      }

      .cls-41 {
        fill: #f5a11a;
      }

      .cls-42 {
        fill: #0089c0;
      }

      .cls-43 {
        fill: #e3282b;
      }

      .cls-44 {
        fill: #a61b18;
      }
    </style>
  </defs>
  <g id="Capa_3" data-name="Capa 3">
    <g>
      <g>
        <rect class="cls-7" x="858.15" width="14.26" height="14.26"/>
        <rect class="cls-7" x="858.15" y="0" width="14.26" height="14.26"/>
        <g>
          <path class="cls-7" d="M413.23,32.47c-2.81-2.41-6.76-3.62-11.85-3.62h-65.9v14.27h63.69c1.74-.13,2.61.27,2.61,1.2,0,.8-.6,1.88-1.81,3.22-1.21,1.34-2.28,2.28-3.21,2.81l-54.05,46.01c-4.15,3.21-7.33,6.6-9.55,10.15-2.21,3.55-3.31,6.93-3.31,10.15,0,3.89,1.44,7.03,4.32,9.45,2.88,2.41,6.86,3.61,11.96,3.61h65.9v-14.26h-63.89c-.8.14-1.44.1-1.91-.1-.47-.2-.7-.5-.7-.91,0-1.34,1.67-3.41,5.02-6.23l54.24-45.81c4.15-3.21,7.3-6.63,9.45-10.25,2.14-3.61,3.21-7.03,3.21-10.25,0-3.88-1.41-7.03-4.22-9.44"/>
          <path class="cls-7" d="M843.27,43.11v-14.26c-9.11,0-17.55,2.24-25.31,6.73-7.77,4.49-13.9,10.58-18.39,18.28-4.49,7.7-6.73,16.11-6.73,25.22v50.23h14.27v-50.23c0-6.56,1.64-12.59,4.92-18.08,3.28-5.49,7.67-9.84,13.16-13.06,5.49-3.21,11.52-4.82,18.08-4.82"/>
          <rect class="cls-7" x="858.15" y="28.85" width="14.26" height="100.46"/>
          <path class="cls-7" d="M691.48,167.03c-.31-.38-.69-.86-1.15-1.44-.46-.58-.98-1.23-1.56-1.94-.58-.71-1.15-1.44-1.72-2.17-.57-.73-1.12-1.43-1.65-2.11-.54-.67-1.01-1.27-1.4-1.78,1.21-.3,2.22-.74,3.02-1.34.8-.6,1.44-1.27,1.93-2.03.49-.76.83-1.54,1.01-2.35.19-.81.28-1.56.28-2.27,0-1.05-.18-2.04-.55-2.96-.37-.92-.95-1.72-1.75-2.39-.8-.67-1.82-1.21-3.06-1.6-1.24-.39-2.76-.59-4.54-.59-.68.03-1.33.06-1.95.08-.54.03-1.09.04-1.64.04h-7.85c-.11.77.07,1.35.55,1.75.47.4,1.46.61,2.98.64v22.4c-.24.03-.54.05-.89.08-.35.03-.7.06-1.05.1-.35.04-.67.08-.95.12-.28.04-.49.09-.63.14,0,.32,0,.64-.02.95-.02.31-.04.63-.06.95h10.41c0-.32,0-.64-.02-.95s-.02-.63-.02-.95c-.14-.06-.34-.1-.63-.14-.28-.04-.6-.08-.95-.12-.35-.04-.7-.08-1.05-.1-.35-.03-.65-.06-.89-.08v-22.36l3.68-.12c.97-.03,1.92.03,2.84.16.92.13,1.74.4,2.45.79.71.39,1.29.94,1.72,1.63.43.7.65,1.59.65,2.66,0,.83-.13,1.62-.4,2.36-.27.74-.69,1.39-1.26,1.96-.58.56-1.32,1-2.24,1.31-.92.31-2.01.44-3.28.38h-2.59l-.2,2.15,3.4.04,7.43,9.36c.78,1.08,1.65,1.85,2.61,2.31.96.46,2.14.66,3.54.61l.32-1.9-2.31-.69c-.06-.03-.24-.23-.55-.61"/>
          <path class="cls-7" d="M725.59,160.57c-.74-.45-1.53-.82-2.38-1.13-.85-.31-1.64-.63-2.38-.95-.74-.32-1.35-.69-1.83-1.09-.48-.41-.73-.93-.73-1.58s.29-1.25.87-1.8c.58-.55,1.4-.83,2.45-.83.57,0,1.07.05,1.52.14.45.09.88.25,1.32.46.06.84.24,1.44.55,1.82.31.38.72.59,1.24.65.24.03.47.03.69,0l.41-3.12c-.51-.46-1.23-.89-2.15-1.3-.92-.4-1.98-.61-3.2-.61-.95,0-1.82.11-2.63.34-.81.23-1.51.55-2.11.97-.6.42-1.06.93-1.4,1.54-.34.61-.51,1.27-.51,2,0,.91.24,1.67.73,2.26.48.59,1.09,1.09,1.82,1.49.73.4,1.52.75,2.39,1.05.86.29,1.66.61,2.39.95.73.34,1.34.73,1.82,1.19.48.46.73,1.04.73,1.74,0,.94-.4,1.63-1.2,2.08-.8.45-1.74.67-2.85.67-.87,0-1.61-.11-2.23-.32-.62-.22-1.15-.49-1.58-.81-.06-.86-.22-1.48-.49-1.84-.27-.36-.67-.59-1.21-.67-.24-.03-.47-.03-.69,0l-.41,3.2c.59.63,1.45,1.22,2.57,1.78,1.12.56,2.6.85,4.43.85.81,0,1.61-.1,2.41-.3.8-.2,1.51-.51,2.13-.93.63-.42,1.13-.94,1.5-1.58.37-.64.56-1.38.56-2.25,0-.97-.25-1.78-.73-2.43-.48-.65-1.1-1.19-1.84-1.64"/>
          <path class="cls-7" d="M763.63,151.24c-.78,0-1.5.15-2.14.45-.65.3-1.23.65-1.74,1.07-.51.42-.95.88-1.32,1.38-.37.5-.64.95-.83,1.36v-1.78l.08-2.27-5.59.45c-.03.27-.03.51,0,.73.08.46.38.79.89.99.51.2,1.07.3,1.66.3v13.12c-.24.03-.51.06-.81.08-.29.03-.59.06-.87.08-.28.03-.55.06-.81.1-.26.04-.45.09-.59.14l-.08,1.9h9.88l-.08-1.9c-.14-.05-.37-.1-.69-.14-.32-.04-.67-.08-1.03-.1-.36-.03-.72-.06-1.07-.08-.35-.03-.65-.05-.89-.08v-7.85c.03-.43.21-.97.55-1.62s.77-1.28,1.3-1.88c.53-.61,1.11-1.12,1.76-1.54.65-.42,1.32-.63,2.02-.63.22,0,.38.01.49.04.05.67.2,1.17.45,1.48.24.31.59.49,1.05.55.22.03.45.03.69,0l.41-3.32c-.3-.4-.68-.67-1.16-.81-.47-.13-.98-.2-1.52-.2"/>
          <path class="cls-7" d="M777.9,167.13c-.47.1-.95.14-1.44.14-1.11,0-1.83-.34-2.17-1.03-.34-.69-.5-1.74-.5-3.17v-9.29h5.34v-2.19h-5.34v-5.06l-2.19.41-.73,4.57-1.94.08c-.43.06-.72.19-.87.41-.15.22-.25.47-.3.74-.05.3-.04.65.04,1.03h3.03v9.74c0,2.1.35,3.65,1.05,4.67.7,1.01,1.94,1.52,3.73,1.52.7,0,1.41-.08,2.12-.25.72-.16,1.33-.39,1.84-.69l-.2-2.14c-.51.24-1.01.41-1.48.5"/>
          <path class="cls-7" d="M812.41,142.92c-.83-.3-1.73-.56-2.71-.76-.99-.21-2-.31-3.06-.31-1.86,0-3.64.28-5.35.85-1.7.57-3.19,1.43-4.45,2.59-1.27,1.16-2.28,2.63-3.04,4.41-.76,1.78-1.13,3.88-1.13,6.28,0,2.02.35,3.88,1.05,5.57.7,1.69,1.68,3.14,2.94,4.35,1.25,1.22,2.74,2.15,4.46,2.82,1.71.66,3.58.99,5.61.99,1.46,0,2.91-.16,4.37-.48,1.46-.32,2.78-.82,3.97-1.5l-.16-2.51c-.43.27-.95.53-1.56.79-.61.26-1.27.49-1.98.69-.71.2-1.44.36-2.19.48-.74.12-1.48.18-2.21.18-1.51,0-2.93-.28-4.25-.83-1.32-.55-2.48-1.33-3.46-2.32-.99-1-1.76-2.2-2.33-3.6-.57-1.4-.85-2.94-.85-4.61,0-1.83.27-3.48.81-4.95.54-1.47,1.29-2.71,2.25-3.72.96-1.01,2.08-1.78,3.36-2.32,1.28-.54,2.68-.81,4.19-.81,1.02,0,2.06.13,3.1.38,1.04.26,1.91.6,2.61,1.03.03.7.11,1.35.24,1.94.13.59.32,1.11.57,1.54.24.43.56.75.95.95.39.2.87.27,1.44.18l.32-5.51c-.3-.24-.75-.53-1.36-.86-.61-.33-1.32-.64-2.14-.95"/>
          <path class="cls-7" d="M827.31,167.2c-.64-.05-1.2-.11-1.68-.16v-25.15l.2-2.35-5.55.41c-.06.27-.04.51.04.73.08.46.34.8.77,1.01.43.22.96.32,1.58.32v25.03c-.25.03-.51.06-.81.08-.3.03-.59.06-.89.08-.3.03-.57.06-.83.1-.26.04-.45.09-.59.14l-.04,1.91h9.27l-.08-1.91c-.3-.11-.76-.19-1.4-.24"/>
          <path class="cls-7" d="M848.88,166.5c-.06-.22-.11-.46-.16-.75-.05-.28-.08-.62-.08-1v-13.2l-2.88.04h-2.75l-.08,1.93c.3.08.7.16,1.19.23.5.07,1.02.13,1.56.19v10.04c-.57.89-1.25,1.67-2.05,2.33-.8.66-1.71.99-2.73.99-1.4,0-2.52-.43-3.34-1.3-.82-.86-1.23-1.95-1.23-3.25v-8.85l.16-2.48-5.75.36c-.03.28-.03.52,0,.74.08.47.39.82.91,1.07.53.25,1.1.37,1.72.37v9.29c0,1.08.18,2.02.53,2.83.35.81.82,1.47,1.42,2,.59.52,1.29.91,2.09,1.17.8.26,1.64.38,2.53.38,1.21,0,2.33-.32,3.36-.97,1.02-.65,1.85-1.4,2.47-2.27.08.54.22,1.07.43,1.58.2.51.45.88.75,1.09.3.27.62.44.97.51.35.07.78.1,1.3.1.35,0,.69-.02,1.01-.06.32-.04.62-.09.89-.14.3-.05.6-.1.89-.16v-1.78l-2.87-.45c-.08-.16-.16-.36-.24-.61"/>
          <path class="cls-7" d="M334.17,126.09c-2.88-2.41-4.32-5.56-4.32-9.44,0-3.22,1.1-6.6,3.31-10.15,2.21-3.55,5.39-6.93,9.54-10.15l54.05-46.01c.94-.53,2.01-1.47,3.21-2.81,1.21-1.34,1.81-2.41,1.81-3.21,0-.94-.87-1.34-2.61-1.2h-63.69v-14.26h65.9c5.09,0,9.04,1.2,11.85,3.61,2.81,2.41,4.22,5.56,4.22,9.45,0,3.21-1.07,6.63-3.21,10.24-2.14,3.62-5.29,7.03-9.45,10.25l-54.24,45.81c-3.35,2.81-5.03,4.89-5.03,6.23,0,.4.23.7.7.9.47.2,1.11.24,1.91.1h63.89v14.27h-65.9c-5.09,0-9.08-1.21-11.95-3.62"/>
          <path class="cls-7" d="M335.48,28.85v14.26h63.69c1.74-.13,2.61.27,2.61,1.2,0,.81-.6,1.88-1.81,3.21-1.21,1.34-2.28,2.28-3.21,2.82l-54.05,46.01c-4.15,3.21-7.33,6.6-9.54,10.15-2.21,3.55-3.32,6.93-3.32,10.15,0,3.89,1.44,7.03,4.32,9.45,2.88,2.41,6.86,3.61,11.95,3.61h65.9v-14.26h-63.89c-.8.13-1.44.1-1.91-.1-.47-.2-.7-.5-.7-.9,0-1.34,1.68-3.42,5.03-6.23l54.24-45.81c4.15-3.21,7.3-6.63,9.44-10.25,2.14-3.62,3.21-7.03,3.21-10.25,0-3.88-1.4-7.03-4.22-9.44-2.81-2.41-6.76-3.62-11.85-3.62h-65.9Z"/>
          <path class="cls-7" d="M455.61,122.57c-7.7-4.49-13.8-10.58-18.28-18.28-4.49-7.7-6.73-16.1-6.73-25.22s2.24-17.51,6.73-25.22c4.49-7.7,10.58-13.79,18.28-18.28,7.7-4.49,16.1-6.73,25.22-6.73s17.54,2.24,25.31,6.73c7.77,4.49,13.89,10.58,18.38,18.28,4.49,7.7,6.73,16.11,6.73,25.22v50.23h-50.43c-9.11,0-17.52-2.24-25.22-6.73M516.99,79.08c0-6.56-1.64-12.59-4.92-18.08-3.28-5.49-7.67-9.84-13.16-13.06-5.49-3.21-11.52-4.82-18.08-4.82s-12.59,1.61-18.08,4.82c-5.5,3.21-9.85,7.57-13.06,13.06-3.21,5.49-4.82,11.52-4.82,18.08s1.61,12.59,4.82,18.08c3.21,5.49,7.56,9.88,13.06,13.16,5.49,3.28,11.52,4.92,18.08,4.92h36.16v-36.16Z"/>
          <path class="cls-7" d="M462.75,110.32c-5.49-3.28-9.84-7.67-13.06-13.16-3.21-5.49-4.82-11.52-4.82-18.08s1.61-12.59,4.82-18.08c3.21-5.49,7.57-9.84,13.06-13.06,5.49-3.21,11.52-4.82,18.08-4.82s12.59,1.61,18.08,4.82c5.49,3.21,9.88,7.57,13.16,13.06,3.28,5.49,4.92,11.52,4.92,18.08v36.16h-36.16c-6.56,0-12.59-1.64-18.08-4.92M455.61,35.58c-7.7,4.49-13.8,10.58-18.28,18.28-4.49,7.71-6.73,16.11-6.73,25.22s2.24,17.52,6.73,25.22c4.49,7.7,10.58,13.8,18.28,18.28,7.7,4.49,16.11,6.73,25.22,6.73h50.43v-50.23c0-9.1-2.25-17.51-6.73-25.22-4.49-7.7-10.61-13.79-18.38-18.28-7.77-4.49-16.21-6.73-25.31-6.73s-17.51,2.25-25.22,6.73"/>
          <path class="cls-7" d="M626.99,35.58c7.7,4.49,13.79,10.58,18.28,18.28,4.49,7.71,6.73,16.11,6.73,25.22v39.98c0,9.11-2.25,17.51-6.73,25.21-4.49,7.7-10.58,13.8-18.28,18.28-7.7,4.49-16.11,6.73-25.22,6.73h-26.72v-14.06h26.72c8.04-.13,15.27-2.61,21.7-7.43,6.43-4.82,10.78-10.98,13.06-18.48h-34.76c-9.11,0-17.52-2.24-25.22-6.73-7.7-4.49-13.83-10.58-18.38-18.28-4.55-7.7-6.83-16.1-6.83-25.22s2.28-17.51,6.83-25.22c4.55-7.7,10.68-13.79,18.38-18.28,7.7-4.49,16.1-6.73,25.22-6.73s17.51,2.25,25.22,6.73M632.92,61c-3.22-5.49-7.57-9.84-13.06-13.06-5.49-3.21-11.52-4.82-18.08-4.82s-12.59,1.61-18.08,4.82c-5.49,3.21-9.88,7.57-13.16,13.06-3.28,5.49-4.92,11.52-4.92,18.08s1.64,12.59,4.92,18.08c3.28,5.49,7.67,9.88,13.16,13.16,5.49,3.28,11.52,4.92,18.08,4.92h35.96v-36.17c0-6.56-1.61-12.59-4.82-18.08"/>
          <path class="cls-7" d="M583.69,110.32c-5.49-3.28-9.88-7.67-13.16-13.16-3.28-5.49-4.92-11.52-4.92-18.08s1.64-12.59,4.92-18.08c3.28-5.49,7.67-9.84,13.16-13.06,5.49-3.21,11.52-4.82,18.08-4.82s12.58,1.61,18.08,4.82c5.49,3.21,9.84,7.57,13.06,13.06,3.21,5.49,4.82,11.52,4.82,18.08v36.16h-35.96c-6.57,0-12.59-1.64-18.08-4.92M576.56,35.58c-7.7,4.49-13.83,10.58-18.38,18.28-4.56,7.71-6.83,16.11-6.83,25.22s2.28,17.52,6.83,25.22c4.55,7.7,10.68,13.8,18.38,18.28,7.7,4.49,16.1,6.73,25.22,6.73h34.76c-2.28,7.5-6.63,13.66-13.06,18.48-6.43,4.82-13.66,7.3-21.7,7.43h-26.72v14.06h26.72c9.1,0,17.51-2.25,25.22-6.73,7.7-4.49,13.79-10.58,18.28-18.28,4.49-7.7,6.73-16.1,6.73-25.21v-39.98c0-9.1-2.25-17.51-6.73-25.22-4.49-7.7-10.58-13.79-18.28-18.28-7.71-4.49-16.11-6.73-25.22-6.73s-17.52,2.25-25.22,6.73"/>
          <path class="cls-7" d="M697.11,122.57c-7.7-4.49-13.8-10.58-18.28-18.28-4.49-7.7-6.73-16.1-6.73-25.22s2.24-17.51,6.73-25.22c4.49-7.7,10.58-13.79,18.28-18.28,7.7-4.49,16.1-6.73,25.22-6.73s17.54,2.24,25.31,6.73c7.77,4.49,13.89,10.58,18.38,18.28,4.49,7.7,6.73,16.11,6.73,25.22v50.23h-50.43c-9.11,0-17.52-2.24-25.22-6.73M758.49,79.08c0-6.56-1.64-12.59-4.92-18.08-3.28-5.49-7.67-9.84-13.16-13.06-5.49-3.21-11.52-4.82-18.08-4.82s-12.59,1.61-18.08,4.82c-5.5,3.21-9.85,7.57-13.06,13.06-3.21,5.49-4.82,11.52-4.82,18.08s1.61,12.59,4.82,18.08c3.21,5.49,7.56,9.88,13.06,13.16,5.49,3.28,11.52,4.92,18.08,4.92h36.16v-36.16Z"/>
          <path class="cls-7" d="M704.24,110.32c-5.49-3.28-9.84-7.67-13.06-13.16-3.22-5.49-4.82-11.52-4.82-18.08s1.6-12.59,4.82-18.08c3.21-5.49,7.57-9.84,13.06-13.06,5.49-3.21,11.52-4.82,18.08-4.82s12.59,1.61,18.08,4.82c5.49,3.21,9.88,7.57,13.16,13.06,3.28,5.49,4.92,11.52,4.92,18.08v36.16h-36.17c-6.56,0-12.59-1.64-18.08-4.92M697.11,35.58c-7.7,4.49-13.8,10.58-18.28,18.28-4.49,7.71-6.73,16.11-6.73,25.22s2.24,17.52,6.73,25.22c4.48,7.7,10.58,13.8,18.28,18.28,7.7,4.49,16.1,6.73,25.21,6.73h50.43v-50.23c0-9.1-2.25-17.51-6.73-25.22-4.49-7.7-10.61-13.79-18.38-18.28-7.77-4.49-16.21-6.73-25.32-6.73s-17.51,2.25-25.21,6.73"/>
          <path class="cls-7" d="M799.57,53.86c4.49-7.7,10.61-13.79,18.38-18.28,7.77-4.49,16.21-6.73,25.32-6.73v14.26c-6.56,0-12.59,1.61-18.08,4.82-5.49,3.22-9.88,7.57-13.16,13.06-3.28,5.49-4.92,11.52-4.92,18.08v50.23h-14.26v-50.23c0-9.11,2.24-17.51,6.73-25.22"/>
          <path class="cls-7" d="M817.96,35.58c-7.77,4.49-13.9,10.58-18.38,18.28-4.49,7.71-6.73,16.11-6.73,25.22v50.23h14.26v-50.23c0-6.56,1.64-12.59,4.92-18.08,3.28-5.49,7.67-9.84,13.16-13.06,5.49-3.21,11.52-4.82,18.08-4.82v-14.26c-9.11,0-17.55,2.25-25.31,6.73"/>
          <rect class="cls-7" x="858.15" y="0" width="14.26" height="14.26"/>
          <rect class="cls-7" x="858.15" y="28.85" width="14.26" height="100.46"/>
          <rect class="cls-7" x="858.15" y="28.85" width="14.26" height="100.46"/>
          <path class="cls-7" d="M677.23,155.78h2.59c1.27.06,2.36-.07,3.28-.38.92-.31,1.66-.75,2.24-1.31.58-.56,1-1.21,1.27-1.95.27-.74.4-1.53.4-2.36,0-1.07-.22-1.96-.65-2.66-.43-.7-1.01-1.24-1.72-1.63-.72-.39-1.53-.65-2.45-.79-.92-.13-1.86-.19-2.84-.16l-3.68.12v22.36c.24.03.54.05.89.08.35.03.7.06,1.05.1.35.04.67.08.95.12.28.04.49.09.63.14,0,.32,0,.64.02.95.01.31.02.63.02.95h-10.41c.03-.32.05-.64.06-.95.01-.31.02-.63.02-.95.13-.06.34-.1.63-.14.28-.04.6-.08.95-.12.35-.04.7-.07,1.05-.1.35-.03.65-.05.89-.08v-22.39c-1.51-.03-2.5-.24-2.98-.64-.47-.4-.65-.98-.55-1.75h7.85c.55,0,1.1-.01,1.64-.04.62-.03,1.27-.06,1.95-.08,1.78,0,3.3.2,4.54.59,1.25.39,2.27.93,3.06,1.6.8.67,1.38,1.47,1.75,2.39.36.92.55,1.9.55,2.96,0,.7-.09,1.46-.28,2.27-.19.81-.53,1.59-1.01,2.35-.49.76-1.13,1.43-1.93,2.02-.8.6-1.8,1.04-3.02,1.34.4.51.87,1.11,1.4,1.78.53.67,1.08,1.38,1.65,2.11.56.73,1.14,1.45,1.72,2.17.58.72,1.1,1.37,1.56,1.94.46.58.84,1.06,1.15,1.44.31.38.49.58.55.61l2.31.69-.32,1.9c-1.4.05-2.58-.15-3.54-.61-.96-.46-1.83-1.23-2.61-2.3l-7.43-9.36-3.4-.04.2-2.15Z"/>
          <path class="cls-7" d="M704.06,169.67c-1.27,0-2.44-.21-3.52-.63-1.08-.42-2.02-1.01-2.82-1.78-.8-.77-1.43-1.72-1.89-2.84-.45-1.12-.68-2.37-.68-3.75s.21-2.73.62-3.89c.41-1.16,1-2.15,1.74-2.98.75-.82,1.65-1.46,2.72-1.9,1.07-.45,2.25-.67,3.55-.67,1.13,0,2.19.23,3.18.69.99.46,1.82,1.11,2.51,1.94.69.83,1.19,1.84,1.52,3.02.32,1.18.39,2.48.2,3.91h-12.8v.32c0,.91.15,1.76.45,2.54.3.78.72,1.45,1.26,2.01s1.19,1.01,1.94,1.33c.75.32,1.6.48,2.55.48,1.02,0,1.97-.17,2.84-.5.86-.33,1.73-.83,2.59-1.49l.28,1.98c-.89.81-1.84,1.38-2.84,1.7-1,.32-2.13.48-3.4.48M708.31,158.73c0-.97-.15-1.79-.45-2.47-.3-.67-.67-1.22-1.11-1.64-.45-.42-.93-.72-1.46-.91-.52-.19-1.03-.28-1.52-.28-1.54,0-2.74.49-3.6,1.48-.86.99-1.42,2.25-1.66,3.79l9.8.04Z"/>
          <path class="cls-7" d="M726.9,156.26c-.22.03-.45.03-.69,0-.51-.05-.93-.27-1.23-.65-.31-.38-.49-.99-.55-1.82-.43-.21-.87-.37-1.32-.46-.45-.1-.95-.14-1.52-.14-1.05,0-1.87.28-2.45.83-.58.56-.87,1.16-.87,1.8s.24,1.18.73,1.58c.48.41,1.1.77,1.83,1.09.74.32,1.53.64,2.38.95.85.31,1.64.69,2.38,1.13.74.45,1.35.99,1.84,1.64.48.65.73,1.46.73,2.43,0,.86-.19,1.61-.56,2.25-.37.64-.87,1.16-1.5,1.58-.63.42-1.34.73-2.13.93-.8.2-1.6.3-2.41.3-1.84,0-3.31-.28-4.43-.84-1.12-.57-1.98-1.16-2.57-1.79l.41-3.2c.22-.03.45-.03.69,0,.54.08.95.3,1.21.67.27.36.43.98.49,1.84.43.33.96.6,1.58.81.62.22,1.36.32,2.23.32,1.11,0,2.06-.22,2.85-.67.8-.44,1.19-1.14,1.19-2.08,0-.7-.24-1.28-.73-1.74-.49-.46-1.09-.85-1.82-1.19-.73-.34-1.53-.65-2.39-.95-.86-.29-1.66-.64-2.39-1.05-.73-.41-1.34-.9-1.82-1.5-.49-.59-.73-1.35-.73-2.26,0-.73.17-1.39.51-2,.34-.61.8-1.12,1.4-1.54.59-.42,1.29-.74,2.11-.97.81-.23,1.69-.34,2.63-.34,1.21,0,2.28.2,3.2.61.92.4,1.63.83,2.15,1.3l-.41,3.12Z"/>
          <path class="cls-7" d="M740.18,169.71c-1.29,0-2.49-.22-3.6-.67-1.11-.45-2.07-1.07-2.88-1.86-.81-.8-1.44-1.75-1.88-2.85-.45-1.11-.67-2.32-.67-3.65s.24-2.65.71-3.8c.47-1.16,1.13-2.16,1.96-3,.84-.83,1.82-1.48,2.96-1.94,1.14-.46,2.38-.69,3.73-.69s2.54.23,3.66.69c1.12.46,2.09,1.09,2.89,1.89.81.8,1.44,1.75,1.89,2.85.45,1.11.67,2.31.67,3.6,0,1.4-.25,2.68-.73,3.85-.48,1.16-1.16,2.15-2,2.98-.85.82-1.85,1.46-3,1.92-1.15.46-2.38.69-3.71.69M740.34,167.52c.84,0,1.62-.17,2.35-.51.73-.34,1.36-.82,1.9-1.46s.97-1.38,1.3-2.25c.32-.86.48-1.82.48-2.87s-.15-2.05-.46-2.91c-.31-.86-.74-1.6-1.28-2.21-.54-.61-1.18-1.07-1.9-1.4-.73-.32-1.51-.48-2.35-.48s-1.61.16-2.33.48c-.71.33-1.34.79-1.86,1.4-.53.61-.94,1.35-1.23,2.21-.3.86-.45,1.85-.45,2.95s.15,2.02.45,2.9c.29.88.7,1.62,1.21,2.23.51.61,1.13,1.08,1.84,1.42.71.34,1.49.51,2.33.51"/>
          <path class="cls-7" d="M751.56,167.44c.13-.05.33-.1.59-.14.26-.04.53-.08.81-.1.28-.03.57-.06.87-.08.29-.03.57-.05.81-.08v-13.12c-.59,0-1.15-.1-1.66-.3-.51-.2-.81-.53-.89-.99-.03-.22-.03-.46,0-.73l5.59-.45-.08,2.27v1.78c.19-.41.46-.86.83-1.36.36-.5.8-.96,1.32-1.37.51-.42,1.09-.78,1.74-1.07s1.36-.45,2.14-.45c.54,0,1.05.07,1.52.2.47.13.86.41,1.16.81l-.41,3.32c-.24.03-.47.03-.69,0-.46-.06-.81-.24-1.05-.55-.24-.31-.39-.81-.45-1.48-.11-.03-.27-.04-.48-.04-.7,0-1.38.21-2.03.63-.65.42-1.23.93-1.76,1.54-.53.61-.96,1.23-1.3,1.88s-.52,1.19-.55,1.62v7.85c.24.03.54.06.89.08.35.03.71.06,1.07.08.36.03.71.06,1.03.1.33.04.55.09.69.14l.08,1.9h-9.88l.08-1.9Z"/>
          <path class="cls-7" d="M767.8,153.79c-.08-.38-.1-.73-.04-1.03.05-.28.15-.52.3-.74.15-.22.44-.36.87-.41l1.94-.08.73-4.57,2.19-.41v5.06h5.35v2.19h-5.35v9.29c0,1.42.17,2.48.51,3.17.33.68,1.06,1.03,2.16,1.03.49,0,.97-.05,1.44-.14.47-.09.97-.26,1.48-.51l.2,2.15c-.51.3-1.13.53-1.84.69-.72.16-1.42.25-2.13.25-1.78,0-3.02-.51-3.73-1.52-.7-1.01-1.05-2.57-1.05-4.67v-9.74h-3.04Z"/>
          <path class="cls-7" d="M806.72,169.71c-2.02,0-3.9-.33-5.61-.99-1.72-.66-3.2-1.6-4.46-2.82s-2.23-2.66-2.94-4.35c-.7-1.69-1.05-3.54-1.05-5.57,0-2.4.38-4.5,1.13-6.28.76-1.78,1.77-3.25,3.04-4.41,1.27-1.16,2.75-2.03,4.45-2.59,1.7-.57,3.48-.85,5.35-.85,1.05,0,2.07.1,3.06.31.99.21,1.89.46,2.71.76.82.3,1.54.62,2.15.95.61.33,1.06.61,1.36.85l-.32,5.51c-.57.08-1.05.02-1.44-.18-.39-.2-.71-.52-.95-.95-.24-.43-.43-.94-.57-1.54-.13-.59-.22-1.24-.24-1.94-.7-.43-1.57-.78-2.61-1.03-1.04-.26-2.07-.38-3.1-.38-1.51,0-2.91.27-4.19.81-1.28.54-2.4,1.31-3.36,2.32-.96,1.01-1.71,2.25-2.25,3.72-.54,1.47-.81,3.12-.81,4.95,0,1.67.28,3.21.85,4.61.57,1.4,1.35,2.6,2.33,3.6.99,1,2.14,1.77,3.46,2.32,1.32.55,2.74.83,4.25.83.73,0,1.46-.06,2.21-.18.74-.12,1.47-.28,2.19-.49.72-.2,1.38-.43,1.99-.69.61-.26,1.13-.52,1.56-.79l.16,2.51c-1.19.67-2.51,1.18-3.97,1.5-1.46.32-2.92.49-4.37.49"/>
          <path class="cls-7" d="M827.31,167.2c.64.06,1.1.13,1.4.24l.08,1.91h-9.27l.04-1.91c.13-.05.33-.1.59-.14.26-.04.53-.08.83-.1.3-.03.59-.05.89-.08.3-.03.57-.05.81-.08v-25.03c-.62,0-1.15-.11-1.58-.32-.43-.22-.69-.55-.77-1.01-.08-.22-.1-.46-.04-.73l5.55-.41-.2,2.35v25.15c.48.06,1.04.11,1.68.16"/>
          <path class="cls-7" d="M837.56,166.02c.82.87,1.94,1.3,3.34,1.3,1.02,0,1.93-.33,2.73-.99.8-.66,1.48-1.44,2.04-2.33v-10.04c-.54-.06-1.06-.12-1.56-.19-.5-.07-.9-.14-1.2-.23l.08-1.94h2.75l2.87-.04v13.2c0,.38.03.71.08,1,.05.28.11.53.16.75.08.24.16.45.24.61l2.87.45v1.78c-.3.06-.6.11-.89.16-.27.05-.57.1-.89.14-.32.04-.66.06-1.01.06-.51,0-.94-.04-1.29-.1-.35-.07-.68-.24-.97-.51-.3-.22-.55-.58-.75-1.09-.2-.51-.34-1.04-.43-1.58-.62.86-1.44,1.62-2.47,2.27-1.02.65-2.14.97-3.36.97-.89,0-1.74-.13-2.53-.38-.8-.26-1.49-.64-2.09-1.17-.6-.52-1.07-1.19-1.42-2-.35-.81-.53-1.75-.53-2.83v-9.29c-.62,0-1.19-.12-1.72-.37-.53-.25-.83-.61-.91-1.07-.03-.22-.03-.47,0-.74l5.75-.36-.16,2.48v8.85c0,1.3.41,2.38,1.23,3.25"/>
          <path class="cls-7" d="M855.6,142.01c-.6,0-1.13-.11-1.62-.32-.48-.22-.78-.55-.89-1.01-.03-.13-.05-.26-.06-.36-.01-.11,0-.23.02-.37l5.71-.4-.2,2.47v12.03c.78-.78,1.67-1.44,2.65-1.98.99-.54,2.09-.81,3.3-.81s2.31.23,3.28.67c.97.45,1.81,1.07,2.51,1.86.7.8,1.24,1.74,1.62,2.84.38,1.09.57,2.29.57,3.58s-.22,2.61-.67,3.77c-.45,1.16-1.08,2.17-1.9,3.02-.83.85-1.81,1.52-2.96,2.01-1.15.48-2.41.73-3.79.73-.7,0-1.48-.11-2.33-.34-.85-.23-1.71-.59-2.57-1.07-.16.3-.38.52-.66.67-.28.15-.55.27-.82.35-.27.08-.51.12-.74.12s-.38-.03-.46-.08v-27.34ZM863.55,153.59c-.57,0-1.1.09-1.58.26-.49.17-.94.4-1.34.68-.41.28-.79.58-1.14.91-.35.32-.66.64-.93.97v9.46c.81.54,1.57.92,2.28,1.15.7.23,1.48.34,2.32.34.89,0,1.73-.17,2.5-.5.77-.33,1.45-.81,2.03-1.43.58-.62,1.04-1.36,1.36-2.24.33-.87.49-1.85.49-2.92,0-.97-.15-1.86-.45-2.67s-.71-1.53-1.24-2.12c-.53-.59-1.16-1.05-1.89-1.39-.73-.34-1.53-.5-2.4-.5"/>
        </g>
      </g>
      <g>
        <polygon class="cls-7" points="233.22 107.55 269.37 129.27 269.44 129.31 287.9 129.65 288.98 122.51 283.35 121.07 273.41 120.73 265.14 114 250.83 97.11 247.86 89.21 270.2 91.82 285.33 99.72 289.77 98.21 291.43 93.27 284.67 92.65 284.34 85.44 287.52 83.38 296.19 87.08 295.66 91.89 300.44 89.21 305.47 86.4 304.34 82.42 303.06 81 296.92 74.18 294.8 68.27 278.85 58.52 266.79 53.78 264.11 45.32 257.45 49.57 255.6 55.43 233.22 42.8 208.98 41.49 181.37 42.66 165.94 42.11 128.4 37.24 100.65 39.23 84.76 48.43 67.34 64.98 54.96 84.27 39.14 101.71 19.67 113.11 0 112.76 .33 120.25 7.68 124.16 26.35 122.86 47.08 110.98 74.69 76.92 91.32 58.8 106.41 54.81 96.55 63.46 91.38 72.39 91.12 81.18 82.31 87.5 78.73 86.74 58.21 121.21 58.99 123.52 60.66 128.42 80.72 128.63 79.59 122.51 75.62 120.73 71.65 120.59 89.13 104.39 104.1 103.77 117.21 96.7 129.92 83.1 132.63 99.72 128.2 99.99 142.3 124.16 150.51 129.65 167.27 129.65 165.74 124.68 163.49 121.96 156.74 122.45 152.44 119.91 147.4 111.12 147.4 105.14 153.16 99.24 154.29 92.78 165.61 95.26 188.52 93.61 185.74 101.98 176.41 111.19 173.82 120.46 177.27 130.14 197.06 130.14 197 124.68 192.1 120.52 186.27 120.39 193.03 112.21 204.42 102.53 212.69 98.76 224.88 99.24 233.22 107.55"/>
        <polygon class="cls-23" points="264.11 45.32 257.45 49.57 255.6 55.43 266.79 53.79 264.11 45.32"/>
        <polygon class="cls-14" points="54.96 84.27 74.69 76.92 67.34 64.98 54.96 84.27"/>
        <polygon class="cls-1" points="300.03 83.69 303.06 81 296.92 74.18 285.41 71.85 300.03 83.69"/>
        <polygon class="cls-19" points="289.45 72.67 285.99 67.78 279.97 67.45 285.41 71.85 296.92 74.18 294.8 68.27 285.99 67.78 289.45 72.67"/>
        <polygon class="cls-21" points="84.76 48.43 106.41 54.81 100.65 39.23 84.76 48.43"/>
        <polygon class="cls-35" points="67.34 64.98 91.32 58.79 106.41 54.81 84.76 48.43 67.34 64.98"/>
        <polygon class="cls-4" points="74.69 76.92 91.32 58.8 67.34 64.98 74.69 76.92"/>
        <polygon class="cls-41" points="171.51 52.41 149.85 57.08 128.2 61.75 150.65 66.31 191.47 61.58 171.51 52.41"/>
        <polygon class="cls-8" points="265.97 66.42 279.97 67.45 266.79 53.78 255.6 55.43 258.82 61.75 265.97 66.42"/>
        <polygon class="cls-22" points="233.22 42.8 208.98 41.49 227.83 59 233.22 42.8"/>
        <polygon class="cls-12" points="227.82 59 191.47 61.58 192.66 75.58 211.53 69.1 227.82 59"/>
        <polygon class="cls-9" points="244.61 67.45 258.82 61.75 255.6 55.43 233.22 42.8 227.83 59 244.61 67.45"/>
        <polygon class="cls-32" points="150.65 66.31 165.45 75.58 192.66 75.58 191.47 61.58 150.65 66.31"/>
        <polygon class="cls-29" points="47.08 110.98 74.69 76.92 54.96 84.27 47.08 110.98"/>
        <polygon class="cls-28" points="211.53 69.1 192.66 75.58 216.7 81.56 228.28 75.71 244.61 67.45 227.83 59 211.53 69.1"/>
        <polygon class="cls-18" points="150.51 129.66 152.44 119.91 147.4 111.12 142.3 124.16 150.51 129.66"/>
        <polygon class="cls-16" points="173.82 120.45 177.27 130.14 197 124.68 192.1 120.52 186.27 120.39 176.41 111.19 173.82 120.45"/>
        <polygon class="cls-11" points="39.13 101.71 47.08 110.98 54.96 84.27 39.13 101.71"/>
        <polygon class="cls-38" points="167.27 129.66 165.75 124.68 163.49 121.97 156.74 122.45 152.43 119.91 150.52 129.66 167.27 129.66"/>
        <polygon class="cls-31" points="197.07 130.14 197 124.68 177.27 130.14 197.07 130.14"/>
        <polygon class="cls-2" points="285.34 99.72 289.77 98.21 291.43 93.27 284.67 92.65 285.14 99.24 284.67 92.65 270.2 91.82 285.34 99.72"/>
        <polygon class="cls-16" points="269.44 129.31 288.98 122.52 283.35 121.07 273.42 120.73 265.14 114 269.37 129.27 269.44 129.31"/>
        <polygon class="cls-31" points="287.9 129.66 288.98 122.52 269.44 129.31 287.9 129.66"/>
        <polygon class="cls-19" points="249.5 110.84 249.5 110.84 233.22 107.55 269.37 129.27 265.14 114 249.5 110.84"/>
        <polygon class="cls-5" points="19.67 113.11 .33 120.25 7.68 124.16 26.36 122.86 39.14 101.71 19.67 113.11"/>
        <polygon class="cls-34" points="26.36 122.86 47.08 110.98 39.14 101.71 26.36 122.86"/>
        <polygon class="cls-25" points="0 112.76 .33 120.25 19.67 113.11 0 112.76"/>
        <polygon class="cls-5" points="78.73 86.74 58.21 121.21 58.99 123.52 71.65 120.59 82.31 87.5 78.73 86.74"/>
        <polygon class="cls-10" points="71.65 120.59 89.13 104.39 82.31 87.5 71.65 120.59"/>
        <polygon class="cls-25" points="60.66 128.42 80.72 128.63 79.6 122.51 75.62 120.73 71.65 120.59 58.99 123.52 60.66 128.42"/>
        <polygon class="cls-37" points="128.2 99.99 142.3 124.16 147.4 111.12 132.64 99.72 128.2 99.99"/>
        <polygon class="cls-42" points="285.99 67.78 285.98 67.77 285.99 67.78 294.8 68.27 278.85 58.52 266.79 53.78 279.97 67.45 285.99 67.78"/>
        <polygon class="cls-3" points="228.28 75.7 216.7 81.56 205.73 86.25 204.42 102.53 212.69 98.76 225.84 87.12 228.28 75.7"/>
        <polygon class="cls-27" points="228.28 75.7 247.86 89.21 244.61 67.45 228.28 75.7"/>
        <polygon class="cls-26" points="227.82 59 208.99 41.49 191.47 61.58 227.82 59"/>
        <polygon class="cls-15" points="225.84 87.12 238.98 94.98 250.83 97.11 247.85 89.21 228.28 75.7 225.84 87.12"/>
        <polygon class="cls-22" points="192.66 75.58 165.45 75.58 165.61 95.26 189.28 83.69 192.66 75.58"/>
        <polygon class="cls-17" points="216.7 81.56 192.66 75.58 189.28 83.69 165.61 95.26 188.52 93.61 205.74 86.25 216.7 81.56"/>
        <polygon class="cls-6" points="188.52 93.61 185.74 101.99 190.59 108.79 193.03 112.22 204.42 102.53 205.73 86.25 188.52 93.61"/>
        <polygon class="cls-19" points="185.74 101.98 176.41 111.18 186.27 120.39 193.03 112.22 190.59 108.79 185.74 101.98"/>
        <polygon class="cls-20" points="225.84 87.12 212.69 98.76 224.88 99.24 238.98 94.98 225.84 87.12"/>
        <polygon class="cls-31" points="285.41 71.85 285.41 71.85 279.97 67.45 265.97 66.42 275.5 73.83 284.34 85.44 287.52 83.38 296.19 87.09 300.03 83.69 285.41 71.85"/>
        <polygon class="cls-8" points="296.19 87.08 295.66 91.89 300.44 89.21 300.03 83.69 296.19 87.08"/>
        <polygon class="cls-16" points="303.06 81 300.03 83.69 300.44 89.21 305.47 86.4 304.34 82.41 303.06 81"/>
        <polygon class="cls-31" points="270.2 91.82 284.67 92.65 284.34 85.44 264.28 81.56 270.2 91.82"/>
        <polygon class="cls-42" points="265.97 66.42 264.28 81.56 284.34 85.44 275.5 73.83 265.97 66.42"/>
        <polygon class="cls-20" points="247.86 89.21 270.2 91.82 264.28 81.56 247.86 89.21"/>
        <polygon class="cls-39" points="265.97 66.42 258.82 61.75 244.61 67.45 247.86 89.21 264.28 81.56 265.97 66.42"/>
        <polygon class="cls-36" points="224.88 99.24 233.22 107.55 249.5 110.84 250.84 97.11 238.98 94.98 224.88 99.24"/>
        <polygon class="cls-6" points="265.14 114 250.83 97.11 249.5 110.84 265.14 114"/>
        <polygon class="cls-37" points="91.12 81.18 82.31 87.5 89.13 104.39 104.21 82.49 91.12 81.18"/>
        <polygon class="cls-40" points="128.4 37.24 100.65 39.23 106.41 54.81 128.2 61.75 128.4 37.24"/>
        <polygon class="cls-35" points="106.41 54.81 96.55 63.47 91.38 72.39 91.12 81.18 120.28 75.58 106.41 54.81"/>
        <polygon class="cls-13" points="149.85 57.08 128.4 37.24 128.2 61.75 149.85 57.08"/>
        <polygon class="cls-30" points="128.2 61.75 106.41 54.81 120.29 75.58 128.2 61.75"/>
        <polygon class="cls-32" points="191.47 61.58 208.99 41.49 171.51 52.41 191.47 61.58"/>
        <polygon class="cls-22" points="171.51 52.41 208.99 41.49 181.37 42.66 165.94 42.11 149.85 57.08 171.51 52.41"/>
        <polygon class="cls-33" points="165.94 42.11 128.4 37.24 149.85 57.08 165.94 42.11"/>
        <polygon class="cls-44" points="132.64 99.72 147.4 111.12 147.4 105.14 153.16 99.24 154.29 92.78 139.23 82.69 132.64 99.72"/>
        <polygon class="cls-24" points="154.29 92.78 165.61 95.26 165.45 75.58 154.29 92.78"/>
        <polygon class="cls-43" points="129.92 83.1 132.63 99.72 139.22 82.69 129.92 83.1"/>
        <polygon class="cls-26" points="150.65 66.31 139.22 82.69 154.29 92.78 165.45 75.58 150.65 66.31"/>
        <polygon class="cls-33" points="150.65 66.31 128.2 61.75 120.28 75.58 129.92 83.1 139.22 82.69 150.65 66.31"/>
        <polygon class="cls-44" points="89.13 104.39 104.09 103.77 104.21 82.49 89.13 104.39"/>
        <polygon class="cls-43" points="91.12 81.18 104.21 82.49 104.09 103.77 117.21 96.7 120.29 75.58 91.12 81.18"/>
        <polygon class="cls-13" points="117.21 96.7 129.92 83.1 120.28 75.58 117.21 96.7"/>
      </g>
    </g>
  </g>
</svg>