<?xml version="1.0" encoding="UTF-8"?>
<svg id="Capa_2" data-name="Capa 2" xmlns="http://www.w3.org/2000/svg" viewBox="0 0 900 190.92">
  <defs>
    <style>
      .cls-1 {
        fill: #47474a;
      }

      .cls-2 {
        fill: #d71f27;
      }
    </style>
  </defs>
  <g id="Capa_1-2" data-name="Capa 1">
    <g>
      <path class="cls-2" d="M191.29,0c.03.63.08,1.27.08,1.9,0,62.29,0,124.58,0,186.87v2.15H.34c-.36-1.22-.4-61.85-.01-63.57h63.5v-63.66c2.48-.04,4.8-.01,7.11-.02,2.34,0,4.68,0,7.01,0h42.4c2.33,0,4.66,0,7.18,0,.04-.71.1-1.32.1-1.93,0-8.38,0-16.77,0-25.15,0-11.57,0-23.13,0-34.7,0-.63-.07-1.27-.1-1.9,21.25,0,42.51,0,63.76,0Z"/>
      <path class="cls-2" d="M111.58,0c.03.63.08,1.27.08,1.9,0,14.54,0,29.07,0,43.61v2.19h-63.71v63.4c-1.35.36-43.71.51-47.72.2-.05-.37-.14-.76-.16-1.16-.03-.53,0-1.06,0-1.59,0-35.39,0-70.77,0-106.16,0-.79-.04-1.59-.06-2.38,37.19,0,74.39,0,111.58,0Z"/>
      <g>
        <path class="cls-1" d="M900,102.4c-.11.39-.29.78-.32,1.17-1.65,19.55-12.96,39.14-36.93,46.11-4.81,1.4-9.73,2.16-14.73,2.44-9.28.53-18.37-.41-27.1-3.67-16.48-6.15-26.81-17.96-31.48-34.79-2.23-8.06-2.71-16.29-2.04-24.6.52-6.49,1.86-12.8,4.4-18.81,6.42-15.18,17.78-24.78,33.56-29.24,8.48-2.4,17.15-2.82,25.89-1.97,8.29.81,16.14,3.04,23.39,7.22,10.2,5.89,17.22,14.46,21.45,25.38,1.69,4.37,2.76,8.9,3.44,13.53.11.73.07,1.48.15,2.22.04.34.21.67.31,1v14.01ZM844.24,131.41c.71-.06,2.09-.13,3.46-.29,9.92-1.17,17.21-6.2,21.87-15.01,2.33-4.42,3.56-9.17,4.12-14.11.82-7.19.44-14.3-1.69-21.25-1.83-5.96-4.86-11.2-9.83-15.1-7.48-5.88-16.06-7.19-25.16-5.42-9.65,1.87-16.23,7.71-20.18,16.57-2.01,4.5-2.96,9.26-3.35,14.17-.5,6.3-.05,12.5,1.71,18.58,1.61,5.55,4.29,10.5,8.58,14.47,5.58,5.17,12.32,7.28,20.48,7.4Z"/>
        <path class="cls-1" d="M773.79,80.92h-26.72c-.14-.39-.3-.77-.41-1.17-.69-2.51-1.6-4.95-2.88-7.22-3.03-5.34-7.41-9.1-13.3-10.98-6.94-2.22-13.93-2.18-20.82.12-8.12,2.72-13.47,8.41-16.67,16.23-2.55,6.25-3.32,12.8-3.09,19.49.21,6.27,1.39,12.33,4.36,17.93,4.72,8.91,12.16,13.9,22.16,15.16,4.81.61,9.55.33,14.17-1.14,7.54-2.4,12.52-7.53,15.43-14.77.45-1.12.82-2.28,1.25-3.49h27.32c-.15,2.25-.65,4.35-1.36,6.38-5.93,17.06-17.56,28.05-35.11,32.66-6.31,1.66-12.75,2.27-19.25,2.14-8.33-.17-16.48-1.42-24.25-4.62-13.83-5.7-23.08-15.69-27.96-29.77-2-5.75-2.98-11.69-3.32-17.76-.43-7.74.15-15.38,2.36-22.82,5.77-19.39,18.62-31.51,38.14-36.62,7.99-2.09,16.14-2.41,24.35-1.66,7.04.64,13.82,2.26,20.2,5.34,11.47,5.53,19.35,14.3,23.51,26.33,1.01,2.9,1.68,5.91,1.88,9,.02.36,0,.72,0,1.23Z"/>
        <path class="cls-1" d="M308.07,111.07h27.37c-.18,1.07-.26,2.06-.52,3.01-4.04,15.02-12.68,26.3-27.01,32.89-5.84,2.69-12.01,4.15-18.39,4.83-8.9.95-17.71.51-26.4-1.65-7.52-1.86-14.4-5.06-20.43-9.98-7.95-6.48-13.16-14.79-15.96-24.57-3.61-12.62-3.89-25.37-.3-38,5.55-19.52,18.48-31.71,38.05-36.9,7.98-2.12,16.13-2.43,24.34-1.71,7.48.66,14.65,2.43,21.35,5.85,10.64,5.42,18.07,13.73,22.19,24.95,1.19,3.25,1.89,6.62,2.26,10.06.03.31,0,.62,0,1.02h-26.8c-.56-1.64-1.04-3.27-1.67-4.84-3.69-9.29-10.6-14.43-20.45-15.73-4.91-.65-9.76-.38-14.5,1.1-8.16,2.56-13.74,7.99-17.14,15.73-1.88,4.27-2.82,8.76-3.23,13.39-.51,5.8-.18,11.55,1.28,17.2,1.62,6.25,4.55,11.76,9.48,16.06,4.41,3.85,9.6,5.94,15.38,6.69,4.43.57,8.81.4,13.12-.75,8-2.14,13.41-7.24,16.56-14.81.51-1.22.91-2.48,1.4-3.83Z"/>
        <path class="cls-1" d="M361.81,149.14h-27.42c14.88-35.9,29.7-71.67,44.53-107.44h31.45c14.76,35.73,29.52,71.47,44.29,107.22-1.28.35-24.85.46-27.36.15-.65-1.73-1.32-3.51-1.98-5.29-2.05-5.52-4.09-11.03-6.13-16.55-.55-1.49-.56-1.5-2.15-1.5-14.93,0-29.85,0-44.78,0-1.6,0-1.61,0-2.16,1.48-2.55,6.74-5.09,13.49-7.64,20.23-.2.54-.42,1.08-.66,1.7ZM411.59,107.22c-.15-.53-.22-.89-.34-1.23-5.5-15.13-11.01-30.26-16.52-45.4-.01-.04-.09-.06-.14-.07-.04,0-.08.01-.13.02-1.34,2.7-16.51,45.51-16.52,46.67h33.64Z"/>
        <path class="cls-1" d="M493.81,149.13h-26.33V41.77c.34-.04.69-.13,1.04-.13,17.43,0,34.85-.04,52.28.01,6.57.02,13.02.94,19.15,3.45,10.87,4.46,17.77,12.28,19.95,23.93,1.3,6.95.87,13.85-1.57,20.53-3.42,9.34-10.09,15.52-19.22,19.17-5.48,2.19-11.21,3.22-17.1,3.29-8.71.1-17.42.1-26.13.15-.62,0-1.25,0-2.06,0v36.96ZM493.88,93.3c.55.04,1.01.11,1.48.11,5.95,0,11.9.05,17.84-.02,2.97-.03,5.94-.21,8.8-1.15,4.06-1.33,7.3-3.66,9.12-7.62,1.57-3.42,1.9-7.02,1.34-10.73-.75-4.95-3.2-8.68-7.73-10.96-3.3-1.66-6.87-2.18-10.5-2.21-6.32-.07-12.64-.02-18.96-.01-.46,0-.91.07-1.4.11v32.48Z"/>
        <path class="cls-1" d="M573.56,149.06V41.72h81.75v19.58c-3.04.09-6.1.03-9.15.04-3.08.01-6.16,0-9.24,0h-37.01c0,7.77,0,15.38,0,23.2,4.4.07,8.69.02,12.97.03,4.3,0,8.61,0,12.91,0h13.12c0,6.55,0,12.99,0,19.61h-38.89v25.25h56.32v19.52c-1.12.32-80.05.44-82.77.11Z"/>
      </g>
    </g>
  </g>
</svg>