<?xml version="1.0" encoding="UTF-8"?>
<svg id="Capa_2" data-name="Capa 2" xmlns="http://www.w3.org/2000/svg" viewBox="0 0 700 329.66">
  <defs>
    <style>
      .cls-1, .cls-2 {
        fill: #f26f21;
      }

      .cls-3 {
        fill: #fff;
        stroke: #fff;
        stroke-miterlimit: 3.86;
        stroke-width: .39px;
      }

      .cls-2 {
        stroke: #f26f21;
        stroke-width: 1.95px;
      }

      .cls-4, .cls-5 {
        fill: #77787b;
      }

      .cls-5 {
        fill-rule: evenodd;
      }
    </style>
  </defs>
  <g id="Capa_1-2" data-name="Capa 1">
    <g>
      <g>
        <path class="cls-5" d="M304.26,234.98v-76.07c0-84.02-68.11-152.13-152.13-152.13S0,74.89,0,158.91c0,.1,30.42.1,30.42,0,0-67.22,54.49-121.71,121.7-121.71s121.71,54.49,121.71,121.71v76.07h30.43Z"/>
        <path class="cls-1" d="M152.24,197.53l-25.93-25.93v-39.29s25.93,25.92,25.93,25.92l59.02-59.02c-15.1-15.1-35.97-24.44-59.02-24.44-46.09,0-83.46,37.37-83.46,83.47s37.37,83.48,83.46,83.48,83.47-37.37,83.47-83.48c0-12.9-2.93-25.12-8.15-36.02l-75.31,75.31Z"/>
        <path class="cls-4" d="M203.05,309.97c-7.59-2.33-9.13-8.89-8.66-16.14h10.97c0,5,.21,9.21,6.26,9.21,3.71,0,5.52-2.38,5.52-5.95,0-9.43-22.1-10.02-22.1-25.61,0-8.2,3.92-14.73,17.31-14.73,10.68,0,15.99,4.79,15.26,15.74h-10.68c0-3.92-.66-7.9-5.09-7.9-3.56,0-5.67,1.96-5.67,5.58,0,9.95,22.1,9.07,22.1,25.54,0,9.07-4.46,12.79-9.91,14.26h-15.31Z"/>
        <path class="cls-4" d="M254.98,273.73c.08-4.86-.72-9.13-6.54-9.13-6.83,0-6.83,9.21-6.83,19.37,0,16.38,1.61,19.29,7.85,19.29,1.82,0,3.79-.44,5.45-1.02v-11.6h-5.96v-8.06h16.94v26.55c-1.17.23-3.01.54-5.09.84h-18.78c-10.17-2.53-11.54-10.59-11.54-26.59,0-13.21.66-26.62,18.61-26.62,10.76,0,17.45,6.02,16.8,16.97h-10.91Z"/>
        <path class="cls-4" d="M286.63,256.76c9.59-.02,14.83,3.73,15.56,12.16v3.58h-10.69c0-3.81-.95-7.9-5.38-7.9-3.57,0-5.68,1.96-5.68,5.58,0,9.19,18.89,9.15,21.75,22.08v7.59c-1.16,6.12-5.01,8.9-9.54,10.12h-15.31c-7.6-2.33-9.13-8.89-8.67-16.14h10.97c0,5,.22,9.21,6.26,9.21,3.7,0,5.52-2.38,5.52-5.95,0-9.43-22.1-10.02-22.1-25.61,0-8.2,3.93-14.7,17.31-14.73h0Z"/>
        <polygon class="cls-1" points="161.39 309.95 323.76 309.95 323.76 312.05 161.39 312.05 161.39 309.95 161.39 309.95"/>
        <polygon class="cls-1" points="302.11 247.11 304.21 247.11 304.21 322.88 302.11 322.88 302.11 247.11 302.11 247.11"/>
        <g>
          <path class="cls-2" d="M2.48,176.01l-.31-2.95,23.12-2.43.31,2.95-23.12,2.44Z"/>
          <path class="cls-2" d="M10.54,183.71l-.66.14c-3.09.63-3.67,2.79-3.28,4.65.47,2.3,1.81,3.87,4.53,3.31,5.04-1.04,2.38-11.14,9.22-12.54,4.04-.83,6.77,1.6,7.55,5.41.86,4.16-.68,6.91-5.36,7.68l-.62-3.03c2.5-.48,3.98-1.61,3.41-4.35-.36-1.74-1.6-3.32-4.06-2.81-5.01,1.03-2.19,11.1-9.41,12.58-4.79.98-7.02-2.01-7.79-5.76-1.44-6.7,3.7-7.76,5.88-8.14l.59,2.87Z"/>
          <path class="cls-2" d="M15.87,199.87l7.18-2.58c4.36-1.57,7.95-.32,9.62,4.31,1.66,4.63-.32,7.88-4.68,9.44l-7.18,2.58c-6.06,2.17-9.26.79-10.92-3.84-1.66-4.63-.08-7.73,5.98-9.91ZM19.66,210.82l7.39-2.65c4.57-1.64,3.59-4.84,3.28-5.73-.32-.88-1.6-3.97-6.17-2.33l-7.39,2.65c-4.79,1.72-5.5,3.55-4.55,6.18.95,2.63,2.66,3.59,7.44,1.88Z"/>
          <path class="cls-2" d="M22.29,235.13l-1.46-2.57,16.58-9.44-3.61-1.8,2.46-1.4c.65.48,3.09,1.53,4.18,1.95l1.26,2.21-19.41,11.04Z"/>
          <path class="cls-2" d="M29.86,237.28l2.1-1.48,15.34-3.11,2.27,3.21-11.7,8.26,1.52,2.15-2.1,1.49-1.52-2.16-4.44,3.14-1.6-2.26,4.44-3.14-4.31-6.1ZM36.27,241.9l9.49-6.7-.04-.05-12.28,2.76,2.82,4Z"/>
          <path class="cls-2" d="M52.4,256.57c-4.34,3.89-8.58,7.75-12.63,3.24-4.04-4.51.24-8.31,4.58-12.2,4.48-4.02,8.59-7.84,12.67-3.28,4.09,4.55-.15,8.23-4.63,12.25ZM45.9,250.19c-2.8,2.52-6.48,5.51-4.28,7.96,2.19,2.44,5.57-.89,8.37-3.4,4.48-4.02,7.22-6.52,5.19-8.77-2.02-2.25-4.8.2-9.28,4.22Z"/>
          <path class="cls-2" d="M64.54,267.63c-3.85,4.37-7.62,8.68-12.15,4.68-4.54-4-.72-8.28,3.13-12.64,3.98-4.51,7.61-8.78,12.2-4.73,4.59,4.04.81,8.18-3.17,12.69ZM57.35,262.06c-2.49,2.82-5.79,6.22-3.33,8.39,2.46,2.17,5.42-1.53,7.91-4.35,3.98-4.51,6.4-7.31,4.13-9.31-2.27-2-4.74.75-8.72,5.27Z"/>
          <path class="cls-2" d="M67.83,283.71l-2.42-1.7,10.95-15.63-4.03-.08,1.63-2.32c.79.16,3.45.06,4.62-.03l2.08,1.46-12.82,18.29Z"/>
        </g>
        <g>
          <path class="cls-3" d="M55.96,67.33l.32.31c1.52,1.46,2.92.96,3.8.04,1.09-1.13,1.44-2.46.11-3.74-2.48-2.38-7.02,2.91-10.38-.32-1.98-1.9-1.68-4.32.12-6.2,1.96-2.04,4.05-2.24,6.24.04l-1.43,1.49c-1.21-1.19-2.38-1.58-3.68-.23-.82.85-1.22,2.14,0,3.29,2.46,2.36,6.92-3,10.47.41,2.35,2.26,1.55,4.61-.22,6.46-3.13,3.33-5.66.91-6.7-.15l1.35-1.41Z"/>
          <path class="cls-3" d="M61.61,46.99l1.51-1.31,3.1,10.02,3.87,4.46-1.49,1.3-3.87-4.46-9.44-4.51,1.67-1.45,7.2,3.67-2.55-7.71Z"/>
          <path class="cls-3" d="M73.38,51.59l.26.37c1.23,1.71,2.69,1.47,3.72.73,1.27-.91,1.86-2.15.78-3.65-2-2.79-7.42,1.58-10.13-2.2-1.6-2.23-.87-4.55,1.24-6.07,2.3-1.65,4.39-1.46,6.12,1.17l-1.67,1.2c-.97-1.39-2.06-1.98-3.57-.89-.96.69-1.58,1.88-.61,3.23,1.99,2.77,7.34-1.68,10.21,2.31,1.9,2.65.69,4.81-1.39,6.3-3.69,2.7-5.72-.14-6.55-1.37l1.58-1.14Z"/>
          <path class="cls-3" d="M84.32,31.64l.87,1.48-3.52,2.06,6.96,11.9-1.71,1-6.96-11.9-3.52,2.06-.87-1.48,8.75-5.12Z"/>
          <path class="cls-3" d="M93.99,44.11l-6.62-14.02,7.22-3.41.73,1.55-5.44,2.57,2.13,4.5,5.05-2.38.73,1.55-5.05,2.38,2.29,4.85,5.55-2.62.73,1.55-7.34,3.46Z"/>
          <path class="cls-3" d="M105.43,38.95l-1.75.59-4.92-14.7,3.04-1.01,7.83,11.1h.04s-.38-13.61-.38-13.61l3.1-1.04,4.92,14.7-1.87.63-4.37-13.08h-.04s.26,14.46.26,14.46l-1.77.59-8.4-11.73h-.04s4.37,13.09,4.37,13.09Z"/>
          <path class="cls-3" d="M130.35,21.07c-.12-.87-.32-1.73-.81-2.15-.48-.42-1.42-.44-1.82-.38-1.61.26-2.09,1.34-2.12,1.56-.04.18-.35.62.07,3.25l.66,4.09c.61,3.75,1.91,4,3.41,3.75.59-.1,2.36-.6,1.89-3.59l2.01-.33c.87,4.82-2.54,5.37-3.54,5.53-1.91.31-4.85.66-5.82-5.28l-.7-4.32c-.7-4.32,1.01-5.86,4.01-6.35,3.03-.49,4.45.89,4.74,3.88l-2.01.33Z"/>
          <path class="cls-3" d="M137.21,31.52l-1.09-15.46,7.97-.56.12,1.71-6,.42.35,4.97,5.57-.39.12,1.71-5.57.39.38,5.35,6.13-.43.12,1.71-8.09.57Z"/>
          <path class="cls-3" d="M149.93,23.81l-.09,7.12-1.97-.02.19-15.49,5.34.07c2.75.03,3.69,1.98,3.66,3.91-.02,1.82-1.05,3.21-2.87,3.5v.04c1.78.3,2.41.91,2.48,4.02.01.67.2,3.09.49,4.06l-2.06-.03c-.54-1.08-.39-3.09-.54-5.15-.13-1.89-1.65-1.99-2.31-2l-2.32-.03ZM149.95,22.09l2.96.04c1.41.02,2.12-1.2,2.13-2.55.01-1.11-.53-2.37-2.05-2.38l-2.98-.04-.06,4.93Z"/>
          <path class="cls-3" d="M169.81,16.49l-.14,1.71-4.06-.34-1.16,13.73-1.97-.17,1.16-13.73-4.06-.34.14-1.71,10.09.85Z"/>
          <path class="cls-3" d="M172.78,32.57l-1.96-.28,2.18-15.34,1.96.28-2.18,15.34Z"/>
          <path class="cls-3" d="M176.26,33.1l3.03-15.2,7.54,1.5-.34,1.68-5.6-1.11-.97,4.88,5.31,1.06-.34,1.68-5.31-1.06-1.38,6.95-1.94-.39Z"/>
          <path class="cls-3" d="M187.92,35.72l-1.91-.5,3.92-14.99,1.91.5-3.92,14.99Z"/>
          <path class="cls-3" d="M201.61,28.23c.3-.83.53-1.68.3-2.28-.23-.6-1.05-1.06-1.43-1.19-1.54-.52-2.47.2-2.6.39-.12.14-.61.38-1.46,2.9l-1.33,3.92c-1.22,3.6-.19,4.43,1.26,4.92.57.19,2.37.58,3.36-2.28l1.93.66c-1.49,4.66-4.77,3.55-5.72,3.23-1.83-.62-4.59-1.7-2.66-7.39l1.41-4.15c1.41-4.15,3.64-4.71,6.53-3.72,2.91.99,3.51,2.87,2.37,5.66l-1.93-.66Z"/>
          <path class="cls-3" d="M212.47,28.05l2.28,1.05-1.92,16.18-2.01-.93.54-3.82-5.44-2.51-2.6,2.86-1.81-.84,10.96-12ZM212.8,30.21l-.04-.02-5.67,6.48,4.5,2.08,1.21-8.54Z"/>
          <path class="cls-3" d="M228.42,36.54l-.86,1.48-3.53-2.04-6.9,11.92-1.71-.99,6.9-11.92-3.53-2.04.86-1.48,8.76,5.07Z"/>
          <path class="cls-3" d="M224.21,52.45l-1.63-1.11,8.75-12.79,1.63,1.11-8.75,12.79Z"/>
          <path class="cls-3" d="M230.81,50.12l3.22-3.93c1.96-2.39,4.43-2.91,6.97-.83,2.54,2.08,2.52,4.61.56,7l-3.22,3.93c-2.72,3.32-5.02,3.63-7.56,1.55-2.54-2.08-2.69-4.4.02-7.72ZM236.74,55.08l3.32-4.05c2.05-2.51.39-4-.09-4.4-.48-.39-2.28-1.72-4.33.78l-3.32,4.05c-2.15,2.62-1.93,3.91-.48,5.09,1.44,1.18,2.75,1.14,4.9-1.48Z"/>
          <path class="cls-3" d="M255.92,60.03l-11.21,10.71-1.87-1.96,5.49-13.71-.03-.03-9.71,9.29-1.22-1.27,11.2-10.71,1.93,2.02-5.42,13.53.03.03,9.59-9.17,1.22,1.27Z"/>
        </g>
      </g>
      <g>
        <path class="cls-5" d="M679.66,237.99v-79.33C679.66,71.03,608.63,0,521.01,0s-158.65,71.03-158.65,158.66c0,.11,31.73.11,31.73,0,0-70.1,56.83-126.93,126.92-126.93s126.93,56.83,126.93,126.93v79.33h31.73Z"/>
        <path class="cls-1" d="M521.13,198.93l-27.04-27.04v-40.97s27.04,27.03,27.04,27.03l61.55-61.55c-15.75-15.75-37.51-25.49-61.55-25.49-48.07,0-87.04,38.97-87.04,87.05s38.97,87.06,87.04,87.06,87.05-38.98,87.05-87.06c0-13.46-3.06-26.2-8.5-37.57l-78.54,78.54Z"/>
        <g>
          <path class="cls-4" d="M574.12,316.2c-7.92-2.43-9.52-9.27-9.03-16.84h11.44c0,5.21.22,9.6,6.53,9.6,3.87,0,5.76-2.49,5.76-6.2,0-9.84-23.05-10.45-23.05-26.7,0-8.55,4.09-15.36,18.05-15.36,11.14,0,16.68,4.99,15.92,16.41h-11.14c0-4.09-.68-8.24-5.31-8.24-3.71,0-5.91,2.04-5.91,5.82,0,10.37,23.05,9.46,23.05,26.64,0,9.46-4.65,13.34-10.33,14.87h-15.96Z"/>
          <path class="cls-4" d="M628.27,278.4c.08-5.07-.75-9.53-6.83-9.53-7.13,0-7.13,9.61-7.13,20.2,0,17.09,1.67,20.12,8.19,20.12,1.9,0,3.95-.46,5.69-1.06v-12.1h-6.21v-8.4h17.67v27.69c-1.22.24-3.14.57-5.3.88h-19.59c-10.61-2.64-12.04-11.04-12.04-27.73,0-13.77.69-27.77,19.41-27.77,11.22,0,18.19,6.28,17.52,17.7h-11.38Z"/>
          <path class="cls-4" d="M661.28,260.7c10-.02,15.47,3.89,16.23,12.68v3.74h-11.15c0-3.98-.99-8.24-5.61-8.24-3.72,0-5.92,2.04-5.92,5.82,0,9.59,19.7,9.54,22.68,23.03v7.92c-1.21,6.39-5.22,9.28-9.95,10.56h-15.96c-7.93-2.43-9.52-9.27-9.04-16.84h11.44c0,5.21.23,9.6,6.53,9.6,3.85,0,5.75-2.49,5.75-6.2,0-9.84-23.05-10.45-23.05-26.7,0-8.55,4.1-15.33,18.05-15.36h0Z"/>
          <polygon class="cls-1" points="530.67 316.18 700 316.18 700 318.37 530.67 318.37 530.67 316.18 530.67 316.18"/>
          <polygon class="cls-1" points="677.42 250.64 679.62 250.64 679.62 329.66 677.42 329.66 677.42 250.64 677.42 250.64"/>
        </g>
        <g>
          <path class="cls-2" d="M364.94,176.49l-.32-3.07,24.11-2.54.32,3.07-24.11,2.54Z"/>
          <path class="cls-2" d="M373.35,184.52l-.69.14c-3.22.66-3.82,2.91-3.42,4.85.49,2.4,1.89,4.03,4.72,3.45,5.26-1.08,2.48-11.62,9.61-13.08,4.21-.87,7.06,1.67,7.88,5.65.89,4.34-.71,7.21-5.59,8.01l-.65-3.16c2.61-.5,4.15-1.67,3.56-4.53-.37-1.81-1.67-3.46-4.24-2.93-5.23,1.08-2.28,11.57-9.81,13.12-5,1.03-7.32-2.09-8.12-6.01-1.51-6.99,3.85-8.09,6.14-8.49l.62,2.99Z"/>
          <path class="cls-2" d="M378.91,201.38l7.49-2.69c4.55-1.63,8.29-.34,10.03,4.5,1.74,4.83-.33,8.21-4.88,9.85l-7.49,2.69c-6.32,2.27-9.65.82-11.39-4.01-1.74-4.83-.08-8.07,6.24-10.33ZM382.86,212.79l7.71-2.77c4.77-1.71,3.75-5.05,3.42-5.97-.33-.92-1.67-4.14-6.44-2.43l-7.71,2.77c-4.99,1.79-5.73,3.7-4.75,6.45.99,2.75,2.77,3.75,7.76,1.96Z"/>
          <path class="cls-2" d="M397.61,235.91c-5.28,3-10.45,5.99-13.57.5-1.73-3.03-.8-6.22,2.44-7.99l1.53,2.68c-1.49.85-2.7,2.31-1.72,4.03,1.48,2.6,4.43,1.15,9.63-1.81l-.03-.06c-1.76.16-2.99-.85-3.87-2.39-.91-1.6-1.79-5.12,3.75-8.27,4.55-2.59,7.75-.82,9.28,1.86,3.15,5.54-1.97,8.34-7.42,11.44ZM397.33,225.26c-2.01,1.15-3.98,2.77-2.66,5.1,1.33,2.33,3.73,1.47,5.74.32,1.84-1.05,3.97-2.8,2.66-5.1-1.31-2.3-3.91-1.37-5.74-.32Z"/>
          <path class="cls-2" d="M408.12,250.55c-4.87,3.63-9.64,7.24-13.41,2.18-3.78-5.06,1.03-8.61,5.91-12.24,5.03-3.75,9.65-7.33,13.47-2.22,3.81,5.11-.93,8.53-5.96,12.28ZM401.97,243.32c-3.15,2.35-7.24,5.11-5.2,7.86,2.05,2.74,5.86-.4,9.01-2.74,5.03-3.75,8.11-6.09,6.22-8.62-1.89-2.53-5-.25-10.03,3.51Z"/>
          <path class="cls-2" d="M420.29,263.78c-4.39,4.2-8.68,8.35-13.04,3.79-4.36-4.56-.02-8.66,4.37-12.86,4.53-4.34,8.68-8.44,13.09-3.84,4.4,4.61.12,8.57-4.42,12.91ZM413.31,257.36c-2.84,2.71-6.56,5.95-4.2,8.42,2.36,2.47,5.77-1.11,8.6-3.82,4.53-4.34,7.3-7.03,5.12-9.31-2.18-2.28-4.99.36-9.52,4.7Z"/>
          <path class="cls-2" d="M422.27,280.76l-2.37-1.98,12.76-15.27-4.18-.43,1.89-2.27c.81.24,3.58.37,4.8.38l2.03,1.7-14.93,17.87Z"/>
        </g>
        <g>
          <path class="cls-3" d="M420.72,63.15l.34.33c1.58,1.52,3.05,1,3.96.05,1.13-1.18,1.5-2.56.11-3.9-2.59-2.48-7.32,3.03-10.82-.33-2.07-1.98-1.75-4.51.12-6.46,2.05-2.13,4.23-2.33,6.51.04l-1.49,1.55c-1.26-1.24-2.49-1.64-3.84-.24-.85.89-1.27,2.23,0,3.44,2.57,2.47,7.22-3.12,10.92.43,2.45,2.36,1.62,4.81-.23,6.73-3.27,3.47-5.9.95-6.98-.16l1.41-1.47Z"/>
          <path class="cls-3" d="M426.61,41.94l1.57-1.36,3.23,10.45,4.04,4.65-1.56,1.35-4.04-4.65-9.84-4.71,1.74-1.51,7.51,3.83-2.66-8.04Z"/>
          <path class="cls-3" d="M438.89,46.73l.28.38c1.28,1.78,2.81,1.54,3.88.76,1.33-.95,1.94-2.25.82-3.81-2.09-2.91-7.74,1.65-10.57-2.29-1.67-2.33-.9-4.75,1.3-6.33,2.4-1.72,4.58-1.52,6.39,1.23l-1.74,1.25c-1.01-1.45-2.15-2.07-3.73-.93-1,.72-1.65,1.96-.63,3.37,2.07,2.89,7.66-1.75,10.65,2.41,1.98,2.76.71,5.02-1.45,6.57-3.84,2.81-5.97-.15-6.83-1.43l1.65-1.19Z"/>
          <path class="cls-3" d="M450.29,25.93l.9,1.55-3.67,2.15,7.26,12.41-1.78,1.04-7.26-12.41-3.67,2.15-.9-1.55,9.12-5.33Z"/>
          <path class="cls-3" d="M460.38,38.93l-6.9-14.62,7.53-3.56.76,1.62-5.67,2.68,2.22,4.7,5.26-2.49.76,1.62-5.26,2.49,2.39,5.06,5.79-2.74.76,1.62-7.65,3.61Z"/>
          <path class="cls-3" d="M472.31,33.55l-1.83.61-5.13-15.34,3.17-1.06,8.17,11.58h.04s-.4-14.19-.4-14.19l3.23-1.08,5.13,15.33-1.95.65-4.56-13.64h-.04s.27,15.09.27,15.09l-1.85.62-8.76-12.23h-.04s4.56,13.65,4.56,13.65Z"/>
          <path class="cls-3" d="M498.3,14.9c-.13-.91-.34-1.8-.84-2.24-.5-.44-1.48-.46-1.9-.39-1.68.27-2.18,1.4-2.21,1.63-.04.19-.37.65.07,3.39l.69,4.26c.63,3.91,1.99,4.17,3.56,3.91.62-.1,2.46-.63,1.98-3.74l2.1-.34c.9,5.02-2.65,5.6-3.69,5.77-1.99.32-5.06.68-6.06-5.5l-.73-4.51c-.73-4.51,1.05-6.11,4.19-6.62,3.16-.51,4.64.92,4.94,4.05l-2.1.34Z"/>
          <path class="cls-3" d="M505.46,25.8l-1.13-16.12,8.31-.58.13,1.79-6.25.44.36,5.18,5.81-.41.13,1.79-5.81.41.39,5.58,6.39-.45.12,1.79-8.44.59Z"/>
          <path class="cls-3" d="M518.72,17.76l-.09,7.43-2.06-.03.2-16.15,5.57.07c2.86.03,3.84,2.06,3.82,4.07-.02,1.9-1.09,3.34-3,3.66v.04c1.85.31,2.52.95,2.59,4.19.01.69.21,3.22.51,4.23l-2.15-.03c-.57-1.13-.41-3.23-.56-5.38-.13-1.97-1.72-2.08-2.41-2.09l-2.41-.03ZM518.74,15.97l3.09.04c1.48.02,2.21-1.25,2.22-2.66.01-1.16-.55-2.47-2.14-2.49l-3.11-.04-.06,5.14Z"/>
          <path class="cls-3" d="M539.45,10.13l-.15,1.78-4.24-.36-1.21,14.32-2.05-.17,1.21-14.32-4.24-.36.15-1.78,10.53.89Z"/>
          <path class="cls-3" d="M542.54,26.9l-2.04-.29,2.27-16,2.04.29-2.27,16Z"/>
          <path class="cls-3" d="M546.18,27.45l3.16-15.85,7.86,1.56-.35,1.76-5.84-1.16-1.01,5.09,5.53,1.1-.35,1.76-5.53-1.1-1.44,7.25-2.02-.4Z"/>
          <path class="cls-3" d="M558.34,30.18l-1.99-.52,4.09-15.63,1.99.52-4.09,15.63Z"/>
          <path class="cls-3" d="M572.61,22.37c.32-.86.55-1.75.31-2.38-.24-.62-1.09-1.1-1.49-1.24-1.61-.55-2.58.21-2.71.4-.12.15-.63.4-1.53,3.03l-1.39,4.09c-1.28,3.75-.2,4.62,1.31,5.13.59.2,2.47.6,3.51-2.38l2.01.68c-1.56,4.86-4.97,3.7-5.97,3.37-1.91-.65-4.79-1.77-2.77-7.71l1.47-4.33c1.47-4.33,3.8-4.91,6.81-3.88,3.03,1.03,3.66,3,2.47,5.9l-2.01-.69Z"/>
          <path class="cls-3" d="M583.94,22.19l2.38,1.1-2.01,16.88-2.09-.97.56-3.98-5.67-2.62-2.71,2.99-1.89-.87,11.43-12.52ZM584.28,24.44l-.04-.02-5.91,6.76,4.69,2.17,1.26-8.91Z"/>
          <path class="cls-3" d="M600.58,31.04l-.9,1.55-3.68-2.13-7.19,12.43-1.78-1.03,7.19-12.43-3.68-2.13.9-1.55,9.14,5.29Z"/>
          <path class="cls-3" d="M596.19,47.63l-1.7-1.16,9.12-13.34,1.7,1.16-9.12,13.34Z"/>
          <path class="cls-3" d="M603.07,45.2l3.36-4.1c2.04-2.49,4.62-3.04,7.27-.87,2.65,2.17,2.63,4.81.59,7.3l-3.36,4.1c-2.83,3.46-5.23,3.78-7.88,1.61-2.65-2.17-2.81-4.58.02-8.05ZM609.25,50.37l3.46-4.22c2.14-2.61.41-4.17-.09-4.59-.5-.41-2.37-1.8-4.51.82l-3.46,4.22c-2.24,2.74-2.01,4.08-.5,5.31,1.51,1.23,2.87,1.19,5.11-1.54Z"/>
          <path class="cls-3" d="M629.25,55.54l-11.69,11.17-1.95-2.04,5.72-14.3-.03-.03-10.13,9.68-1.27-1.33,11.69-11.17,2.01,2.1-5.66,14.11.03.03,10-9.56,1.27,1.33Z"/>
        </g>
      </g>
    </g>
  </g>
</svg>